<?xml version="1.0" encoding="UTF-8"?>
<svg id="Layer_1" data-name="Layer 1" xmlns="http://www.w3.org/2000/svg" viewBox="0 0 70.53 68.79">
  <defs>
    <style>
      .cls-1 {
        fill: #611123;
      }

      .cls-1, .cls-2 {
        stroke-width: 0px;
      }

      .cls-2 {
        fill: #fff;
      }
    </style>
  </defs>
  <path class="cls-2" d="m2.75,0S0,0,0,3.14v62.51s0,3.14,2.75,3.14h65.04s2.75,0,2.75-3.14V3.14s0-3.14-2.75-3.14H2.75Z"/>
  <g>
    <path class="cls-1" d="m55.04,9.7c-.02-.78-.59-1.32-1.38-1.32s-1.42.59-1.42,1.38c0,.62.34.97,1.26,1.27.62.21.8.36.8.7s-.28.59-.67.59c-.44,0-.7-.27-.74-.79h-.85c.02.98.62,1.6,1.55,1.6.85,0,1.56-.65,1.56-1.43,0-.7-.43-1.18-1.35-1.45-.56-.16-.7-.28-.7-.57,0-.28.23-.48.55-.48s.51.17.57.51h.83Zm-3.97-.44h.75v-.75h-.75v-1.5h-.83v1.5h-.62v.75h.62v3.75h.83v-3.75Zm-1.65,2.27h-.93c-.25.48-.75.8-1.29.8-.8,0-1.45-.71-1.45-1.58s.65-1.55,1.48-1.55c.55,0,.93.25,1.26.82h.93c-.24-.94-1.18-1.63-2.2-1.63-1.3,0-2.32,1.04-2.32,2.37s1,2.38,2.3,2.38c1.02,0,1.88-.61,2.22-1.61m-7.34-2.34c.85,0,1.54.71,1.54,1.58s-.7,1.55-1.55,1.55-1.53-.71-1.53-1.55.68-1.58,1.54-1.58m2.32,3.82v-4.5h-.78v.63c-.3-.45-.92-.75-1.58-.75-1.35,0-2.35,1.02-2.35,2.39s1,2.36,2.29,2.36c.75,0,1.3-.27,1.64-.81v.69h.78Zm-5.82,0v-3.75h.79v-.75h-.79v-.19c0-.36.24-.57.7-.57h.09v-.74h-.1c-.53,0-.8.08-1.09.32-.3.25-.45.58-.45.99v.19h-.4v.75h.4v3.75h.85Zm-6.88-2.63c.17-.75.71-1.19,1.45-1.19.7,0,1.4.57,1.45,1.19h-2.9Zm3.6,1.22h-.85c-.29.47-.74.72-1.27.72-.73,0-1.31-.47-1.48-1.21h3.72c.02-.16.02-.33.02-.42,0-1.26-1.03-2.32-2.28-2.32s-2.31,1.06-2.31,2.38,1.04,2.37,2.29,2.37c.97,0,1.82-.59,2.16-1.53m-4.95,1.41v-2.82c0-1.08-.74-1.81-1.86-1.81-.6,0-.98.17-1.3.58v-1.96h-.83v6h.83v-2.55c0-.78.47-1.27,1.2-1.27s1.09.41,1.09,1.27v2.55h.86Zm-5.16-3.75h.75v-.75h-.75v-1.5h-.83v1.5h-.61v.75h.61v3.75h.83v-3.75Zm-4.02,0h.75v-.75h-.75v-1.5h-.83v1.5h-.61v.75h.61v3.75h.83v-3.75Zm-5.5,1.12c.17-.75.71-1.19,1.45-1.19.7,0,1.4.57,1.45,1.19h-2.9Zm3.6,1.22h-.85c-.29.47-.74.72-1.27.72-.73,0-1.31-.47-1.48-1.21h3.72c.02-.16.02-.33.02-.42,0-1.26-1.03-2.32-2.28-2.32s-2.31,1.06-2.31,2.38,1.04,2.37,2.29,2.37c.98,0,1.82-.59,2.16-1.53m-4.81-1.61h-3.8v.84h2.8c-.37.9-1.14,1.44-2.07,1.44-1.23,0-2.24-1.02-2.24-2.25s1-2.26,2.24-2.26c.62,0,1.09.21,1.64.75h1.02c-.55-1.01-1.57-1.62-2.69-1.62-1.71,0-3.06,1.38-3.06,3.13s1.36,3.12,3.07,3.12c1.01,0,1.95-.48,2.54-1.31.39-.54.55-1.07.57-1.84"/>
    <path class="cls-1" d="m49.02,45.87c.79,0,1.44-.64,1.44-1.44s-.64-1.44-1.44-1.44-1.44.65-1.44,1.44.64,1.44,1.44,1.44"/>
    <path class="cls-1" d="m40.57,39.48c.12-.57.7-1.65,2.19-1.65s2.07,1.08,2.19,1.65h-4.39Zm3.99,2.87c-.4.5-.87.91-1.76.91-1.13,0-2.09-.68-2.26-1.83h7.25c.03-.23.07-.38.07-.77,0-2.94-2.16-5.28-5.1-5.28s-5.07,2.49-5.07,5.19c0,2.88,2.35,5.12,5.12,5.12.99,0,1.95-.3,2.75-.87.82-.56,1.5-1.39,1.97-2.47h-2.96Zm-7.77-3.92c-.24-2.54-2.44-3.05-3.71-3.05-2,0-3.74,1.27-3.74,3.19,0,1.31,1.05,2.12,2.3,2.53,1.85.71,2.56.8,2.56,1.55,0,.47-.52.75-1.01.75-.12,0-.97,0-1.1-.89h-2.87c.26,2.54,2.47,3.21,3.94,3.21,2.14,0,3.94-1.25,3.94-3.29s-1.74-2.58-3.38-3.03c-.77-.23-1.48-.52-1.48-1.04,0-.26.21-.64.82-.64.85,0,.89.52.91.73h2.84Zm-8.41-2.72h-2.89v9.67h2.89v-9.67Zm13.23-5.14h2.89v-4.65h.03l2.73,4.65h3.28l-3.54-5.42,3.64-4.25h-3.43l-2.68,3.5h-.03v-6.72h-2.89v12.89Zm-10.33,0h2.89v-5.26c0-.59,0-2.02,1.66-2.02,1.51,0,1.51,1.32,1.51,2v5.28h2.89v-6.04c0-1.9-.59-2.67-1.11-3.12-.52-.45-1.55-.84-2.47-.84-1.73,0-2.34.89-2.63,1.36h-.03v-1.03h-2.7v9.67Zm-1.46-9.67h-2.89v9.67h2.89v-9.67Zm-9.1,9.67h2.89v-5.31c0-1.46.94-1.74,2.28-1.78v-2.91c-1.67,0-2.18.89-2.42,1.36h-.03v-1.03h-2.72v9.67Zm-8.88-10h1.43c1.46,0,2.12.61,2.51,1.18.47.73.63,1.65.63,2.39,0,1.83-.7,3.54-3.15,3.54h-1.41v-7.11Zm-2.99,10h4.21c4.9,0,6.64-2.96,6.64-6.48,0-1.41-.3-2.79-1.18-4.01-1.67-2.4-4.25-2.4-5.7-2.4h-3.96v12.89Z"/>
    <path class="cls-1" d="m28.37,19.94c.79,0,1.44-.64,1.44-1.44s-.64-1.44-1.44-1.44-1.44.65-1.44,1.44.64,1.44,1.44,1.44"/>
    <path class="cls-1" d="m27.05,34.75c.79,0,1.44-.64,1.44-1.44s-.64-1.44-1.44-1.44-1.44.65-1.44,1.44.64,1.44,1.44,1.44"/>
    <g>
      <path class="cls-1" d="m60.96,49.2h-2.78v5.11c0,1.48-.79,1.89-1.59,1.89-1.49,0-1.49-1.22-1.49-1.86v-5.15h-2.78v5.57c0,1.27.1,1.94.84,2.87.82,1.04,2.16,1.17,2.73,1.17.7,0,1.84-.1,2.41-1.29h.03v.99h2.63v-9.31Zm-17.32,4.68c0-1.06.7-2.4,2.3-2.4s2.35,1.24,2.35,2.36c0,.91-.59,2.38-2.33,2.38s-2.31-1.48-2.31-2.35m7.43-4.68h-2.78v.99h-.03c-.33-.57-1.19-1.31-2.72-1.31-2.48,0-4.68,1.91-4.68,4.96,0,2.67,1.73,4.98,4.68,4.98,1.09,0,2.25-.42,2.72-1.32h.03v1.01h2.78v-9.31Zm-22.81,4.61c0-1.36,1.06-2.31,2.25-2.31s2.26.91,2.26,2.4c0,1.34-.94,2.31-2.28,2.31-1.16,0-2.23-.9-2.23-2.4m7.29-4.61h-2.78v.87h-.03c-.5-.8-1.53-1.17-2.57-1.17-2.42,0-4.69,1.83-4.69,5.01,0,2.98,2.16,4.9,4.69,4.9,1.46,0,2.26-.79,2.55-1.32h.03v.29c0,2.5-1.91,2.53-2.26,2.53-.19,0-1.22,0-1.63-.92h-3.22c.18,1.32,1.41,3.27,4.64,3.27,2.3,0,3.99-1.02,4.71-2.2.45-.79.55-1.68.55-3.07v-8.18Zm-15.62,9.31h2.78v-5.11c0-1.41.91-1.68,2.2-1.71v-2.8c-1.61,0-2.1.86-2.33,1.31h-.03v-.99h-2.62v9.31Zm-8.35-4.66c0-1.36,1.02-2.35,2.23-2.35s2.23.99,2.23,2.35-1.02,2.35-2.23,2.35-2.23-.99-2.23-2.35m-2.78,0c0,2.28,1.63,4.95,5.01,4.95s5.01-2.67,5.01-4.95-1.63-4.95-5.01-4.95-5.01,2.67-5.01,4.95"/>
      <path class="cls-1" d="m38.54,58.61c.82,0,1.48-.66,1.48-1.48s-.66-1.48-1.48-1.48-1.48.66-1.48,1.48.66,1.48,1.48,1.48"/>
    </g>
    <polygon class="cls-1" points="9 32.94 12.2 45.35 15.07 45.35 16.93 37.32 16.97 37.32 18.83 45.35 21.61 45.35 24.9 32.94 21.69 32.94 20 41.04 19.97 41.04 18.17 32.94 15.74 32.94 13.91 41 13.88 41 12.22 32.94 9 32.94"/>
  </g>
</svg>