<?xml version="1.0" encoding="UTF-8"?>
<svg width="188.664472px" height="235.114px" viewBox="0 0 188.664472 235.114" version="1.1" xmlns="http://www.w3.org/2000/svg" xmlns:xlink="http://www.w3.org/1999/xlink">
    <title>Group</title>
    <g id="Page-1" stroke="none" stroke-width="1" fill="none" fill-rule="evenodd">
        <g id="Group" transform="translate(-0.000000, 0.000000)" fill-rule="nonzero">
            <path d="M133.936472,6.94 C134.943472,6.954 138.583472,6.778 139.620472,6.779 C143.272472,6.227 145.857472,8.941 146.930472,12.195 C148.542472,16.286 147.508472,23.061 147.509472,27.452 C145.821472,71.967 143.674472,119.282 141.013472,163.734 L140.790472,167.525 C140.456472,173.234 136.114472,178.353 130.575472,179.679 C129.296472,180.06 127.802472,180.077 126.474472,180.07524 C109.197472,179.944 90.6394717,179.793 73.4164717,179.523 C58.8024717,179.37 42.6334717,179.161 27.9384717,179.165 L20.3524717,179.157 C17.7204717,179.124 15.1204717,178.2 13.0364717,176.604 C9.87047173,174.259 7.94347173,170.319 7.95047173,166.395 C7.94947173,166.395 7.70947173,162.612 7.70947173,162.612 C4.29747173,115.146 1.69947173,66.29 0.032471733,18.803 C-0.298528267,13.92 1.87647173,6.895 7.68547173,6.715 L15.2644717,6.94 C15.3474717,6.942 15.4124717,7.011 15.4104717,7.094 C15.4074717,7.174 15.3424717,7.238 15.2634717,7.24 L7.68347173,7.417 C2.45347173,7.867 0.920471733,14.31 1.36747173,18.732 C4.28247173,61.039 6.90247173,104.913 8.35647173,147.397 L8.94047173,162.547 L9.10147173,166.334 C9.05347173,170.05 10.6764717,173.57 13.6284717,175.832 C17.6724717,179.145 23.0974717,178.096 27.9384717,178.239 C42.6724717,178.15 58.7764717,178.121 73.4164717,177.88 C91.2434717,177.601 110.383472,177.484 128.250472,177.275 C133.294472,176.854 137.627472,172.418 137.858472,167.354 C137.859472,167.354 138.043472,163.577 138.043472,163.577 C140.099472,119.095 142.961472,71.809 145.994472,27.372 C146.058472,25.228 146.780472,18.274 146.648472,16.099 C146.440472,12.719 145.161472,8.307 141.466472,7.445 C140.513472,7.38 138.747472,7.328 137.727472,7.321 L133.937472,7.24 C133.745472,7.25 133.752472,6.933 133.936472,6.94" id="Fill-4" fill="#FFFFFE"></path>
            <path d="M35.4354717,34.642 C35.4354717,32.256 33.5674717,30.077 31.2844717,30.077 L27.3414717,30.077 C26.7184717,30.077 26.1994717,30.492 26.1994717,31.114 L26.1994717,47.615 C26.1994717,48.133 26.7184717,48.548 27.3414717,48.548 L31.2844717,48.548 C33.5674717,48.548 35.4354717,46.681 35.4354717,44.397 L35.4354717,34.642 Z M46.5394717,92.653 C46.7464717,93.587 46.0204717,93.794 45.3984717,93.794 L38.5484717,93.794 C37.9264717,93.794 37.5114717,93.275 37.3034717,92.653 L30.3504717,58.303 C30.2464717,57.888 29.8314717,57.577 29.3134717,57.577 L27.3414717,57.577 C26.7184717,57.577 26.1994717,57.992 26.1994717,58.615 L26.1994717,92.653 C26.1994717,93.275 25.7844717,93.794 25.1614717,93.794 L18.4164717,93.794 C17.7934717,93.794 17.2754717,93.275 17.2754717,92.653 L17.2754717,22.189 C17.2754717,21.567 17.7934717,21.048 18.4164717,21.048 L34.2934717,21.048 C39.8984717,21.048 44.4644717,25.926 44.4644717,31.529 L44.4644717,47.407 C44.4644717,50.935 42.5964717,53.945 39.7944717,55.813 C39.3784717,56.124 39.1714717,56.643 39.3784717,57.473 L46.5394717,92.653 L46.5394717,92.653 Z" id="Fill-5" fill="#FFFFFE"></path>
            <path d="M80.3684717,81.341 C80.3684717,91.823 73.6234717,95.247 66.7734717,95.247 C60.0284717,95.247 53.1794717,91.823 53.1794717,81.341 L53.1794717,22.189 C53.1794717,21.256 54.1134717,21.152 54.3204717,21.152 L60.9624717,21.152 C61.5854717,21.152 62.1044717,21.567 62.1044717,22.189 L62.1044717,81.03 C62.1044717,83.52 62.8304717,86.011 66.7734717,86.011 C70.7174717,86.011 71.4434717,83.52 71.4434717,81.03 L71.4434717,22.189 C71.4434717,21.256 72.3774717,21.152 72.5854717,21.152 L79.2274717,21.152 C79.8504717,21.152 80.3684717,21.567 80.3684717,22.189 L80.3684717,81.341" id="Fill-6" fill="#FFFFFE"></path>
            <path d="M131.112472,22.086 L131.112472,92.653 C131.112472,93.275 130.594472,93.794 130.075472,93.794 L123.329472,93.794 C122.707472,93.794 122.188472,93.275 122.188472,92.653 L122.188472,49.586 L112.537472,87.36 C112.433472,87.983 112.122472,88.502 111.499472,88.502 L107.348472,88.502 C106.726472,88.502 106.311472,87.983 106.206472,87.36 L96.5564717,49.586 C96.5564717,68.058 96.5564717,92.653 96.5564717,92.653 C96.5564717,93.275 96.1414717,93.794 95.5184717,93.794 L88.7734717,93.794 C88.1494717,93.794 87.6314717,93.275 87.6314717,92.653 L87.6314717,22.086 C87.6314717,21.463 88.1494717,21.048 88.7734717,21.048 L96.7634717,21.048 C97.1784717,21.048 97.6974717,21.152 97.8014717,21.567 C98.2164717,23.02 109.424472,70.964 109.424472,70.964 C109.424472,70.964 120.631472,23.02 121.046472,21.567 C121.150472,21.152 121.565472,21.048 121.981472,21.048 L130.075472,21.048 C130.594472,21.048 131.112472,21.463 131.112472,22.086" id="Fill-7" fill="#FFFFFE"></path>
            <path d="M21.7794717,3.069 C21.7794717,2.554 21.6224717,1.994 20.7724717,1.994 C19.9204717,1.994 19.7644717,2.554 19.7644717,3.069 L19.7644717,13.261 C19.7644717,13.776 19.9204717,14.314 20.7724717,14.314 C21.6224717,14.314 21.7794717,13.776 21.7794717,13.261 L21.7794717,3.069 Z M24.1984717,15.837 L23.1684717,16.867 C23.0784717,16.957 22.9224717,16.957 22.8104717,16.867 L22.0484717,16.106 C21.6454717,16.263 21.2204717,16.329 20.7724717,16.329 C19.3164717,16.329 17.8374717,15.568 17.8374717,13.328 L17.8374717,3.002 C17.8374717,0.739 19.3164717,0 20.7724717,0 C22.2504717,0 23.7064717,0.739 23.7064717,3.002 L23.7064717,13.328 C23.7064717,13.888 23.6164717,14.358 23.4594717,14.762 L24.1984717,15.501 C24.2884717,15.59 24.2884717,15.747 24.1984717,15.837 L24.1984717,15.837 Z" id="Fill-8" fill="#FFFFFE"></path>
            <path d="M35.5134717,13.328 C35.5134717,15.59 34.0574717,16.329 32.5784717,16.329 C31.1224717,16.329 29.6444717,15.59 29.6444717,13.328 L29.6444717,0.56 C29.6444717,0.358 29.8454717,0.336 29.8904717,0.336 L31.3234717,0.336 C31.4584717,0.336 31.5704717,0.426 31.5704717,0.56 L31.5704717,13.261 C31.5704717,13.798 31.7274717,14.336 32.5784717,14.336 C33.4294717,14.336 33.5864717,13.798 33.5864717,13.261 L33.5864717,0.56 C33.5864717,0.358 33.7874717,0.336 33.8324717,0.336 L35.2664717,0.336 C35.4004717,0.336 35.5134717,0.426 35.5134717,0.56 L35.5134717,13.328" id="Fill-9" fill="#FFFFFE"></path>
            <path d="M43.8254717,14.09 L47.1184717,14.09 C47.2744717,14.09 47.4094717,14.202 47.4094717,14.381 L47.4094717,15.68 C47.4094717,15.859 47.2744717,16.016 47.0964717,16.016 L41.8764717,16.016 C41.6974717,16.016 41.5634717,15.859 41.5634717,15.68 L41.5634717,0.65 C41.5634717,0.471 41.6974717,0.336 41.8764717,0.336 L47.1184717,0.336 C47.2974717,0.336 47.4324717,0.471 47.4324717,0.65 L47.4324717,1.971 C47.4324717,2.15 47.2974717,2.285 47.1184717,2.285 L43.8034717,2.285 C43.6244717,2.285 43.4894717,2.419 43.4894717,2.598 L43.4894717,6.675 C43.4894717,6.854 43.6244717,6.989 43.8034717,6.989 L46.4464717,6.989 C46.6254717,6.989 46.7604717,7.123 46.7604717,7.303 L46.7604717,8.601 C46.7604717,8.781 46.6254717,8.915 46.4464717,8.915 L43.8034717,8.915 C43.6024717,8.915 43.4894717,9.05 43.4894717,9.229 L43.4894717,13.776 C43.4894717,13.955 43.6474717,14.09 43.8254717,14.09" id="Fill-10" fill="#FFFFFE"></path>
            <path d="M55.2974717,14.09 L58.5904717,14.09 C58.7464717,14.09 58.8814717,14.202 58.8814717,14.381 L58.8814717,15.68 C58.8814717,15.859 58.7464717,16.016 58.5674717,16.016 L53.3494717,16.016 C53.1694717,16.016 53.0344717,15.859 53.0344717,15.68 L53.0344717,0.65 C53.0344717,0.471 53.1694717,0.336 53.3494717,0.336 L58.5904717,0.336 C58.7694717,0.336 58.9034717,0.471 58.9034717,0.65 L58.9034717,1.971 C58.9034717,2.15 58.7694717,2.285 58.5904717,2.285 L55.2744717,2.285 C55.0964717,2.285 54.9614717,2.419 54.9614717,2.598 L54.9614717,6.675 C54.9614717,6.854 55.0964717,6.989 55.2744717,6.989 L57.9184717,6.989 C58.0974717,6.989 58.2324717,7.123 58.2324717,7.303 L58.2324717,8.601 C58.2324717,8.781 58.0974717,8.915 57.9184717,8.915 L55.2744717,8.915 C55.0734717,8.915 54.9614717,9.05 54.9614717,9.229 L54.9614717,13.776 C54.9614717,13.955 55.1184717,14.09 55.2974717,14.09" id="Fill-11" fill="#FFFFFE"></path>
            <path d="M69.2094717,0.56 C69.2094717,0.426 69.2994717,0.314 69.4344717,0.314 L70.8904717,0.314 C71.0234717,0.314 71.1364717,0.426 71.1364717,0.56 L71.1364717,15.769 C71.1364717,15.882 71.0234717,15.994 70.8904717,15.994 L69.5004717,15.994 C69.3664717,15.994 69.2544717,15.882 69.2094717,15.769 C68.9184717,14.672 67.3064717,9.408 66.4324717,6.138 L66.4324717,15.769 C66.4324717,15.904 66.3424717,16.016 66.2084717,16.016 L64.7524717,16.016 C64.6174717,16.016 64.5054717,15.904 64.5054717,15.769 L64.5054717,0.537 C64.5054717,0.403 64.6174717,0.314 64.7524717,0.314 L66.2534717,0.314 C66.3424717,0.314 66.4544717,0.336 66.4774717,0.426 L69.2094717,10.461 L69.2094717,0.56" id="Fill-12" fill="#FFFFFE"></path>
            <path d="M80.0094717,2.106 C79.3374717,2.106 78.8214717,2.665 78.8214717,3.539 C78.8214717,6.429 83.3474717,8.265 83.3474717,12.208 C83.3474717,13.731 82.3844717,16.173 79.9414717,16.173 C78.1274717,16.173 76.7614717,14.986 76.7384717,12.589 L76.7384717,12.051 C76.7384717,11.917 76.8514717,11.805 76.9854717,11.805 L78.4194717,11.805 C78.5534717,11.805 78.6654717,11.917 78.6654717,12.051 L78.6654717,12.522 C78.6654717,13.619 79.2704717,14.246 80.0094717,14.246 C80.7484717,14.246 81.3534717,13.597 81.3534717,12.119 C81.3534717,8.982 76.7384717,7.482 76.7384717,3.539 C76.7384717,1.59 78.1724717,0.179 79.9194717,0.179 C81.6894717,0.179 83.1014717,1.59 83.1014717,3.315 C83.1014717,3.45 83.0114717,3.562 82.8764717,3.562 L81.4204717,3.562 C81.2864717,3.562 81.1744717,3.45 81.1744717,3.315 C81.1744717,2.665 80.7034717,2.106 80.0094717,2.106" id="Fill-13" fill="#FFFFFE"></path>
            <path d="M94.5264717,14.067 C94.6834717,14.067 94.8404717,14.179 94.8404717,14.381 L94.8404717,15.68 C94.8404717,15.859 94.7734717,16.016 94.5264717,16.016 L89.2844717,16.016 C89.1504717,16.016 88.9484717,15.859 88.9484717,15.68 L88.9484717,0.493 C88.9484717,0.493 88.9264717,0.336 89.1504717,0.336 L90.7404717,0.336 C90.9204717,0.336 90.9204717,0.493 90.9204717,0.493 L90.9204717,13.754 C90.9204717,13.754 90.9204717,14.067 91.2334717,14.067 L94.5264717,14.067" id="Fill-14" fill="#FFFFFE"></path>
            <path d="M102.212472,12.163 L103.578472,12.163 C103.668472,12.163 103.758472,12.074 103.735472,11.984 L102.884472,2.487 L102.033472,11.984 C102.033472,12.096 102.122472,12.163 102.212472,12.163 Z M101.540472,0.537 C101.585472,0.403 101.652472,0.291 101.786472,0.291 L104.004472,0.291 C104.139472,0.291 104.206472,0.403 104.228472,0.537 C104.250472,0.605 106.177472,15.411 106.222472,15.769 C106.244472,15.971 106.132472,16.016 105.998472,16.016 L104.520472,16.016 C104.385472,16.016 104.317472,15.904 104.295472,15.769 C104.273472,15.635 104.206472,15.232 104.049472,14.09 C104.026472,14 103.981472,13.933 103.870472,13.933 L101.898472,13.933 C101.809472,13.933 101.764472,14 101.741472,14.09 L101.495472,15.769 C101.473472,15.904 101.383472,16.016 101.249472,16.016 L99.7934717,16.016 C99.6584717,16.016 99.5244717,15.971 99.5474717,15.769 L101.540472,0.537 L101.540472,0.537 Z" id="Fill-15" fill="#FFFFFE"></path>
            <path d="M116.415472,0.56 C116.415472,0.426 116.505472,0.314 116.640472,0.314 L118.096472,0.314 C118.230472,0.314 118.342472,0.426 118.342472,0.56 L118.342472,15.769 C118.342472,15.882 118.230472,15.994 118.096472,15.994 L116.706472,15.994 C116.572472,15.994 116.460472,15.882 116.415472,15.769 C116.124472,14.672 114.512472,9.408 113.638472,6.138 L113.638472,15.769 C113.638472,15.904 113.548472,16.016 113.414472,16.016 L111.958472,16.016 C111.823472,16.016 111.711472,15.904 111.711472,15.769 L111.711472,0.537 C111.711472,0.403 111.823472,0.314 111.958472,0.314 L113.458472,0.314 C113.548472,0.314 113.660472,0.336 113.683472,0.426 L116.415472,10.461 L116.415472,0.56" id="Fill-16" fill="#FFFFFE"></path>
            <path d="M126.856472,14.09 L127.731472,14.09 C128.245472,14.09 128.671472,13.686 128.671472,13.194 L128.671472,3.203 C128.671472,2.71 128.245472,2.24 127.731472,2.24 L126.789472,2.24 C126.655472,2.24 126.543472,2.329 126.543472,2.464 L126.543472,13.776 C126.543472,13.955 126.678472,14.09 126.856472,14.09 Z M124.616472,0.65 C124.616472,0.471 124.751472,0.336 124.931472,0.336 L128.290472,0.336 C129.500472,0.336 130.485472,1.389 130.485472,2.576 L130.485472,13.866 C130.485472,15.053 129.410472,16.016 128.200472,16.016 L124.931472,16.016 C124.751472,16.016 124.616472,15.904 124.616472,15.725 L124.616472,0.65 L124.616472,0.65 Z" id="Fill-17" fill="#FFFFFE"></path>
            <path d="M24.3494717,144.08 L27.2454717,144.08 C28.9534717,144.08 30.3634717,142.744 30.3634717,141.11 L30.3634717,107.995 C30.3634717,106.361 28.9534717,104.803 27.2454717,104.803 L24.1274717,104.803 C23.6814717,104.803 23.3104717,105.099 23.3104717,105.545 L23.3104717,143.041 C23.3104717,143.635 23.7554717,144.08 24.3494717,144.08 Z M16.9244717,99.53 C16.9244717,98.936 17.3704717,98.491 17.9634717,98.491 L29.1014717,98.491 C33.1114717,98.491 36.3784717,101.98 36.3784717,105.916 L36.3784717,143.338 C36.3784717,147.272 32.8144717,150.466 28.8044717,150.466 L17.9634717,150.466 C17.3704717,150.466 16.9244717,150.095 16.9244717,149.5 L16.9244717,99.53 L16.9244717,99.53 Z" id="Fill-18" fill="#DE812E"></path>
            <path d="M47.8114717,137.694 L52.3404717,137.694 C52.6374717,137.694 52.9354717,137.397 52.8614717,137.1 L50.0394717,105.619 L47.2174717,137.1 C47.2174717,137.471 47.5144717,137.694 47.8114717,137.694 Z M45.5844717,99.159 C45.7334717,98.714 45.9564717,98.343 46.4014717,98.343 L53.7524717,98.343 C54.1974717,98.343 54.4194717,98.714 54.4944717,99.159 C54.5684717,99.382 60.9544717,148.461 61.1024717,149.648 C61.1764717,150.317 60.8054717,150.466 60.3604717,150.466 L55.4604717,150.466 C55.0134717,150.466 54.7914717,150.095 54.7164717,149.648 C54.6424717,149.203 54.4194717,147.867 53.9004717,144.08 C53.8264717,143.783 53.6774717,143.56 53.3064717,143.56 L46.7724717,143.56 C46.4754717,143.56 46.3274717,143.783 46.2524717,144.08 L45.4354717,149.648 C45.3614717,150.095 45.0644717,150.466 44.6194717,150.466 L39.7924717,150.466 C39.3474717,150.466 38.9024717,150.317 38.9764717,149.648 L45.5844717,99.159 L45.5844717,99.159 Z" id="Fill-19" fill="#DE812E"></path>
            <path d="M62.2164717,99.307 C62.1424717,98.788 62.5874717,98.491 63.0334717,98.491 L67.3394717,98.491 C67.9334717,98.491 68.5284717,98.936 68.6024717,99.679 L73.2054717,126.483 L77.6594717,99.679 C77.8084717,98.936 78.2544717,98.491 78.8484717,98.491 L83.3034717,98.491 C83.8974717,98.491 84.2684717,98.862 84.0454717,99.679 L76.3234717,136.878 L76.3234717,149.426 C76.3234717,150.02 75.8784717,150.466 75.2844717,150.466 L71.0524717,150.466 C70.4584717,150.466 70.0124717,150.02 70.0124717,149.426 L70.0124717,136.878 L62.2164717,99.307" id="Fill-20" fill="#DE812E"></path>
            <path d="M129.759472,163.384 C126.553472,163.918 121.457472,164.727 121.158472,165.432 C120.858472,166.137 124.478472,165.297 128.106472,165.307 C131.734472,165.318 132.849472,165.084 132.870472,164.02 C132.891472,162.955 132.964472,162.851 129.759472,163.384" id="Fill-29" fill="#FFFFFE"></path>
            <path d="M102.508472,96.226 C100.114472,96.3 90.0804717,95.715 89.6584717,98.853 C88.4744717,107.64 88.8054717,122.171 89.6154717,131.031 C89.7834717,132.867 89.6184717,134.728 89.6294717,136.578 C89.6614717,141.989 89.6984717,147.399 89.7484717,152.81 C89.7924717,157.619 90.0704717,162.323 90.0834717,167.184 C90.0854717,167.917 90.3714717,168.312 91.1244717,168.486 C92.7644717,168.87 94.4104717,169.239 96.0714717,169.543 C104.202472,171.018 120.836472,171.063 130.535472,170.454 C132.514472,170.33 134.496472,170.136 136.471472,170.159 C139.758472,170.19 142.989472,169.695 146.226472,169.28 C148.007472,169.053 149.285472,168.143 149.842472,166.444 C150.082472,165.707 150.201472,164.984 150.208472,164.233 C150.248472,160.396 150.278472,156.559 150.319472,152.722 C150.326472,152.125 150.359472,151.528 150.395472,150.932 C151.335472,135.637 151.553472,118.248 151.847472,102.816 C151.865472,101.858 152.192472,99.731 150.572472,99.485 C148.595472,99.186 146.805472,97.996 144.814472,97.792 C141.607472,97.462 138.392472,97.176 135.171472,96.998 C123.476472,96.354 114.331472,95.87 102.508472,96.226" id="Fill-30" fill="#621E2A"></path>
            <path d="M150.349472,125.371 C144.119472,125.268 137.889472,125.163 131.659472,125.059 C128.098472,125.149 124.537472,125.24 120.976472,125.331 C118.399472,125.192 115.823472,125.053 113.246472,124.914 C107.981472,125.096 102.716472,125.278 97.4524717,125.461 C94.7834717,125.087 93.4554717,124.042 90.7854717,123.669 C90.8274717,124.119 89.6984717,124.726 89.3964717,125.347 C89.1094717,125.94 89.6484717,126.549 89.6884717,126.979 C90.2064717,136.084 89.4564717,152.822 89.9744717,161.926 C91.4714717,162.492 94.0254717,163.61 95.5224717,164.176 C97.9814717,164.599 101.666472,165.568 104.125472,165.991 C114.026472,166.495 119.143472,166.987 128.759472,166.864 C132.581472,166.815 138.505472,165.583 142.936472,165.003 C145.789472,164.629 147.970472,163.379 150.086472,162.887 C150.350472,159.956 149.813472,149.663 150.076472,146.731 C150.235472,143.546 151.183472,129.251 150.349472,125.371" id="Fill-31" fill="#C36A2E"></path>
            <path d="M148.246472,125.371 C142.447472,125.267 136.649472,125.163 130.851472,125.059 C127.537472,125.149 124.223472,125.24 120.908472,125.331 C118.510472,125.192 116.112472,125.053 113.714472,124.914 C108.814472,125.096 103.914472,125.278 99.0144717,125.46 C96.5304717,125.087 95.2944717,124.043 92.8094717,123.669 C92.8484717,124.119 91.7974717,124.726 91.5174717,125.347 C91.2494717,125.941 91.7514717,126.549 91.7884717,126.979 C92.2704717,136.083 91.5734717,144.838 92.0554717,153.943 C93.4484717,154.508 96.0204717,155.423 97.4134717,155.988 C99.7024717,156.411 101.991472,156.834 104.280472,157.256 C113.495472,157.761 119.954472,158.049 128.903472,157.925 C132.460472,157.877 136.828472,156.612 141.347472,157.003 C144.024472,156.959 145.621472,156.339 147.591472,155.847 C147.836472,152.915 147.747472,149.663 147.993472,146.731 C148.140472,143.546 149.023472,129.251 148.246472,125.371" id="Fill-32" fill="#D7762D"></path>
            <polyline id="Fill-33" fill="#E9EAC0" points="126.137472 125.733 130.906472 121.148 124.610472 114.641 110.027472 109.507 103.229472 114.661 98.0134717 118.589 103.874472 123.862 126.137472 125.733"></polyline>
            <path d="M146.938472,151.374 C146.157472,149.668 146.909472,146.306 146.128472,144.6 C145.676472,144.755 127.329472,125.606 126.416472,126.888 C117.418472,139.525 137.608472,147.347 141.684472,147.106 C144.321472,146.95 139.090472,150.003 137.947472,150.396 C133.071472,152.014 127.319472,152.201 125.421472,152.373 C123.103472,152.837 120.784472,153.301 118.465472,153.765 C116.981472,152.73 115.496472,151.696 114.011472,150.661 C112.647472,148.533 111.282472,146.405 109.918472,144.277 C107.282472,144.069 104.645472,143.861 102.009472,143.653 C102.200472,144.427 95.6604717,147.516 95.8324717,148.293 C95.9964717,149.032 99.8124717,146.265 101.553472,146.468 C103.560472,146.703 103.529472,149.896 103.757472,150.747 C101.068472,150.767 98.3794717,150.787 95.6904717,150.806 C95.5774717,151.635 96.1814717,155.456 97.2154717,155.694 C111.243472,158.926 119.647472,157.391 130.751472,157.014 C135.095472,156.344 139.439472,155.674 143.783472,155.004 L146.938472,151.374" id="Fill-34" fill="#AC4E2D"></path>
            <path d="M121.977472,132.289 L118.435472,137.824 L115.900472,140.167 L110.154472,140.421 L109.122472,141.963 L112.880472,149.161 L116.133472,152.118 L119.991472,153.277 L134.475472,151.108 L141.257472,148.24 L139.245472,147.573 L136.645472,147.936 L133.589472,149.023 C131.452472,148.317 127.269472,145.305 124.536472,141.297 C121.874472,137.394 120.613472,132.485 121.977472,132.289" id="Fill-35" fill="#E2882E"></path>
            <path d="M110.826472,140.053 L109.209472,142.416 C108.292472,142.688 105.066472,139.35 104.149472,139.621 C104.308472,139.661 104.467472,139.699 104.624472,139.739 C102.862472,140.237 101.765472,140.87 97.2374717,140.815 C95.8464717,139.938 95.0234717,138.683 94.8044717,137.029 C94.9724717,133.061 95.1484717,128.704 95.3164717,124.736 C97.0864717,126.282 98.9174717,127.896 102.156472,127.674 C100.960472,128.152 100.216472,128.329 98.8744717,128.058 C98.4604717,127.974 97.3854717,127.84 97.4614717,128.3 C97.6084717,129.19 98.2784717,131.262 98.1544717,132.068 C98.1574717,132.056 99.7184717,133.154 100.476472,133.353 C101.963472,133.743 103.371472,135.829 104.326472,136.914 C105.578472,138.338 109.117472,139.623 110.826472,140.053" id="Fill-36" fill="#B0582E"></path>
            <path d="M114.249472,128.921 C114.212472,128.386 112.532472,127.948 112.495472,127.413 C112.079472,127.24 112.769472,128.919 114.700472,128.843 C116.637472,128.766 119.820472,126.934 120.716472,126.807 C121.983472,126.628 121.315472,125.842 122.903472,125.518 C125.483472,124.994 130.190472,125.131 129.751472,124.854 C129.698472,124.821 132.275472,123.055 130.865472,122.533 C130.542472,122.414 129.804472,119.557 129.184472,119.733 C128.616472,119.895 128.614472,122.582 127.950472,123.124 C126.160472,124.588 123.453472,125.1 122.574472,125.102 C119.970472,125.108 118.234472,124.068 114.969472,124.471 C112.663472,124.754 111.531472,123.26 109.806472,122.542 C109.287472,122.722 107.938472,124.964 106.984472,123.942 C106.358472,123.272 105.661472,121.931 105.129472,121.524 C104.022472,120.679 103.602472,121.789 102.508472,120.677 C101.784472,119.942 101.824472,117.93 100.944472,117.842 C98.2154717,117.57 98.3124717,119.613 98.5084717,120.499 C98.4024717,121.51 96.4014717,126.98 97.5014717,130.361 C98.4904717,130.452 97.4554717,129.848 98.6624717,129.35 C100.607472,128.548 102.659472,127.454 104.256472,127.601 C110.040472,125.3 110.797472,129.165 114.249472,128.921" id="Fill-37" fill="#DEB774"></path>
            <path d="M143.649472,128.329 C143.873472,128.342 146.172472,129.409 146.415472,129.62 C147.021472,130.147 147.777472,131.254 148.251472,131.951 C148.762472,132.701 149.188472,133.017 149.051472,134.068 C149.006472,134.409 148.175472,136.911 147.961472,137.265 C147.553472,137.94 146.938472,140.372 146.439472,141.421 C145.852472,142.655 145.918472,142.778 144.996472,143.847 C144.592472,144.314 143.377472,141.172 142.933472,141.201 C142.300472,141.242 140.508472,142.273 140.429472,141.692 C140.200472,140.018 140.431472,139.257 140.318472,137.752 C140.210472,136.312 140.635472,134.9 140.522472,133.719 C140.383472,132.252 140.916472,130.914 141.205472,129.489 C141.388472,128.587 142.235472,127.55 143.192472,128.237 C143.199472,128.242 143.595472,128.326 143.649472,128.329" id="Fill-38" fill="#E2882E"></path>
            <path d="M128.904472,143.371 C128.867472,142.836 127.188472,142.398 127.150472,141.862 C124.280472,140.668 121.409472,139.473 118.539472,138.279 C116.675472,138.725 117.105472,139.272 115.241472,139.718 C114.082472,139.996 112.287472,139.099 111.129472,139.376 C111.023472,140.387 108.051472,140.106 109.149472,143.487 C111.734472,143.726 117.173472,143.476 119.758472,143.714 C125.542472,141.414 125.452472,143.615 128.904472,143.371 Z M98.3354717,130.4 C98.6134717,132.076 98.5374717,133.297 100.347472,133.772 C101.340472,134.032 102.200472,134.854 102.837472,135.579 C103.847472,136.727 103.517472,137.248 105.624472,137.488 C106.068472,137.538 106.045472,137.324 106.582472,136.93 C107.312472,136.395 107.603472,135.49 108.886472,134.765 C109.469472,134.436 111.234472,132.974 111.551472,132.382 C112.070472,131.41 113.302472,130.826 111.294472,130.037 C110.617472,129.772 102.482472,129.563 101.740472,129.871 C100.773472,130.272 100.271472,130.438 99.2784717,130.238 C99.0024717,130.182 98.2844717,130.092 98.3354717,130.4 L98.3354717,130.4 Z" id="Fill-39" fill="#E6A45A"></path>
            <path d="M137.583472,125.036 C139.486472,125.474 142.796472,125.699 144.761472,125.272 C145.849472,125.035 147.763472,125.018 148.759472,125.594 C149.593472,126.076 148.682472,126.231 148.952472,127.654 C149.035472,128.092 148.930472,130.52 148.492472,130.52 C148.150472,130.52 146.780472,129.173 146.017472,128.692 C144.301472,127.61 144.396472,128.072 143.008472,127.457 C138.495472,125.456 136.106472,127.424 132.431472,125.626 C129.758472,124.318 130.379472,125.05 131.685472,125.089 C133.286472,125.136 136.115472,124.699 137.583472,125.036" id="Fill-40" fill="#B0582E"></path>
            <path d="M109.738472,110.231 C112.489472,110.231 109.295472,113.448 109.300472,113.595 C109.381472,116.198 111.860472,119.43 111.601472,120.44 C111.513472,120.786 110.881472,122.009 110.444472,121.097 C109.733472,119.616 108.986472,119.801 108.411472,117.296 C107.814472,114.699 106.693472,113.026 108.673472,110.425 C108.676472,110.422 109.703472,110.231 109.738472,110.231" id="Fill-41" fill="#FFFFFE"></path>
            <path d="M128.242472,117.976 C128.414472,118.351 129.503472,119.658 128.163472,119.509 C127.854472,119.475 125.627472,115.929 124.133472,115.524 C122.092472,114.971 121.561472,114.872 119.430472,114.53 C118.495472,114.381 113.180472,111.862 115.030472,111.939 C117.025472,112.023 116.818472,112.582 118.575472,113.114 C120.439472,113.678 122.119472,114.333 124.143472,114.498 C124.704472,114.544 126.896472,115.674 127.270472,116.439 C127.412472,116.73 128.182472,117.845 128.242472,117.976" id="Fill-42" fill="#FFFFFE"></path>
            <path d="M141.770472,140.528 L141.599472,147.108 C140.482472,147.143 138.292472,146.633 135.828472,145.633 C135.902472,142.124 135.981472,138.542 136.062472,134.951 C138.064472,136.885 140.075472,138.867 141.770472,140.528" id="Fill-43" fill="#CEC7B3"></path>
            <path d="M127.866472,138.73 C122.311472,135.476 115.898472,128.177 110.343472,124.923 C110.267472,126.156 89.7314717,120.641 89.7654717,121.649 C89.7884717,122.359 89.5464717,124.423 89.9944717,126.923 C90.1784717,127.947 93.0064717,128.345 94.1174717,128.824 C100.449472,131.552 104.642472,130.53 105.191472,131.472 C107.725472,135.825 116.884472,138.773 124.087472,142.305 C124.672472,142.592 124.207472,144.292 124.754472,144.588 C129.230472,144.763 128.576472,140.098 127.866472,138.73" id="Fill-44" fill="#B0582E"></path>
            <path d="M148.861472,137.593 C148.852472,137.981 149.482472,138.023 149.489472,137.598 C149.495472,137.169 148.870472,137.176 148.861472,137.593 Z M149.046472,138.518963 C148.765472,138.522 148.759472,138.806 148.758472,139.011 C148.757472,139.383 148.758472,139.755 148.758472,140.127 C148.762472,140.127 148.766472,140.127 148.769472,140.127 C148.779472,140.543 148.787472,140.96 148.799472,141.376 C148.810472,141.753 149.164472,141.793 149.254472,141.42 C149.394472,140.834 149.341472,139.706 149.337472,139.083 C149.335472,138.878 149.322472,138.516 149.046472,138.518963 Z M121.063472,126.383 C120.409472,126.393 119.677472,126.123 118.659472,126.103 C118.438472,126.098 118.220472,126.107 118.010468,125.988 C117.842472,125.892 117.607472,126.023 117.553472,126.223 C117.490472,126.455 117.508472,126.696 117.533472,126.932 C117.564472,127.223 118.046472,127.392 118.146472,126.969 C118.194472,126.765 118.290472,126.609 118.523472,126.589 C118.670472,126.46 118.837472,126.513 118.989472,126.557 C119.226472,126.625 120.608472,126.746 121.131472,126.852 C121.544472,126.935 121.693472,126.37 121.338472,126.373 C121.246472,126.376 121.155472,126.38 121.063472,126.383 Z M101.749472,119.343 C101.300472,119.373 101.279472,119.398 101.435472,119.797 C101.546472,120.079 101.512472,119.972 101.714472,119.946 C102.152472,119.891 102.474472,120.485 102.768472,120.455 C102.997472,120.431 103.323472,120.752 103.958472,120.872 C104.179472,120.914 104.587472,121.109 104.712472,121.32 C105.017472,121.84 105.368472,122.332 105.630472,122.877 C105.747472,123.12 106.021472,122.872 105.984472,122.669 C105.931472,122.383 105.716472,122.015 105.596472,121.745 C105.275472,121.022 104.834472,120.669 104.069472,120.467 C103.245472,120.25 103.266472,120.2 102.563472,119.727 C102.314472,119.561 102.069472,119.334 101.749472,119.343 Z M100.796472,127.981 C102.270472,127.882 104.382472,128.051 105.918472,128.268 C106.177472,128.304 106.437472,128.308 106.697472,128.335 C107.148472,128.385 107.599472,128.435 108.049472,128.486 C108.447472,128.503 108.096472,127.884 106.143472,127.707 C105.521472,127.65 104.905472,127.519 104.280472,127.488 C103.937472,127.472 103.595472,127.459 103.255472,127.41 C102.682472,127.395 102.108472,127.38 101.535472,127.365 C101.193472,127.384 100.852472,127.426 100.511472,127.46 C100.126472,127.499 99.8144717,127.981 100.796472,127.981 Z M118.852472,127.675 C118.574472,127.724 118.291472,127.762 118.029472,127.868 C117.412472,128.116 116.134472,128.47 115.512472,128.546 C113.794472,128.757 113.273472,128.473 111.884472,127.658 C111.756472,127.583 111.714472,127.842 111.794472,127.941 C112.393472,128.68 113.160472,128.856 114.044472,129.252 C114.994472,129.677 118.078472,128.494 119.035472,128.154 C119.425472,128.017 119.156472,127.644 118.852472,127.675 Z M129.372472,133.886 C128.969472,133.867 128.586472,133.969 128.209472,134.085 C127.420472,134.327 126.602472,134.476 125.793472,134.632 C125.677472,134.654 125.555472,134.647 125.438472,134.669 C124.630472,134.827 124.352472,134.99 123.623472,135.216 C123.441472,135.273 123.460472,135.437 123.444472,135.598 C123.421472,135.84 123.767472,135.715 123.889472,135.666 C125.986472,134.83 125.580472,135.258 126.991472,134.887 C127.307472,134.804 127.620472,134.708 127.943472,134.648 C128.845472,134.479 129.687472,133.943 130.604472,135.378 C130.900472,135.841 131.435472,135.557 131.285472,135.158 C131.117472,134.71 130.697472,133.991 130.174472,133.944 C129.907472,133.92 129.639472,133.905 129.372472,133.886 Z M119.654472,120.02 C120.170472,120.001 120.123472,119.779 119.893472,119.657 C118.432472,118.88 117.496472,118.558 116.016472,117.928 C115.770472,117.823 115.522472,117.721 115.289472,117.587 C114.768472,117.286 114.178472,117.163 113.628472,116.933 C113.120472,116.721 112.878472,116.729 112.289472,116.503 C111.330472,116.136 111.542472,116.829 111.752472,116.858 C112.269472,116.93 113.259472,117.457 113.947472,117.607 L119.027472,119.874 C119.225472,119.96 119.432472,120.025 119.654472,120.02 Z M107.078472,113.51 C107.139472,114.33 107.092472,114.455 107.446472,115.241 C107.825472,116.082 108.194472,116.935 108.678472,117.722 C109.174472,118.529 109.574472,119.899 110.192472,120.47 C110.483472,120.739 110.646472,120.49 110.376472,119.939 C109.957472,119.082 109.560472,118.214 109.127472,117.364 C108.690472,116.508 108.250472,115.652 107.890472,114.759 C107.737472,114.379 107.423472,113.138 107.626472,112.774 C107.956472,112.183 107.763472,111.475 108.226472,110.857 C108.352472,110.688 108.532472,110.462 108.319472,110.3 C108.033472,110.083 107.848472,110.604 107.707472,110.764 C107.245472,111.29 107.163472,112.317 107.118472,112.996 C107.107472,113.167 107.072472,113.337 107.078472,113.51 Z M132.045472,138.478 C132.298472,138.278 132.376472,137.966 132.658472,137.747 C132.789472,137.645 132.697472,137.527 132.677472,137.418 C132.632472,137.175 132.243472,137.295 132.091472,137.422 C130.797472,138.501 130.336472,139.578 129.757472,140.087 C129.385472,140.414 129.432472,141.001 129.787472,141.311 C130.006472,141.502 130.236472,141.679 130.478472,141.842 C131.146472,142.291 131.789472,142.777 132.425472,143.27 C132.862472,143.61 132.869472,143.672 133.268472,143.608 C133.450472,143.578 133.426472,143.158 133.303472,143.042 C132.410472,142.198 130.759472,141.211 130.301472,140.752 C130.214472,140.664 130.212472,140.625 130.283472,140.543 C130.989472,139.723 131.094472,139.229 132.045472,138.478 Z M119.462472,137.398 C119.837472,136.954 122.154472,134.472 122.270472,134.269 C122.981472,133.042 123.473472,132.932 124.098472,132.139 C124.251472,131.946 124.400472,131.75 124.547472,131.554 C124.660472,131.404 124.450472,131.331 124.283472,131.452 C123.913472,131.73 123.544472,132.008 123.175472,132.285 C122.728472,132.622 122.561472,132.997 122.336472,133.211 C120.854472,134.623 119.409472,136.939 117.976472,138.333 C117.322472,138.968 116.934472,138.858 116.551472,139.145 C116.331472,139.31 115.217472,139.601 114.935472,139.653 C114.633472,139.708 114.200472,139.615 114.197408,140.019 C114.196472,140.179 114.217472,140.205 114.378472,140.192 C115.046472,140.137 115.717472,140.091 116.359472,139.877 C116.806472,139.728 117.194472,139.782 117.449472,139.528 C118.141472,138.838 118.830472,138.146 119.462472,137.398 Z M104.810472,114.534 C105.224472,114.565 104.798472,114.424 105.427472,114.648 C105.635472,114.722 105.775472,115.303 106.022472,115.575 C106.179472,115.748 106.304472,115.941 106.366472,116.17 C106.444472,116.456 108.240472,119.563 108.658472,120.523 C109.009472,121.329 109.535472,122.057 109.758472,122.915 C109.857472,123.293 110.665472,123.737 110.063472,122.193 C109.999472,122.027 109.911472,121.873 109.890472,121.688 C109.877472,121.579 109.631472,121.265 109.574472,121.077 C109.500472,120.833 109.391472,120.605 109.260472,120.387 C109.064472,120.06 108.915472,119.71 108.759472,119.363 C108.331472,118.411 107.807472,117.581 107.370472,116.533 C107.278472,116.31 107.150472,116.11 106.992472,115.929 C106.269472,115.097 105.935472,114.058 104.688472,114.066885 C104.593472,114.068 104.499472,114.117 104.404472,114.117 C104.086472,114.12 103.827472,114.264 103.554472,114.406 C102.846472,114.774 102.147472,115.156 101.463472,115.567 C101.191472,115.731 100.973472,115.957 100.746472,116.171 C100.506472,116.397 100.474472,117.179 99.4664717,117.204 C99.2894717,117.209 99.1124717,117.249 98.9394717,117.291 C98.5944717,117.374 98.7554717,118.107 98.8524717,118.325 C99.1404717,118.971 99.6574717,118.808 99.4854717,118.168 C99.3054717,117.5 99.5294717,117.946 100.021472,117.642 C100.266472,117.491 100.494472,117.537 100.576472,117.191 C100.687472,116.721 101.007472,116.713 101.137472,116.408 C101.290472,116.051 101.987472,115.779 102.233472,115.469 C102.556472,115.062 103.006472,114.867 103.489472,114.749 C103.720472,114.692 104.596472,114.463 104.810472,114.534 Z M125.068472,128.785 C124.375472,128.794 123.058472,128.708 122.322472,128.646 C121.814472,128.604 121.688472,129.146 122.227472,129.232 C123.498472,129.434 124.617472,129.426 125.906472,129.37 C126.627472,129.339 126.966472,128.921 127.577472,128.768 C128.172472,128.619 128.645472,128.212 129.123472,127.851 C129.634472,127.466 129.111472,127.463 129.322472,126.686 C129.389472,126.438 129.381472,126.183 129.407472,125.932 C129.447472,125.552 128.970472,125.542 128.704472,125.582 C128.400472,125.628 128.136472,125.499 127.929472,125.535 C127.508472,125.609 127.094472,125.671 126.693472,125.819 C126.047472,126.058 125.344472,126.155 124.658472,126.21 C124.474472,126.224 123.708472,126.197 123.592472,126.27 C123.203472,126.516 122.643472,126.271 122.574472,126.613 C122.542472,126.771 122.575472,126.797 122.738472,126.792 C123.297472,126.788 123.857472,126.783 124.416472,126.778 C125.789472,126.879 126.757472,126.21 127.688472,126.267 C128.114472,126.294 128.562472,126.543 128.519472,126.958 C128.495472,127.196 128.579472,127.227 128.394472,127.475 C128.047472,127.941 127.533472,128.104 127.050472,128.367 C126.248472,128.805 125.891472,128.785 125.068472,128.785 Z M112.630472,131.199 C113.392472,131.164 114.137472,131.023 114.875472,130.839 C115.167472,130.766 115.131472,131.058 114.907472,131.165 C114.680472,131.272 114.778472,131.316 114.561472,131.492 C113.779472,132.128 113.489472,132.312 112.796472,133.036 C112.099472,133.765 110.150472,135.262 109.668472,135.942 C109.573472,136.076 108.457472,137.566 108.667472,137.741 C108.827472,137.874 108.990472,137.654 109.079472,137.546 C110.273472,136.1 111.169472,135.4 112.427472,134.195 C112.907472,133.735 113.437472,133.333 113.936472,132.895 C114.853472,132.089 116.825472,130.398 117.880472,129.938 C118.118472,129.834 118.770472,129.562 118.698472,129.213 C118.595472,128.709 117.984472,129.136 117.663472,129.284 C116.917472,129.628 114.854472,130.361 113.951472,130.394 C113.460472,130.412 112.929472,130.547 112.485472,130.546 C111.923472,130.545 111.839472,131.149 112.273472,131.207 C112.392472,131.204 112.511472,131.202 112.630472,131.199 Z M131.610472,146.278 C132.165472,147.018 132.749472,147.736 133.268472,148.502 C133.407472,148.707 133.693472,149.262 133.821472,149.395 C134.016472,149.597 134.560472,149.462 133.945472,148.408 C132.926472,146.666 132.000472,145.642 130.734472,144.115 C130.653472,144.018 130.557472,143.933 130.469472,143.842 C130.008472,143.362 129.828472,143.07 129.237472,142.646 C128.650472,142.225 128.023472,141.757 127.299472,141.616 C125.160472,141.202 124.133472,141.026 121.842472,141.063 C121.268472,141.06 120.693472,141.058 120.119472,141.055 C119.628472,141.059 119.881472,141.658 120.378472,141.636 C120.773472,141.619 121.163472,141.716 121.542472,141.674 C123.019472,141.741 126.546472,142.098 127.803472,142.684 C128.031472,142.79 128.245472,142.934 128.435472,143.103 C129.521472,144.066 130.746472,145.127 131.610472,146.278 Z M149.040472,136.372 C149.170472,136.087 149.299472,135.803 149.429472,135.518 C149.580472,135.4 149.562472,135.233 149.574472,135.07 C149.630472,134.303 149.604472,133.534 149.629472,132.767 C149.655472,132.006 149.650472,131.245 149.676472,130.485 C149.702472,129.702 149.711472,128.919 149.695472,128.136 C149.681472,127.425 149.572472,126.557 149.641472,125.88 C149.668472,125.615 149.661472,125.347 149.669472,125.081 C149.675472,124.856 149.362472,124.681 149.165472,124.654 C148.699472,124.592 147.222472,124.452 146.783472,124.578 C146.004472,124.801 145.204472,124.756 144.409472,124.769 C144.136472,124.774 142.100472,124.051 142.310472,124.837 C142.385472,125.12 143.038472,124.946 143.768472,125.148 C144.231472,125.277 144.587472,125.177 145.034472,125.168 C145.894472,125.15 148.043472,125.159 148.867472,125.375 C148.965472,125.401 148.995472,125.467 148.981472,125.561 C148.877472,126.218 148.979472,128.041 149.014472,128.779 C149.045472,129.434 149.030472,130.092 149.028472,130.748 C149.028472,131.004 148.938472,131.244 148.867472,131.486 C148.782472,131.776 148.423472,131.41 148.324472,131.312 C147.518472,130.504 146.642472,129.769 145.779472,129.024 C145.356472,128.659 144.834472,128.084 144.287472,127.862 C143.797472,127.663 142.939472,127.123 142.515472,127.015 C142.218472,126.939 142.219472,127.306 142.378472,127.476 C142.727472,127.85 143.887472,128.211 144.438472,128.586 C145.186472,129.097 145.912472,129.805 146.613472,130.407 C147.179472,130.892 147.743472,131.379 148.310472,131.864 C148.680472,132.182 148.994472,133.133 148.977472,133.366 C148.773472,136.189 149.011472,135.075 147.802472,137.627 C147.633472,137.982 146.177472,141.111 146.082472,141.165 C145.896472,141.27 145.835472,141.46 145.761472,141.636 C145.045472,143.33 143.891472,145.782 143.049472,147.43 C142.364472,148.767 142.955472,148.619 143.237472,148.182 C144.430472,146.327 144.864472,144.594 145.970472,142.68 C146.596472,141.595 146.939472,140.355 147.549472,139.249 C148.102472,138.249 148.591472,137.44 149.040472,136.372 Z M92.2914717,137.55 C92.2784717,137.081 92.2394717,136.612 92.2244717,136.143 C92.1844717,134.891 92.2194717,133.636 92.2024717,132.383 C92.1924717,131.659 92.1494717,130.937 92.0934717,130.216 C92.0694717,129.537 92.0454717,128.859 92.0214717,128.18 C91.9814717,127.216 91.8304717,125.438 91.9564717,124.517 C91.9874717,124.287 92.2024717,123.884 92.4674717,124.131 C92.6974717,124.346 93.7994717,124.617 94.1074717,124.682 C94.3244717,124.728 94.8724717,124.987 95.0754717,124.886 C95.2994717,124.776 95.3674717,125.002 95.5364717,124.948 C95.6154717,124.923 95.8104717,124.905 95.8574717,124.98 C95.9074717,125.061 95.6604717,125.257 95.5564717,125.729 C95.3924717,126.471 95.2764717,126.157 95.3094717,127.166 C95.3144717,127.329 95.7874717,127.572 96.0884717,128.253 C96.3994717,128.953 96.5014717,129.125 96.7034717,129.853 C96.8754717,130.476 97.0264717,131.106 97.2734717,131.706 C97.4174717,132.057 97.4134717,132.328 97.8104717,132.533 C98.5144717,132.923 99.2194717,133.312 99.9244717,133.702 C100.156472,133.826 100.041472,133.947 100.242472,134.08 C100.727472,134.4 100.831472,134.218 101.757472,135.095 C102.315472,135.623 102.591472,135.639 103.097472,136.36 C103.539472,136.988 103.948472,137.595 104.642472,137.977 C104.886472,138.112 104.979472,138.358 105.289472,138.383 C105.735472,138.42 105.969472,138.638 106.186472,138.637 C106.314472,138.636 106.414472,138.776 106.541472,138.814 C107.161472,138.998 108.914472,139.738 109.542472,140.133 C109.758472,140.269 109.368472,140.375 109.226472,140.7 C109.065472,141.068 108.405472,141.655 108.356472,142.012 C108.151472,143.487 108.361472,143.158 108.879472,144.177 C109.107472,144.625 109.434472,145.005 109.727472,145.41 C110.313472,146.219 110.859472,147.056 111.408472,147.892 C111.663472,148.279 111.969472,148.626 112.235472,149.005 C112.668472,149.624 113.102472,150.476 113.640472,150.931 C114.101472,151.322 114.525472,151.751 114.918472,152.211 C115.228472,152.575 118.343472,153.939 118.819472,153.94 C119.496472,153.941 120.175472,154.036 120.846472,153.871 C120.961472,153.843 121.082472,153.828 121.200472,153.823 C122.672472,153.763 123.759472,153.358 124.883472,153.264 C125.565472,153.206 126.237472,153.047 126.925472,153.042 C127.441472,153.037 129.535472,152.817 129.866472,152.917 C130.242472,153.031 131.570472,152.805 131.883472,152.798 C132.266472,152.789 133.230472,152.737 133.580472,152.824 C133.767472,152.871 133.803472,152.488 133.619472,152.447 C133.028472,152.314 132.432472,152.236 131.825472,152.241 C131.048472,152.247 130.272472,152.241 129.496472,152.26 C128.726472,152.279 127.751472,152.44 126.962472,152.516 C125.009472,152.705 123.773472,152.737 121.804472,153.183 L120.093472,153.362 C119.635472,153.358 119.898472,153.495 119.054472,153.322 C118.212472,153.149 117.397472,152.884 116.591472,152.59 C116.186472,152.443 116.209472,152.295 116.021472,152.212 C115.461472,151.964 115.018472,151.572 114.647472,151.094 C114.219472,150.539 113.791472,149.984 113.363472,149.429 C112.375472,148.464 111.206472,146.631 110.398472,145.425 C110.311472,145.295 110.235472,145.157 110.140472,145.033 C110.022472,144.882 110.050472,144.662 109.908472,144.531 C109.546472,144.199 109.250472,143.55 109.110472,143.099 C108.862472,142.295 109.470472,141.555 109.980472,140.994 C110.308472,140.634 110.776472,140.05 111.140472,139.751 C111.281472,139.635 112.342472,138.607 112.370472,138.489 C112.493472,137.968 114.382472,135.755 114.813472,135.222 C115.368472,134.537 116.002472,133.925 116.575472,133.257 C117.610472,132.051 119.762472,130.938 121.289472,130.438 C121.537472,130.357 121.798472,130.343 122.043472,130.245 C122.328472,130.132 122.634472,130.138 122.925472,130.204 C123.413472,130.314 123.911472,130.354 124.403472,130.436 C125.338472,130.592 127.053472,130.286 128.008472,130.203 C128.778472,130.136 129.206472,129.815 129.446472,129.819 C129.775472,129.823 130.067472,129.69 130.355472,129.543 C130.584472,129.425 130.438472,129.192 130.413472,128.823 C130.394472,128.54 130.109472,128.616 129.920472,128.68 C129.370472,128.868 128.812472,129.033 128.265472,129.231 C126.941472,129.71 125.797472,129.91 124.386472,129.875 C123.472472,129.852 121.811472,129.868 120.938472,130.128 L120.008472,130.241 C119.802472,130.248 118.582472,130.94 118.377472,131.071 C116.763472,132.094 115.825472,133.412 114.567472,134.791 C114.038472,135.37 113.540472,135.974 113.038472,136.575 C112.393472,137.347 111.841472,138.622 110.666472,139.241 C110.241472,139.464 110.155472,139.745 109.968472,139.621 C109.354472,139.217 108.679472,138.934 108.004472,138.655 C107.559472,138.471 106.749472,138.45 106.039472,138.071 C105.258472,137.655 104.954472,137.577 104.285472,136.901 C103.997472,136.61 103.735472,136.294 103.437472,136.012 C103.188472,135.778 103.413472,135.595 103.096472,135.316 C100.890472,133.37 100.366472,133.345 98.1844717,131.906 C97.7894717,131.646 97.7404717,130.806 97.4894717,130.343 C97.4554717,130.278 97.4384717,130.202 97.4254717,130.129 C97.3434717,129.669 96.8094717,128.466 96.6184717,128.248 C96.3654717,127.96 96.1914717,127.621 95.9944717,127.297 C95.6814717,126.779 96.3334717,125.938 96.3844717,125.591 C96.4854717,124.916 97.1114717,125.433 97.2784717,125.148 C97.3684717,124.996 97.9834717,125.153 98.1694717,125.157 C98.8864717,125.17 101.761472,125.26 102.060472,125.177 C102.183472,125.143 102.308472,125.216 102.635472,125.215 L105.386472,125.174 C105.580472,125.173 105.773472,125.193 105.967472,125.192 C106.690472,125.189 107.787472,125.154 108.470472,125.192 C109.073472,125.225 111.198472,124.761 112.308472,124.756 C112.710472,124.754 113.115472,124.775 113.516472,124.747 C114.381472,124.686 115.148472,125.006 115.468472,124.993 C115.949472,124.973 116.417472,125.071 116.888472,125.141 C118.039472,125.314 119.199472,125.376 120.352472,125.536 C121.372472,125.677 121.963472,125.664 122.960472,125.711 C123.374472,125.73 123.346472,125.622 123.548472,125.621 C124.806472,125.612 125.856472,125.082 126.898472,125.112 C127.459472,125.129 128.250472,124.99 128.457472,124.994 C128.987472,125.007 129.513472,124.922 130.044472,124.942 C130.437472,124.956 131.012472,124.935 131.400472,124.835 C131.609472,124.781 131.276472,124.48 131.016472,124.446 C130.800472,124.418 130.586472,124.402 130.369472,124.4 C129.839472,124.394 129.015472,124.208 128.615472,124.312 C127.674472,124.557 125.564472,124.448 124.339472,124.64 C123.786472,124.727 123.231472,124.812 122.672472,124.79 C122.084472,124.767 121.491472,124.797 120.909472,124.7 C120.753472,124.674 120.597472,124.659 120.441472,124.662 C119.157472,124.685 117.894472,124.388 116.616472,124.305 C116.118472,124.272 115.622472,124.189 115.123472,124.18 C113.618472,124.154 112.443472,124.307 110.995472,124.409 C110.718472,124.429 110.545472,124.614 109.723472,124.62 C108.992472,124.625 108.263472,124.667 107.533472,124.707 C106.549472,124.761 105.564472,124.706 104.579472,124.706 C103.097472,124.705 101.605472,124.779 100.128472,124.64 L97.8044717,124.546 C97.7204717,124.545 97.6844717,124.519 97.6994717,124.424 C97.7184717,124.31 97.6784717,123.77 97.7304717,123.334 C97.7924717,122.809 97.8474717,122.282 97.9404717,121.762 C98.1064717,120.839 98.1134717,119.136 98.2904717,117.891 C98.3394717,117.552 98.3704717,117.21 98.3954717,116.868 C98.4044717,116.741 98.4514717,116.651 98.5584717,116.597 C98.8234717,116.463 98.9504717,116.283 99.1654717,116.143 C100.264472,115.425 101.291472,114.553 102.541472,114.1 C102.952472,113.951 104.391472,112.798 104.890472,112.433 C105.436472,112.033 106.103472,111.377 106.513472,110.838 C106.894472,110.338 107.565472,110.035 108.083472,109.709 C108.481472,109.459 109.195472,109.449 109.443472,109.377 C110.198472,109.155 111.933472,109.558 112.464472,109.854 C113.161472,110.244 113.890472,110.571 114.579472,110.976 C115.244472,111.367 117.940472,112.366 118.758472,112.619 C119.230472,112.764 119.668472,112.991 120.132472,113.152 C120.802472,113.354 121.473472,113.556 122.143472,113.758 C122.832472,113.912 123.084472,113.923 123.786472,114.177 C123.960472,114.24 124.129472,114.322 124.320472,114.329 C124.512472,114.336 125.281472,114.912 125.439472,115.055 C125.815472,115.396 126.146472,115.782 126.524472,116.119 C127.122472,116.653 127.769472,117.155 128.242472,117.812 C128.432472,118.075 128.645472,118.154 129.007472,118.742 C129.325472,119.262 129.674472,119.641 129.923472,120.222 C129.998472,120.396 130.130472,120.545 130.231472,120.709 C130.511472,121.16 130.733472,121.64 130.941472,122.127 C131.183472,122.691 130.196472,123.521 130.118472,123.696 C130.017472,123.921 130.265472,123.893 130.406472,123.907 C130.911472,123.956 130.650472,123.648 130.923472,123.541 C131.236472,123.418 131.448472,122.823 131.527472,122.531 C131.709472,121.857 130.956472,120.331 130.555472,119.782 C130.268472,119.39 130.351472,119.314 130.183472,119.05 C129.885472,118.649 129.586472,118.249 129.288472,117.849 C128.984472,117.696 128.858472,117.366 128.606472,117.161 C128.364472,116.963 128.119472,116.537 127.873472,116.414 C127.835472,116.395 127.809472,116.352 127.780472,116.318 C127.455472,115.947 127.114472,115.593 126.736472,115.276 C126.555472,115.124 126.066472,114.471 125.877472,114.246 C125.712472,114.05 125.146472,113.693 124.944472,113.709 C124.713472,113.727 124.501472,113.653 124.292472,113.578 C123.855472,113.419 123.398472,113.345 122.954472,113.216 C122.146472,112.983 120.468472,112.539 119.709472,112.217 C119.111472,111.963 118.475472,111.816 117.883472,111.548 C117.393472,111.327 116.884472,111.157 116.379472,110.976 C115.285472,110.584 114.259472,110.057 113.280472,109.436 C112.809472,109.137 112.730472,109.06 112.175472,108.921 C110.750472,108.566 109.523472,108.576 108.084472,108.902 C107.711472,108.987 106.804472,109.566 106.450472,109.774 C106.242472,109.896 106.066472,110.054 105.923472,110.251 C105.466472,110.883 103.963472,112.39 103.249472,112.767 C102.937472,112.932 102.654472,113.134 102.398472,113.376 C101.887472,113.859 100.601472,114.455 99.9644717,114.962 C99.8084717,115.087 99.6364717,115.195 99.4464717,115.269 L98.4244717,116.055 C98.2504717,116.212 98.0824717,116.228 98.0464717,116.489 C97.9344717,117.316 97.4694717,118.489 97.5014717,119.291 C97.5164717,119.662 97.1914717,122.916 97.1374717,123.343 C97.0014717,124.423 97.1504717,124.522 96.8794717,124.488 C96.3174717,124.418 95.7534717,124.37 95.1924717,124.286 C94.5394717,124.189 92.6044717,123.777 92.2034717,123.33 C92.0714717,123.112 91.8074717,123.05 91.6484717,122.864 C91.5624717,122.765 91.3054717,122.733 91.2804717,122.893 L91.3324717,128.195 C91.3404717,128.687 91.3864717,129.178 91.4054717,129.669 C91.4284717,130.295 91.4294717,130.922 91.4634717,131.548 C91.5144717,132.465 91.4924717,133.383 91.5094717,134.3 C91.5244717,135.068 91.5604717,135.835 91.5774717,136.603 C91.6024717,137.699 91.6094717,138.796 91.6414717,139.892 C91.6554717,140.384 91.6824717,140.876 91.6794717,141.368 C91.6764717,141.703 91.6144717,142.035 91.6324717,142.372 C91.6964717,143.555 91.7474717,144.743 91.6924717,145.927 C91.6264717,147.337 91.7824717,148.746 91.7034717,150.156 C91.6844717,150.489 91.7074717,150.826 91.7244717,151.161 C91.7694717,152.026 91.7814717,152.891 91.7694717,153.756 C91.7604717,154.412 91.7254717,155.068 91.7324717,155.724 C91.7784717,157.983 91.9064717,160.241 91.8914717,162.5 C91.8904717,162.744 92.1394717,163.077 92.3664717,163.168 C92.9814717,163.417 93.5924717,163.677 94.2124717,163.911 C94.8264717,164.141 95.4514717,164.341 96.0684717,164.562 C97.0514717,164.915 98.0674717,165.158 99.0644717,165.463 C100.826472,166.003 100.360472,165.936 102.212472,166.193 C103.056472,166.31 105.557472,166.567 106.505472,166.613 C107.786472,166.676 109.051472,166.91 110.330472,166.998 C110.889472,167.036 111.447472,166.992 112.005472,167.018 C113.571472,167.09 115.161472,167.089 116.719472,167.237 C117.299472,167.292 118.485472,167.241 119.181472,167.267 C119.703472,167.287 120.225472,167.266 120.746472,167.308 C121.022472,167.329 121.298472,167.348 121.573472,167.329 C122.736472,167.251 123.899472,167.325 125.062472,167.297 C125.280472,167.292 125.492472,167.339 125.709472,167.342 C127.203472,167.361 128.287472,167.208 129.725472,167.101 C130.491472,167.044 131.585472,167.043 132.309472,166.907 C132.871472,166.801 133.991472,166.853 134.720472,166.801 C135.174472,166.768 137.088472,166.626 137.444472,166.478 C138.129472,166.192 139.726472,166.043 140.516472,165.927 C141.041472,165.85 141.545472,165.679 142.072472,165.621 C143.131472,165.506 143.680472,165.414 144.720472,165.226 C145.256472,165.13 145.776472,164.966 146.301472,164.824 C146.715472,164.713 147.127472,164.394 147.575472,164.457 C147.740472,164.481 148.484472,163.784 148.696472,163.622 C148.798472,163.544 148.847472,163.444 148.858472,163.317 C149.025472,161.452 148.827472,160.031 148.926472,158.353 C148.953472,157.899 148.915472,157.443 148.912472,156.989 C148.909472,156.453 148.950472,155.917 148.976472,155.381 C148.985472,155.188 149.017472,154.995 149.019472,154.802 C149.026472,154.011 149.097472,153.222 149.069472,152.431 C149.064472,151.783 149.058472,151.135 149.052472,150.487 C149.032472,149.809 149.154472,149.134 149.160472,148.456 C149.168472,147.576 149.172472,146.695 149.161472,145.815 C149.154472,145.245 149.339472,143.32 149.198472,142.868 C149.098472,142.55 148.629472,142.598 148.629472,143.026 C148.630472,143.576 148.607472,144.132 148.662472,144.681 C148.737472,145.426 148.631472,146.327 148.598472,147.094 C148.586472,147.392 148.595472,147.691 148.548472,147.987 C148.485472,148.38 148.526472,151.35 148.506472,152.169 C148.499472,152.465 148.295472,154.643 148.215472,154.989 C148.081472,155.568 147.205472,155.851 146.707472,155.966 C144.503472,156.474 142.614472,157.049 140.213472,157.3 C140.002472,157.322 139.459472,157.405 139.279472,157.38 C139.237472,157.374 139.189472,157.338 139.157472,157.386 C139.044472,157.553 139.493472,157.757 139.652472,157.752 C140.024472,157.741 140.398472,157.779 140.769472,157.728 C140.946472,157.704 141.070472,157.79 141.502472,157.717 C141.713472,157.681 142.258472,157.669 142.401472,157.582 C142.492472,157.527 142.594472,157.491 142.698472,157.491 C142.993472,157.491 143.276472,157.418 143.555472,157.343 C144.506472,157.087 145.486472,156.969 146.438472,156.72 C146.761472,156.636 146.938472,156.746 147.195472,156.579 C147.437472,156.42 147.710472,156.312 147.938472,156.129 C148.029472,156.057 148.297472,155.951 148.328472,156.211 C148.392472,156.75 148.339472,157.281 148.326472,157.819 C148.283472,159.532 148.312472,161.252 148.358472,162.965 C148.365472,163.221 148.254472,163.381 148.035472,163.502 C147.386472,163.86 146.659472,163.966 145.965472,164.199 C145.171472,164.465 143.888472,164.555 142.981472,164.754 C142.443472,164.872 141.910472,165.014 141.369472,165.121 C138.948472,165.555 136.187472,165.932 133.732472,166.129 C132.536472,166.222 131.341472,166.314 130.145472,166.407 C129.506472,166.454 128.867472,166.493 128.230472,166.567 C126.044472,166.566 123.858472,166.566 121.672472,166.565 C119.739472,166.519 117.994472,166.538 116.035472,166.44 C115.484472,166.413 114.933472,166.377 114.382472,166.349 C112.813472,166.27 111.248472,166.11 109.676472,166.07 C108.820472,166.049 107.965472,165.978 107.113472,165.878 C106.928472,165.856 106.740472,165.867 106.556472,165.834 C106.441472,165.813 106.324472,165.914 106.207472,165.846 C106.097472,165.783 105.978472,165.789 105.859472,165.782 C103.951472,165.668 100.592472,165.169 98.6834717,164.589 C98.4394717,164.515 98.1914717,164.468 97.9444717,164.412 C97.2414717,164.191 96.5374717,163.969 95.8344717,163.748 C95.6854717,163.692 95.5294717,163.681 95.3784717,163.643 C94.4824717,163.418 93.5094717,162.947 92.6844717,162.51 C92.5794717,162.454 92.5394717,162.373 92.5334717,162.258 C92.4004717,159.784 92.4224717,157.307 92.4334717,154.83 C92.4334717,154.756 92.4424717,154.682 92.4494717,154.561 C93.3714717,155.259 94.3394717,155.35 94.4394717,155.518 C94.6084717,155.804 95.5904717,155.995 95.9854717,156.234 C96.1214717,156.317 96.2644717,156.369 96.4214717,156.396 C97.0014717,156.495 97.5744717,156.626 98.1514717,156.743 C99.1574717,156.946 100.183472,157.058 101.188472,157.27 C101.742472,157.386 102.300472,157.483 102.860472,157.562 C103.254472,157.617 103.670472,157.618 104.056472,157.721 C105.214472,158.028 107.804472,158.148 109.034472,158.221 C110.247472,158.293 111.451472,158.473 112.665472,158.535 C114.897472,158.648 117.474472,158.89 119.659472,158.841 C120.423472,158.823 120.275472,158.694 120.648472,158.703 C121.140472,158.715 121.632472,158.705 122.124472,158.731 C122.519472,158.753 122.916472,158.724 123.310472,158.748 C124.209472,158.803 125.119472,158.805 126.015472,158.743 C126.737472,158.693 127.458472,158.637 128.182472,158.64 C128.383472,158.64 128.585472,158.627 128.785472,158.604 C129.941472,158.471 130.057472,158.694 131.681472,158.412 C131.854472,158.382 132.786472,158.309 132.713472,157.947 C132.672472,157.739 132.457472,157.71 132.283472,157.747 C130.921472,158.037 128.575472,158.049 127.134472,158.09 C125.396472,158.138 122.474472,158.256 120.759472,158.088 C120.700472,158.082 120.640472,158.083 120.580472,158.082 C119.030472,158.05 117.477472,158.057 115.932472,157.911 C114.803472,157.804 113.667472,157.798 112.539472,157.703 C111.762472,157.637 110.386472,157.516 109.616472,157.529 C108.390472,157.549 107.005472,157.42 105.781472,157.268 C105.596472,157.245 105.413472,157.238 105.227472,157.231 C103.870472,157.178 102.538472,156.896 101.188472,156.77 C100.190472,156.677 98.0834717,156.259 97.1844717,155.873 C96.8354717,155.722 96.4594717,155.646 96.1124717,155.487 C95.5434717,155.226 93.2564717,154.446 92.9134717,153.935 C92.6934717,153.607 92.5184717,154.053 92.4834717,153.077 C92.4754717,152.853 92.4344717,152.634 92.4194717,152.411 C92.3544717,151.42 92.3714717,149.006 92.3994717,148.025 C92.4164717,147.444 92.4764717,146.863 92.4644717,146.283 C92.4484717,145.522 92.4514717,144.761 92.4254717,144.001 C92.4054717,143.443 92.3464717,142.886 92.3154717,142.328 C92.2724717,140.77 92.3364717,139.158 92.2914717,137.55 Z M90.5684717,136.974 C90.5094717,135.528 90.5394717,134.079 90.4814717,132.633 C90.4364717,131.518 90.4724717,129.898 90.3844717,128.831 C90.2854717,127.639 90.3374717,125.624 90.3014717,124.357 C90.2514717,122.62 90.2794717,120.88 90.2074717,119.143 C90.1524717,117.802 90.1754717,116.458 90.1234717,115.116 C90.0664717,113.641 90.0964717,112.162 90.0314717,110.686 C89.9664717,109.234 89.9924717,107.777 89.9434717,106.324 C89.9064717,105.217 89.8654717,102.565 90.0114717,101.472 C90.1004717,100.804 90.6484717,101.009 90.8334717,100.911 C91.1384717,100.75 92.8494717,100.479 93.3604717,100.344 C95.2994717,99.828 97.3814717,100.005 97.8904717,99.905 C98.4814717,99.788 101.002472,99.679 101.659472,99.652 C105.498472,99.496 109.343472,99.644 113.184472,99.537 C114.078472,99.5 114.972472,99.462 115.866472,99.425 C116.732472,99.427 117.597472,99.429 118.463472,99.431 C119.290472,99.459 120.117472,99.503 120.944472,99.504 L131.058472,99.54 C131.058472,99.545 131.058472,99.55 131.058472,99.554 C132.050472,99.554 133.043472,99.554 134.035472,99.555 C134.751472,99.555 135.464472,99.647 136.179472,99.67 C136.910472,99.694 137.638472,99.752 138.366472,99.81 C142.002472,100.092 143.678472,100.191 147.290472,100.819 C148.373472,101.008 149.414472,101.345 150.432472,101.756 C150.657472,101.847 150.833472,102.009 150.927472,102.241 C150.991472,102.403 150.805472,102.557 150.935472,102.709 C150.939472,102.714 150.926472,102.736 150.918472,102.748 C150.825472,102.888 150.842472,103.049 150.838472,103.203 L150.750472,107.79 C150.694472,109.361 150.729472,111.015 150.660472,112.579 C150.591472,114.143 150.627472,115.712 150.571472,117.278 C150.514472,118.857 150.531472,120.44 150.483472,122.021 C150.449472,123.169 150.443472,124.319 150.422472,125.467 C150.381472,127.294 150.339472,129.121 150.298472,130.948 C150.279472,131.836 150.293472,132.723 150.258472,133.611 L150.205472,136.652 C150.183472,138.92 150.093472,141.185 150.025472,143.452 C150.012472,143.862 150.018472,144.273 150.005472,144.683 C149.980472,145.495 149.925472,146.306 149.928472,147.12 C149.929472,147.5 149.990472,147.876 149.986472,148.256 L149.897472,153.626 C149.849472,156.103 149.801472,158.579 149.753472,161.055 C149.733472,161.718 149.737472,162.382 149.666472,163.043 C149.641472,163.267 149.700472,163.321 149.710472,163.55 L149.618472,165.492 C149.575472,165.862 149.590472,166.237 149.523472,166.606 C149.418472,167.182 149.535472,167.318 149.246472,167.95 C149.054472,168.371 148.729472,168.642 148.312472,168.795 C147.055472,169.256 146.850472,169.236 145.637472,169.373 C144.594472,169.491 143.540472,169.523 142.501472,169.682 C140.551472,169.981 138.827472,169.983 136.884472,170.081 C136.424472,170.119 135.963472,170.156 135.503472,170.194 C134.111472,170.272 132.713472,170.255 131.320472,170.283 C130.349472,170.303 128.518472,170.244 127.650472,170.33 C127.360472,170.357444 127.069472,170.304 126.780472,170.303 C125.750472,170.301 124.721472,170.321 123.692472,170.334 C122.140472,170.355 120.587472,170.339 119.035472,170.355 C118.595472,170.359 118.156472,170.361 117.717472,170.337 C114.703472,170.176 111.683472,170.123 108.669472,169.96 C107.947472,169.921 107.222472,169.941 106.500472,169.892 L100.983472,169.36 L97.0024717,168.973 C96.4514717,169.055 93.7104717,168.676 93.1334717,168.487 C92.2094717,168.183 92.0064717,168.315 91.5244717,168.162 C91.0274717,168.004 91.0664717,167.317 91.0654717,166.897 C91.0634717,166.344 91.0054717,165.795 90.9964717,165.243 C90.9924717,164.998 91.0104717,164.751 90.9854717,164.507 C90.8904717,163.556 91.0904717,161.272 90.9294717,160.417 C90.8904717,160.211 90.9644717,159.973 90.9414717,159.683 C90.8024717,157.934 90.8494717,156.419 90.7904717,154.697 C90.6894717,151.705 90.8654717,148.691 90.7504717,145.699 C90.6944717,144.231 90.7234717,142.76 90.6604717,141.292 C90.5994717,139.881 90.6274717,138.383 90.5684717,136.974 Z M151.867472,138.397 C151.925472,136.854 151.892472,135.307 151.958472,133.765 C151.989472,133.027 151.971472,132.288 152.000472,131.55 C152.063472,129.955 152.031472,128.357 152.093472,126.762 C152.151472,125.264 152.126472,123.763 152.180472,122.265 C152.238472,120.67 152.202472,119.071 152.271472,117.477 C152.339472,115.875 152.307472,114.269 152.362472,112.667 L152.440472,108.595 C152.484472,106.424 152.529472,104.254 152.574472,102.084 C152.597472,101.34 152.070472,101.289 152.023472,100.888 C151.964472,100.374 147.780472,99.4 147.191472,99.305 C144.478472,98.867 141.748472,98.51 139.002472,98.375 C138.400472,98.345 137.800472,98.271 137.198472,98.221 C134.329472,97.984 131.665472,97.85 128.774472,97.893 C128.214472,97.901 127.655472,97.894 127.095472,97.894 C127.095472,97.892 127.095472,97.891 127.095472,97.889 C125.834472,97.889 124.573472,97.892 123.312472,97.888 C122.737472,97.886 122.162472,97.89 121.590472,97.939 C120.718472,98.013 119.847472,97.985 118.975472,97.951 C118.460472,97.932 117.946472,97.974 117.431472,97.978 C114.798472,97.998 112.164472,97.928 109.531472,97.908 C108.726472,97.902 107.922472,97.974 107.116472,97.969 C105.723472,97.961 104.361472,98.09 102.957472,98.065 C102.053472,98.049 101.152472,98.108 100.250472,98.133 C98.4524717,98.182 95.6934717,98.325 93.9124717,98.699 C93.0334717,98.884 92.0334717,99.011 91.1844717,99.287 C90.4804717,99.516 89.6794717,99.669 89.0144717,99.983 C88.4204717,100.264 88.5864717,102.055 88.4444717,102.994 C88.2874717,104.027 88.4044717,110.344 88.5274717,111.983 C88.5884717,112.79 88.5764717,114.848 88.6654717,115.604 C88.7124717,115.998 88.6804717,119.531 88.6874717,120.237 C88.6944717,121.072 88.7344717,121.906 88.7434717,122.742 C88.7474717,123.115 88.7154717,123.558 88.8324717,123.918 L88.9134717,126.735 C89.0144717,129.225 88.9874717,131.717 89.0494717,134.208 C89.1074717,136.534 89.0754717,138.863 89.1404717,141.19 C89.2024717,143.412 89.1734717,145.636 89.2294717,147.858 C89.2864717,150.14 89.2504717,152.425 89.3174717,154.706 C89.3504717,155.825 89.3334717,156.944 89.3624717,158.063 C89.4114717,159.95 89.3874717,161.838 89.4454717,163.724 C89.4864717,165.037 89.4704717,166.35 89.4904717,167.663 C89.4944717,167.959 89.5614717,168.719 89.7454717,168.968 C90.0284717,169.349 90.2304717,169.705 90.7374717,169.809 C91.4224717,169.95 92.1164717,170.043 92.8064717,170.16 C93.6214717,170.298 94.4324717,170.454 95.2534717,170.542 C95.8754717,170.609 96.4914717,170.724 97.1104717,170.813 C98.4934717,171.012 99.8924717,171.185 101.290472,171.232 C102.886472,171.285 104.495472,171.579 106.054472,171.651 C106.463472,171.67 106.871472,171.723 107.281472,171.723 C108.338472,171.743 109.395472,171.763 110.453472,171.783 C111.077472,171.821 111.702472,171.859 112.327472,171.898 C114.452472,171.961 116.573472,172.091 118.700472,172.092 C119.221472,172.092 119.743472,172.11 120.263472,172.162 L124.354472,172.028 C125.091472,171.985 126.799472,171.97 127.552472,172.03 C128.136472,172.077 128.850472,171.945 129.472472,171.943 C130.136472,171.941 130.801472,171.962 131.464472,171.934 C132.949472,171.871 134.433472,171.926 135.917472,171.896 C138.199472,171.848 140.471472,171.631 142.751472,171.551 C144.500472,171.49 147.688472,170.938 149.413472,170.309 C149.853472,170.149 150.230472,169.882 150.608472,169.616 C150.911472,169.404 151.104472,168.748 151.214472,168.413 C151.349472,168.004 151.310472,167.551 151.318472,167.125 C151.336472,166.051 151.343472,164.977 151.377472,163.903 L151.545472,155.133 C151.565472,154.148 151.573472,153.163 151.602472,152.179 L151.726472,145.668 C151.747472,144.744 151.747472,143.818 151.780472,142.894 C151.833472,141.396 151.810472,139.895 151.867472,138.397 L151.867472,138.397 Z" id="Fill-45" fill="#FFFFFE"></path>
            <path d="M81.7944717,157.105 C80.2534717,155.662 79.3894717,153.828 79.4504717,151.704 C79.4714717,150.992 81.0594717,150.463 81.1194717,149.663 C82.2314717,149.299 83.0884717,148.754 83.8514717,148.191 C83.3064717,149.839 82.4564717,151.987 82.2444717,154.214 C82.1444717,155.269 81.9954717,156.239 81.7944717,157.105 Z M87.6584717,176.121 L86.2924717,173.668 C86.5614717,171.906 86.9074717,170.965 87.7694717,169.427 C89.1444717,169.198 90.6114717,168.403 89.3374717,169.73 C88.3414717,170.768 87.3434717,175.273 87.6584717,176.121 Z M91.0424717,189.483 C89.9174717,188.423 92.5564717,183.721 93.4614717,183.211 C93.7924717,183.368 94.0454717,183.921 94.2974717,184.119 C95.0474717,184.708 93.0744717,185.953 92.7444717,186.667 C92.5184717,187.154 91.7974717,188.408 91.0424717,189.483 Z M83.2104717,125.622 C81.8574717,122.774 85.2694717,118.6 88.8034717,118.755 C89.3044717,118.777 89.7244717,118.885 90.2324717,119.114 C90.8784717,119.405 88.7634717,122.02 87.6944717,124.288 C87.2484717,125.234 86.6854717,126.472 86.1564717,126.622 C85.1794717,126.899 83.6624717,126.572 83.2104717,125.622 L83.2104717,125.622 Z" id="Fill-46" fill="#621E2A"></path>
            <path d="M84.2824717,159.325 C87.7664717,160.896 91.2634717,160.888 94.7464717,162.515 C95.7524717,162.985 99.0804717,165.519 102.443472,167.115 C106.096472,168.848 109.846472,169.731 112.220472,170.953 C116.237472,173.023 108.954472,171.073 108.413472,170.891 C100.402472,168.198 100.502472,166.584 91.1774717,168.152 C86.1094717,169.184 85.9634717,172.146 86.3854717,175.146 C87.2224717,175.894 85.3404717,178.053 86.2034717,178.802 C88.1914717,180.528 89.8034717,180.91 91.7304717,182.632 C90.6664717,183.768 92.4494717,184.026 90.6534717,186.194 C89.9304717,191.95 93.2684717,196.954 97.1244717,200.663 C98.7124717,202.19 100.066472,202.571 101.354472,204.179 C103.792472,207.223 104.531472,208.866 106.563472,212.125 C109.814472,217.341 114.372472,224.086 119.394472,227.662 C122.387472,230.243 126.102472,232.647 129.558472,235.114 L186.822472,235.114 C180.030472,214.171 169.257472,177.28 165.425472,170.239 C162.593472,165.038 161.155472,162.533 158.324472,157.332 C152.262472,150.204 144.329472,144.09 136.224472,137.925 C130.680472,133.708 125.297472,129.262 119.423472,125.263 C111.374472,123.484 107.571472,122.782 98.8934717,120.121 C97.4644717,119.683 95.2414717,119.06 93.5884717,118.491 C86.6004717,117.516 82.6214717,120.436 82.5324717,124.878 C82.5104717,125.993 84.2134717,128.073 85.8054717,129.592 C87.7504717,130.497 90.5274717,133.193 96.7664717,135.289 C97.6294717,135.578 102.843472,138.098 104.596472,138.412 C110.492472,143.45 117.859472,147.348 126.147472,153.192 C126.244472,154.638 127.373472,157.268 124.423472,157.055 C110.688472,150.53 107.301472,148.231 100.430472,146.854 C98.0884717,146.385 89.5724717,144.993 87.6054717,145.519 C86.7054717,145.759 79.9114717,148.1 79.5064717,151.963 C79.4124717,155.233 80.8934717,157.797 84.2824717,159.325" id="Fill-47" fill="#621E2A"></path>
            <path d="M80.0354717,151.471 C80.2974717,150.163 82.7824717,148.657 82.6214717,149.385 C82.1934717,151.689 81.7654717,153.993 81.3384717,156.298 C81.2884717,156.306 81.2394717,156.313 81.1924717,156.32 C80.0204717,155.048 79.7054717,153.125 80.0354717,151.471 Z M106.041472,169.003 C106.441472,169.19 105.267472,169.763 104.853472,168.585 C105.150472,168.481 105.757472,168.87 106.041472,169.003 Z M107.088472,169.429 C108.230472,169.723 109.373472,170.017 110.515472,170.311 C111.391472,170.441 112.925472,171.405 111.175472,171.168 C109.813472,171.049 108.545472,170.575 107.268472,170.132 C106.844472,169.986 106.713472,169.297 107.088472,169.429 Z M87.5924717,174.554 C87.4914717,174.598 87.3884717,174.641 87.2874717,174.684 C86.1714717,173.513 87.3594717,169.705 88.9874717,169.523 C89.1814717,169.846 87.4304717,172.786 87.5924717,174.554 Z M84.3794717,160.247 C86.7484717,161.066 86.8704717,161.108 89.2714717,161.526 C94.1374717,162.375 93.1494717,162.148 97.5304717,164.906 C98.6724717,165.625 99.3194717,165.803 100.742472,166.692 C100.982472,166.842 101.043472,167.239 100.664472,167.089 C99.9064717,166.789 97.1284717,167.192 96.2404717,167.253 C91.5124717,167.584 92.1204717,167.137 88.2774717,168.45 C87.0764717,168.86 86.0154717,171.546 85.8094717,172.65 C85.4424717,174.616 86.1134717,174.679 86.3584717,175.985 C86.9374717,179.078 91.5324717,180.732 93.6684717,182.739 C91.4374717,183.375 90.3894717,184.972 90.1534717,187.409 C89.8464717,190.577 89.8764717,189.403 90.3204717,191.525 C91.8094717,198.647 98.8794717,202.261 101.832472,206.024 C104.038472,208.836 104.606472,210.498 106.424472,213.563 C106.426472,213.563 106.428472,213.562 106.431472,213.562 C107.770472,215.84 111.007472,219.941 111.048472,220.122 C116.882472,226.984 116.813472,226.573 123.273472,231.654 C124.996472,233.01 126.560472,233.969 128.191472,235.114 L130.622472,235.114 C128.528472,233.667 126.243472,232.177 123.678472,230.207 C116.867472,224.978 112.958472,219.697 107.669472,213.006 C105.606472,209.745 104.088472,206.146 101.283472,203.454 C97.2494717,199.583 94.5064717,197.919 92.0784717,192.881 C90.5444717,189.699 91.8774717,188.387 94.0394717,185.397 C94.5764717,184.655 94.6664717,184.806 94.5894717,184.708 C93.8994717,183.841 91.7304717,188.119 91.2694717,188.756 C91.2654717,186.627 91.9834717,184.999 93.7384717,184.015 C94.0934717,183.816 95.9774717,183.612 96.3034717,183.784 C98.0284717,184.695 99.8844717,185.368 101.652472,186.193 C103.635472,187.118 107.132472,188.88 109.085472,189.981 C110.357472,190.699 110.137472,189.663 109.580472,189.252 C107.913472,188.024 105.077472,187.291 103.037472,186.037 C97.8974717,183.589 94.0944717,181.417 89.3334717,178.223 C89.2844717,178.19 87.9754717,175.887 87.9674717,175.606 C87.8914717,172.935 88.6524717,172.101 89.5684717,169.946 C90.2844717,168.26 95.1864717,168.297 96.8554717,168.176 C99.2684717,167.573 100.747472,168.559 103.003472,169.036 C103.439472,169.128 106.574472,171.268 111.517472,172.379 C112.034472,172.495 116.293472,173.241 115.108472,171.585 C114.419472,170.621 111.379472,170.271 110.348472,169.642 C110.206472,169.555 110.040472,169.467 109.858472,169.38 C106.882472,168.541 101.445472,166.265 99.2314717,164.356 C98.2104717,163.475 97.0194717,162.867 95.9534717,162.058 C94.3134717,160.814 90.8224717,160.588 88.8004717,160.223 C87.1324717,159.923 81.2644717,158.362 82.2054717,155.768 C82.1124717,154.308 83.0324717,150.691 83.4574717,149.158 C83.7934717,147.943 85.9894717,146.821 87.1104717,146.609 C90.8134717,145.907 97.5134717,146.591 101.267472,147.555 C113.782472,150.767 117.494472,156.851 127.918472,158.232 C129.833472,158.485 137.209472,157.551 138.101472,156.323 C138.037472,156.283 137.968472,156.204 137.909472,156.21 C135.445472,156.436 128.879472,157.669 126.809472,157.078 C127.648472,154.352 127.255472,153.168 125.073472,151.33 C123.201472,149.754 121.329472,148.966 118.069472,147.108 C115.840472,145.836 106.747472,139.27 105.895472,137.843 C104.394472,138.16 93.9884717,133.843 93.4064717,133.437 C93.1884717,133.285 92.6754717,132.973 92.0374717,132.605 C92.0364717,132.619 92.0364717,132.633 92.0344717,132.647 C92.0364717,132.633 92.0364717,132.618 92.0354717,132.603 C90.0114717,131.434 85.4024717,129.255 84.4464717,127.079 C87.6254717,127.484 86.5934717,126.428 88.6884717,123.314 C89.1824717,122.58 90.0324717,121.865 90.1604717,120.948 C90.4694717,118.74 90.1634717,120.044 89.4994717,120.821 C88.2274717,122.306 87.2204717,123.968 86.5454717,125.795 C86.0234717,127.208 81.9314717,125.714 84.0374717,122.114 C85.6244717,119.404 89.4784717,118.847 93.3264717,119.134 C96.3414717,119.36 98.4764717,120.783 100.389472,121.416 C104.525472,122.782 109.768472,123.398 114.456472,124.435 C116.109472,124.832 117.640472,125.547 119.188472,126.224 C121.571472,127.266 123.177472,129.179 125.252472,130.602 C130.669472,134.553 135.658472,138.11 140.760472,142.379 C146.153472,146.891 153.427472,153.734 155.172472,155.551 C156.560472,156.996 158.883472,159.465 161.070472,163.207 C169.929472,178.37 179.176472,214.001 187.009472,235.114 L188.664472,235.114 C179.859472,212.163 166.669472,168.063 161.782472,160.772 C160.267472,158.51 156.716472,154.079 154.671472,152.417 C148.146472,147.117 123.700472,125.595 116.070472,123.64 C112.044472,122.608 106.902472,122.004 102.778472,120.821 C97.6774717,119.36 93.5714717,117.455 88.3664717,118.031 C83.2784717,118.595 79.0214717,124.631 84.8254717,129.666 C86.9544717,131.513 90.1624717,132.647 92.2024717,133.919 C93.4464717,134.608 94.6914717,135.297 95.9364717,135.986 C104.233472,138.659 105.700472,139.593 106.298472,140.077 C106.946472,140.601 106.514472,140.676 110.965472,144.02 C113.047472,145.802 123.368472,152 123.370472,152.028 C124.948472,152.931 126.564472,154.986 124.656472,155.677 C123.231472,156.194 116.357472,152.684 115.151472,151.923 C113.319472,150.768 111.506472,149.887 109.556472,148.945 C100.917472,144.773 99.2894717,144.799 90.6814717,144.772 C83.5474717,144.749 85.4604717,146.505 81.6224717,147.864 C79.4394717,148.637 78.7824717,151.735 79.2244717,153.802 C79.8854717,156.894 81.2034717,159.149 84.3794717,160.247 L84.3794717,160.247 Z" id="Fill-48" fill="#FFFFFE"></path>
            <g id="25-OCT-2025" transform="translate(17.544000, 154.512000)" fill="#DE812E">
                <path d="M-3.55271368e-15,11.488 L-3.55271368e-15,9.952 L2.944,4.4 C3.09333333,4.12266667 3.17866667,3.88 3.2,3.672 C3.22133333,3.464 3.232,3.20533333 3.232,2.896 C3.232,2.75733333 3.22933333,2.61066667 3.224,2.456 C3.21866667,2.30133333 3.18933333,2.16533333 3.136,2.048 C3.08266667,1.93066667 3.00266667,1.832 2.896,1.752 C2.78933333,1.672 2.63466667,1.632 2.432,1.632 C2.18666667,1.632 1.992,1.70133333 1.848,1.84 C1.704,1.97866667 1.632,2.18133333 1.632,2.448 L1.632,3.376 L-3.55271368e-15,3.376 L-3.55271368e-15,2.48 C-3.55271368e-15,2.13866667 0.064,1.81866667 0.192,1.52 C0.32,1.22133333 0.496,0.96 0.72,0.736 C0.933333333,0.512 1.18933333,0.333333333 1.488,0.2 C1.78666667,0.0666666667 2.10666667,0 2.448,0 C2.87466667,0 3.24,0.0773333333 3.544,0.232 C3.848,0.386666667 4.10133333,0.597333333 4.304,0.864 C4.496,1.13066667 4.63733333,1.43466667 4.728,1.776 C4.81866667,2.11733333 4.864,2.48 4.864,2.864 C4.864,3.14133333 4.85866667,3.37333333 4.848,3.56 C4.83733333,3.74666667 4.816,3.92533333 4.784,4.096 C4.752,4.26666667 4.69866667,4.43733333 4.624,4.608 C4.54933333,4.77866667 4.448,4.98666667 4.32,5.232 L1.92,9.856 L4.864,9.856 L4.864,11.488 L-3.55271368e-15,11.488 Z" id="Path"></path>
                <path d="M10.816,0.096 L10.816,1.632 L7.584,1.632 L7.584,4.704 C7.73333333,4.55466667 7.92533333,4.42933333 8.16,4.328 C8.39466667,4.22666667 8.656,4.176 8.944,4.176 C9.49866667,4.176 9.94933333,4.344 10.296,4.68 C10.6426667,5.016 10.816,5.52 10.816,6.192 L10.816,9.136 C10.816,9.52 10.7493333,9.86133333 10.616,10.16 C10.4826667,10.4586667 10.304,10.7146667 10.08,10.928 C9.856,11.1413333 9.59733333,11.304 9.304,11.416 C9.01066667,11.528 8.704,11.584 8.384,11.584 C8.064,11.584 7.75733333,11.528 7.464,11.416 C7.17066667,11.304 6.912,11.1413333 6.688,10.928 C6.464,10.7146667 6.28533333,10.4586667 6.152,10.16 C6.01866667,9.86133333 5.952,9.52 5.952,9.136 L5.952,8.656 L7.584,8.656 L7.584,9.072 C7.584,9.34933333 7.66133333,9.56533333 7.816,9.72 C7.97066667,9.87466667 8.17066667,9.952 8.416,9.952 C8.66133333,9.952 8.85066667,9.87733333 8.984,9.728 C9.11733333,9.57866667 9.184,9.37066667 9.184,9.104 L9.184,6.432 C9.184,6.208 9.112,6.016 8.968,5.856 C8.824,5.696 8.64,5.616 8.416,5.616 C8.27733333,5.616 8.16,5.64 8.064,5.688 C7.968,5.736 7.888,5.792 7.824,5.856 C7.76,5.92 7.712,5.98933333 7.68,6.064 C7.62666667,6.16 7.59466667,6.21866667 7.584,6.24 L6.144,6.24 L6.144,0.096 L10.816,0.096 Z" id="Path"></path>
                <path d="M15.008,2.784 C15.008,2.32533333 15.088,1.92 15.248,1.568 C15.408,1.216 15.6213333,0.922666667 15.888,0.688 C16.144,0.464 16.4346667,0.293333333 16.76,0.176 C17.0853333,0.0586666667 17.4133333,0 17.744,0 C18.0746667,0 18.4026667,0.0586666667 18.728,0.176 C19.0533333,0.293333333 19.3493333,0.464 19.616,0.688 C19.872,0.922666667 20.08,1.216 20.24,1.568 C20.4,1.92 20.48,2.32533333 20.48,2.784 L20.48,8.8 C20.48,9.28 20.4,9.69066667 20.24,10.032 C20.08,10.3733333 19.872,10.656 19.616,10.88 C19.3493333,11.1146667 19.0533333,11.2906667 18.728,11.408 C18.4026667,11.5253333 18.0746667,11.584 17.744,11.584 C17.4133333,11.584 17.0853333,11.5253333 16.76,11.408 C16.4346667,11.2906667 16.144,11.1146667 15.888,10.88 C15.6213333,10.656 15.408,10.3733333 15.248,10.032 C15.088,9.69066667 15.008,9.28 15.008,8.8 L15.008,2.784 Z M16.64,8.8 C16.64,9.19466667 16.7493333,9.48533333 16.968,9.672 C17.1866667,9.85866667 17.4453333,9.952 17.744,9.952 C18.0426667,9.952 18.3013333,9.85866667 18.52,9.672 C18.7386667,9.48533333 18.848,9.19466667 18.848,8.8 L18.848,2.784 C18.848,2.38933333 18.7386667,2.09866667 18.52,1.912 C18.3013333,1.72533333 18.0426667,1.632 17.744,1.632 C17.4453333,1.632 17.1866667,1.72533333 16.968,1.912 C16.7493333,2.09866667 16.64,2.38933333 16.64,2.784 L16.64,8.8 Z" id="Shape"></path>
                <path d="M27.104,8.24 L27.104,8.944 C27.104,9.296 27.0373333,9.62933333 26.904,9.944 C26.7706667,10.2586667 26.5866667,10.5386667 26.352,10.784 C26.1173333,11.0293333 25.8426667,11.224 25.528,11.368 C25.2133333,11.512 24.8746667,11.584 24.512,11.584 C24.2026667,11.584 23.888,11.5413333 23.568,11.456 C23.248,11.3706667 22.96,11.2213333 22.704,11.008 C22.448,10.7946667 22.2373333,10.52 22.072,10.184 C21.9066667,9.848 21.824,9.41866667 21.824,8.896 L21.824,2.624 C21.824,2.25066667 21.888,1.904 22.016,1.584 C22.144,1.264 22.3253333,0.986666667 22.56,0.752 C22.7946667,0.517333333 23.0746667,0.333333333 23.4,0.2 C23.7253333,0.0666666667 24.0853333,0 24.48,0 C25.248,0 25.872,0.250666667 26.352,0.752 C26.5866667,0.997333333 26.7706667,1.288 26.904,1.624 C27.0373333,1.96 27.104,2.32533333 27.104,2.72 L27.104,3.36 L25.472,3.36 L25.472,2.816 C25.472,2.496 25.3813333,2.21866667 25.2,1.984 C25.0186667,1.74933333 24.7733333,1.632 24.464,1.632 C24.0586667,1.632 23.7893333,1.75733333 23.656,2.008 C23.5226667,2.25866667 23.456,2.576 23.456,2.96 L23.456,8.784 C23.456,9.11466667 23.528,9.392 23.672,9.616 C23.816,9.84 24.0746667,9.952 24.448,9.952 C24.5546667,9.952 24.6693333,9.93333333 24.792,9.896 C24.9146667,9.85866667 25.0293333,9.79733333 25.136,9.712 C25.232,9.62666667 25.312,9.50933333 25.376,9.36 C25.44,9.21066667 25.472,9.024 25.472,8.8 L25.472,8.24 L27.104,8.24 Z" id="Path"></path>
                <polygon id="Path" points="29.504 11.488 29.504 1.632 27.616 1.632 27.616 0.096 33.024 0.096 33.024 1.632 31.136 1.632 31.136 11.488"></polygon>
                <path d="M36.496,11.488 L36.496,9.952 L39.44,4.4 C39.5893333,4.12266667 39.6746667,3.88 39.696,3.672 C39.7173333,3.464 39.728,3.20533333 39.728,2.896 C39.728,2.75733333 39.7253333,2.61066667 39.72,2.456 C39.7146667,2.30133333 39.6853333,2.16533333 39.632,2.048 C39.5786667,1.93066667 39.4986667,1.832 39.392,1.752 C39.2853333,1.672 39.1306667,1.632 38.928,1.632 C38.6826667,1.632 38.488,1.70133333 38.344,1.84 C38.2,1.97866667 38.128,2.18133333 38.128,2.448 L38.128,3.376 L36.496,3.376 L36.496,2.48 C36.496,2.13866667 36.56,1.81866667 36.688,1.52 C36.816,1.22133333 36.992,0.96 37.216,0.736 C37.4293333,0.512 37.6853333,0.333333333 37.984,0.2 C38.2826667,0.0666666667 38.6026667,0 38.944,0 C39.3706667,0 39.736,0.0773333333 40.04,0.232 C40.344,0.386666667 40.5973333,0.597333333 40.8,0.864 C40.992,1.13066667 41.1333333,1.43466667 41.224,1.776 C41.3146667,2.11733333 41.36,2.48 41.36,2.864 C41.36,3.14133333 41.3546667,3.37333333 41.344,3.56 C41.3333333,3.74666667 41.312,3.92533333 41.28,4.096 C41.248,4.26666667 41.1946667,4.43733333 41.12,4.608 C41.0453333,4.77866667 40.944,4.98666667 40.816,5.232 L38.416,9.856 L41.36,9.856 L41.36,11.488 L36.496,11.488 Z" id="Path"></path>
                <path d="M42.448,2.448 C42.448,2.064 42.5146667,1.72266667 42.648,1.424 C42.7813333,1.12533333 42.96,0.869333333 43.184,0.656 C43.408,0.442666667 43.6666667,0.28 43.96,0.168 C44.2533333,0.056 44.56,0 44.88,0 C45.2,0 45.5066667,0.056 45.8,0.168 C46.0933333,0.28 46.352,0.442666667 46.576,0.656 C46.8,0.869333333 46.9786667,1.12533333 47.112,1.424 C47.2453333,1.72266667 47.312,2.064 47.312,2.448 L47.312,9.136 C47.312,9.52 47.2453333,9.86133333 47.112,10.16 C46.9786667,10.4586667 46.8,10.7146667 46.576,10.928 C46.352,11.1413333 46.0933333,11.304 45.8,11.416 C45.5066667,11.528 45.2,11.584 44.88,11.584 C44.56,11.584 44.2533333,11.528 43.96,11.416 C43.6666667,11.304 43.408,11.1413333 43.184,10.928 C42.96,10.7146667 42.7813333,10.4586667 42.648,10.16 C42.5146667,9.86133333 42.448,9.52 42.448,9.136 L42.448,2.448 Z M44.08,9.136 C44.08,9.37066667 44.1546667,9.56533333 44.304,9.72 C44.4533333,9.87466667 44.6453333,9.952 44.88,9.952 C45.1146667,9.952 45.3066667,9.87466667 45.456,9.72 C45.6053333,9.56533333 45.68,9.37066667 45.68,9.136 L45.68,2.448 C45.68,2.21333333 45.6053333,2.01866667 45.456,1.864 C45.3066667,1.70933333 45.1146667,1.632 44.88,1.632 C44.6453333,1.632 44.4533333,1.70933333 44.304,1.864 C44.1546667,2.01866667 44.08,2.21333333 44.08,2.448 L44.08,9.136 Z" id="Shape"></path>
                <path d="M48.4,11.488 L48.4,9.952 L51.344,4.4 C51.4933333,4.12266667 51.5786667,3.88 51.6,3.672 C51.6213333,3.464 51.632,3.20533333 51.632,2.896 C51.632,2.75733333 51.6293333,2.61066667 51.624,2.456 C51.6186667,2.30133333 51.5893333,2.16533333 51.536,2.048 C51.4826667,1.93066667 51.4026667,1.832 51.296,1.752 C51.1893333,1.672 51.0346667,1.632 50.832,1.632 C50.5866667,1.632 50.392,1.70133333 50.248,1.84 C50.104,1.97866667 50.032,2.18133333 50.032,2.448 L50.032,3.376 L48.4,3.376 L48.4,2.48 C48.4,2.13866667 48.464,1.81866667 48.592,1.52 C48.72,1.22133333 48.896,0.96 49.12,0.736 C49.3333333,0.512 49.5893333,0.333333333 49.888,0.2 C50.1866667,0.0666666667 50.5066667,0 50.848,0 C51.2746667,0 51.64,0.0773333333 51.944,0.232 C52.248,0.386666667 52.5013333,0.597333333 52.704,0.864 C52.896,1.13066667 53.0373333,1.43466667 53.128,1.776 C53.2186667,2.11733333 53.264,2.48 53.264,2.864 C53.264,3.14133333 53.2586667,3.37333333 53.248,3.56 C53.2373333,3.74666667 53.216,3.92533333 53.184,4.096 C53.152,4.26666667 53.0986667,4.43733333 53.024,4.608 C52.9493333,4.77866667 52.848,4.98666667 52.72,5.232 L50.32,9.856 L53.264,9.856 L53.264,11.488 L48.4,11.488 Z" id="Path"></path>
                <path d="M59.216,0.096 L59.216,1.632 L55.984,1.632 L55.984,4.704 C56.1333333,4.55466667 56.3253333,4.42933333 56.56,4.328 C56.7946667,4.22666667 57.056,4.176 57.344,4.176 C57.8986667,4.176 58.3493333,4.344 58.696,4.68 C59.0426667,5.016 59.216,5.52 59.216,6.192 L59.216,9.136 C59.216,9.52 59.1493333,9.86133333 59.016,10.16 C58.8826667,10.4586667 58.704,10.7146667 58.48,10.928 C58.256,11.1413333 57.9973333,11.304 57.704,11.416 C57.4106667,11.528 57.104,11.584 56.784,11.584 C56.464,11.584 56.1573333,11.528 55.864,11.416 C55.5706667,11.304 55.312,11.1413333 55.088,10.928 C54.864,10.7146667 54.6853333,10.4586667 54.552,10.16 C54.4186667,9.86133333 54.352,9.52 54.352,9.136 L54.352,8.656 L55.984,8.656 L55.984,9.072 C55.984,9.34933333 56.0613333,9.56533333 56.216,9.72 C56.3706667,9.87466667 56.5706667,9.952 56.816,9.952 C57.0613333,9.952 57.2506667,9.87733333 57.384,9.728 C57.5173333,9.57866667 57.584,9.37066667 57.584,9.104 L57.584,6.432 C57.584,6.208 57.512,6.016 57.368,5.856 C57.224,5.696 57.04,5.616 56.816,5.616 C56.6773333,5.616 56.56,5.64 56.464,5.688 C56.368,5.736 56.288,5.792 56.224,5.856 C56.16,5.92 56.112,5.98933333 56.08,6.064 C56.0266667,6.16 55.9946667,6.21866667 55.984,6.24 L54.544,6.24 L54.544,0.096 L59.216,0.096 Z" id="Path"></path>
            </g>
        </g>
    </g>
</svg>