<?xml version="1.0" encoding="UTF-8"?><svg id="logo" xmlns="http://www.w3.org/2000/svg" viewBox="0 0 876.16 603.57"><defs><style>.cls-1{fill:#cca356;}.cls-2{fill:#231f20;}</style></defs><path class="cls-1" d="m224.06,452.34h-35.09v-75.61h35.09c7.52,0,12.65,5.13,12.65,12.64v50.33c0,7.51-5.13,12.64-12.65,12.64m-5.25-17.05v-41.51c0-.24-.12-.36-.36-.36h-11.58v42.23h11.58c.24,0,.36-.12.36-.36"/><polygon class="cls-1" points="246.15 452.34 246.15 376.73 287.93 376.73 287.93 393.42 264.06 393.42 264.06 405.95 281.96 405.95 281.96 421.45 264.06 421.45 264.06 435.65 287.93 435.65 287.93 452.34 246.15 452.34"/><path class="cls-1" d="m323.62,431.59l-24.71-24.33c-2.86-2.86-4.77-7.16-4.77-12.52v-5.61c0-7.51,5.01-12.64,12.65-12.64h22.44c7.52,0,12.65,5.13,12.65,12.64v10.5h-17.9v-5.85c0-.24-.12-.36-.36-.36h-11.22c-.24,0-.36.12-.36.36v1.2c0,.36.12.59.36.83l24.71,24.33c2.87,2.86,4.78,7.15,4.78,12.52v7.28c0,7.51-5.13,12.64-12.65,12.64h-22.44c-7.64,0-12.65-5.13-12.65-12.64v-10.5h17.91v5.85c0,.24.12.36.36.36h11.22c.24,0,.36-.12.36-.36v-2.87c0-.36-.12-.6-.36-.83"/><path class="cls-1" d="m386.3,425.27h-17.19v27.08h-17.91v-75.61h35.09c7.52,0,12.65,5.13,12.65,12.64v23.26c0,7.51-5.02,12.64-12.65,12.64m-5.61-31.84h-11.58v15.15h11.58c.24,0,.36-.12.36-.36v-14.44c0-.24-.12-.36-.36-.36"/><polygon class="cls-1" points="406.84 452.34 406.84 376.73 448.62 376.73 448.62 393.42 424.75 393.42 424.75 405.95 442.65 405.95 442.65 421.45 424.75 421.45 424.75 435.65 448.62 435.65 448.62 452.34 406.84 452.34"/><path class="cls-1" d="m485.15,452.34l-7.88-27.08h-4.53v27.08h-17.91v-75.61h35.09c7.52,0,12.65,5.13,12.65,12.64v23.26c0,5.96-3.1,10.37-8.24,12.04l9.43,27.67h-18.62Zm-12.41-43.77h11.58c.24,0,.36-.12.36-.36v-14.44c0-.24-.12-.36-.36-.36h-11.58v15.15Z"/><path class="cls-1" d="m541.26,442.8h-16l-1.79,9.54h-18.62l17.9-75.61h21.01l17.91,75.61h-18.62l-1.79-9.54Zm-2.75-11.58l-4.89-26.59-.36-2.98-.36,2.98-4.89,26.59h10.5Z"/><polygon class="cls-1" points="598.81 452.34 585.8 414.65 585.44 412.87 585.44 452.34 567.53 452.34 567.53 376.73 586.39 376.73 597.02 408.81 597.38 410.72 597.38 376.73 615.28 376.73 615.28 452.34 598.81 452.34"/><path class="cls-1" d="m659.69,452.34h-35.09v-75.61h35.09c7.52,0,12.65,5.13,12.65,12.64v50.33c0,7.51-5.13,12.64-12.65,12.64m-5.25-17.05v-41.51c0-.24-.12-.36-.36-.36h-11.58v42.23h11.58c.24,0,.36-.12.36-.36"/><path class="cls-1" d="m716.88,452.58h-22.44c-7.64,0-12.65-5.13-12.65-12.64v-63.21h17.9v58.56c0,.24.12.36.36.36h11.22c.24,0,.36-.12.36-.36v-58.56h17.9v63.21c0,7.51-5.13,12.64-12.65,12.64"/><polygon class="cls-1" points="783.25 452.34 783.25 415.13 782.89 417.28 772.98 452.34 766.18 452.34 756.4 417.28 756.04 415.13 756.04 452.34 738.73 452.34 738.73 376.73 759.38 376.73 769.64 414.18 779.91 376.73 800.56 376.73 800.56 452.34 783.25 452.34"/><polygon class="cls-1" points="344.94 362.38 286.29 233.41 284.46 224.26 284.46 362.38 189 362.38 189 75.63 293.27 75.63 339.72 200.05 341.55 209.81 341.55 75.63 440.93 75.63 440.93 362.38 344.94 362.38"/><rect class="cls-1" x="476.73" y="75.66" width="99.39" height="286.72"/><polygon class="cls-1" points="611.31 362.38 611.31 75.66 710.69 75.66 710.69 269.09 800.56 269.09 800.56 362.38 611.31 362.38"/><path class="cls-1" d="m812.26,98.18c0,13.7-10.11,23.81-23.81,23.81s-23.81-10.11-23.81-23.81,10.11-23.95,23.81-23.95,23.81,10.24,23.81,23.95m-5.46,0c0-10.64-7.85-18.49-18.36-18.49s-18.23,7.85-18.23,18.49,7.72,18.36,18.23,18.36,18.36-7.85,18.36-18.36m-12.5,4.65l5.32,8.51h-7.45l-4.52-8.38h-3.19v8.38h-6.25v-26.47h14.77c3.72,0,6.25,2.53,6.25,6.25v5.45c0,3.33-2,5.85-4.92,6.25m-9.84-5.32h7.98c.4,0,.53-.27.53-.53v-5.85c0-.27-.13-.53-.53-.53h-7.98v6.92Z"/><path class="cls-2" d="m218.16,203.04c-6.48-1.36-12.77-1.41-18.86-.49,15.56-13.41,18.98-39.05,6.97-56.35-10.68-15.86-26.12-17.97-43.61-19.54-9.1-1.33-19.08-.66-24.54-8.59-4.02-8.11-.11-17.12,2.25-23.93,3.55-10.22,7.25-21.45,7.95-29.68,1.28-15-7.41-26.23-12.38-26.5-4.98-.27-12.29,13.3-11.92,25.62.46,15.12-3.5,23.31-6.35,34.04-1.86,6.36-3.06,12.69-2.3,19.35.61,4.5,1.31,9.42,4.07,13.3,11.41,18.85,34,18.07,53.03,21.32,11.97,1.14,18.86,12.09,15.8,23.45-4.16,15.95-22.38,12.25-33.58,6.14-17.52-8.66-35.58-18.64-55.15-21.98-42.44-8.63-78.25,25.41-73.09,68.11,4.95,40.39,41.97,57.81,77.8,53.59-32.39,18.88-46.16,65.17-18.76,95.41,8.13,9.21,19.6,16.34,32.07,20.57,4.34,6.89,9.54,13.25,15.16,18.99,11.4,10.99,17.74,21.79,7.62,36.43-9.91,15.08-24.54,28.52-26.06,47.8-.47,5.43-.3,14.13,8.42,31.56,1.94,3.88,3.95,6.9,5.41,8.72,2.4,3,5.11,2.1,3.31-2.1-.94-2.2-1.3-4.59-3-9.92-6.61-20.74-9.18-31.21,8.72-49.89,12.87-13.43,28.7-27.73,23.79-48.5-2.32-11.7-10.53-20.01-17.97-28.7,22.64.08,43.44-10.69,49.07-36.84,6.35-30.19-24.28-57.39-53.57-51.02-21.69,4.3-34.32,26.75-33.07,47.66-.38-.39-.74-.78-1.09-1.18-17.52-19.58-3.53-51.9,20.1-58.97,6.94-2.17,14.29-2.98,21.56-2.94,12.8.09,25.36,3.24,38.42,4.04,15.55.85,31.53-1.5,45.56-8.81,41.37-20.99,33.18-80.3-11.75-90.17m-89.47,140.61c8.38-14.94,28.72-12.36,37.88.26,7.08,9.46,3.75,23.85-6.32,29.79-9.34,5.51-21.86,4.82-33.21.81-3.39-10.27-3.81-21.16,1.64-30.86m-72.39-110.69c-8.96-20.75,4.45-47.78,28.51-48.07,19.69-.63,38.09,10.04,55.57,18.11,10.07,5.18,21.63,9.14,33.13,8.92-12.92,7.14-24.88,16.87-36.01,24.98-12.74,9.24-25.23,15.61-40.69,16.33-16.5,1.17-34.07-4.44-40.51-20.28m172.5,20.63c-2.02,12.34-15.18,18.04-26.46,20.03-19.83,3.92-39.96-3.74-60.11-2.49-2.33.09-4.66.26-6.99.51,25.16-12.63,53.18-45.41,77.23-41.03,10.4,1.86,18.06,12.55,16.33,22.97"/><polygon class="cls-2" points="778.85 469.97 790.12 503.41 790.36 504.57 790.36 469.97 800.56 469.97 800.56 527.77 789.54 527.77 779.92 498.21 779.68 496.97 779.68 527.77 769.49 527.77 769.49 469.97 778.85 469.97"/><path class="cls-2" d="m738.16,469.81h13.59c5.14,0,8.7,3.55,8.7,8.75v40.7c0,5.12-3.56,8.67-8.7,8.67h-13.59c-5.22,0-8.79-3.55-8.79-8.67v-40.7c0-5.2,3.56-8.75,8.79-8.75m1.9,48.46h9.69c.25,0,.33-.08.33-.33v-38.14c0-.16-.08-.33-.33-.33h-9.69c-.17,0-.33.16-.33.33v38.14c0,.25.16.33.33.33"/><polygon class="cls-2" points="701.68 518.27 701.68 469.97 712.04 469.97 712.04 518.27 722.4 518.27 722.4 527.77 691.32 527.77 691.32 518.27 701.68 518.27"/><polygon class="cls-2" points="663.64 469.97 663.64 495.24 674 495.24 674 469.97 684.36 469.97 684.36 527.77 674 527.77 674 504.73 663.64 504.73 663.64 527.77 653.28 527.77 653.28 469.97 663.64 469.97"/><rect class="cls-2" x="633.88" y="469.97" width="10.36" height="57.79"/><polygon class="cls-2" points="603.14 469.97 614.41 503.41 614.65 504.57 614.65 469.97 624.85 469.97 624.85 527.77 613.83 527.77 604.21 498.21 603.97 496.97 603.97 527.77 593.77 527.77 593.77 469.97 603.14 469.97"/><path class="cls-2" d="m562.44,469.81h13.59c5.14,0,8.7,3.55,8.7,8.75v40.7c0,5.12-3.56,8.67-8.7,8.67h-13.59c-5.22,0-8.79-3.55-8.79-8.67v-9h10.36v7.68c0,.25.16.33.33.33h9.7c.25,0,.33-.08.33-.33v-38.14c0-.16-.08-.33-.33-.33h-9.7c-.16,0-.33.16-.33.33v12.47h5.72v9.49h-16.08v-23.2c0-5.2,3.56-8.75,8.79-8.75"/><polygon class="cls-2" points="507.73 518.27 507.73 469.97 518.09 469.97 518.09 518.27 528.45 518.27 528.45 527.77 497.38 527.77 497.38 518.27 507.73 518.27"/><path class="cls-2" d="m468.12,469.81h13.59c5.14,0,8.7,3.55,8.7,8.75v40.7c0,5.12-3.56,8.67-8.7,8.67h-13.59c-5.22,0-8.78-3.55-8.78-8.67v-40.7c0-5.2,3.56-8.75,8.78-8.75m1.91,48.46h9.69c.25,0,.33-.08.33-.33v-38.14c0-.16-.08-.33-.33-.33h-9.69c-.16,0-.33.16-.33.33v38.14c0,.25.17.33.33.33"/><path class="cls-2" d="m409.77,469.97h22.29v57.79h-22.29c-5.22,0-8.78-3.55-8.78-8.67v-40.37c0-5.2,3.56-8.75,8.78-8.75m1.57,9.82v38.14c0,.25.17.33.33.33h10.03v-38.8h-10.03c-.16,0-.33.16-.33.33"/><polygon class="cls-2" points="391.86 469.97 391.86 527.77 364.93 527.77 364.93 518.27 381.5 518.27 381.5 504.57 369.07 504.57 369.07 495.48 381.5 495.48 381.5 479.47 364.93 479.47 364.93 469.97 391.86 469.97"/><path class="cls-2" d="m337.08,487.97l16.74,16.51c2.4,2.31,3.64,5.12,3.64,8.67v6.11c0,5.12-3.48,8.67-8.7,8.67h-13.59c-5.22,0-8.78-3.55-8.78-8.67v-9h10.35v7.68c0,.25.17.33.33.33h9.69c.25,0,.33-.08.33-.33v-5.7c0-.33-.08-.49-.33-.74l-16.74-16.51c-2.32-2.31-3.64-5.12-3.64-8.67v-7.76c0-5.2,3.56-8.75,8.78-8.75h13.59c5.22,0,8.7,3.55,8.7,8.75v9h-10.35v-7.76c0-.16-.08-.33-.33-.33h-9.69c-.16,0-.33.16-.33.33v7.43c0,.33.17.5.33.74"/><path class="cls-2" d="m295.06,492.51h11.93v-22.54h10.35v57.79h-22.29c-5.22,0-8.78-3.55-8.78-8.67v-17.91c0-5.12,3.48-8.67,8.78-8.67m1.91,25.76h10.03v-16.26h-10.03c-.16,0-.33.08-.33.33v15.6c0,.25.17.33.33.33"/><path class="cls-2" d="m258.92,477.82h12.59l1.57-7.84h10.86l-12.43,57.79h-12.51l-12.43-57.79h10.86l1.49,7.84Zm1.82,9.08l4.22,22.04.25,2.07.25-2.07,4.3-22.04h-9.03Z"/><rect class="cls-2" x="229.91" y="469.97" width="10.35" height="57.79"/><path class="cls-2" d="m199.82,469.97l5.88,22.54h4.81v-22.54h10.35v57.79h-22.29c-5.22,0-8.78-3.55-8.78-8.67v-17.91c0-4.21,2.32-7.35,6.13-8.34l-6.96-22.87h10.86Zm10.69,32.03h-10.03c-.16,0-.33.08-.33.33v15.6c0,.25.17.33.33.33h10.03v-16.26Z"/></svg>