<?xml version="1.0" encoding="UTF-8"?><svg id="Layer_1" xmlns="http://www.w3.org/2000/svg" xmlns:xlink="http://www.w3.org/1999/xlink" viewBox="0 0 193.4 265.48"><defs><style>.cls-1{fill:#e47d25;}.cls-1,.cls-2,.cls-3,.cls-4,.cls-5,.cls-6,.cls-7,.cls-8,.cls-9,.cls-10,.cls-11{stroke-width:0px;}.cls-2{fill:#ee9022;}.cls-3{fill:#eaeac5;}.cls-4{fill:#d3ccba;}.cls-5{fill:#e6bc79;}.cls-6{fill:#efab59;}.cls-7{fill:#eb8923;}.cls-8{fill:#d17028;}.cls-9{fill:#bd5227;}.cls-10{fill:#fff;}.cls-11{fill:#c05d27;}.cls-12{mask:url(#mask);}.cls-13{filter:url(#luminosity-invert-noclip);}</style><filter id="luminosity-invert-noclip" x="79.5" y="6.71" width="107.32" height="228.41" color-interpolation-filters="sRGB" filterUnits="userSpaceOnUse"><feColorMatrix result="cm" values="-1 0 0 0 1 0 -1 0 0 1 0 0 -1 0 1 0 0 0 1 0"/><feFlood flood-color="#fff" result="bg"/><feBlend in="cm" in2="bg"/></filter><mask id="mask" x="79.5" y="6.71" width="107.32" height="228.41" maskUnits="userSpaceOnUse"><g class="cls-13"><path class="cls-10" d="m84.28,159.33c3.48,1.57,6.98,1.56,10.46,3.19,1.01.47,4.33,3,7.7,4.6,3.65,1.73,7.4,2.62,9.78,3.84,4.02,2.07-3.27.12-3.81-.06-8.01-2.69-7.91-4.31-17.24-2.74-5.07,1.03-5.21,3.99-4.79,6.99.84.75-1.05,2.91-.18,3.66,1.99,1.73,3.6,2.11,5.53,3.83-1.06,1.14.72,1.39-1.08,3.56-.72,5.76,2.62,10.76,6.47,14.47,1.59,1.53,2.94,1.91,4.23,3.52,2.44,3.04,3.18,4.69,5.21,7.95,3.25,5.22,7.81,11.96,12.83,15.54,2.99,2.58,6.71,4.99,10.16,7.45h57.26c-6.79-20.94-17.56-57.83-21.4-64.87-2.83-5.2-4.27-7.71-7.1-12.91-6.06-7.13-13.99-13.24-22.1-19.41-5.54-4.22-10.93-8.66-16.8-12.66-8.05-1.78-11.85-2.48-20.53-5.14-1.43-.44-3.65-1.06-5.3-1.63-6.99-.97-10.97,1.95-11.06,6.39-.02,1.12,1.68,3.2,3.27,4.71,1.94.9,4.72,3.6,10.96,5.7.86.29,6.08,2.81,7.83,3.12,5.9,5.04,13.26,8.94,21.55,14.78.1,1.45,1.23,4.08-1.72,3.86-13.73-6.53-17.12-8.82-23.99-10.2-2.34-.47-10.86-1.86-12.83-1.34-.9.24-7.69,2.58-8.1,6.44-.09,3.27,1.39,5.83,4.78,7.36Z"/></g></mask></defs><path class="cls-10" d="m46.54,92.65c.21.93-.52,1.14-1.14,1.14h-6.85c-.62,0-1.04-.52-1.25-1.14l-6.95-34.35c-.1-.42-.52-.73-1.04-.73h-1.97c-.62,0-1.14.42-1.14,1.04v34.04c0,.62-.42,1.14-1.04,1.14h-6.75c-.62,0-1.14-.52-1.14-1.14V22.19c0-.62.52-1.14,1.14-1.14h15.88c5.6,0,10.17,4.88,10.17,10.48v15.88c0,3.53-1.87,6.54-4.67,8.41-.42.31-.62.83-.42,1.66l7.16,35.18Zm-11.1-58.01c0-2.39-1.87-4.57-4.15-4.57h-3.94c-.62,0-1.14.42-1.14,1.04v16.5c0,.52.52.93,1.14.93h3.94c2.28,0,4.15-1.87,4.15-4.15v-9.75Z"/><path class="cls-10" d="m80.37,81.34c0,10.48-6.75,13.91-13.59,13.91s-13.59-3.42-13.59-13.91V22.19c0-.93.93-1.04,1.14-1.04h6.64c.62,0,1.14.42,1.14,1.04v58.84c0,2.49.73,4.98,4.67,4.98s4.67-2.49,4.67-4.98V22.19c0-.93.93-1.04,1.14-1.04h6.64c.62,0,1.14.42,1.14,1.04v59.15Z"/><path class="cls-10" d="m131.11,22.09v70.57c0,.62-.52,1.14-1.04,1.14h-6.75c-.62,0-1.14-.52-1.14-1.14v-43.07l-9.65,37.77c-.1.62-.42,1.14-1.04,1.14h-4.15c-.62,0-1.04-.52-1.14-1.14l-9.65-37.77v43.07c0,.62-.42,1.14-1.04,1.14h-6.75c-.62,0-1.14-.52-1.14-1.14V22.09c0-.62.52-1.04,1.14-1.04h7.99c.42,0,.93.1,1.04.52.42,1.45,11.62,49.4,11.62,49.4,0,0,11.21-47.94,11.62-49.4.1-.42.52-.52.93-.52h8.09c.52,0,1.04.42,1.04,1.04Z"/><path class="cls-10" d="m24.2,15.84l-1.03,1.03c-.09.09-.25.09-.36,0l-.76-.76c-.4.16-.83.22-1.28.22-1.46,0-2.93-.76-2.93-3V3c0-2.26,1.48-3,2.93-3s2.93.74,2.93,3v10.33c0,.56-.09,1.03-.25,1.43l.74.74c.09.09.09.25,0,.34Zm-2.42-12.77c0-.52-.16-1.08-1.01-1.08s-1.01.56-1.01,1.08v10.19c0,.52.16,1.05,1.01,1.05s1.01-.54,1.01-1.05V3.07Z"/><path class="cls-10" d="m35.51,13.33c0,2.26-1.46,3-2.93,3s-2.93-.74-2.93-3V.56c0-.2.2-.22.25-.22h1.43c.13,0,.25.09.25.22v12.7c0,.54.16,1.08,1.01,1.08s1.01-.54,1.01-1.08V.56c0-.2.2-.22.25-.22h1.43c.13,0,.25.09.25.22v12.77Z"/><path class="cls-10" d="m43.83,14.09h3.29c.16,0,.29.11.29.29v1.3c0,.18-.13.34-.31.34h-5.22c-.18,0-.31-.16-.31-.34V.65c0-.18.13-.31.31-.31h5.24c.18,0,.31.13.31.31v1.32c0,.18-.13.31-.31.31h-3.32c-.18,0-.31.13-.31.31v4.08c0,.18.13.31.31.31h2.64c.18,0,.31.13.31.31v1.3c0,.18-.13.31-.31.31h-2.64c-.2,0-.31.13-.31.31v4.55c0,.18.16.31.34.31Z"/><path class="cls-10" d="m55.3,14.09h3.29c.16,0,.29.11.29.29v1.3c0,.18-.13.34-.31.34h-5.22c-.18,0-.31-.16-.31-.34V.65c0-.18.13-.31.31-.31h5.24c.18,0,.31.13.31.31v1.32c0,.18-.13.31-.31.31h-3.32c-.18,0-.31.13-.31.31v4.08c0,.18.13.31.31.31h2.64c.18,0,.31.13.31.31v1.3c0,.18-.13.31-.31.31h-2.64c-.2,0-.31.13-.31.31v4.55c0,.18.16.31.34.31Z"/><path class="cls-10" d="m69.21.56c0-.13.09-.25.22-.25h1.46c.13,0,.25.11.25.25v15.21c0,.11-.11.22-.25.22h-1.39c-.13,0-.25-.11-.29-.22-.29-1.1-1.9-6.36-2.78-9.63v9.63c0,.13-.09.25-.22.25h-1.46c-.13,0-.25-.11-.25-.25V.54c0-.13.11-.22.25-.22h1.5c.09,0,.2.02.22.11l2.73,10.04V.56Z"/><path class="cls-10" d="m80.01,2.11c-.67,0-1.19.56-1.19,1.43,0,2.89,4.53,4.73,4.53,8.67,0,1.52-.96,3.96-3.41,3.96-1.81,0-3.18-1.19-3.2-3.58v-.54c0-.13.11-.25.25-.25h1.43c.13,0,.25.11.25.25v.47c0,1.1.6,1.72,1.34,1.72s1.34-.65,1.34-2.13c0-3.14-4.61-4.64-4.61-8.58,0-1.95,1.43-3.36,3.18-3.36s3.18,1.41,3.18,3.14c0,.13-.09.25-.22.25h-1.46c-.13,0-.25-.11-.25-.25,0-.65-.47-1.21-1.17-1.21Z"/><path class="cls-10" d="m94.53,14.07c.16,0,.31.11.31.31v1.3c0,.18-.07.34-.31.34h-5.24c-.13,0-.34-.16-.34-.34V.49s-.02-.16.2-.16h1.59c.18,0,.18.16.18.16v13.26s0,.31.31.31h3.29Z"/><path class="cls-10" d="m101.54.54c.04-.13.11-.25.25-.25h2.22c.13,0,.2.11.22.25.02.07,1.95,14.87,1.99,15.23.02.2-.09.25-.22.25h-1.48c-.13,0-.2-.11-.22-.25-.02-.13-.09-.54-.25-1.68-.02-.09-.07-.16-.18-.16h-1.97c-.09,0-.13.07-.16.16l-.25,1.68c-.02.13-.11.25-.25.25h-1.46c-.13,0-.27-.04-.25-.25l1.99-15.23Zm.67,11.63h1.37c.09,0,.18-.09.16-.18l-.85-9.5-.85,9.5c0,.11.09.18.18.18Z"/><path class="cls-10" d="m116.42.56c0-.13.09-.25.22-.25h1.46c.13,0,.25.11.25.25v15.21c0,.11-.11.22-.25.22h-1.39c-.13,0-.25-.11-.29-.22-.29-1.1-1.9-6.36-2.78-9.63v9.63c0,.13-.09.25-.22.25h-1.46c-.13,0-.25-.11-.25-.25V.54c0-.13.11-.22.25-.22h1.5c.09,0,.2.02.22.11l2.73,10.04V.56Z"/><path class="cls-10" d="m124.62.65c0-.18.13-.31.31-.31h3.36c1.21,0,2.2,1.05,2.2,2.24v11.29c0,1.19-1.08,2.15-2.29,2.15h-3.27c-.18,0-.31-.11-.31-.29V.65Zm2.24,13.44h.87c.51,0,.94-.4.94-.9V3.2c0-.49-.43-.96-.94-.96h-.94c-.13,0-.25.09-.25.22v11.31c0,.18.13.31.31.31Z"/><path class="cls-7" d="m16.93,99.53c0-.59.45-1.04,1.04-1.04h11.14c4.01,0,7.28,3.49,7.28,7.42v37.42c0,3.93-3.56,7.13-7.57,7.13h-10.84c-.59,0-1.04-.37-1.04-.97v-49.97Zm7.42,44.55h2.9c1.71,0,3.12-1.34,3.12-2.97v-33.12c0-1.63-1.41-3.19-3.12-3.19h-3.12c-.45,0-.82.3-.82.74v37.5c0,.59.45,1.04,1.04,1.04Z"/><path class="cls-7" d="m45.58,99.16c.15-.45.37-.82.82-.82h7.35c.45,0,.67.37.74.82.07.22,6.46,49.3,6.61,50.49.07.67-.3.82-.74.82h-4.9c-.45,0-.67-.37-.74-.82-.07-.45-.3-1.78-.82-5.57-.07-.3-.22-.52-.59-.52h-6.53c-.3,0-.45.22-.52.52l-.82,5.57c-.07.45-.37.82-.82.82h-4.83c-.45,0-.89-.15-.82-.82l6.61-50.49Zm2.23,38.54h4.53c.3,0,.59-.3.52-.59l-2.82-31.48-2.82,31.48c0,.37.3.59.59.59Z"/><path class="cls-7" d="m62.22,99.31c-.07-.52.37-.82.82-.82h4.31c.59,0,1.19.45,1.26,1.19l4.6,26.8,4.45-26.8c.15-.74.59-1.19,1.19-1.19h4.46c.59,0,.96.37.74,1.19l-7.72,37.2v12.55c0,.59-.45,1.04-1.04,1.04h-4.23c-.59,0-1.04-.45-1.04-1.04v-12.55l-7.8-37.57Z"/><path class="cls-7" d="m18.77,160.1h-1.19c-.11,0-.18-.09-.18-.2,0-1.41,1.15-2.57,2.51-2.57s2.49,1.15,2.49,2.69c0,2.44-2.22,5.59-3.15,8.25-.13.37,0,.5.15.5h2.82c.15,0,.26.11.26.26v1.01c0,.15-.07.26-.22.26h-4.66c-.15,0-.24-.11-.24-.26,0-3.45,3.43-7.51,3.43-10.01,0-.66-.44-1.12-.88-1.12s-.93.46-.93.99c0,.11-.09.2-.2.2Z"/><path class="cls-7" d="m28.37,161.18c0,.77-.2,1.32-.51,1.69.31.38.51.93.51,1.7v3.45c0,1.85-1.19,2.46-2.4,2.46s-2.4-.6-2.4-2.46v-3.45c0-.77.2-1.32.53-1.7-.33-.37-.53-.92-.53-1.69v-1.41c0-1.85,1.21-2.46,2.4-2.46s2.4.6,2.4,2.46v1.41Zm-3.23-.06c0,.44.13.88.83.88s.82-.44.82-.88v-1.32c0-.42-.13-.86-.82-.86s-.83.44-.83.86v1.32Zm1.65,3.48c0-.42-.13-.86-.82-.86s-.83.44-.83.86v3.35c0,.44.13.88.83.88s.82-.44.82-.88v-3.35Z"/><path class="cls-7" d="m37.2,159.66v8.45c0,1.85-1.19,2.46-2.4,2.46s-2.4-.61-2.4-2.46v-8.45c0-1.85,1.21-2.46,2.4-2.46s2.4.6,2.4,2.46Zm-1.58.04c0-.42-.13-.86-.82-.86s-.83.44-.83.86v8.36c0,.44.13.88.83.88s.82-.44.82-.88v-8.36Z"/><path class="cls-7" d="m41.49,160.26v-.53c0-.4-.13-.84-.82-.84s-.81.44-.81.84v8.27c0,.42.13.86.81.86s.82-.44.82-.86v-.53c0-.11.09-.2.2-.2l1.12.07c.11.02.18.09.18.2v.9c0,1.5-1.28,2.03-2.33,2.03-1.19,0-2.36-.6-2.36-2.42v-8.38c0-1.8,1.17-2.4,2.36-2.4,1.04,0,2.33.48,2.33,1.83v1.03c0,.09-.05.17-.18.18l-1.12.15c-.11.02-.2-.07-.2-.2Z"/><path class="cls-7" d="m48.96,157.64v1.19c0,.11-.09.2-.2.2h-1.58c-.11,0-.2.09-.2.2v10.85c0,.11-.09.2-.18.2h-1.19c-.11,0-.2-.09-.2-.2v-10.85c0-.11-.09-.2-.2-.2h-1.56c-.11,0-.2-.09-.2-.2v-1.19c0-.11.09-.2.2-.2h5.11c.11,0,.2.09.2.2Z"/><path class="cls-7" d="m54.04,160.1h-1.19c-.11,0-.18-.09-.18-.2,0-1.41,1.15-2.57,2.51-2.57s2.49,1.15,2.49,2.69c0,2.44-2.22,5.59-3.15,8.25-.13.37,0,.5.15.5h2.82c.15,0,.26.11.26.26v1.01c0,.15-.07.26-.22.26h-4.66c-.15,0-.24-.11-.24-.26,0-3.45,3.43-7.51,3.43-10.01,0-.66-.44-1.12-.88-1.12s-.93.46-.93.99c0,.11-.09.2-.2.2Z"/><path class="cls-7" d="m63.64,159.77v8.21c0,1.85-1.19,2.46-2.4,2.46s-2.4-.6-2.4-2.46v-8.21c0-1.85,1.21-2.46,2.4-2.46s2.4.6,2.4,2.46Zm-3.23.04c0,.9.79,2.24,1.65,3.61v-3.61c0-.42-.13-.86-.82-.86s-.83.44-.83.86Zm1.65,7.64c0-.92-.79-2.31-1.65-3.74v4.21c0,.44.13.88.83.88s.82-.44.82-.88v-.48Z"/><path class="cls-7" d="m66.15,160.1h-1.19c-.11,0-.18-.09-.18-.2,0-1.41,1.15-2.57,2.51-2.57s2.49,1.15,2.49,2.69c0,2.44-2.22,5.59-3.15,8.25-.13.37,0,.5.15.5h2.82c.15,0,.26.11.26.26v1.01c0,.15-.07.26-.22.26h-4.66c-.15,0-.24-.11-.24-.26,0-3.45,3.43-7.51,3.43-10.01,0-.66-.44-1.12-.88-1.12s-.93.46-.93.99c0,.11-.09.2-.2.2Z"/><path class="cls-7" d="m70.97,166.62c0-.15.13-.26.28-.26h1.03c.15,0,.26.11.26.26v1.34c0,.44.13.88.83.88s.82-.44.82-.88v-3.12c0-.42-.11-.86-.81-.86h-.66c-.15,0-.26-.13-.26-.28v-1.21c0-.15.11-.26.26-.26h.64c.7,0,.82-.44.82-.88v-1.56c0-.42-.13-.86-.82-.86s-.83.4-.83.83c0,.15-.11.22-.26.22h-1.06c-.15,0-.26-.07-.26-.22,0-1.85,1.21-2.46,2.4-2.46s2.4.6,2.4,2.46v1.65c0,.77-.2,1.32-.51,1.69.31.38.51.93.51,1.7v3.21c0,1.85-1.19,2.46-2.4,2.46-1.72,0-2.38-1.38-2.4-2.46l.02-1.39Z"/><g class="cls-12"><path class="cls-10" d="m133.94,7.24s3.79.08,3.79.08c1.02,0,2.79.06,3.74.12,3.69.86,4.97,5.27,5.18,8.65.13,2.17-.59,9.13-.65,11.27-1.56,22.87-3.08,46.5-4.46,70.11,1,.09,1.99.18,2.99.28,1.12-23.66,2.12-47.36,2.99-70.31,0-4.39,1.03-11.17-.58-15.26-1.07-3.25-3.66-5.97-7.31-5.42-1.04,0-4.68.17-5.68.16-.18,0-.19.31,0,.3Z"/></g><path class="cls-10" d="m86.2,178.8c-.28-.25-.27-.64-.15-1.09-4.26.05-8.48.11-12.63.17-14.64.24-30.74.27-45.48.36-4.84-.14-10.27.91-14.31-2.41-2.95-2.26-4.57-5.78-4.53-9.5l-.16-3.79s-.58-15.15-.58-15.15C6.9,104.91,4.28,61.04,1.37,18.73c-.45-4.42,1.09-10.86,6.32-11.31l7.58-.18c.08,0,.14-.07.15-.15,0-.08-.06-.15-.15-.15,0,0-7.58-.22-7.58-.22C1.88,6.9-.3,13.92.03,18.8c1.67,47.49,4.27,96.34,7.68,143.81,0,0,.24,3.78.24,3.78,0,3.92,1.92,7.86,5.09,10.21,2.08,1.6,4.68,2.52,7.32,2.55,0,0,7.59,0,7.59,0,14.7,0,30.86.21,45.48.36,4.58.07,9.26.13,13.97.19-.38-.27-.78-.56-1.19-.91Z"/><path class="cls-8" d="m148.23,125.37s.01,0,.02,0c0,0,0,0,0,0,.19.06.36.13.51.22.09.05.15.1.2.14,0-.06.01-.13.02-.18.01-.09-.02-.16-.11-.19-.04-.01-.11-.02-.16-.03-.2,0-.41,0-.61-.01.04.01.09.02.13.04Z"/><path class="cls-8" d="m149.93,147.12c0-.81.05-1.62.08-2.44.01-.41,0-.82.02-1.23.07-2.27.16-4.53.18-6.8l.05-3.04c.03-.89.02-1.78.04-2.66.04-1.74.08-3.48.12-5.21-.02-.13-.04-.25-.07-.36-.23,0-.46,0-.69-.01,0,.17,0,.35-.02.52-.07.68.04,1.54.05,2.26.02.78,0,1.57-.02,2.35-.03.76-.02,1.52-.05,2.28-.03.77,0,1.54-.06,2.3-.01.16,0,.33-.14.45-.13.28-.26.57-.39.85-.2.47-.41.89-.62,1.3-.15,3.96-.36,7.63-.43,9.06-.01.15-.02.32-.03.47.2.17.4.35.61.53.02-.21.02-.42.03-.64.03-.77.14-1.67.06-2.41-.06-.55-.03-1.1-.03-1.66,0-.43.47-.48.57-.16.14.45-.04,2.38-.04,2.95,0,.81,0,1.62,0,2.43.27.24.54.47.81.71v-.7c.02-.38-.05-.76-.05-1.14Zm-.67-5.7c-.09.37-.44.33-.45-.04-.01-.42-.02-.83-.03-1.25h-.01c0-.37,0-.74,0-1.12,0-.21,0-.49.29-.49.28,0,.29.36.29.56,0,.62.06,1.75-.08,2.34Zm-.39-3.83c0-.42.63-.42.63,0,0,.43-.64.38-.63,0Z"/><path class="cls-8" d="m90.98,162.32c.31.12.63.26.96.39-.03-.08-.06-.15-.05-.22,0-.34-.01-.68-.02-1.02-.29-.08-.59-.16-.88-.23,0,.33,0,.7,0,1.08Z"/><path class="cls-8" d="m148.95,127.65s.02.12.02.21c-.02-.36-.03-.75-.03-1.12-.04.23-.06.52.01.91Z"/><path class="cls-8" d="m92.68,162.51c.83.44,1.8.91,2.69,1.13.15.04.31.05.46.11.57.18,1.14.36,1.72.54-1.3-.84-2.32-1.55-2.8-1.77-.74-.35-1.49-.61-2.24-.84,0,.19.01.39.02.58,0,.11.05.2.15.25Z"/><path class="cls-8" d="m148.56,130.5c0,.33,0,.67,0,1.02.13.09.26.13.31-.03.07-.24.16-.48.16-.74,0-.66.02-1.31-.01-1.97,0-.21-.02-.51-.04-.84.02.73-.09,2.35-.42,2.56Z"/><path class="cls-8" d="m148.86,132.83c-.07-.22-.18-.46-.3-.66,0,.07,0,.13,0,.2.12.16.22.31.3.46Z"/><path class="cls-8" d="m148.47,136.28c.33-.65.37-.78.42-1.62-.11.36-.26.82-.41,1.27,0,.12,0,.23-.01.35Z"/><path class="cls-8" d="m90.57,136.97c.06,1.41.03,2.91.09,4.32.06,1.4.04,2.8.09,4.19.31.02.62.05.95.08.03-1.07,0-2.13-.06-3.19-.02-.34.04-.67.05-1,0-.49-.02-.98-.04-1.48-.03-1.1-.04-2.19-.06-3.29-.02-.77-.05-1.54-.07-2.3,0-.42,0-.84,0-1.27-.36-.19-.7-.38-1.02-.57,0,.05,0,.11,0,.17.06,1.45.03,2.9.09,4.34Z"/><path class="cls-8" d="m144.56,125.31c.05-.01.12-.02.17-.03-2.16-.04-4.32-.07-6.48-.11.05,0,.09.02.14.03,2.06.04,4.11.07,6.17.11Z"/><path class="cls-8" d="m132.35,125.09c.08,0,.17,0,.25-.01-.31,0-.63-.01-.94-.02-.07,0-.13,0-.2,0,.02,0,.04,0,.06,0,.27,0,.55,0,.82.01Z"/><path class="cls-1" d="m147.96,137.27c-.08.13-.16.32-.25.55.04-.08.07-.15.09-.19.3-.64.51-1.05.67-1.35,0-.12,0-.23.01-.35-.21.61-.42,1.18-.52,1.34Z"/><path class="cls-1" d="m142.93,141.2c-.1,0-.24.04-.38.09.52.51,1,.97,1.42,1.38-.41-.72-.82-1.49-1.04-1.47Z"/><path class="cls-1" d="m148.55,132.37c0-.07,0-.13,0-.2-.08-.13-.16-.24-.25-.31-.1-.08-.19-.17-.29-.25.08.11.16.23.23.33.11.16.21.29.3.42Z"/><path class="cls-1" d="m112.14,147.74l-2.19-4.2c-.25-.01-.48-.03-.69-.05.11.26.25.54.42.76.08,0,.16.01.24.02.74,1.15,1.48,2.31,2.22,3.46Z"/><path class="cls-1" d="m148.56,130.5s-.04.02-.07.02c-.34,0-1.71-1.35-2.47-1.83-.91-.57-1.31-.71-1.69-.81.53.23,1.04.78,1.45,1.14.86.74,1.74,1.48,2.55,2.29.04.04.14.14.24.21,0-.35,0-.69,0-1.02Z"/><path class="cls-1" d="m119.99,153.28l-3.86-1.16-2.33-2.12c.28.36.56.73.84,1.09,0,.01.02.02.03.03.76.53,1.52,1.06,2.28,1.59.69.24,1.38.46,2.1.61.84.17.58.04,1.04.04l.81-.08c.91-.18,1.81-.36,2.72-.54l-3.63.54Z"/><path class="cls-1" d="m148.23,125.37s.01,0,.02,0c0,0,0,0,0,0,0,0-.01,0-.02,0Z"/><path class="cls-1" d="m131.69,125.09c.2,0,.43,0,.67,0-.27,0-.55,0-.82-.01.06,0,.1.02.16.02Z"/><path class="cls-1" d="m148.42,137.67c-.27.52-.56,1.02-.87,1.58-.61,1.11-.95,2.35-1.58,3.43-.25.43-.46.85-.66,1.26.47.43.76.67.82.66.17.38.26.84.32,1.35.51.42,1.02.84,1.52,1.26.01-.16.01-.32.03-.47.07-1.43.28-5.1.43-9.06Z"/><path class="cls-1" d="m101.55,146.47c-.43-.05-.99.08-1.58.3.17.03.33.06.46.09.88.18,1.7.37,2.5.58-.3-.51-.73-.89-1.38-.97Z"/><path class="cls-1" d="m144.56,125.31c-2.06-.04-4.11-.07-6.17-.11,1.86.32,4.45.43,6.17.11Z"/><path class="cls-1" d="m92.29,137.55c.05,1.61-.02,3.22.02,4.78.03.56.09,1.11.11,1.67.02.55.02,1.1.03,1.64,1.94.21,4.05.53,5.7.8,1.8-1.11,3.97-2.34,3.86-2.79,2.29.18,4.59.36,6.88.54,0,0,0-.01-.01-.02-.5-.98-.71-.73-.54-2.02-1.33-.74-3.47-2.75-4.19-2.53.16.04.32.08.48.12-1.76.5-2.86,1.13-7.39,1.08-1.39-.88-2.21-2.13-2.43-3.79.03-.79.07-1.61.1-2.42-1-.4-1.9-.8-2.7-1.21,0,.92,0,1.83.02,2.75.02.47.05.94.07,1.41Z"/><path class="cls-1" d="m125.28,128.78c.31-.62.68-1.25,1.14-1.9.15-.21.78.14,1.72.86.09-.08.18-.17.26-.27.18-.25.1-.28.12-.52.04-.41-.41-.66-.83-.69-.93-.06-1.9.61-3.27.51-.56,0-1.12,0-1.68.01-.16,0-.2-.02-.16-.18.07-.34.63-.1,1.02-.34.12-.07.88-.05,1.07-.06.69-.05,1.39-.15,2.03-.39.4-.15.82-.21,1.24-.28.21-.04.47.09.78.05.27-.04.74-.03.7.35-.03.25-.02.51-.09.75-.21.78.31.78-.2,1.17-.15.11-.29.22-.44.33.24.2.5.42.78.65.15-.05.31-.1.46-.15.19-.06.47-.14.49.14.02.37.17.6-.06.72-.02,0-.03.01-.05.02,1.67,1.48,3.71,3.41,5.76,5.39h0s.1.09.14.14c.43.41.85.83,1.28,1.24.09.09.18.17.26.26.39.38.78.76,1.16,1.14.08.08.17.16.25.25.39.38.77.75,1.14,1.12.01.01.03.03.04.04.01-.42.01-.85-.03-1.38-.11-1.44.32-2.85.2-4.03-.14-1.47.39-2.8.68-4.23.18-.9,1.03-1.94,1.99-1.25,0,0,.4.09.46.09.09,0,.48.17.95.38-.05-.04-.11-.08-.16-.12-.55-.38-1.71-.74-2.06-1.11-.08-.08-.11-.21-.1-.31-4.05-1.49-6.37.16-9.85-1.54-.54-.27-.94-.44-1.23-.56-.12,0-.23,0-.35,0-1.38.04-2.75.08-4.13.11l-.58.56-2.01-.17c-.19.02-.38.05-.58.06-.2,0-.17.11-.59.09-.22-.01-.42-.02-.61-.02-.52.22-.63.52-.85.76.05.07.04.19-.02.28.95.68,1.91,1.35,2.84,2.05.28.01.54.02.75.01.08,0,.14,0,.21,0Z"/><path class="cls-3" d="m100.31,116.86l-.29.22c.12-.06.21-.13.29-.22Z"/><path class="cls-3" d="m98.2,118.75l.32.29c.07-.24.19-.47.37-.66,0-.02-.02-.03-.03-.05-.03-.06-.06-.18-.09-.3l-.54.41c-.01.11-.02.22-.03.33Z"/><path class="cls-3" d="m116.62,124.3c1.28.08,2.54.38,3.83.36.16,0,.31.01.47.04.58.1,1.17.07,1.76.09.56.02,1.11-.06,1.67-.15.26-.04.57-.07.89-.09.93-.31,1.91-.77,2.72-1.43.66-.54.67-3.23,1.23-3.39.4-.11.85,1.04,1.21,1.91l.23-.22c-.12-.24-.25-.48-.39-.71-.1-.16-.23-.31-.31-.49-.03-.07-.06-.13-.09-.19l-1.06-1.09c.13.35.06.64-.61.57-.31-.03-2.54-3.58-4.03-3.98-2.04-.55-2.57-.65-4.7-.99-.94-.15-6.25-2.67-4.4-2.59,1.99.08,1.79.64,3.55,1.17,1.86.56,3.54,1.22,5.57,1.38.04,0,.11.02.18.04l-2.47-.87c-.57-.17-1.14-.34-1.71-.52-.46-.16-.9-.39-1.37-.53-.51-.16-1.74-.6-2.76-1.01l-5.97-2.1-1.16.88c.3-.06.85-.16.87-.16,2.75,0-.44,3.22-.44,3.36.08,2.6,2.56,5.83,2.3,6.85-.09.35-.72,1.57-1.16.66-.71-1.48-1.46-1.3-2.03-3.8-.01-.05-.02-.09-.03-.13-.34-.63-.64-1.27-.93-1.92-.35-.79-.31-.91-.37-1.73,0-.17.03-.34.04-.51.03-.42.08-.96.22-1.45l-3.75,2.84c.26-.14.51-.27.82-.27.1,0,.19-.05.28-.05,1.25,0,1.58,1.03,2.3,1.86.16.18.29.38.38.6.44,1.05.96,1.88,1.39,2.83.16.35.31.7.5,1.02.13.22.24.45.31.69.06.19.3.5.32.61.02.18.11.34.17.5.09.23.14.41.18.56.46.24.9.51,1.33.78.95.22,1.92.43,2.94.65.2,0,.4,0,.61,0,.5,0,1,.09,1.49.12Zm-4.86-7.45c-.21-.03-.42-.72.54-.35.59.23.83.22,1.34.43.55.23,1.14.35,1.66.65.23.13.48.24.73.34,1.48.63,2.42.95,3.88,1.73.23.12.28.34-.24.36-.22,0-.43-.06-.63-.15l-5.08-2.27c-.69-.15-1.68-.68-2.19-.75Z"/><path class="cls-3" d="m126.64,125.13c-.79.04-1.6.32-2.51.43l2.01.17.58-.56.05-.04s-.09,0-.13,0Z"/><path class="cls-3" d="m107.58,112.93s0,.05,0,.07c0-.02,0-.05,0-.07Z"/><path class="cls-3" d="m108.51,110.66l-.3.23c-.2.27-.27.56-.32.85.15-.35.35-.71.62-1.08Z"/><path class="cls-3" d="m104.66,121.27c-.16-.19-.5-.36-.71-.4-.63-.12-.96-.44-1.19-.42-.19.02-.39-.21-.62-.37.1.23.21.44.36.59.92.94,1.37.3,2.16.59Z"/><path class="cls-3" d="m109.66,122.63c-.25-.74-.69-1.39-1-2.11-.42-.96-2.21-4.07-2.29-4.35-.06-.23-.19-.42-.34-.59-.25-.27-.39-.85-.6-.93-.63-.22-.2-.08-.62-.11-.21-.07-1.09.16-1.32.22-.32.08-.62.2-.88.38l-.15.12c-.08.07-.16.14-.22.23-.25.31-.94.58-1.1.94-.13.3-.45.31-.56.78-.08.35-.31.3-.56.45-.44.27-.66-.05-.58.35.37-.15.85-.22,1.5-.16.52.05.72.78.95,1.52.25.05.46.22.67.36.7.47.68.52,1.51.74.77.2,1.21.56,1.53,1.28.05.11.11.23.17.36,1.22.32,2.37.61,3.5.89.15-.15.28-.28.39-.36Z"/><path class="cls-9" d="m140.3,139.09c-.37-.37-.75-.74-1.14-1.12.39.38.77.75,1.14,1.12Z"/><path class="cls-9" d="m121.2,153.82c-.12,0-.24.02-.35.05-.67.16-1.35.07-2.03.07-.48,0-3.59-1.37-3.9-1.73-.39-.46-.82-.89-1.28-1.28-.54-.45-.97-1.31-1.4-1.93-.27-.38-.57-.73-.83-1.11-.55-.84-1.1-1.67-1.68-2.48-.29-.4-.61-.77-.84-1.21-2.29-.18-4.59-.36-6.88-.54.11.45-2.06,1.69-3.86,2.79.71.12,1.34.23,1.82.32.6-.21,1.15-.35,1.58-.3.65.08,1.08.46,1.38.97,5.41,1.45,9.52,3.93,21.49,9.62,2.95.21,1.82-2.42,1.72-3.86-.04-.03-.07-.05-.11-.08-.38.05-.77.11-1.16.15-1.12.09-2.21.5-3.68.56Z"/><path class="cls-9" d="m145.31,143.94c-.12.26-.24.52-.36.77.5.41.99.82,1.49,1.23-.06-.5-.15-.97-.32-1.35-.05.02-.35-.23-.82-.66Z"/><path class="cls-9" d="m116.02,152.21c.19.08.17.23.57.38.12.04.24.08.36.12-.76-.53-1.52-1.06-2.28-1.59.37.46.8.85,1.35,1.09Z"/><path class="cls-9" d="m120.91,153.28l.9-.09c1.38-.31,2.41-.42,3.57-.52-.08-.05-.15-.1-.22-.15l-1.52.23c-.91.18-1.81.36-2.72.54Z"/><path class="cls-9" d="m130.3,129.57c-.27.14-.55.26-.86.25-.24,0-.67.32-1.44.38-.42.04-.98.11-1.56.18,3.21,2.45,6.36,4.94,9.55,7.37.02-.93.04-1.86.06-2.8-2.05-1.98-4.08-3.9-5.76-5.39Z"/><path class="cls-9" d="m129.46,128.83c-.27-.23-.53-.45-.78-.65-.34.25-.69.48-1.11.59-.61.15-.95.57-1.67.6-.26.01-.51.02-.76.02.19.14.38.28.56.43.86-.08,1.67-.27,2.56-.59.4-.14.8-.27,1.2-.4Z"/><path class="cls-9" d="m126.42,126.89c-.46.65-.82,1.28-1.14,1.9.67,0,1.05-.02,1.77-.42.37-.2.76-.35,1.08-.62-.94-.72-1.57-1.07-1.72-.86Z"/><path class="cls-9" d="m143.97,142.67c-.43-.41-.9-.88-1.42-1.38-.24.08-.52.18-.81.29v.58c.93.74,1.86,1.48,2.79,2.22.08-.18.17-.36.25-.54-.22-.15-.51-.64-.81-1.17Z"/><path class="cls-9" d="m109.92,144.28c-.08,0-.16-.01-.24-.02.07.1.15.2.23.27.14.13.11.35.23.5.1.12.17.26.26.39.58.87,1.36,2.07,2.11,3.03l-.38-.72c-.74-1.15-1.48-2.31-2.22-3.46Z"/><path class="cls-9" d="m137.48,136.33c-.42-.41-.85-.83-1.28-1.24.43.41.85.83,1.28,1.24Z"/><path class="cls-9" d="m138.91,137.72c-.38-.37-.77-.75-1.16-1.14.39.38.78.76,1.16,1.14Z"/><path class="cls-2" d="m112.14,147.74l.38.72c.29.37.58.71.85.97l.44.57,2.33,2.12,3.86,1.16,3.63-.54,1.52-.23c-4.9-3.39-9.47-6.16-13.58-8.91-.59,0-1.13-.02-1.62-.05l2.19,4.2Z"/><path class="cls-11" d="m97.24,140.82c4.53.05,5.62-.58,7.39-1.08-.16-.04-.32-.08-.48-.12.72-.21,2.86,1.79,4.19,2.53,0-.05,0-.09.02-.14.02-.14.13-.3.26-.48-1.4-1.01-2.75-2.04-4.02-3.12-1.75-.31-6.97-2.83-7.83-3.12-.66-.22-1.27-.45-1.86-.68-.03.82-.07,1.63-.1,2.42.22,1.65,1.04,2.91,2.43,3.79Z"/><path class="cls-5" d="m131.25,123.19c-.09.16-.2.3-.33.35-.27.11-.01.41-.52.37-.14-.01-.39.01-.29-.21.06-.13.64-.64.81-1.13-.02-.01-.04-.02-.07-.03-.11-.04-.28-.42-.47-.89-.36-.86-.81-2.02-1.21-1.91-.57.16-.57,2.85-1.23,3.39-.8.66-1.79,1.12-2.72,1.43,1.19-.07,2.64-.05,3.38-.24.38-.1,1.14.06,1.67.08.38-.34.85-.8.97-1.2Z"/><path class="cls-5" d="m128.46,124.99c-.15,0-.62.07-1.08.1,1.04-.05,1.89-.08,2.23-.14-.38.02-.77.05-1.15.04Z"/><path class="cls-5" d="m127.28,125.1c-.13,0-.26.01-.38.01-.09,0-.17.02-.26.02.04,0,.09,0,.13,0,.17,0,.34-.02.51-.02Z"/><path class="cls-5" d="m121.34,126.37c.08,0,.13.03.16.07.22-.24.33-.54.85-.76-.67-.02-1.21-.04-2-.15-.21-.03-.43-.05-.65-.07.44.3.86.61,1.29.91.02,0,.05,0,.07,0,.09,0,.18,0,.28,0Z"/><path class="cls-5" d="m109.66,122.63c-.11.08-.24.21-.39.36.21.05.42.1.63.15-.06-.07-.12-.15-.14-.23-.03-.1-.07-.19-.1-.29Z"/><path class="cls-5" d="m104.66,121.27c-.78-.29-1.23.35-2.16-.59-.15-.15-.26-.36-.36-.59-.13-.09-.28-.16-.43-.14-.2.03-.17.13-.28-.15-.16-.4-.13-.42.31-.45.05,0,.1.01.14.02-.23-.74-.43-1.47-.95-1.52-.65-.06-1.13,0-1.5.16.01.05.02.1.04.17.17.62-.31.78-.6.21-.18.19-.3.42-.37.66-.09.31-.1.65-.08.94.16.05.32.09.46.14,2.37.73,4.36,1.3,6.19,1.8-.12-.2-.25-.4-.37-.6-.01-.02-.03-.04-.05-.05Z"/><path class="cls-5" d="m110.23,123.22c.44.1.89.21,1.34.31-.43-.27-.87-.54-1.33-.78.06.26.05.4,0,.47Z"/><path class="cls-2" d="m143.19,128.24c-.96-.69-1.8.35-1.99,1.25-.29,1.43-.82,2.76-.68,4.23.11,1.18-.31,2.59-.2,4.03.04.53.04.96.03,1.38.49.48.97.95,1.43,1.4l-.03,1.05c.28-.11.57-.21.81-.29.15-.05.28-.08.38-.09.22-.01.63.75,1.04,1.47.3.53.59,1.02.81,1.17.36-.79.7-1.55.98-2.21.07-.18.14-.37.32-.47.09-.05,1.27-2.58,1.63-3.35.09-.23.17-.43.25-.55.09-.15.3-.72.52-1.34.15-.44.3-.9.41-1.27.02-.31.04-.72.09-1.3,0-.09-.04-.3-.12-.53-.08-.15-.19-.3-.3-.46-.09-.13-.2-.26-.3-.42-.07-.1-.15-.22-.23-.33-.47-.4-.94-.81-1.41-1.21-.65-.56-1.32-1.2-2.02-1.7-.47-.21-.86-.37-.95-.38-.05,0-.45-.09-.46-.09Z"/><path class="cls-6" d="m109.11,143.1c.04.12.09.26.15.4.21.02.44.03.69.05.49.03,1.04.04,1.62.05-.79-.53-1.57-1.06-2.33-1.6-.17.34-.25.72-.13,1.1Z"/><path class="cls-11" d="m130.83,124.92s-.06,0-.09,0c.09.03.21.06.36.09-.11-.04-.2-.08-.27-.1Z"/><path class="cls-11" d="m144.73,125.28c-.05.01-.12.02-.17.03-1.72.32-4.31.2-6.17-.11-.05,0-.09-.02-.14-.03-.23-.04-.46-.09-.67-.13-1.22-.28-3.37-.03-4.98.04-.08,0-.17,0-.25.01-.24,0-.46,0-.67,0-.06,0-.1-.01-.16-.02-.02,0-.04,0-.06,0-.13-.01-.26-.02-.36-.04.03.01.07.03.1.04.29.12.69.29,1.23.56,3.47,1.7,5.8.04,9.85,1.54.01-.11.09-.19.24-.15.42.11,1.28.65,1.77.85.01,0,.03.02.04.02.38.1.78.24,1.69.81.76.48,2.13,1.83,2.47,1.83.02,0,.05-.01.07-.02.33-.2.44-1.83.42-2.56,0-.03,0-.05,0-.08,0-.09-.01-.16-.02-.21-.07-.39-.06-.68-.01-.91,0-.39,0-.74.02-1-.05-.05-.11-.09-.2-.14-.15-.09-.33-.16-.51-.22,0,0-.01,0-.02,0-.04-.01-.09-.03-.13-.04-.18-.05-.36-.09-.55-.12-.7-.04-1.47-.05-2.04-.05-.27.03-.52.06-.74.11,0,0-.02,0-.03,0Z"/><path class="cls-4" d="m141.77,140.53c-.45-.44-.93-.91-1.43-1.4-.01-.01-.03-.03-.04-.04-.37-.36-.75-.74-1.14-1.12-.08-.08-.17-.16-.25-.25-.38-.37-.77-.75-1.16-1.14-.09-.09-.18-.17-.26-.26-.42-.41-.85-.83-1.28-1.24-.05-.05-.1-.09-.14-.14h0c-.02.94-.04,1.87-.06,2.8.08.06.15.12.22.17,1.85,1.41,3.69,2.82,5.5,4.23v-.58s.04-1.05.04-1.05Z"/><path class="cls-10" d="m129.76,163.38c-3.21.53-8.3,1.34-8.6,2.05-.3.7,3.32-.13,6.95-.12s4.74-.22,4.76-1.29c.02-1.06.09-1.17-3.11-.64Z"/><path class="cls-10" d="m190.9,240.69c-8.63-20.4-23.8-71.98-29.12-79.92-1.52-2.26-5.07-6.69-7.11-8.35-.77-.63-1.81-1.49-3.03-2.52l.08-4.23c.02-.92.02-1.85.05-2.77.05-1.5.03-3,.09-4.5.06-1.54.03-3.09.09-4.63.03-.74.01-1.48.04-2.21.06-1.59.03-3.19.09-4.79.06-1.5.03-3,.09-4.5.06-1.6.02-3.19.09-4.79.07-1.6.04-3.21.09-4.81l.08-4.07c.04-2.17.09-4.34.13-6.51.02-.74-.5-.79-.55-1.2-.06-.51-4.24-1.49-4.83-1.58-2.71-.44-5.44-.8-8.19-.93-.6-.03-1.2-.1-1.8-.15-2.87-.24-5.53-.37-8.42-.33-.56,0-1.12,0-1.68,0h0c-1.26,0-2.52,0-3.78,0-.57,0-1.15,0-1.72.05-.87.07-1.74.05-2.62.01-.52-.02-1.03.02-1.54.03-2.63.02-5.27-.05-7.9-.07-.81,0-1.61.07-2.41.06-1.39,0-2.76.12-4.16.1-.9-.02-1.8.04-2.71.07-1.8.05-4.56.19-6.34.57-.88.18-1.88.31-2.73.59-.7.23-1.5.38-2.17.7-.59.28-.43,2.07-.57,3.01-.16,1.03-.04,7.35.08,8.99.06.81.05,2.87.14,3.62.02.21.03,1.31.03,2.4-.11,0-.21.01-.32.03-5.09.56-9.35,6.6-3.54,11.63,1.19,1.03,2.72,1.84,4.2,2.58,0,.65.01,1.31.03,1.96.06,2.33.03,4.66.09,6.98.03,1.2.04,2.41.05,3.61-5.36.22-4.03,1.81-7.57,3.06-2.18.77-2.84,3.87-2.4,5.94.66,3.09,1.98,5.35,5.15,6.45,2.37.82,2.49.86,4.89,1.28.05,0,.09.02.14.02,0,.72.01,1.45.03,2.17.04,1.31.02,2.63.04,3.94,0,.09.01.23.03.38-.36.11-.76.25-1.24.41-1.2.41-2.26,3.1-2.47,4.2-.37,1.97.3,2.03.55,3.33.58,3.09,5.17,4.75,7.31,6.75-2.23.64-3.28,2.23-3.51,4.67-.31,3.17-.28,1.99.17,4.12,1.49,7.12,8.56,10.74,11.51,14.5,2.21,2.81,2.77,4.47,4.59,7.54,0,0,0,0,0,0,1.34,2.28,4.58,6.38,4.62,6.56,5.83,6.86,5.77,6.45,12.23,11.53,2.71,2.13,5.03,3.28,7.82,5.72,5.51,4.81,10.11,11.09,12.88,17.71.29.7,2.21,5.03,3.53,8.46.87,2.26,1.8,2.84.92.16-1.11-3.4-2.94-8.08-3.19-8.73-6.27-16.72-11.98-17.39-21.58-24.76-6.81-5.23-10.72-10.51-16.01-17.2-2.06-3.26-3.58-6.86-6.39-9.55-4.03-3.87-6.78-5.54-9.21-10.57-1.53-3.18-.2-4.49,1.96-7.48.54-.74.63-.59.55-.69-.69-.87-2.86,3.41-3.32,4.05,0-2.13.71-3.76,2.47-4.74.35-.2,2.24-.4,2.56-.23,1.72.91,3.58,1.58,5.35,2.41,1.98.92,5.48,2.69,7.43,3.79,1.27.72,1.05-.32.5-.73-1.67-1.23-4.5-1.96-6.54-3.22-5.14-2.45-8.94-4.62-13.7-7.81-.05-.03-1.36-2.34-1.37-2.62-.08-2.67.69-3.51,1.6-5.66.72-1.69,5.62-1.65,7.29-1.77,2.41-.6,3.89.38,6.15.86.44.09,3.57,2.23,8.51,3.34.52.12,4.78.86,3.59-.79-.69-.96-3.73-1.31-4.76-1.94-.14-.09-.31-.17-.49-.26-2.98-.84-8.41-3.11-10.63-5.02-1.02-.88-2.21-1.49-3.28-2.3-1.64-1.24-5.13-1.47-7.15-1.83-1.67-.3-7.54-1.86-6.6-4.46-.09-1.46.83-5.08,1.25-6.61.34-1.22,2.53-2.34,3.65-2.55,3.7-.7,10.4-.02,14.16.95,12.51,3.21,16.23,9.3,26.65,10.68,1.92.25,9.29-.68,10.18-1.91-.06-.04-.13-.12-.19-.11-2.46.23-9.03,1.46-11.1.87.84-2.73.45-3.91-1.74-5.75-1.87-1.58-3.74-2.36-7-4.22-2.23-1.27-11.32-7.84-12.17-9.26-1.5.32-11.91-4-12.49-4.41-.22-.15-.73-.46-1.37-.83,0,.01,0,.03,0,.04,0-.01,0-.03,0-.04-2.02-1.17-6.63-3.35-7.59-5.52,3.18.4,2.15-.65,4.24-3.77.49-.73,1.34-1.45,1.47-2.37.31-2.21,0-.9-.66-.13-1.27,1.48-2.28,3.15-2.95,4.97-.52,1.41-4.61-.08-2.51-3.68,1.59-2.71,5.44-3.27,9.29-2.98,3.01.23,5.15,1.65,7.06,2.28,4.14,1.37,9.38,1.98,14.07,3.02,1.65.4,3.18,1.11,4.73,1.79,2.38,1.04,3.99,2.96,6.06,4.38,5.42,3.95,10.41,7.51,15.51,11.78,5.39,4.51,12.67,11.36,14.41,13.17,1.39,1.45,3.71,3.91,5.9,7.66,9.78,16.73,20.03,58.4,28.33,77.96,3.62,8.53,3.64,10.88,3.91,10.27.29-.66.1-4.82-2.4-10.75Zm-103.31-66.14c-.1.04-.2.09-.31.13-1.12-1.17.07-4.98,1.7-5.16.19.32-1.56,3.26-1.39,5.03Zm19.5-5.13c.72.19,1.44.37,2.16.56-.19,0-.38-.01-.58-.02-.56-.03-1.12-.03-1.68-.05-.17-.25-.17-.58.1-.48Zm-1.05-.43c.4.19-.77.76-1.19-.42.3-.1.9.29,1.19.42Zm-10.4-5.3c-.09-.02-.18-.03-.27-.06-.9-.22-1.87-.7-2.69-1.13-.1-.06-.15-.14-.15-.25,0-.04,0-.07,0-.11,1.13.29,1.71.64,3.12,1.55Zm-4.66-1.37c0-.17,0-.33,0-.49.33.06.63.12.89.17,0,.17,0,.33,0,.5,0,.07.02.14.05.22.08.19.26.38.42.45.61.25,1.23.51,1.85.74.61.23,1.24.43,1.86.65.6.22,1.21.39,1.83.56.93.54,1.58.78,2.85,1.57.24.15.3.55-.08.4-.76-.3-3.54.1-4.42.16-3.05.21-3.88.1-5.12.35-.05-.24-.05-.5-.06-.71,0-.55-.06-1.1-.07-1.65,0-.25.01-.49-.01-.74-.05-.5-.02-1.35,0-2.18Zm-8.36-12.94c-.43,2.3-.86,4.61-1.28,6.91-.05,0-.1.02-.15.02-1.17-1.27-1.49-3.2-1.16-4.85.26-1.31,2.75-2.81,2.59-2.09Zm42.04,6.29c-.8.29-3.3-.68-5.57-1.73.59.02,1.18.07,1.76-.08.12-.03.24-.04.35-.05,1.46-.06,2.55-.46,3.66-.56.78.92,1.05,1.96-.21,2.41Zm-15.59-13.12c.51.4,1.13.88,1.9,1.46,2.08,1.78,12.4,7.98,12.4,8.01.34.2.69.45,1,.73-.79.09-1.59.2-2.56.43l-.9.09-.81.08c-.46,0-.19.13-1.04-.04-.72-.15-1.41-.37-2.1-.61-.12-.04-.24-.08-.36-.12-.41-.15-.38-.3-.57-.38-.55-.24-.98-.62-1.35-1.09,0-.01-.02-.02-.03-.03-.28-.36-.56-.73-.84-1.09l-.44-.57c-.27-.27-.56-.6-.85-.97-.76-.96-1.53-2.16-2.11-3.03-.09-.13-.16-.27-.26-.39-.12-.15-.09-.37-.23-.5-.08-.08-.16-.17-.23-.27-.16-.23-.31-.5-.42-.76-.06-.14-.11-.28-.15-.4-.06-.18-.07-.36-.04-.54Zm-13.13-6.58c8.3,2.67,9.76,3.61,10.36,4.09.48.39.38.53,2.06,1.92,0,0,0,.01,0,.02,0,.06-.01.09-.02.14-.17,1.29.04,1.04.54,2.02,0,0,0,.01.01.02.23.44.55.82.84,1.21.59.81,1.13,1.65,1.68,2.48.25.39.56.73.83,1.11.43.62.87,1.47,1.4,1.93.1.08.18.17.27.25-1.42-.81-2.85-1.51-4.36-2.24-8.01-3.87-10-4.13-17.12-4.17,0-.26,0-.52-.01-.78-.02-.56-.08-1.12-.11-1.67-.04-1.56.02-3.17-.02-4.78-.01-.47-.05-.94-.07-1.41-.02-.74-.02-1.48-.02-2.22,1.24.69,2.49,1.38,3.73,2.06Zm-4.43-2.47c0,.26,0,.52,0,.79.01.77.05,1.54.07,2.3.02,1.1.03,2.19.06,3.29.01.49.04.98.04,1.48,0,.34-.06.67-.05,1,.04.8.06,1.6.06,2.4-.32,0-.63,0-.96,0-.02-1.16-.02-2.32-.07-3.48-.06-1.41-.03-2.91-.09-4.32-.05-1.33-.04-2.66-.08-4,.36.18.69.36,1.02.54Zm59.43-30.81s0,.03-.02.04c-.09.14-.08.3-.08.45l-.09,4.59c-.06,1.57-.02,3.23-.09,4.79-.07,1.56-.03,3.13-.09,4.7-.06,1.58-.04,3.16-.09,4.74-.03,1.15-.04,2.3-.06,3.45,0,.09,0,.18,0,.27-.04,1.74-.08,3.48-.12,5.21-.02.89,0,1.78-.04,2.66l-.05,3.04c-.02,2.27-.11,4.53-.18,6.8-.01.41,0,.82-.02,1.23-.03.81-.08,1.62-.08,2.44,0,.38.06.76.06,1.14v.25c-.27-.23-.54-.45-.83-.69,0-.67,0-1.33,0-2,0-.57.18-2.49.04-2.95-.1-.32-.57-.27-.57.16,0,.55-.02,1.11.03,1.66.08.74-.03,1.65-.06,2.41,0,.08,0,.16-.01.23-1.09-.92-2.26-1.9-3.49-2.92.07-.15.14-.31.21-.46.2-.41.41-.83.66-1.26.63-1.09.97-2.32,1.58-3.43.31-.56.6-1.06.87-1.58.22-.41.42-.83.62-1.3.13-.28.26-.57.39-.85.15-.12.13-.29.14-.45.06-.77.03-1.54.06-2.3.03-.76.02-1.52.05-2.28.03-.78.04-1.57.02-2.35-.01-.71-.12-1.58-.05-2.26.02-.17.02-.35.02-.52,0-.09,0-.19,0-.28,0-.22-.31-.4-.5-.43-.47-.06-1.94-.2-2.38-.08-.78.22-1.58.18-2.37.19-.27,0-2.31-.72-2.1.07.08.28.73.11,1.46.31.46.13.82.03,1.27.02.13,0,.29,0,.47,0,.57,0,1.35,0,2.04.05.45.03.86.07,1.16.13.05.01.11.02.16.03.1.03.13.09.11.19,0,.05-.01.12-.02.18-.02.26-.03.61-.02,1,0,.37.02.76.03,1.12,0,.03,0,.05,0,.08.01.33.03.63.04.84.03.66.02,1.31.01,1.97,0,.26-.09.5-.16.74-.05.16-.18.12-.31.03-.1-.07-.19-.16-.24-.21-.81-.81-1.68-1.54-2.55-2.29-.41-.36-.92-.91-1.45-1.14-.01,0-.03-.02-.04-.02-.49-.2-1.35-.74-1.77-.85-.15-.04-.22.04-.24.15-.01.1.02.23.1.31.35.37,1.51.74,2.06,1.11.05.04.11.08.16.12.69.5,1.36,1.14,2.02,1.7.47.4.94.81,1.41,1.21.1.08.19.17.29.25.09.07.17.18.25.31.12.2.23.44.3.66.08.23.13.44.12.53-.04.58-.07.99-.09,1.3-.06.83-.1.97-.42,1.62-.15.3-.36.71-.67,1.35-.02.04-.05.1-.09.19-.36.77-1.55,3.3-1.63,3.35-.19.11-.25.3-.32.47-.28.65-.62,1.42-.98,2.21-.03.07-.07.14-.1.21-5.37-4.48-11.78-9.71-17.37-13.78.25-.03.49-.06.69-.08.77-.07,1.2-.39,1.44-.38.31,0,.59-.12.86-.25.02,0,.03-.01.05-.02.23-.12.08-.35.06-.72-.02-.28-.3-.21-.49-.14-.15.05-.3.1-.46.15-.4.13-.8.26-1.2.4-.61.22-1.19.36-1.76.46-.16-.11-.32-.23-.48-.34.64-.07.98-.44,1.55-.58.41-.1.77-.33,1.11-.59.15-.11.29-.22.44-.33.51-.39-.01-.39.2-1.17.07-.25.06-.5.09-.75.04-.38-.44-.39-.7-.35-.3.05-.57-.08-.78-.05-.42.07-.83.14-1.24.28-.65.24-1.35.34-2.03.39-.18.01-.95-.01-1.07.06-.39.25-.95,0-1.02.34-.03.16,0,.18.16.18.56,0,1.12,0,1.68-.01,1.37.1,2.34-.57,3.27-.51.43.03.87.28.83.69-.02.24.06.27-.12.52-.08.11-.17.19-.26.27-.32.27-.71.42-1.08.62-.73.4-1.1.42-1.77.42-.02,0-.04,0-.06,0-1.84-1.28-3.55-2.4-5.06-3.27.06,0,.13.01.19.02.79.11,1.33.13,2,.15.19,0,.39.01.61.02.41.02.39-.09.59-.09.2,0,.39-.03.58-.06.91-.11,1.72-.39,2.51-.43.09,0,.17-.02.26-.02.12,0,.25,0,.38-.01.03,0,.07,0,.1,0,.46-.03.92-.11,1.08-.1.39,0,.77-.02,1.15-.04.14,0,.29-.02.43-.01.2,0,.45,0,.69-.01.03,0,.06,0,.09,0,.21-.02.41-.04.57-.09.21-.05-.12-.35-.38-.39-.22-.03-.43-.04-.65-.05-.03,0-.06,0-.09,0-.53-.02-1.29-.18-1.67-.08-.74.19-2.2.17-3.38.24-.32.02-.63.05-.89.09-.55.09-1.11.17-1.67.15-.59-.02-1.18,0-1.76-.09-.16-.03-.31-.04-.47-.04-.74.01-1.48-.08-2.21-.18-.81-.39-1.55-.69-2.16-.84-1.81-.46-3.86-.84-5.93-1.23-.02-.07-.05-.14-.08-.22-.06-.17-.15-.32-.17-.5-.01-.11-.26-.42-.32-.61-.07-.24-.18-.47-.31-.69-.2-.33-.35-.68-.5-1.02-.43-.95-.95-1.78-1.39-2.83-.09-.22-.22-.42-.38-.6-.72-.83-1.06-1.87-2.3-1.86-.09,0-.19.05-.28.05-.31,0-.56.14-.82.27-.01,0-.02,0-.03.01-.71.37-1.41.75-2.09,1.16-.27.16-.49.39-.72.6-.14.13-.21.44-.44.69-.08.08-.17.16-.29.22-.14.07-.32.12-.55.13-.18,0-.35.04-.53.09-.24.06-.23.44-.17.73.03.13.06.24.09.3,0,.02.02.03.03.05.29.58.77.41.6-.21-.02-.07-.03-.12-.04-.17-.09-.41.14-.08.58-.35.25-.15.47-.1.56-.45.11-.47.43-.48.56-.78.15-.36.85-.63,1.1-.94.07-.09.15-.16.22-.23.05-.04.1-.08.15-.12.26-.18.56-.3.88-.38.23-.06,1.11-.29,1.32-.22.41.03-.01-.11.62.11.21.07.35.66.6.93.16.17.28.37.34.59.08.29,1.87,3.39,2.29,4.35.26.6.61,1.17.87,1.78-1.37-.25-2.75-.52-4.07-.81-.31-.54-.72-.84-1.38-1.02-.82-.22-.8-.27-1.51-.74-.21-.14-.42-.32-.67-.36-.05,0-.09-.02-.14-.02-.45.03-.47.05-.31.45.11.28.08.17.28.15.16-.02.3.05.43.14.23.16.43.39.62.37.23-.02.56.3,1.19.42.2.04.55.21.71.4.01.02.03.03.04.05-.66-.16-1.31-.32-1.93-.5-1.62-.46-3.14-.97-4.63-1.43.01-.21.03-.43.05-.63,0-.11.02-.22.03-.33.02-.19.04-.37.06-.54.05-.34.08-.68.1-1.02,0-.13.06-.22.16-.27.27-.13.39-.31.61-.45,1.1-.72,2.13-1.59,3.38-2.04.41-.15,1.85-1.3,2.35-1.67.55-.4,1.21-1.06,1.62-1.59.38-.5,1.05-.8,1.57-1.13.4-.25,1.11-.26,1.36-.33.76-.22,2.49.18,3.02.48.7.39,1.43.72,2.11,1.12.25.15.8.39,1.42.63,1.02.41,2.25.85,2.76,1.01.47.15.91.37,1.37.53.57.17,1.14.34,1.71.52l.3.09c.69.15.94.17,1.64.42.17.06.34.15.53.15.16,0,.7.39.98.61-.39-.2-.74-.34-.98-.4-.06-.02-.13-.04-.18-.04-2.02-.16-3.7-.82-5.57-1.38-1.76-.53-1.55-1.09-3.55-1.17-1.85-.08,3.47,2.44,4.4,2.59,2.13.34,2.66.44,4.7.99,1.49.4,3.72,3.95,4.03,3.98.67.07.73-.21.61-.57-.13-.36-.44-.78-.53-.96-.03-.06-.23-.36-.44-.69.16.17.31.34.44.52.19.26.4.34.76.93.28.46.58.82.82,1.29.03.06.07.12.09.19.07.17.21.32.31.49.14.23.27.47.39.71.11.23.22.47.32.71.06.14.04.29-.01.44-.17.49-.75,1-.81,1.13-.1.22.15.2.29.21.5.05.24-.26.52-.37.13-.05.24-.19.33-.35.13-.22.23-.49.28-.66.18-.67-.57-2.2-.97-2.75-.29-.39-.2-.47-.37-.73-.3-.4-.6-.8-.9-1.2-.3-.15-.43-.48-.68-.69-.24-.2-.49-.62-.73-.75-.04-.02-.06-.06-.09-.1-.32-.37-.67-.73-1.04-1.04-.18-.15-.67-.8-.86-1.03-.17-.2-.73-.55-.93-.54-.23.02-.44-.06-.65-.13-.44-.16-.89-.23-1.34-.36-.81-.23-2.49-.68-3.25-1-.6-.25-1.23-.4-1.83-.67-.49-.22-1-.39-1.5-.57-1.09-.39-2.12-.92-3.1-1.54-.47-.3-.55-.38-1.11-.51-1.42-.36-2.65-.35-4.09-.02-.37.08-1.28.66-1.63.87-.21.12-.38.28-.53.48-.46.63-1.96,2.14-2.67,2.52-.31.17-.6.37-.85.61-.51.48-1.8,1.08-2.43,1.59-.16.12-.33.23-.52.31l-1.02.79c-.17.16-.34.17-.38.43-.11.8-.53,1.91-.54,2.7-2.41-.72-4.75-1.28-7.33-1.26-.02-.94-.02-1.87-.06-2.81-.06-1.48-.03-2.95-.09-4.43-.06-1.45-.04-2.91-.09-4.36-.04-1.11-.08-3.76.07-4.85.09-.67.64-.46.82-.56.3-.16,2.02-.43,2.53-.57,1.94-.52,4.02-.34,4.53-.44.59-.12,3.11-.23,3.77-.25,3.84-.16,7.68,0,11.53-.11.89-.04,1.79-.08,2.68-.11.87,0,1.73,0,2.6,0,.83.03,1.65.07,2.48.07l10.11.04h0c.99.01,1.98.01,2.98.01.72,0,1.43.09,2.14.12.73.02,1.46.08,2.19.14,3.64.28,5.31.38,8.92,1.01,1.08.19,2.12.53,3.14.94.23.09.4.25.49.49.06.16-.12.32,0,.47Z"/><path class="cls-10" d="m109.74,110.23s-.57.1-.87.16c-.11.02-.19.04-.19.04-.06.08-.11.15-.16.23-.27.38-.47.74-.62,1.08.05-.29.12-.58.32-.85,0,0,.01-.02.02-.03.13-.17.31-.4.09-.56-.29-.22-.47.3-.61.46-.18.2-.29.48-.37.78-.14.49-.19,1.03-.22,1.45-.01.17-.05.34-.04.51.06.82.01.95.37,1.73.29.65.59,1.3.93,1.92.01.04.02.09.03.13.58,2.5,1.32,2.32,2.03,3.8.44.91,1.07-.31,1.16-.66.26-1.01-2.22-4.24-2.3-6.85,0-.15,3.19-3.36.44-3.36Z"/><path class="cls-10" d="m149.05,138.52c-.28,0-.29.29-.29.49,0,.37,0,.74,0,1.12h.01c0,.42.02.83.03,1.25.01.38.37.42.45.04.14-.59.09-1.71.08-2.34,0-.21-.01-.57-.29-.56Z"/><path class="cls-10" d="m148.86,137.59c0,.39.62.43.63,0,0-.43-.62-.42-.63,0Z"/><path class="cls-10" d="m119.89,119.66c-1.46-.78-2.4-1.1-3.88-1.73-.25-.11-.49-.21-.73-.34-.52-.3-1.11-.42-1.66-.65-.51-.21-.75-.2-1.34-.43-.96-.37-.75.33-.54.35.52.07,1.51.6,2.19.75l5.08,2.27c.2.09.41.15.63.15.52-.02.47-.24.24-.36Z"/></svg>