<?xml version="1.0" encoding="UTF-8"?>
<svg id="Layer_1" data-name="Layer 1" xmlns="http://www.w3.org/2000/svg" viewBox="0 0 203.16 227.25">
  <defs>
    <style>
      .cls-1 {
        fill: #cbc0ab;
        stroke-width: 0px;
      }
    </style>
  </defs>
  <path class="cls-1" d="m75.86,17.82c-.05.06-.11.12-.16.17-.07.07-.06.16-.02.22-.1.25-.19.5-.27.76-1.11,2.21-1.32,4.68.22,7.33.76,1.31,1.81,2.43,2.96,3.45,1.54,1.61,3.43,2.92,5.41,4.05,2.3,1.54,4.7,2.93,7.2,4.14,5.94,2.88,12.28,4.44,18.75,5.47.51.1,1.02.2,1.52.29,7.4,1.32,14.87,2.48,22.37,3.02,1.48.15,2.95.29,4.43.41-.03.77,1.16,1.05,1.39.22.01-.04.02-.07.03-.11,3.43.26,6.85.44,10.27.47.11,0,.17-.11.16-.2,2.76.1,5.52.14,8.28.1,3.28-.04,6.56-.12,9.83-.41,2.97-.26,6.09-.4,9-1.04.36-.08.26-.6-.08-.62-3.23-.17-6.57.15-9.81.19-3.13.04-6.25.19-9.38.23-2.17.03-4.33.03-6.5.04-.72-.04-1.44-.07-2.16-.11-.79-.05-1.57-.12-2.36-.19,1.01-2.48,1.26-5.4,1.76-8.01.09-.45-.57-.65-.7-.19-.73,2.61-1.85,5.39-2.02,8.11-1.91-.18-3.81-.4-5.71-.64.74-3.1,1.34-6.2,2.04-9.32.08-.37-.46-.52-.57-.16-.94,3.12-1.97,6.18-2.86,9.3-.37-.05-.73-.09-1.1-.14-1.55-.19-3.09-.38-4.64-.57.87-2.25,1.22-4.87,1.79-7.15.77-3.11,1.31-6.23,1.98-9.35.08-.35-.4-.47-.53-.15-1.24,2.99-2.44,5.85-3.34,8.98-.66,2.3-1.64,4.95-1.81,7.44-2.54-.31-5.09-.64-7.63-.98.14-.09.28-.2.37-.4,1.65-3.25,2.62-7.01,3.7-10.48,1.16-3.74,2.62-7.34,4.13-10.94.28-.68-.91-1.19-1.2-.51-1.53,3.58-2.99,7.19-4.62,10.74-1.51,3.29-3.2,6.83-3.91,10.39-.08.42.1.79.38,1.04-2.1-.29-4.2-.59-6.3-.92,1.12-3.23,2.3-6.43,3.6-9.59,1.43-3.48,2.69-7.14,4.24-10.56,1.46-3.21,3.42-6.32,5.23-9.34,1.83-3.05,3.59-6.18,5.53-9.16.14-.21-.2-.4-.34-.2-2.23,3.17-4.41,6.27-6.34,9.65-1.76,3.1-3.19,6.42-5.01,9.47-3.68,6.15-6.37,12.69-8.7,19.46-.29-.05-.59-.09-.88-.14-1.27-.21-2.54-.42-3.82-.64,1.32-3.49,2.45-7.03,3.93-10.47,1.6-3.72,3.41-7.3,5.44-10.8.39-.68-.64-1.28-1.05-.61-4.06,6.59-8.19,13.98-10.26,21.55-1.87-.33-3.73-.7-5.58-1.13.79-2.25,1.41-4.56,2.23-6.8.98-2.71,2.54-5.31,3.95-7.82.45-.8-.76-1.51-1.24-.72-1.56,2.58-2.76,5.27-4.17,7.93-1.18,2.23-2.28,4.44-3.04,6.84-2.01-.54-3.99-1.17-5.91-1.93,1.74-3.27,3.44-6.55,5.2-9.81.85-1.57,1.82-2.98,2.85-4.43,1.15-1.63,2.05-3.41,3.38-4.91.39-.44-.2-1.02-.64-.64-2.73,2.41-4,5.76-5.95,8.75-2.22,3.4-4.45,6.8-6.45,10.33-.47-.21-.94-.4-1.4-.63-.78-.39-1.54-.8-2.27-1.23,1.82-3.44,3.79-6.8,5.49-10.3.24-.5-.44-.9-.74-.44-2.12,3.24-3.97,6.64-5.96,9.96-1.29-.83-2.52-1.71-3.7-2.66.79-1.4,1.43-2.89,2.31-4.25,1.16-1.79,2.45-3.69,3.89-5.26.15-.17-.08-.4-.25-.25-2.66,2.44-5.6,5.44-6.94,8.96-1.11-.94-2.18-1.93-3.23-2.95.85-1.17,1.65-2.4,2.62-3.44.17-.19-.09-.44-.28-.28-1.13.94-2.27,1.77-3.28,2.79-.82-.83-1.63-1.67-2.44-2.54-.25-.91-.29-1.89-.04-2.95.6-2.57,2.4-4.6,4.3-6.41.01,0,.02-.01.04-.02.05-.02.07-.05.08-.09.54-.51,1.08-1.01,1.6-1.49.03-.03.04-.06.04-.09.53-.46,1.05-.92,1.58-1.37,2.66-2.26,5.65-4.2,8.2-6.57.21-.19-.06-.51-.3-.38-4.71,2.45-8.94,6.35-12.73,10.3-1.4.75-2.43,1.91-3.08,3.29Z"/>
  <path class="cls-1" d="m6.92,102.97c1.53,4.7,4.22,9.05,7.97,11.46.67.43,1.41.76,2.17,1.04.91.42,1.86.73,2.85.85.62.08,1.29.11,1.97.1.18.22.36.44.55.64.46.48,1.22-.12.93-.69.13,0,.26,0,.38-.01.23.01.45.03.68.03.1,0,.18-.04.24-.1.85-.08,1.68-.19,2.47-.36,4.11-.86,6.61-3.55,8.32-7.26,3.96-8.61,5.49-18.51,4.3-27.91-1-7.89-3.18-18.04-10.7-22.3-.45-.26-.92-.48-1.39-.69-.66-.33-1.35-.63-2.1-.87-2.94-.93-5.77-.52-8.28.76-.02,0-.05.02-.08.03-3.88,1.59-6.41,5.04-8.03,8.79-1.19,2.14-2.1,4.43-2.78,6.81-.06.03-.1.08-.12.16-.03.18-.06.36-.08.54-.17.64-.33,1.29-.46,1.94-.66,3.11-.95,6.29-1,9.46-.03,2.18-.06,4.56.21,6.83-.05,3.73.41,7.45,1.98,10.75Zm23.73-34.4c.84-1.19,1.6-2.62,2.15-3.99,1.11,1.84,1.97,3.91,2.64,6.03-.99.58-1.77,1.48-2.36,2.44-.12.19.16.41.32.24.7-.72,1.49-1.29,2.29-1.88.02.07.04.13.06.2.82,3.29,1.23,6.7,1.53,9.66.21,2.06.35,4.16.42,6.27-.03,1.19-.09,2.38-.2,3.57-.29-.53-.61-1.05-.89-1.57-.4-.73-1.45-.09-1.1.64.53,1.1.99,2.28,1.73,3.25-.31,2.33-.78,4.63-1.4,6.9-.01-.03-.02-.06-.04-.1-1.52-2.31-2.87-4.71-3.96-7.26-.2-.46-1.01-.13-.82.35,1.03,2.62,2.29,5.11,3.91,7.43.2.29.56.27.77.1-.13.44-.24.89-.38,1.33-.22.7-.45,1.45-.7,2.21-1.03-1.63-2.25-3.14-3.24-4.8-1.15-1.94-2.3-3.88-3.42-5.83-.24-.42-.86-.05-.64.38,1.04,2,2.09,4,3.18,5.97,1.09,1.97,1.88,4.13,3.1,6.02.08.13.19.22.3.29-.31.77-.65,1.53-1.04,2.25-.79-1.37-1.84-2.56-2.6-3.96-.22-.4-.8-.05-.61.36.82,1.72,1.13,3.65,2.13,5.3-.49.65-1.03,1.23-1.66,1.72-2.21-3.45-4.53-6.65-6.31-10.39-.1-.22-.42-.03-.32.19,1.65,3.71,3.08,7.61,5.06,11.16-.74.36-1.55.64-2.41.86-2.07-3.58-4.36-6.95-6.06-10.74-.18-.39-.86-.11-.7.29,1.47,3.65,2.88,7.44,4.92,10.82-.68.1-1.36.15-2.04.17-.85-1.34-1.7-2.66-2.31-4.19-.22-.54-1.09-.32-.89.24.44,1.27.95,2.64,1.6,3.91-.09,0-.18-.02-.27-.03-9.42-4.51-9.94-17.98-9.85-27.5.1-11.38,3.13-22.3,12.87-28.71,1.53.11,3.04.51,4.36,1.24,1.83,1.02,3.31,2.55,4.53,4.35-.09.03-.18.09-.23.19-.76,1.34-1.42,2.95-1.82,4.43-.07.27.28.4.44.18Zm-20.5,9.02c-1.79,6.08-1.72,13.09-.91,19.14.51,3.79,1.43,7.58,2.81,11.14.45,1.15.98,2.32,1.64,3.4-1.79-1.76-3.17-4.04-4.31-6.19-2.23-4.21-3-8.71-3.36-13.4,0,0,0,0,0,0,.03-2.1.2-4.21.45-6.32.75-6.51,1.75-12.64,4.05-18.69,1.79-2.92,3.37-5.81,6.66-7.37,1.31-.62,2.77-.99,4.25-1.12-6.7,3.87-9.93,11.61-11.28,19.41Z"/>
  <path class="cls-1" d="m76.95,10.79c-.73.51-1.65,1.02-1.5,2.07.1.7.92,1.66,1.67,1.1.19-.14.2-.48-.07-.54-1.38-.3-.64-1.77.03-2.46.08-.08-.03-.24-.13-.17Z"/>
  <path class="cls-1" d="m24.66,78.65c-.12-.67-.23-1.35-.31-2.03-.18-1.64-.14-3.31-.33-4.95-.28-2.48-1.68-4.69-3.52-6.34-.34-.3-.97-.11-.95.39,0,.24,0,.47,0,.71-.41,2.88-1.11,5.91-.14,8.7.04.11.08.23.12.34.34,1.59.79,3.18,1.29,4.74-2.07,1.98-3.15,5.37-2.33,8.09-.01,0-.02-.01-.04-.01-1.47.16-3.71,1.04-5.08.53-1.28-.47-.99-3.25-.95-4.42.02-.75.09-1.5.19-2.24.65-.03,1.3-.07,1.96,0,.91.1,1.7.43,2.56.7.36.11.54-.39.24-.58-1.26-.83-3.17-1.09-4.69-.68.35-2.28,1-4.51,1.68-6.72.37.53.92.89,1.45,1.26.34.24.67.48,1.03.7.31.19.72.26,1.01.46.12.08.26-.11.15-.2-.23-.2-.38-.54-.6-.76-.32-.32-.69-.61-1.04-.91-.55-.47-1.1-.96-1.8-1.15,1.91-5.99,4.72-11.11,10.74-13.41-.24,2.01-.24,4.02-.03,6.04.02.23.39.24.37,0-.14-2.13.03-4.21.39-6.31.04-.01.07-.03.11-.04.27-.09.16-.49-.12-.43h0c-.15-.25-.6-.3-.65.06,0,.04,0,.07-.01.11-5.12,1.4-8.41,6.51-10.41,11.1-2.45,5.6-4.27,11.86-2.83,17.96.04.17.22.31.4.3,2.05-.05,4.07-.29,5.98-1.04.03-.01.05-.04.07-.06.01.03.02.07.03.1.04.1.19.09.19-.03.06-2.98.7-5.15,2.4-7.31.25.72.5,1.44.76,2.13.05.15.15.24.26.31-.03.04-.06.08-.09.13-.01.02,0,.05-.01.07-.13.22-.24.49-.33.77-1.16,2.69-.72,6.76,2.12,7.52,5.07,1.35,6.61-8.46,2.13-10.07-.17-.06-.31-.01-.41.08-.02,0-.05,0-.07,0-.18-.04-.35-.07-.53-.08,0,0,0-.01,0-.02.04-.07.07-.14.06-.23-.04-.85-.16-1.69-.3-2.53,1.74.12,3.28.4,4.65,1.69,1.23,1.17,2.24,2.84,2.54,4.51.01.05.04.09.08.12,0,0,0,0-.01,0-.15.05-.16.26,0,.31.73.23,1.51.12,2.27.06.69-.05,1.37-.08,1.98-.42.12-.07.1-.28-.04-.31-.7-.14-1.39.01-2.1.08-.58.06-1.16.05-1.73.18.01-.03.03-.05.03-.08-.2-2.3-.91-4.22-2.78-5.7-1.4-1.11-3.3-1.73-5.02-1.21Zm-2.46,1.36c0-.11-.05-.23-.12-.31-.51-1.51-1.08-3-1.73-4.44-.38-1.09-.51-2.2-.51-3.31.26-1.43.41-2.84.58-4.28.53.91,1.09,1.8,1.33,2.86.46,1.96.47,4.07.83,6.07.35,1.95.79,3.88,1.27,5.81,0,0,0,0,0,0-.27.11-.53.25-.77.43-.01-.04-.03-.09-.04-.14-.21-.91-.51-1.8-.84-2.69Zm1.31,4.14s0,0,.01,0c.69-.21,1.13.44,1.3,1,.29.96.09,1.98.35,2.92.05.17.16.28.3.35-.07.35-.16.76-.35,1.05-.13.19-.33.32-.55.4-.1,0-.19,0-.29.02-.06.01-.11.04-.15.06-.18,0-.36-.01-.53-.07,0,0,0-.01,0-.02-.64-.76-.89-1.77-.95-2.77.06-.97.32-2.08.86-2.94Z"/>
  <path class="cls-1" d="m155.74,76.72c-.55,5.32-.69,10.68-.87,16.03-.09,2.67-.15,5.34-.29,8.01-.13,2.52-.51,5.17-.12,7.68.06.4.69.37.77,0,.55-2.33.37-4.84.43-7.23.07-2.82.21-5.64.32-8.46.22-5.33.48-10.67.33-16-.19,0-.39-.02-.58-.03Z"/>
  <path class="cls-1" d="m155.08,117.51c-.03-.73-1.16-.73-1.14,0,.14,4.5.14,9,.25,13.49.1,4.18-.26,8.43-.01,12.6.13,2.21.23,4.09,0,6.3-.22,2.1-.37,4.19-.49,6.29-.25,4.49-.18,8.98-.47,13.48-.04.58.86.58.9,0,.32-4.48.91-8.99,1.03-13.48.06-2.1.05-4.19-.04-6.29-.1-2.18.09-4.12.28-6.3.37-4.13.04-8.45.07-12.6.03-4.49-.2-9.01-.38-13.49Z"/>
  <path class="cls-1" d="m153.73,173.35c-.41,3.94-1.09,8.59-.22,12.5.11.48.86.48.96,0,.87-3.91.19-8.56-.22-12.5-.03-.34-.49-.34-.53,0Z"/>
  <path class="cls-1" d="m151.29,76.74c-.49,4.41-1.41,9.44-.51,13.83.07.35.59.32.68,0,1.17-4.32.56-9.4.34-13.83-.02-.33-.47-.32-.51,0Z"/>
  <path class="cls-1" d="m150.48,98.26c-.42,3.61-1.14,8.02-.09,11.56.12.39.74.43.83,0,.76-3.71.29-7.78.72-11.56.11-.94-1.36-.93-1.47,0Z"/>
  <path class="cls-1" d="m149.72,117.03c-.03,14.28-.16,28.55-.81,42.83-.32,6.98-.82,13.96-1.09,20.95-.14,3.64-.19,7.28-.3,10.92-.1,3.57-.71,7.37-.31,10.92.04.34.54.47.64.09.77-3.24.62-6.79.87-10.1.28-3.64.61-7.28.81-10.92.38-7.13.45-14.26.58-21.4.28-14.43.66-28.86.77-43.28,0-.74-1.16-.75-1.16,0Z"/>
  <path class="cls-1" d="m146.43,75.75c-.67,9.91-.7,19.93-.96,29.85-.14,5.42-.29,10.84-.45,16.26-.16,5.63-.87,11.56-.3,17.17.03.33.57.48.64.09.85-5.16.56-10.67.74-15.9.2-5.72.39-11.44.6-17.17.36-10.03.97-20.14.92-30.19-.39-.04-.78-.07-1.18-.11Z"/>
  <path class="cls-1" d="m144.77,146.35c0-.34-.5-.42-.6-.08-.86,3.06-1.82,7.67-.67,10.72.15.39.69.42.83,0,.51-1.58.32-3.33.36-4.98.05-1.89.11-3.77.07-5.65Z"/>
  <path class="cls-1" d="m144.27,161.57c.1-.71-.98-1.03-1.1-.3-1.31,8.51-2.18,17.15-2.6,25.76-.44,8.94.21,17.7,1.01,26.59.05.52.86.53.82,0-.59-8.52-.42-17.17-.24-25.7.19-8.85.88-17.58,2.11-26.34Z"/>
  <path class="cls-1" d="m141.88,94.84c.17-3.93.34-7.86.5-11.79.1-2.49.35-5.07.43-7.61-.28-.02-.56-.05-.84-.07-.21-.02-.42-.04-.64-.06-.13,2.28-.13,4.6-.26,6.84-.21,3.78-.43,7.56-.65,11.34-.45,7.71-.96,15.41-1.41,23.12-.44,7.56-.73,15.1-1.08,22.66-.18,3.93-.45,7.85-.75,11.78-.29,3.87-.98,7.91-.8,11.78.03.57.92.76,1.04.14.68-3.57.6-7.38.82-11.01.23-3.78.44-7.55.76-11.33.65-7.71,1.32-15.38,1.77-23.11.44-7.55.78-15.11,1.11-22.67Z"/>
  <path class="cls-1" d="m136.81,168.33c-1.37,15.83-2.46,31.7-2.04,47.6.02.81,1.24.81,1.25,0,.07-3.89.04-7.79.07-11.69.04-4.08.2-8.07.49-12.13.27-3.89.05-7.79.27-11.67.23-4.04.51-8.07.83-12.11.04-.57-.83-.56-.88,0Z"/>
  <path class="cls-1" d="m135.82,94.88c.25-5.14.48-10.28.67-15.42.06-1.53.17-3.11.13-4.67-.56-.07-1.13-.14-1.69-.22-.16,1.54-.42,3.11-.44,3.53-.13,2.12-.25,4.23-.36,6.35-.26,4.68-.44,9.37-.66,14.06-.21,4.54-.42,9.07-.62,13.61-.18,4.24-1.08,9.16-.12,13.31.14.6.96.52,1.13,0,.74-2.23.67-4.63.79-6.96.13-2.57.27-5.14.4-7.71.26-5.29.51-10.58.77-15.88Z"/>
  <path class="cls-1" d="m132.94,129.32c-.36,2.28-.82,4.5-.92,6.82-.05,1.21.16,2.4.14,3.6-.01,1.36-.39,2.7-.51,4.06-.46,5.11-.36,10.24-.96,15.33-.58,4.92-.57,9.94-.69,14.89-.06,2.56-.11,5.12-.12,7.67-.01,2.43-.25,4.97.28,7.36.11.49.87.48.98,0,.54-2.24.38-4.62.45-6.91.07-2.41.12-4.82.19-7.22.14-5.1.51-10.25.36-15.34-.15-4.98.34-9.91.55-14.88.05-1.21-.04-2.4-.01-3.61.03-1.47.45-2.87.62-4.33.29-2.47.14-4.91.12-7.38,0-.27-.44-.35-.48-.07Z"/>
  <path class="cls-1" d="m129.27,195.32c-.26,4.12-.53,8.24-.8,12.36-.25,3.71-1.02,7.95-.38,11.62.09.55.9.48,1.04,0,1.04-3.58.73-7.91.89-11.62.18-4.12.37-8.24.57-12.36.04-.85-1.26-.84-1.31,0Z"/>
  <path class="cls-1" d="m128.3,102.38c.06.45.79.67.89.12.9-5.29.72-10.79.83-16.14.08-4.03.5-8.35.17-12.48-.56-.09-1.11-.18-1.67-.27-.52,4.04-.28,8.32-.36,12.3-.12,5.45-.55,11.05.14,16.47Z"/>
  <path class="cls-1" d="m128.12,127.24c.09-2.14.62-4.17.77-6.29.29-4.06.18-8.1.27-12.16.01-.45-.65-.44-.69,0-.31,4.05-.93,8.08-.95,12.16-.01,2.12.26,4.15.11,6.29-.13,1.95-.28,3.89-.42,5.84-.29,4.04-.73,8.08-1.07,12.12-.34,4.04-1.33,8.51-.98,12.54.04.46.68.59.83.11,1.11-3.64.99-7.97,1.26-11.76.3-4.19.43-8.37.61-12.57.09-2.1.18-4.19.26-6.29Z"/>
  <path class="cls-1" d="m125.31,166.94c-.2,2.89-.39,5.82-.04,8.7.05.43.61.43.67,0,.35-2.88.16-5.81-.04-8.7-.03-.38-.56-.38-.59,0Z"/>
  <path class="cls-1" d="m124.69,181.9c-.2,0-.2.31,0,.31s.2-.31,0-.31Z"/>
  <path class="cls-1" d="m124.3,187.06c-.7,5.06-1.2,10.26-1.44,15.37-.26,5.42-.53,10.86.08,16.25.05.41.61.42.65,0,.51-5.25.39-10.53.57-15.8.18-5.26.35-10.51.53-15.77,0-.22-.35-.27-.39-.05Z"/>
  <path class="cls-1" d="m122.57,113.46c.98-3.46.86-7.3,1.04-10.86.19-3.74.37-7.47.54-11.21.16-3.74.27-7.47.36-11.21.04-1.79.08-3.59.09-5.38,0-.59.03-1.21.05-1.83-.45-.08-.91-.15-1.36-.23-.01.54-.02,1.08-.05,1.61-.11,1.94-.19,3.89-.27,5.83-.16,3.74-.34,7.48-.49,11.21-.15,3.74-.32,7.47-.51,11.21-.18,3.56-.71,7.33-.15,10.86.06.4.66.35.76,0Z"/>
  <path class="cls-1" d="m120.97,126.29c.06.35.64.43.79.1,1.19-2.56.92-6.12,1.2-8.89.05-.49-.79-.61-.87-.12-.44,2.75-1.62,6.13-1.12,8.9Z"/>
  <path class="cls-1" d="m120.56,131.66c-.7,5.67-.93,11.27-1.24,16.97-.03.47.69.46.73,0,.44-5.65,1.25-11.33,1.89-16.97.1-.88-1.27-.86-1.37,0Z"/>
  <path class="cls-1" d="m118.8,154.56c-.32,5.12-.85,10.22-1.11,15.33-.26,5.11-.04,10.22-.18,15.34-.13,4.97-.27,9.93-.52,14.89-.25,4.9-.79,10.16.05,15,.07.39.7.38.78,0,.87-4.69.47-9.79.38-14.55-.09-5.12,0-10.23.15-15.35.15-4.98.72-9.91.87-14.89.15-5.26.11-10.52.33-15.78.02-.48-.72-.48-.75,0Z"/>
  <path class="cls-1" d="m117.01,115.31c.84-3.52.65-7.38.76-10.98.12-3.93.24-7.86.36-11.79.21-6.82.72-13.75.61-20.6-.49-.09-.98-.17-1.47-.26-.55,6.91-.47,13.95-.68,20.86-.12,3.93-.25,7.86-.37,11.79-.11,3.6-.53,7.42.08,10.98.06.37.64.34.72,0Z"/>
  <path class="cls-1" d="m115.68,122.54c-.5,5.73-1.12,11.44-1.64,17.16-.25,2.71-.45,5.42-.66,8.13-.24,2.97-.76,6.06-.52,9.03.03.32.49.42.58.08.68-2.65.71-5.49.96-8.21.26-2.86.54-5.72.78-8.58.49-5.87.86-11.74,1.35-17.61.05-.54-.8-.54-.84,0Z"/>
  <path class="cls-1" d="m113.08,169.69c.32-3.04.03-6.12.35-9.18.05-.49-.71-.48-.76,0-.35,2.96-.77,6.31-.06,9.24.07.29.45.19.48-.07Z"/>
  <path class="cls-1" d="m111.28,92.74c.19-4.2.38-8.4.62-12.59.17-3.04.62-6.26.56-9.38-.46-.09-.91-.18-1.37-.27-.52,3.02-.52,6.22-.72,9.2-.29,4.34-.56,8.69-.75,13.04-.18,4.2-.33,8.4-.44,12.6-.11,3.98-.65,8.37.06,12.3.09.53.95.52,1.06,0,.77-3.79.41-7.99.51-11.85.12-4.35.28-8.7.48-13.05Z"/>
  <path class="cls-1" d="m109.03,126.2c-.45,5.71-1.78,11.41-1.57,17.15.1,2.72.12,5.41.03,8.13-.09,2.71-.5,5.57-.05,8.26.07.44.81.44.89,0,.47-2.53.17-5.23.2-7.81.03-2.89.22-5.72.56-8.58.67-5.69.02-11.43.42-17.15.02-.3-.45-.3-.47,0Z"/>
  <path class="cls-1" d="m104.57,84.99c.27-3.27.4-6.56.58-9.84.1-1.92.35-3.92.41-5.89-.45-.11-.9-.22-1.34-.33-.24,1.92-.28,3.9-.42,5.77-.27,3.42-.55,6.86-.63,10.29-.08,3.27-.22,6.57-.21,9.84,0,3.41-.38,6.9-.17,10.3.02.38.55.37.59,0,.37-3.26.18-6.58.47-9.85.3-3.42.45-6.87.73-10.29Z"/>
  <path class="cls-1" d="m103.57,108.34c-.01-.5-.77-.51-.78,0-.05,1.82-.29,3.78.09,5.58.06.3.54.3.6,0,.38-1.8.14-3.76.09-5.58Z"/>
  <path class="cls-1" d="m103.46,130.77c.06-2.89-.11-5.81-.12-8.7,0-.21-.33-.21-.33,0,0,2.89-.18,5.82-.12,8.7,0,.37.56.37.57,0Z"/>
  <path class="cls-1" d="m102.24,156.41c.05.6.91.61.94,0,.35-6.85,0-13.74.41-20.6.02-.39-.58-.39-.61,0-.56,6.78-1.29,13.79-.74,20.6Z"/>
  <path class="cls-1" d="m98.81,87.51c.09-4.08.15-8.16.17-12.25.01-2.53.13-5.13.05-7.69-.54-.15-1.09-.31-1.63-.47-.14,2.72-.05,5.48-.06,8.16-.03,4.08-.02,8.17.02,12.25.05,4.08.25,8.17.38,12.25.13,4.23-.14,8.47-.08,12.7,0,.35.54.35.55,0,.11-4.23-.11-8.48.07-12.7.18-4.08.43-8.17.53-12.25Z"/>
  <path class="cls-1" d="m90.82,85.9c.05.58.85.58.9,0,.33-3.96.19-7.94.17-11.9-.01-2.87.05-5.78-.1-8.66-.34-.11-.68-.22-1.02-.34-.18,2.99-.1,6.02-.11,8.99-.02,3.97-.16,7.95.17,11.9Z"/>
  <path class="cls-1" d="m84.59,62.74c.11,1.03.25,2.06.34,3.02.24,2.47.38,4.99.92,7.41.08.36.56.24.6-.08.28-2.56.16-5.19.11-7.76-.01-.59,0-1.21,0-1.83-.66-.25-1.32-.5-1.97-.75Z"/>
  <path class="cls-1" d="m80.98,65.36c.23-1.26.37-2.59.45-3.92-.47-.2-.95-.4-1.42-.61.07,1.53.22,3.07.48,4.53.04.24.45.24.49,0Z"/>
  <path class="cls-1" d="m76.37,61.69c.2-.75.27-1.56.36-2.34-.4-.19-.8-.38-1.2-.57.02.19.05.38.07.56.09.77.15,1.59.36,2.35.06.21.36.21.42,0Z"/>
  <path class="cls-1" d="m73.26,59.34c.04-.54.09-1.07.13-1.61-.3-.15-.61-.31-.91-.47.06.69.12,1.39.17,2.08.03.39.58.39.61,0Z"/>
  <path class="cls-1" d="m77.08,201.4c.57-2.61.16-5.48.15-8.15-.01-2.98-.08-5.95-.13-8.92,0-.37-.53-.35-.57,0-.34,2.98-.59,5.92-.65,8.92-.05,2.64-.37,5.58.36,8.15.11.39.74.43.83,0Z"/>
  <path class="cls-1" d="m76.18,207.24c.34,5.8.45,11.6.75,17.4.04.72,1.16.72,1.12,0-.36-5.8-.91-11.59-1.22-17.4-.02-.41-.67-.42-.65,0Z"/>
  <path class="cls-1" d="m82.46,189.38c-.01-.45-.69-.45-.71,0-.11,3.36-.17,6.72-.21,10.07-.04,3.04-.32,6.27.12,9.28.06.44.82.44.89,0,.44-3.01.16-6.24.12-9.28-.04-3.36-.1-6.72-.21-10.07Z"/>
  <path class="cls-1" d="m81.81,214.56c.18,3.54-.06,7.02-.16,10.55,0,.26.42.33.46.06.51-3.48.4-7.11.21-10.61-.02-.33-.53-.33-.51,0Z"/>
  <path class="cls-1" d="m88.76,197.17c-.36,4.43-.91,8.83-1.17,13.26-.24,4.04-1.04,8.51-.35,12.51.09.5.82.43.95,0,1.12-3.9.78-8.47.98-12.51.21-4.42.13-8.84.25-13.26.01-.42-.61-.41-.65,0Z"/>
  <path class="cls-1" d="m94.88,197.17c-.59,4.97-1.06,10.09-.79,15.1.03.5.7.48.76,0,.66-4.97.59-10.1.39-15.1-.01-.25-.34-.23-.37,0Z"/>
  <path class="cls-1" d="m94.04,217.77c0,3.01-.25,6.16.09,9.16.05.44.64.44.69,0,.33-3,.08-6.14.09-9.16,0-.55-.86-.56-.86,0Z"/>
  <path class="cls-1" d="m101.46,198.06c.03-.4-.59-.4-.63,0-.44,4.87-.74,9.75-.84,14.64-.05,2.37-.24,4.73-.25,7.11,0,2.19-.29,4.66.37,6.76.11.35.66.39.76,0,.48-2.02.11-4.26.06-6.32-.06-2.51-.23-5.04-.18-7.55.1-4.88.33-9.76.7-14.64Z"/>
  <path class="cls-1" d="m106.95,196.7c-.21,4.8-.46,9.61-.57,14.41-.06,2.4.01,4.8-.08,7.21-.08,2.11-.42,4.33.02,6.41.08.36.63.35.72,0,.53-2.06.28-4.29.29-6.41.01-2.41.18-4.8.22-7.21.09-4.8.04-9.61.03-14.41,0-.41-.61-.4-.63,0Z"/>
  <path class="cls-1" d="m113.61,179.73c-1.03,4.73-1.9,9.96-1.19,14.79.07.45.69.29.73-.1.47-4.86.3-9.76.88-14.63.03-.24-.37-.29-.42-.06Z"/>
  <path class="cls-1" d="m112.08,203.1c-.33,3.66-.32,7.31-.69,10.97-.32,3.23-.85,7.07.14,10.2.1.33.59.35.68,0,.86-3.17.36-6.94.26-10.2-.12-3.68.38-7.31.74-10.97.07-.73-1.07-.73-1.14,0Z"/>
  <path class="cls-1" d="m77.1,158.7c.39-3.47-.14-7.06-.27-10.53-.01-.26-.4-.27-.41,0-.13,3.47-.67,7.06-.27,10.53.07.62.89.62.96,0Z"/>
  <path class="cls-1" d="m81.57,162.49c.97-3.04.59-6.59.78-9.74.01-.23-.36-.28-.4-.05-.54,3.1-1.72,6.48-1.47,9.65.05.62.9.77,1.1.15Z"/>
  <path class="cls-1" d="m121.63,14.86c2.09-2.22,3.45-5.18,5.12-7.71.23-.35-.29-.76-.58-.45-2.1,2.2-4.45,4.69-5.34,7.69-.13.46.47.82.8.47Z"/>
  <path class="cls-1" d="m110.27,19.98c1-.84,1.78-2.05,2.56-3.1.9-1.2,1.57-2.4,2.27-3.72.12-.23-.17-.47-.37-.29-.98.95-1.9,1.83-2.73,2.93-.85,1.13-1.91,2.3-2.48,3.6-.22.5.32.94.75.58Z"/>
  <path class="cls-1" d="m78.91,20.78c-.55.33-1.06.73-1.54,1.14-.44.38-.95,1-1,1.58-.03.38.46.64.77.44.42-.27.72-.83,1.01-1.23.34-.47.72-.86,1.19-1.2.43-.31.05-1.01-.43-.73Z"/>
  <path class="cls-1" d="m135.4,13.09c1.23-2.67,2.19-5.4,3.33-8.1.11-.26-.31-.41-.45-.19-.82,1.32-1.73,2.52-2.42,3.92-.63,1.29-1.05,2.58-1.5,3.93-.2.6.77,1.03,1.04.44Z"/>
  <path class="cls-1" d="m142.84,10.6c.98-3.44,1.86-6.85,3.14-10.21.15-.39-.47-.56-.62-.17-1.29,3.29-2.51,6.72-3.14,10.21-.07.4.51.58.62.17Z"/>
  <path class="cls-1" d="m138.48,24.03c.9-1.73,1.39-3.71,2-5.56.3-.92-1.17-1.33-1.46-.4-.57,1.81-1.31,3.65-1.58,5.53-.08.58.71,1.06,1.04.44Z"/>
  <path class="cls-1" d="m145.81,22.1c1.12-4.24,1.85-8.51,3.24-12.69.18-.54-.67-.77-.85-.23-1.39,4.12-2.72,8.48-2.91,12.86-.01.3.44.36.52.07Z"/>
  <path class="cls-1" d="m144.02,25.97c-.42,1.57-.92,3.11-1,4.74-.01.27.42.41.53.14.64-1.5.86-3.09,1.17-4.69.09-.45-.58-.65-.7-.19Z"/>
  <path class="cls-1" d="m149.6,34.81c1.46-4.16,1.8-8.68,2.48-13.02.06-.39-.5-.57-.6-.17-1.17,4.26-2.5,8.64-2.45,13.11,0,.34.47.39.58.08Z"/>
  <path class="cls-1" d="m154.61,45.25c1.11-3.64,1.37-7.73,1.96-11.48.56-3.59.68-7.25.89-10.87.03-.47-.68-.46-.73,0-.39,3.73-1.06,7.42-1.41,11.15-.35,3.72-1.42,7.35-1.71,11.07-.05.59.84.67,1,.14Z"/>
  <path class="cls-1" d="m162.81,34.58c.33-1.38.03-3.06-.02-4.47-.02-.63-.96-.63-.98,0-.05,1.41-.35,3.1-.02,4.47.12.5.9.5,1.02,0Z"/>
  <path class="cls-1" d="m162.38,44.64c.12-.74,0-1.49.02-2.24.02-.83.07-1.66.18-2.49.06-.45-.71-.55-.79-.11-.26,1.47-.61,3.4-.11,4.84.11.3.64.38.7,0Z"/>
  <path class="cls-1" d="m166.81,40.17c.21.39.75.25.88-.11.27-.75.03-1.65-.05-2.44-.08-.82-.17-1.63-.29-2.44-.08-.56-.99-.42-.98.13,0,.89.05,1.77.1,2.66.04.75-.03,1.52.33,2.2Z"/>
  <path class="cls-1" d="m71.42,31.97c-.11-.11-.28.06-.17.17.82.92,1.66,1.94,2.72,2.58.13.08.26-.1.16-.21-.81-.93-1.84-1.66-2.71-2.55Z"/>
  <path class="cls-1" d="m78.79,38.42c.28.13.66-.25.37-.47-1.38-1.07-2.97-1.88-4.38-2.92-.14-.1-.31.12-.19.24,1.27,1.18,2.59,2.43,4.2,3.15Z"/>
  <path class="cls-1" d="m77.96,35.55c-.89-.77-1.69-1.61-2.5-2.46-.46-.48-.91-1.01-1.38-1.5.44-.07.78-.25,1.03-.51.08.08.15.16.22.23.36.4.76.77,1.17,1.12.35.3.84-.18.51-.51-.37-.38-.71-.78-1.04-1.2-.12-.15-.23-.34-.36-.5.09-.29.15-.61.17-.94.58.76,1.3,1.39,2.11,1.96.15.11.34-.14.2-.26-1.04-.89-1.77-2.08-2.4-3.28-.02-.04-.05-.06-.07-.09-.15-.66-.39-1.28-.65-1.7-1.16-1.87-4-2.72-5.62-.87-1.68,1.93,0,4.63,2.02,5.6.39.29.82.56,1.26.74,1.12,1.88,3.35,3.26,5.09,4.5.2.14.45-.18.26-.34Zm-8-9.06c.39-1.7,2.33-1.4,3.41-.52.16,1.24.57,3.36-1.33,3.22-.22-.02-.37.12-.45.29-.92-.83-1.93-1.71-1.63-2.99Z"/>
  <path class="cls-1" d="m79.85,34.46c-.32-.27-.63-.55-.92-.85-.28-.28-.52-.61-.85-.84-.2-.14-.39.12-.3.3.17.36.5.64.78.91.3.29.62.56.95.82.25.2.6-.14.35-.35Z"/>
  <path class="cls-1" d="m80.53,39.31c-.22-.2-.55.12-.33.33.79.76,1.87,1.65,2.98,1.84.25.04.41-.27.18-.42-.45-.28-.97-.46-1.43-.73-.5-.29-.97-.64-1.4-1.02Z"/>
  <path class="cls-1" d="m108.14,51.05c1.39.09,2.75.21,4.11.52,1.05.24,2.08.59,3.15.71.24.03.34-.36.12-.45-2.18-1-5.01-1.15-7.38-1.37-.38-.04-.38.57,0,.59Z"/>
  <path class="cls-1" d="m106.52,46.12c-.71-.2-1.38-.48-2.03-.83-.32-.18-.61.31-.29.49,1.2.67,2.79,1.37,4.2,1.18.24-.03.34-.38.06-.46-.64-.18-1.3-.21-1.94-.39Z"/>
  <path class="cls-1" d="m111.31,47.76c.09.04.18.09.27.13.14.07.26-.13.12-.21-.09-.05-.18-.1-.26-.15-.15-.08-.29.16-.13.23Z"/>
  <path class="cls-1" d="m113.89,48.04c-.22-.11-.42.21-.2.34.59.34,1.24.6,1.92.44.27-.06.18-.42-.06-.45-.57-.07-1.13-.07-1.66-.33Z"/>
  <path class="cls-1" d="m146.26,55.43c-.15,0-.15.22,0,.23,1.18.11,2.5.39,3.69.23.16-.02.15-.28,0-.32-1.15-.28-2.5-.14-3.69-.14Z"/>
  <path class="cls-1" d="m153.39,54.51c.21-.02.28-.32.05-.38-3.2-.87-6.98-.68-10.29-.98-.41-.04-.41.61,0,.65,3.29.25,6.96,1.04,10.23.72Z"/>
  <path class="cls-1" d="m157.31,54.63s.07-.03.08-.06c.04.04.09.08.14.12.01.02.02.04.03.06,1.1,1.44,3.67,2.05,5.35,1.52.39,0,.75-.02,1.08-.05,1.92-.23,3.98-1.56,3.89-3.69-.02-.39-.64-.65-.82-.22-.93,2.17-2.76,2.6-4.74,2.42-.09-.19-.27-.34-.54-.33-1.64.08-2.77-1.59-1.5-2.89,1.04-1.06,2.93-1.14,4.33-1.13.16,0,.18-.22.04-.27-.8-.27-1.56-.5-2.33-.54-1.28-.42-2.86-.1-4.04.64-2.47-.16-4.97-.24-7.43-.04-.13.01-.18.22-.03.25,2.07.43,4.2.66,6.31.81-.25.33-.43.7-.51,1.08-.59-.05-1.19-.05-1.77-.1-1.11-.09-2.22-.19-3.34-.28-.5-.04-.49.73,0,.77,1.11.1,2.23.19,3.34.3.59.05,1.18.15,1.77.2.09.41.29.84.66,1.26-.08.04-.07.18.03.18Zm1.23-2.81s0-.06.02-.09c.01,0,.03-.01.04-.02-.02.04-.04.07-.06.11Z"/>
  <path class="cls-1" d="m149.76,52.14c.12-.01.18-.21.03-.24-2.4-.48-4.94-.36-7.38-.54-2.51-.19-4.98-.73-7.48-.95-.71-1.35-2.53-2.37-3.88-2.59-1.81-.29-3.93.33-5.22,1.68-.34.18-.52.46-.6.79-.21.35-.37.73-.47,1.15-.06.26.26.46.46.27.04-.04.09-.08.13-.13.25.73.77,1.44,1.32,1.77,1.15.67,3.22,1.19,5.04,1.05,2.78.68,5.96,1.29,8.75,1.08.35-.03.47-.55.09-.65-2.18-.54-4.54-.75-6.85-.94.43-.22.79-.52,1.06-.9,1.78.55,4.09.86,5.78.46.26-.06.24-.44,0-.51-.98-.3-1.99-.3-3.01-.39-.81-.07-1.61-.19-2.42-.25.16-.46.17-.91.05-1.34,2.11.39,4.26.49,6.4.69,2.68.25,5.52.8,8.2.48Zm-22.95-1.89c.46-.35.97-.64,1.56-.81.85-.24,1.89-.23,2.81.05.55.37.98.9.92,1.52-.09.84-1.36,1.16-1.87,1.76-.03.04-.05.08-.07.12-.2-.01-.39-.03-.55-.05-1.65-.22-3.32-.7-2.8-2.58Z"/>
  <path class="cls-1" d="m147.61,50.15c.22,0,.21-.32,0-.34-4.68-.41-9.75-.17-14.25-1.73-.17-.06-.3.22-.13.3,1.92.88,4.03,1.1,6.12,1.28,2.7.23,5.55.53,8.26.49Z"/>
  <path class="cls-1" d="m149.87,50.33c.11.02.16-.15.05-.17-.27-.05-.54-.1-.81-.14-.11-.02-.16.15-.05.17.27.05.54.1.81.14Z"/>
  <path class="cls-1" d="m121.26,64.84c-.14.5-.37.98-.47,1.49-.09.44-.23.96-.07,1.39.13.35.54.39.75.1.27-.36.27-.91.31-1.35.05-.51-.05-1.04-.04-1.56,0-.28-.42-.34-.49-.07Z"/>
  <path class="cls-1" d="m116.36,57.95c.11,0,.11-.17,0-.17s-.11.17,0,.17Z"/>
  <path class="cls-1" d="m111.78,65.74c.03.2.25.31.43.33.08,0,.15-.03.22-.06.12-.06.24-.24.22-.38-.06-.5-.02-.96.17-1.44.21-.54-.66-.78-.87-.24-.22.58-.27,1.18-.17,1.79Z"/>
  <path class="cls-1" d="m47.33,74.11c.57,2.45,1.03,4.99,1.41,7.47.37,2.44-.08,4.88.29,7.3.06.38.66.35.74,0,.55-2.41.03-4.93-.05-7.37-.09-2.66-.43-5.15-1.05-7.76-1.09-4.58-2.72-10.26-5.89-13.87-.13-.15-.38,0-.33.19.66,2.31,1.85,4.45,2.68,6.7.89,2.4,1.63,4.86,2.21,7.35Z"/>
  <path class="cls-1" d="m50.88,78.89c.19,2.72.29,5.26,1.01,7.9.1.35.63.28.64-.09.04-2.74-.49-5.22-.97-7.91-.07-.38-.7-.29-.67.09Z"/>
  <path class="cls-1" d="m14.71,101.16c-.14-.31-.68-.09-.56.23.89,2.22,1.92,4.57,3.56,6.34.26.28.7-.08.52-.4-1.15-2.09-2.53-3.99-3.53-6.17Z"/>
  <path class="cls-1" d="m26.46,100.15c.77,1.17,1.52,2.35,2.46,3.4.21.23.54-.06.42-.32-.61-1.24-1.41-2.34-2.2-3.47-.28-.41-.96-.03-.68.4Z"/>
  <path class="cls-1" d="m34.23,93.29c.2.55.42,1.09.66,1.62.23.5.45,1.12.89,1.47.21.16.64.09.6-.25-.06-.51-.34-.93-.56-1.39-.26-.55-.48-1.12-.68-1.7-.2-.57-1.11-.32-.91.25Z"/>
  <path class="cls-1" d="m32.24,130.66c.03-.61-.11-1.19-.15-1.8-.05-.66,0-1.3.13-1.95.13-.69-.89-.99-1.06-.29-.33,1.32-.56,3.07.23,4.27.25.39.83.23.86-.23Z"/>
  <path class="cls-1" d="m42.3,173.93c-3.42-1.51-8.64-2.55-10.12-6.5-.69-1.85-.51-4.01-.5-5.96,0-2.37-.05-4.71-.15-7.08-.01-.26-.37-.25-.39,0-.3,2.9-.58,5.8-.68,8.72-.06,1.97.03,4.06,1.02,5.82,1.87,3.35,6.9,5.27,10.49,5.79.43.06.82-.57.33-.79Z"/>
  <path class="cls-1" d="m73.88,179.53c2.33.06,4.71.26,7.03.1.37-.03.37-.54,0-.57-2.32-.16-4.7.04-7.03.1-.24,0-.24.37,0,.37Z"/>
  <path class="cls-1" d="m93.82,173.19c.26.25.65-.14.4-.4-2.21-2.32-4.21-5.1-5.94-7.82-.2-.31-.64-.04-.48.28,1.56,3.14,3.5,5.52,6.03,7.93Z"/>
  <path class="cls-1" d="m32.78,115.44c-.45.24-.12.84.33.77,4.29-.68,6.68-6.43,8.14-9.94,1.84-4.44,3.41-10.02,2.53-14.85-.03-.16-.28-.15-.32,0-.94,4.39-1.25,8.71-2.88,12.96-1.58,4.1-3.77,8.9-7.8,11.07Z"/>
  <path class="cls-1" d="m35.75,109.96c-.15.37.37.57.61.36,4.32-3.73,5.05-10.36,5.44-15.65.02-.25-.4-.31-.45-.06-.52,2.75-1.17,5.58-2.13,8.22-.92,2.52-2.47,4.68-3.48,7.14Z"/>
  <path class="cls-1" d="m10.07,61.28c3.06-3.73,7.51-5.42,12.23-5.68.6-.03.6-.91,0-.93-5.03-.15-9.44,2.51-12.45,6.39-.12.15.09.37.22.22Z"/>
  <path class="cls-1" d="m12.62,56.61c1.36-.73,2.64-1.6,4.07-2.17,1.29-.52,2.73-.64,3.98-1.24.19-.09.13-.39-.06-.44-2.75-.67-6.6,1.5-8.16,3.68-.07.1.07.22.17.17Z"/>
  <path class="cls-1" d="m22.55,53.37c1.99.15,3.92.54,5.7,1.46,1.48.77,2.57,1.94,3.91,2.88.18.13.41-.12.3-.3-1.87-3.05-6.51-4.64-9.9-4.78-.48-.02-.47.71,0,.74Z"/>
  <path class="cls-1" d="m34.78,61.3c.39.56.75,1.23,1.27,1.67.21.18.66.01.53-.31-.26-.64-.75-1.19-1.16-1.74-.45-.62-.91-1.22-1.36-1.84-.25-.34-.82-.02-.58.34.43.62.86,1.25,1.3,1.87Z"/>
  <path class="cls-1" d="m39.86,70.41c.14.18.41.02.42-.17,0-.79-.41-1.59-.68-2.33-.28-.76-.59-1.51-.91-2.25-.09-.21-.41-.06-.36.15.22.88.46,1.74.73,2.6.22.69.36,1.43.81,2Z"/>
  <path class="cls-1" d="m42.28,79.85c.09.17.38.14.43-.06.26-1.14-.14-2.36-.41-3.47-.31-1.3-.75-2.5-1.27-3.73-.12-.3-.6-.08-.51.22.36,1.23.68,2.49.96,3.74.25,1.09.28,2.3.81,3.3Z"/>
  <path class="cls-1" d="m42.47,92.21c.41-4.42-.31-8.98-1.39-13.26-.05-.19-.31-.1-.29.08.35,2.31.46,4.65.65,6.98.17,2.08-.11,4.11-.15,6.2-.02.77,1.11.74,1.18,0Z"/>
  <path class="cls-1" d="m50.42,75.93c.2.4.71.15.76-.21.22-1.7-.45-3.6-.95-5.22-.52-1.67-1.2-3.35-2.18-4.8-.1-.15-.33-.06-.29.12.36,1.81.95,3.57,1.41,5.36.41,1.56.53,3.3,1.25,4.75Z"/>
  <path class="cls-1" d="m53.55,77.29c.36-2.18-.64-4.49-1.52-6.45-.13-.28-.57-.08-.49.21.54,2.04.68,4.39,1.57,6.3.08.18.41.14.45-.06Z"/>
  <path class="cls-1" d="m160.77,77.85c-.92,3.14-.84,6.71-1.02,9.96-.21,3.75-.38,7.5-.51,11.25-.25,7.4.12,14.69.2,22.07,0,.36.57.36.56,0-.03-1.8-.14-3.6-.17-5.41-.03-1.85.37-3.57.47-5.41.21-3.74.17-7.51.28-11.26.1-3.6.24-7.2.42-10.8.17-3.4.73-7.03.27-10.41-.04-.27-.43-.22-.5,0Z"/>
  <path class="cls-1" d="m159.27,124.72c-.47,3.52-1.21,7.37-.43,10.89.06.28.53.3.58,0,.59-3.57.19-7.28.59-10.89.05-.48-.68-.46-.74,0Z"/>
  <path class="cls-1" d="m159.39,169.73c0-9.4.04-18.8-.07-28.2,0-.61-.94-.61-.95,0-.14,9.4-.14,18.8-.16,28.2-.01,4.55-.02,9.1-.03,13.64-.01,4.79-.42,9.79.07,14.55.07.66.96.66,1.03,0,.5-4.77.11-9.76.11-14.55,0-4.55,0-9.1.01-13.64Z"/>
  <path class="cls-1" d="m158.09,202.43c-.05,2.57-.43,5.37.05,7.91.07.38.73.4.79,0,.39-2.56-.06-5.34-.2-7.91-.02-.41-.63-.41-.64,0Z"/>
  <path class="cls-1" d="m154.16,191.02c-.03-.34-.6-.49-.66-.09-.47,3.5-.48,7.06-.53,10.59-.04,3.43-.48,7.29.22,10.65.11.54,1,.55,1.1,0,.58-3.26.12-6.88.1-10.2-.01-3.64.09-7.33-.25-10.96Z"/>
  <path class="cls-1" d="m166.34,144.68c-.25-3.66.27-7.21.26-10.87,0-3.63-.07-7.25-.11-10.87-.17-14.5-.15-29.02-.9-43.5-.02-.31-.47-.31-.49,0-.91,14.62-.81,29.3-.63,43.96.04,3.62.07,7.25.19,10.87.12,3.66.73,7.2.63,10.87-.1,3.62-.1,7.25-.04,10.87.05,3.48-.16,7.17.45,10.6.14.82,1.25.51,1.33-.18.42-3.54-.02-7.32-.14-10.87-.12-3.63-.29-7.25-.54-10.87Z"/>
  <path class="cls-1" d="m165.49,171.39c-.78,2.33-.86,4.78-.97,7.22-.15,3.13-.27,6.26-.34,9.39-.13,6.11-.18,12.22-.17,18.33,0,1.15,1.79,1.15,1.79,0,0-5.81.05-11.63.12-17.44.03-2.83.06-5.66.07-8.49.02-2.89-.25-5.92.58-8.71.21-.7-.86-.98-1.08-.3Z"/>
  <path class="cls-1" d="m173.58,126.53c-.12-7.62-.26-15.23-.44-22.84-.2-8.6.1-17.5-1.01-26.04-.07-.51-.78-.54-.82,0-.51,7.54.14,15.28.28,22.84.15,7.61.26,15.23.35,22.84.08,7.78.13,15.54.54,23.3.4,7.62-.02,15.21-.09,22.85-.08,8.65-.66,17.4-.31,26.05.03.84,1.25.83,1.3,0,.51-7.56.16-15.27.15-22.85,0-3.8.09-7.63-.12-11.42-.22-3.85.1-7.57,0-11.42-.11-3.81.35-7.61.32-11.42-.03-3.96-.09-7.92-.15-11.88Z"/>
  <path class="cls-1" d="m179.04,111.34c.12.39.65.29.69-.09.23-2.63-.19-5.32-.35-7.95-.17-2.8-.27-5.6-.31-8.41-.06-5.46.06-10.92.27-16.37.01-.29-.41-.27-.44,0-.75,5.58-1.09,11.18-1.06,16.81.03,5.14-.3,11.04,1.2,16.01Z"/>
  <path class="cls-1" d="m179.38,116.33c-.16,3.25-.39,6.49-.43,9.75-.04,3.2-.35,6.58.02,9.75.04.33.58.49.64.09.47-3.06.27-6.3.34-9.39.09-3.4-.04-6.79-.09-10.19,0-.31-.47-.31-.49,0Z"/>
  <path class="cls-1" d="m179.5,140.63c0-.47-.72-.47-.73,0-.12,8.85-.33,17.7-.4,26.55-.07,8.8-.58,17.76-.07,26.55.05.91,1.35.91,1.41,0,.55-8.79.09-17.74.06-26.55-.03-8.85-.19-17.7-.27-26.55Z"/>
  <path class="cls-1" d="m185.47,106.73c.45-4.13-.45-8.58-.63-12.73-.18-4.24.09-8.53-.2-12.76-.02-.24-.41-.34-.46-.06-.68,4.19-.52,8.6-.42,12.83.09,4.13-.11,8.85,1.26,12.79.09.26.43.2.46-.06Z"/>
  <path class="cls-1" d="m186.52,119.92c.02-3.6-.29-6.98-.81-10.54-.03-.18-.33-.14-.32.04.13,3.49.2,7,.27,10.49.07,3.49-.45,7.02-.26,10.5.02.32.52.43.59.08.73-3.41.51-7.11.53-10.58Z"/>
  <path class="cls-1" d="m185.29,143.33c.03.27.39.33.48.06.95-2.79.48-6.19.26-9.06-.02-.3-.48-.3-.47,0,.11,2.98-.56,6.05-.27,9Z"/>
  <path class="cls-1" d="m186.23,167.33c-.21-7.41-.47-14.81-.86-22.2,0-.16-.25-.16-.25,0-.11,7.39-.09,14.79-.01,22.2.04,3.62.04,7.25.06,10.87,0,1.81.04,3.62.06,5.44.02,1.7-.16,3.49.35,5.12.15.47.85.5.99,0,.83-3.06.13-6.95.03-10.1-.12-3.78-.26-7.55-.37-11.32Z"/>
  <path class="cls-1" d="m191.36,83.31c0-.33-.48-.32-.51,0-1.5,15.47.55,31.08,1.15,46.55.3,7.67.25,15.34.08,23.01-.09,3.91-.22,7.82-.38,11.72-.16,3.87-.58,7.85-.25,11.72.04.47.79.66.88.12.64-3.58.62-7.31.78-10.94.17-3.91.31-7.81.41-11.72.2-7.82.13-15.64-.25-23.46-.77-15.69-2.08-31.28-1.91-47Z"/>
  <path class="cls-1" d="m197.82,128.48c-.35-11.45-.71-22.9-1.04-34.35,0-.22-.34-.22-.34,0-.11,11.46-.06,22.89.2,34.35.13,5.57.28,11.15.47,16.72.2,5.85.15,11.81.88,17.61.07.58.91.62.93,0,.21-5.7-.3-11.47-.51-17.16-.21-5.72-.41-11.45-.59-17.17Z"/>
  <path class="cls-1" d="m203.01,137.47c-.03-3.44-.07-6.87-.12-10.31-.1-6.73-.39-13.46-.54-20.19,0-.28-.44-.32-.44-.03-.05,6.86-.24,13.72-.24,20.59,0,3.29,0,6.57.03,9.86.02,3.26-.33,6.78.34,9.99.1.47.72.38.8-.05.6-3.16.21-6.63.18-9.84Z"/>
  <path class="cls-1" d="m200.85,69.06c-4.91.41-9.78,1.15-14.71,1.53-1.41.11-2.82.19-4.23.26,0-.13.02-.27.05-.4.11-.47-.61-.67-.72-.2-.05.19-.07.41-.08.63-.55.02-1.1.05-1.64.07,0-.16,0-.31,0-.47,0-.69-.05-1.37-.12-2.06-.04-.35-.5-.35-.54,0-.07.69-.12,1.37-.12,2.06,0,.17,0,.34,0,.5-.98.04-1.97.07-2.95.1-.02-.15-.04-.3-.04-.45-.01-.74.05-1.49.15-2.22.06-.44-.58-.45-.72-.1-.3.8-.45,1.61-.44,2.47,0,.11,0,.22,0,.33-.63.02-1.27.05-1.9.07-.01-1.32.01-2.64.06-3.96.84-.06,1.67-.13,2.51-.21,3.2-.29,6.4-.67,9.56-1.24,3.09-.55,6.69-.77,9.46-2.34.28-.16.25-.67-.1-.73-3.01-.54-6.25.27-9.27.48-3.37.24-6.73.53-10.09.78-1.82.13-3.64.25-5.46.36-.03-1.47-.06-2.95-.09-4.42,0-.4-.56-.38-.6,0-.18,1.4-.38,2.93-.51,4.49-.44.03-.89.05-1.33.08-.06-.29-.26-.53-.62-.59,0,0-.01,0-.02,0-.2-1.08-.46-2.09-.69-2.94-.07-.26-.42-.19-.45.06-.08.87-.08,1.73-.06,2.6-.08,0-.16.04-.23.1-.78-.07-1.56-.11-2.35-.13,0-.74,0-1.48,0-2.21,0-.34-.54-.43-.6-.08-.12.68-.28,1.48-.36,2.28-.39,0-.78,0-1.17,0-.4-.02-.8-.05-1.21-.07.1-1.54.06-3.05-.31-4.48,2.07,0,4.13-.05,6.19-.19,1.86.08,3.72.13,5.62.09,2.31-.05,4.63-.11,6.93-.42,2.74-.36,5.66-.42,8.33-1.18.54-.15.42-.94-.13-.96-2.51-.12-5.03.37-7.55.37-2.68,0-5.35.17-8.02.26-2.31.08-4.64.16-6.96.23-7.25-.65-14.6-.69-21.83-1.33-9.22-.82-18.5-1.51-27.62-3.22-.34-.06-.68-.13-1.02-.2-5.36-1.05-10.65-2.48-15.83-4.27.52.03,1.05.01,1.55-.05,2.27,1.06,4.82,2.21,7.29,2.31.29.01.45-.46.16-.58-1.99-.84-4.12-1.31-6.18-2.01.49-.16.93-.39,1.31-.68,2.6,1.18,5.31,1.64,8.08,2.33,2.93.73,5.96,1.27,8.96,1.59.19.02.22-.28.04-.32-2.91-.73-5.9-1.25-8.84-1.86-2.6-.54-5.12-1.53-7.69-2.28,1.45-1.86-.95-4.19-2.69-4.88-1.71-.67-5.05-.66-6.14,1.13-.33.22-.59.59-.74,1-.37,1-.04,2.02.71,2.74.02.02.05.04.08.06-7.34-2.83-14.42-6.38-21.06-10.57-4.32-3.89-7.13-8.88-6.43-15.42,0-.05-.02-.08-.03-.12.79-2.61,2.28-4.5,4.22-6.46,1.02-.81,2.09-1.57,3.23-2.22,1.86-1.06,3.89-1.66,5.82-2.55.17-.08.09-.39-.1-.36-3.61.4-7.18,2.63-9.85,5.26-5.04,3.11-5.28,11.02-5.36,16.16-.01.78-.03,1.57-.06,2.35-.04.04-.06.08-.04.14.01.04.03.07.04.11-.04,1.27-.07,2.55-.09,3.82-.07.07-.1.17-.03.28,0,.01.02.02.02.03-.02,1.67-.02,3.35.07,5,.06,1.02.19,2.13.49,3.16,0,0,0,0,0,0s0,0,0,0c.29,1,.75,1.93,1.48,2.63-.03.08-.03.18.04.26.68.93,1.47,1.78,2.31,2.61.24,7.49.58,14.93.38,22.44-.21,7.81-.56,15.62-.84,23.44-.58,15.94-1.17,31.87-1.75,47.81-.32,8.8-.7,17.59-.88,26.39-3.57.18-7.13.33-10.69.3-2.85-.03-5.7-.16-8.53-.49-2.58-.3-7.14-.28-8.81-2.62-1.02-1.43-1.51-3.4-1.78-5.35-.03-.38-.06-.77-.09-1.15-.24-3.38.01-6.86-.34-10.22,3.06-.51,6.23-1.57,6.8-3.82.01-.02.02-.04.03-.07.17-.24.33-.49.46-.78.63-1.39.67-2.96.71-4.46.05-2.34.2-4.75-.01-7.07-.03-.3-.15-.52-.31-.68-.07-.4-.23-.77-.47-1.1-1.08-2.1-3.94-3.05-6.25-2.85.03-1.33.03-2.66-.06-3.98,0-.43,0-.87-.02-1.3,2.18-.09,4.33-.46,6.33-1.46.07-.03.13-.07.19-.11,1.1-.38,2.14-.88,3.1-1.53.54-.32,1.06-.66,1.56-1.06,1.37-1.1,2.47-2.47,3.41-3.95,1.48-.21,2.87-.74,4.14-1.5,9.71-3.92,11.14-16.91,10.85-26.67-.18-6.06-1.06-12.27-3.5-17.86-1.19-2.74-4.94-10.36-9.05-10.15-.05-.02-.1-.04-.15-.06-.8-1.57-1.68-3.09-2.66-4.54-2.19-3.25-5.21-5.44-9.02-6.4-1.16-.29-2.42-.5-3.72-.62.34-3.72.9-7.58.71-11.28-.12-2.46-1.58-4.11-4.16-3.76-2.42.33-3.85,1.86-4.05,4.27-.21,2.55-.25,5.44.01,8.16-.02.92.03,1.82.37,2.67-1.71,0-3.42.07-5.1.26-.11,0-.22,0-.33,0-2.67-.15-5.41.33-8.1,1.43-6.01,2.46-9.76,9.62-11.94,15.36-1.77,4.63-2.82,9.52-3.32,14.47,0,.03-.02.05-.03.08-1.16,7.31-.77,14.69,1.15,21.83,1.19,4.43,3,8.89,5.76,12.62,1.56,3.23,4.28,5.21,7.51,6.63.09.04.2.08.29.12,1.19.61,2.43,1.11,3.71,1.47.36.23.81.39,1.18.53.38.15.85.31,1.34.44.04.2.17.38.4.44.02.03.03.05.04.08-.12,1.32.1,2.69.17,4.01.01.2.01.42.02.62-3.15-.19-8.05,1.3-7.48,5.08-.3,1.79-.11,3.73-.05,5.51.08,2.19.16,4.41.48,6.58.04.27.29.35.51.3.98,1.97,3.44,3.05,5.67,3.64.55.19,1.11.35,1.67.48-1.04,5.72-.69,12.38.22,18.04.88,5.52,4.01,9.61,9.1,11.94,5.48,2.52,11.69,2.4,17.59,2.37,5.11-.02,10.22-.02,15.33-.08-.74,1.83-.35,4.38-.37,6.19-.04,3.27-.06,6.54-.11,9.81-.04,3.27-.03,6.54-.11,9.81-.07,2.93-.66,6.25.13,9.1.2.73,1.16.64,1.4,0,.42-1.11.61-2.31.7-3.55.01.07.02.13.04.2.08.34.63.35.7,0,.58-2.93.23-6.14.21-9.12-.02-3.16-.02-6.32-.04-9.48-.02-3.16,0-6.32,0-9.48,0-1.15.04-2.33.07-3.53.61,0,1.22-.02,1.83-.03.49.1,1,.18,1.5.24-.69,5.03-.56,10.34-.62,15.35-.06,5.85-.37,11.91.5,17.71.06.38.61.25.64-.09.48-5.83.02-11.78.08-17.63.06-5.03.52-10.21.33-15.26,2.28.18,4.65.04,7.01-.21.04.09.13.16.24.12.32-.11.63-.18.94-.25.64-.08,1.27-.16,1.9-.24,0,.02-.03.04-.03.07-.21,3.1,1.31,6.29,3.39,8.66,0,.14.04.27.14.4.68.84,1.5,1.43,2.4,1.83.59.36,1.25.67,1.91.86.08.16.22.27.46.26.2-.01.4-.03.6-.04.32.03.64.03.95-.01.18.07.38.09.62,0,.25-.08.5-.16.75-.23,1.45-.19,2.87-.48,4.19-.98.75-.2,1.5-.45,2.2-.8,1.83-.91,3.31-2.45,4.34-4.21,2.62-4.5,2.3-10.36,1.83-15.35-.4-4.27-.72-10.02-4.33-12.93-1.05-.85-2.39-1.49-3.83-1.9-.14-11.58-.09-23.09.35-34.68.01-.32-.47-.31-.49,0-.87,11.39-1.39,22.9-1.39,34.32-1.22-.21-2.45-.26-3.62-.16.15-2.49-.18-5.15-.35-7.59-.2-2.92-.61-5.8-.94-8.7-.03-.27-.42-.28-.43,0-.13,3.05-.34,6.08-.3,9.13.02,2.26-.08,4.67.18,6.96-.48.01-.96.09-1.45.27-.69.25-1.29.65-1.83,1.11-.19.11-.38.21-.57.34.13-2.12.23-4.25.06-6.36-.03-.39-.61-.52-.71-.1-.56,2.35-.77,4.78-.99,7.19-.02.24-.05.49-.08.74-2.03,2.22-2.81,5.14-3.33,8.05,0-.1,0-.21,0-.31,0-1.07-.01-2.14-.02-3.21,0-.92-1.42-.92-1.43,0,0,1.07-.01,2.14-.02,3.21,0,.4-.02.8-.03,1.2-1.32-.02-2.64-.02-3.96,0,.05-.05.1-.09.13-.17.53-1.28.25-2.88.25-4.24,0-1.42-.1-2.82-.31-4.23-.06-.37-.7-.37-.76,0-.22,1.41-.31,2.8-.31,4.23,0,1.37-.28,2.97.25,4.24.03.08.09.13.14.18-1.36.03-2.72.08-4.08.14.5-8,.92-16,1.15-24,.24-8.44.54-17-.2-25.42-.02-.28-.41-.28-.43,0-.56,8.45-.41,16.96-.67,25.42-.25,8.03-.65,16.06-1.25,24.07-.77.04-1.54.08-2.32.12.61-24.14,1.22-48.27,1.61-72.4.3-7.61.59-15.22.84-22.83.22-6.81.49-13.87-.43-20.7,0-.16,0-.32,0-.47,0-.41,0-.82,0-1.23,2.97,2.34,6.39,4.25,9.56,5.93,5.47,2.9,11.31,5.1,17.25,6.84,13.44,3.92,27.42,5.24,41.33,6.21,1.39.1,2.79.2,4.18.29,9.23,1.8,19.18,1.47,28.5,1.1,5.11-.21,10.17-.86,15.24-1.48,4.9-.61,9.98-1.17,14.79-2.3.36-.08.29-.69-.09-.65Zm-107.83-24.51c1.17-1.01,1.98-1.89,3.66-1.8.32.02.72.08,1.13.19,1.17.85,1.4,2.23.17,3.23-.38.31-.85.49-1.35.58-.26-.01-.51-.02-.73-.04-1.42-.12-3.09-1-2.91-2.15,0,0,.02-.01.03-.02Zm-2.64,11.22c.28.1.57.19.85.28.63.24,1.27.47,1.9.7-.02.3-.03.6-.04.89-.06,1.27-.17,2.61.05,3.88-.96-.31-1.93-.63-2.89-.97.02-.63,0-1.27.03-1.89.05-.97.19-1.93.09-2.9Zm3.73,2.2c0-.28.02-.56.03-.84,1.13.4,2.28.78,3.42,1.15-.06.58-.09,1.16.01,1.73.06.32.49.25.58,0,.17-.46.24-.96.27-1.46,1.18.37,2.36.73,3.55,1.08-.19,1.47-.34,2.95-.47,4.4-.96-.26-1.92-.54-2.88-.82-.11-.2-.39-.25-.6-.17-.04-.01-.08-.02-.11-.03,0-.05.01-.1.02-.14.04-.25.09-.51.13-.76.08-.46-.63-.66-.7-.19l-.14.81s-.01.06-.02.09c-1.08-.32-2.16-.67-3.23-1.01.22-1.25.1-2.56.14-3.83Zm58.55,1.13c-.14,1.33-.22,2.67-.13,4-.97-.06-1.94-.13-2.91-.19,0-.3,0-.59.02-.88.04-1.04.08-2.08.1-3.12,0-.07-.03-.1-.06-.15,1.05.05,2.09.1,3.14.14-.08.04-.15.1-.16.21Zm-.59,10.57c-.03.4-.09.81-.14,1.22-.9-.08-1.8-.16-2.7-.23.02-.3.02-.6.04-.9.05-.92.11-1.83.17-2.75.93.06,1.86.12,2.8.17,0,0,0,0,0,.01-.05.83-.11,1.66-.16,2.49Zm-3.18-7.64c-.02.27-.05.55-.07.83-.75-.05-1.51-.11-2.26-.16.03-1.12.02-2.24-.05-3.37-.03-.49-.71-.48-.75,0-.1,1.1-.18,2.2-.25,3.3-.18-.01-.36-.03-.54-.04-.45-.14-.92-.26-1.41-.35.16-1.25.29-2.51.38-3.76,1.75.09,3.52.18,5.29.27-.04.05-.08.09-.09.17-.1,1.04-.18,2.08-.25,3.12Zm-1.16,8.51c-.61-.05-1.22-.09-1.83-.13.14-1.21.27-2.42.39-3.62.61.04,1.22.08,1.83.12-.09.88-.17,1.76-.27,2.64-.03.32-.08.65-.12.98Zm-16.99-5.23c.71.09,1.42.17,2.13.26-.18,1.29-.3,2.58-.34,3.87-.8-.07-1.6-.13-2.4-.2.01-.02.04-.04.05-.06.41-1.22.51-2.55.56-3.87Zm11.62-3.26c-.9-.1-1.81-.16-2.7-.2.08-1.2.12-2.4.11-3.59,1.12.06,2.24.12,3.35.17-.29,1.2-.54,2.41-.75,3.63Zm4.17,1.44s0-.02,0-.02c.27.02.54.04.81.06-.27-.01-.54-.02-.82-.03Zm-8.54-1.74c-.28-.02-.56-.04-.82-.07-.72-.07-1.46-.16-2.2-.24.07-1.21.2-2.43.53-3.43,1.09.07,2.18.14,3.27.2-.3,1.14-.56,2.33-.78,3.55Zm-4.42-.47c-.88-.1-1.76-.18-2.64-.24.06-1.12.08-2.25.02-3.37,1.14.09,2.28.18,3.42.26-.48,1-.65,2.27-.8,3.35Zm-6.7.22s0,0,0,0c.1.03.2.06.3.09-.26-.04-.52-.07-.78-.11,0-.01,0-.03,0-.04.15.02.31.04.46.06Zm-14.74.7c.01.11.01.22.03.33.07.33.59.41.75.1.04-.08.06-.16.09-.24,1.1.23,2.2.46,3.31.67-.16,1.49-.15,2.95.15,4.25-2.83-.5-5.64-1.04-8.45-1.67.22-1.41.38-2.84.48-4.28,1.21.29,2.42.57,3.64.84Zm22.52,3.57c.92.1,1.85.2,2.78.29-.1,1.28-.15,2.54-.14,3.76-1.01-.07-2.02-.15-3.03-.23.16-1.27.27-2.54.39-3.82Zm4.74.47c.81.07,1.61.15,2.42.21-.02.39-.05.77-.13,1.16-.18.86-.39,1.64-.49,2.48-.68-.05-1.36-.09-2.04-.14.12-1.23.18-2.47.24-3.71Zm2.92,3.93c.13-.66.2-1.32.26-2.01.05-.55.15-1.09.26-1.62.8.06,1.61.13,2.41.19-.08,1.21-.19,2.42-.34,3.62-.87-.06-1.73-.12-2.6-.18Zm-12.76-9.18c-.27,0-.54,0-.81,0-.75-.09-1.5-.19-2.25-.29.15-1.12.31-2.25.48-3.37,0,0,0,0,0,0,.99.1,1.98.19,2.97.27-.2,1.11-.31,2.25-.39,3.39Zm-4.26-.45c-.88-.12-1.76-.25-2.63-.38.13-1.1.25-2.2.16-3.3,1.16.14,2.33.28,3.5.4-.34.96-.73,2.1-1.02,3.28Zm-37.98-7.73c-.53-.23-1.08-.43-1.61-.67,0-.02-.02-.04-.02-.06.54.25,1.08.49,1.63.73Zm19.94,8.26c-.19,1.44-.33,2.88-.4,4.32-1.42-.33-2.83-.67-4.24-1.04.23-1.43.42-2.89.55-4.36,1.36.38,2.72.74,4.09,1.09Zm18.38,7.72c.02-.17.03-.35.04-.52.04-.42.07-.85.11-1.27.03-.3-.28-.56-.56-.56-.33,0-.53.26-.56.56-.05.42-.1.85-.15,1.27-.01.12-.03.24-.04.35-2.37-.35-4.73-.73-7.09-1.13.37-1.34.33-2.75.37-4.14,2.39.44,4.79.84,7.21,1.2.03.17.04.34.08.5.11.45.68.37.83,0,.05-.11.07-.24.1-.35,1.07.15,2.15.3,3.22.44-.12,1.36-.18,2.74.08,4.04-.98-.09-1.96-.18-2.94-.28-.24-.03-.47-.07-.71-.11Zm-3.47-12c-.34,1.04-.47,2.13-.61,3.21-1.18-.18-2.35-.38-3.53-.58.09-.97.19-1.93.32-2.89.02-.11-.01-.21-.07-.29,1.29.2,2.59.38,3.89.54Zm-41.81-8.18s-.03-.02-.05-.03c.05.02.1.05.15.07-.03-.01-.07-.03-.1-.04Zm72.24,22.36c0-.37,0-.73.01-1.09.05-.89.11-1.77.16-2.66.52.03,1.03.06,1.55.08-.11,1.22-.24,2.52-.25,3.8-.49-.05-.99-.09-1.48-.14Zm.43-7.81c.02-1.35.03-2.69.16-4.03,0-.09-.03-.15-.08-.19.78.03,1.57.05,2.35.07-.45,1.33-.69,2.79-.83,4.25-.53-.03-1.07-.07-1.6-.1ZM64.46,30.9c0-.47,0-.94.01-1.41.1.1.2.18.31.25.55,1.11,1.17,2.15,1.88,3.13-.05.06-.07.15,0,.21.12.1.25.2.37.3.53.7,1.1,1.37,1.7,2.02.34.38.68.75,1.04,1.1,4.35,4.24,10.08,7.11,15.67,9.53-.18.62-.08,1.36.1,1.94.07.22.44.19.42-.06-.05-.55.08-1.06.21-1.57.42.18.83.36,1.25.53.12.05.24.09.36.14-.04.17-.07.34-.09.51-.06.56.07.97.22,1.5.07.23.46.2.44-.06-.04-.42.06-.92.15-1.33.02-.1.06-.2.09-.3.32.13.64.26.97.38.26.12.51.25.77.36-.05.18-.08.37-.12.55-.12.52-.17,1.01-.2,1.54-.01.22.34.33.43.12.22-.48.4-.93.54-1.44.04-.13.08-.27.12-.4.88.39,1.77.74,2.67,1.11-.2.84,0,1.9.21,2.56.1.29.46.21.5-.07.08-.59.22-1.18.36-1.76.02-.09.04-.18.07-.27.75.3,1.52.58,2.28.86,0,.11,0,.22,0,.34,0,.45.7.45.7,0,0-.03,0-.06,0-.09.84.3,1.67.62,2.52.9,5.67,1.88,11.48,3.17,17.35,4.09-.04.04-.08.1-.1.18-.2.9-.44,1.88-.66,2.9-1.15-.2-2.29-.42-3.43-.64.08-.93.14-1.85.05-2.79-.02-.24-.34-.3-.43-.06-.3.86-.47,1.75-.61,2.65-1.29-.26-2.57-.53-3.86-.82.03-.73.06-1.45.09-2.17.01-.35-.56-.44-.62-.08-.11.68-.23,1.36-.34,2.05-1.5-.35-3-.72-4.48-1.11,0-.63.01-1.27-.02-1.89-.01-.24-.38-.31-.44-.06-.12.57-.23,1.15-.33,1.73-1.32-.36-2.63-.72-3.94-1.12,0-.19.02-.37,0-.56-.01-.3-.48-.39-.54-.07-.03.15-.04.3-.07.44-.67-.2-1.34-.41-2-.63-.02,0-.04-.01-.06-.02-.62-.2-1.23-.41-1.85-.62-.06-.16-.24-.22-.36-.12-5.12-1.76-10.14-3.84-15.05-6.32-5.05-2.56-9.46-5.68-12.7-10.06-.32-.49-.63-.98-.93-1.49-.06-.1-.14-.16-.23-.21-.17-.28-.34-.57-.5-.86.05-1.18.1-2.35.12-3.5Zm11.38,17.55s.02.01.03.02h0c-.06-.04-.12-.08-.19-.12.05.03.1.06.16.09Zm81.92,23.05c-.68-.09-1.37-.16-2.05-.24.11-1.3.09-2.64.12-3.91.59.03,1.17.06,1.76.09.07,1.19.13,2.36.08,3.47-.03.67,1.08.67,1.04,0-.07-1.1,0-2.25.12-3.41.87.04,1.74.08,2.61.11-.04,1.12.05,2.24.41,3.14.15.39.88.54.95,0,.13-.97-.07-1.94-.14-2.91,0-.06,0-.12,0-.18.3.01.6.02.9.04.16,0,.27-.05.35-.14.46,0,.92-.02,1.35-.02-.06,1.3-.27,2.54-.46,3.88-2.33.04-4.67.07-7,.08Zm8.92-3.99c.48,0,.97-.02,1.45-.03,0,1.33.1,2.63.34,3.85-.89.03-1.77.05-2.66.07.64-1.08.87-2.45.88-3.89Zm-9.21-4.11c-.49-.03-.98-.06-1.47-.09.06-1.46.05-2.92-.19-4.33.85.02,1.7.03,2.55.03-.61,1.36-.84,2.85-.89,4.38Zm-67.57-7.81c-.65,1.17-.96,2.93-.93,4.51-.82-.29-1.65-.57-2.46-.88-.01-.37-.04-.74-.05-1.1-.01-.78-.05-1.56-.02-2.34,0-.21-.32-.26-.36-.05-.19.94-.45,2.09-.44,3.16-.1-.04-.19-.08-.29-.11-.25-.12-.49-.24-.72-.38,0,.03,0,.06-.01.09-.56-.22-1.11-.44-1.67-.66-.01-.17-.02-.33-.02-.49,0-.52,0-1.04.05-1.56.02-.27-.4-.32-.47-.06-.14.52-.31,1.17-.35,1.8-.34-.14-.69-.26-1.03-.4-1.02-.43-2.06-.88-3.09-1.36-.77-.43-1.53-.86-2.29-1.31-1.77-1.06-3.45-2.26-5.14-3.44-.05-.33-.1-.66-.11-1-.01-.55.03-1.11.08-1.66.02-.23-.35-.34-.44-.12-.28.65-.44,1.43-.4,2.19-.18-.12-.35-.24-.53-.36-.02-.09-.03-.18-.05-.27-.08-.35-.34-.54-.63-.59.04-.45.04-.92.06-1.36.03-.76.05-1.47-.1-2.22-.03-.17-.27-.14-.32,0-.24.73-.31,1.45-.37,2.22-.02.25-.05.5-.07.75-.36-.41-.71-.82-1.04-1.26.02-.65-.07-1.32-.09-1.97-.02-.81.07-1.66-.13-2.44-.06-.22-.35-.19-.42,0-.28.77-.23,1.64-.22,2.44,0,.23,0,.47,0,.71-.42-.67-.8-1.37-1.13-2.11-.36-1.68-.48-3.43-.49-5.19,6.12,8.59,15.83,13.45,25.69,16.85Zm-22.17,93c-.06,3.05-.12,6.1-.18,9.15-.05-.02-.11-.04-.17-.05.13-3.03.23-6.06.35-9.09Zm28.9,12.1c.12.07.25.11.38.12,1.19.38,2.32.93,3.32,1.85.1.09.19.2.29.3-.01,0-.02,0-.04,0-.35.11-.63.34-.95.53-.23.14-.49.24-.73.35-.72-1.23-1.65-2.35-2.87-3.31.2.05.4.11.59.16Zm4.74,14.31c0-.06,0-.12,0-.17.76-.3,1.62-.57,2.33-1,.02.31.05.62.07.91.03.41.06.82.09,1.24-.83.17-1.64.66-2.41,1.16-.02-.72-.04-1.44-.07-2.13Zm-1.28,12.8c.92-.22,1.83-.53,2.67-.95-.87.77-1.95,1.37-3.07,1.91.14-.32.28-.64.4-.96Zm3.38-3.12c-.97.48-1.92,1.02-2.87,1.54.18-.67.32-1.36.44-2.06.52-.15,1.03-.36,1.52-.57.37-.15.8-.29,1.2-.47-.07.52-.17,1.04-.29,1.55Zm-1.45-2.36c-.26.12-.52.24-.78.36.05-.49.09-.99.13-1.48.47-.08.92-.19,1.37-.38.41-.17.87-.38,1.24-.67,0,.47-.03.94-.06,1.41-.66.11-1.31.5-1.9.76Zm-.57-4.18c.85-.29,1.73-.61,2.46-1.09.03.6.06,1.21.07,1.82-.02,0-.04,0-.07,0-.59.09-1.06.53-1.57.8-.3.16-.61.3-.92.44.02-.66.03-1.32.03-1.96Zm-2.38,11.82c.86-.32,1.72-.64,2.58-.99-.76,1.08-1.73,2-2.92,2.59-.37.18-.75.33-1.14.46.58-.64,1.07-1.34,1.49-2.07Zm4.55-17.07c-.81.25-1.57.78-2.3,1.25-.06-1.15-.15-2.29-.3-3.42.03-.01.06-.03.09-.05.67-.52,1.4-.88,2.12-1.28.19,1.19.3,2.38.38,3.5Zm-4.41-8.48c.62-.25,1.31-.6,1.61-1.14,0,0,0,0,0-.01.14.21.27.43.4.67.51.95.95,1.95,1.33,2.97-.02,0-.04-.02-.07-.02-.7.06-1.4.47-2.04.78-.3-1.13-.7-2.22-1.23-3.25Zm3.92,4.34c-.82.24-1.57.77-2.19,1.36-.11-.72-.24-1.42-.41-2.11.67-.19,1.5-.33,2.06-.74.03-.02.05-.05.06-.09.15.41.29.82.42,1.24.02.11.04.22.06.33Zm-10.74-8.8c1.34.62,2.59,1.73,3.44,2.66,1.59,1.72,2.34,3.93,2.71,6.26-2.04-2.56-4.18-5.28-6.71-7.24-.27-.21-.68.04-.5.39,1.79,3.36,4.77,6.39,7.26,9.24.07.08.14.13.22.17.07,1.17.1,2.32.12,3.43-1.96-2.48-3.99-4.83-5.76-7.45-1.59-2.35-3.43-4.79-5.45-6.78.2-.16.42-.31.63-.45,1.13-.53,2.46-.67,4.03-.22Zm-7.36,3.65c-.02.2-.05.41-.06.61.41-.85,1.04-1.59,1.9-2.2,0-.22.02-.43.03-.64.1-.11.21-.21.32-.31,1.4,2.46,3.27,4.84,5.12,6.98,2.26,2.63,4.14,5.45,6.24,8.22.11.15.25.22.38.25.01.93.01,1.87,0,2.82-.49-.59-1.02-1.15-1.46-1.72-.9-1.16-1.96-2.19-2.84-3.36-.2-.27-.64-.04-.47.27.76,1.37,1.4,2.77,2.34,4.04.7.94,1.41,2.06,2.34,2.8-.05.66-.11,1.32-.2,1.97-.17-.2-.34-.4-.5-.59-.92-1.12-1.92-2.13-2.95-3.16-.28-.28-.66.13-.43.43.93,1.15,1.79,2.38,2.64,3.59.32.45.61.97.94,1.44-.17.77-.38,1.52-.64,2.26-.97-1.23-1.75-2.57-2.59-3.92-.74-1.18-1.57-2.41-2.74-3.18.12-.2.22-.4.3-.61.74-1.87.15-4.41-.83-6.1-.09-.15-.18-.29-.28-.42-.16-.3-.34-.58-.57-.84-.56-.63-1.24-.94-1.98-1.1-.12-.07-.25-.13-.41-.15-1.97-.25-3.95-.4-5.93-.49.44-2.16,1.15-4.77,2.34-6.89Zm-51.2-25.36c-.49-.16-.97-.35-1.45-.53.05-.06.08-.13.11-.2.22-.08.43-.16.63-.27.78.33,1.57.63,2.39.9.08.03.17.06.25.09-.33.1-.67.19-1.01.28-.31-.08-.62-.16-.91-.26Zm-9.05,9.6c-.03-.59-.05-1.16-.2-1.73.55.08,1.11.15,1.67.2-.13,1.2-.16,2.4.04,3.46.01.07.06.11.1.16-.58,0-1.16-.04-1.73-.1,0,0,.01-.01.02-.02.24-.62.13-1.31.1-1.97Zm-9.18-10.8c1.79,4.11,8.71,4.81,14.02,4.54.86.01,1.77-.03,2.68-.12-.17,1-.22,2.04-.24,3.06-.44.07-.87.13-1.31.18-.01-.61-.04-1.21-.09-1.8-.04-.47-.79-.66-.89-.12-.11.67-.2,1.35-.28,2.04-.09,0-.18.02-.27.03-.51.03-1.06.05-1.63.05.02-.75.03-1.51,0-2.27-.02-.39-.63-.52-.71-.1-.15.73-.31,1.53-.44,2.34-4.1-.16-8.93-1.31-10.73-4.83-.02-.03-.05-.05-.08-.07-.04-.96-.01-1.95-.03-2.93Zm39.19-45.41c.09,0,.18-.01.26-.06-.1,1.21-.24,2.42-.41,3.63.08-1.19.14-2.37.15-3.56,0,0,0,0,0,0Zm-2.27,22.91c-.42.23-.83.45-1.24.68-.19.07-.37.13-.56.18.31-.58.61-1.18.89-1.77.15.06.32.08.5-.01,1.42-.68,2.9-1.27,4.35-1.89-.72.75-1.5,1.43-2.34,2.01-.56.19-1.09.52-1.61.8Zm8.94-19.97c-1.51.74-3.01,1.51-4.53,2.23.13-.8.24-1.61.34-2.43,1.05-.47,2.19-.83,3.27-1.21.54-.19,1.2-.3,1.71-.57-.02.63-.05,1.25-.09,1.89-.23-.05-.47-.02-.7.09Zm.53,2.05c-.05.46-.1.92-.16,1.37-1.01-.34-2.19.49-3.08.92-.83.4-1.65.81-2.45,1.24.12-.55.24-1.11.34-1.67,1.67-.6,3.33-1.22,4.95-1.94.08.04.16.06.25.07.05,0,.09,0,.14,0Zm-6.25,5.84c.89-.26,1.77-.55,2.65-.89.51-.19,1.02-.38,1.52-.59.44-.18,1.04-.57,1.55-.65-.05.27-.1.53-.16.79-1.94.19-3.99,1.13-5.8,2.26.09-.31.16-.62.24-.93Zm6.54-13.06c0,.43,0,.87,0,1.31-.81-.24-1.72.3-2.5.66-.85.39-1.59.87-2.33,1.39.1-1.01.17-2.02.22-3.03.64-.09,1.27-.26,1.9-.44.61-.18,1.82-.86,2.41-.61.1.04.2.06.29.08,0,.22,0,.43.01.65Zm-4.01,19.86c-2.08.66-4.07,1.77-5.97,2.88.02-.04.04-.08.06-.12.38-.83.73-1.67,1.07-2.52,1.83-.55,3.92-1,5.71-1.85-.27.55-.56,1.09-.88,1.61Zm-4.36-1.02c.29-.76.56-1.52.81-2.3,1.11-.44,2.22-.88,3.34-1.29.83-.3,1.71-.55,2.57-.85-.13.42-.26.83-.41,1.24-2.27.43-4.35,1.89-6.32,3.19Zm8.29-21.84c-.54-.08-1.14.03-1.67.22-.93.33-1.9.71-2.8,1.18.02-1.33.02-2.66-.03-3.99,1.45.5,2.82-.41,4.26-.86.11,1.17.19,2.33.25,3.45Zm-23.25,47.65c.43.58.54,1.11.42,1.59-.8-.39-1.67-.64-2.53-.93-.58-.2-1.17-.38-1.76-.54.04-.49.04-.99.04-1.46,1.37-.06,2.95.17,3.83,1.34Zm-11.42,12.37s0-.01,0-.02c.43.02.87.03,1.3.04.17,0,.35,0,.53,0-.07,1.12-.1,2.24-.11,3.34-.77.08-1.53.13-2.28.14.05-.05.1-.09.12-.15.38-1.06.35-2.24.43-3.35Zm9.73-.88c-.06.78-.08,1.57.03,2.31-.35.17-.71.31-1.09.44.13-.81.15-1.65.15-2.48.31-.08.61-.17.9-.27Zm1.32-.52c.44-.21.96-.51,1.45-.87-.14,1.24-.64,2.12-1.36,2.78.02-.63-.03-1.28-.09-1.91Zm1.56-4.34c-.16.2-.32.41-.51.64-.78.92-1.67,1.5-2.78,1.95-.16.06-.33.11-.49.17,0-.95-.02-1.89-.11-2.84,1.38-.4,2.79-.98,3.85-1.86.01.65.03,1.29.04,1.94Zm-5.21.31c-.11.99-.16,1.98-.2,2.97-.22.06-.44.11-.66.16.02-.97,0-1.96-.14-2.91.34-.06.67-.14,1-.22Zm-4.19,5.45c.41,0,.83-.02,1.25-.04-.06.99-.13,1.99,0,2.95-.47.1-.94.18-1.41.25.09-1.04.15-2.1.17-3.17Zm3.29-.21c.2-.03.41-.06.61-.09-.03.86-.02,1.72.13,2.56-.26.07-.53.13-.79.19.09-.87.06-1.78.05-2.66Zm-4.42-17.13c-.04-.68-1.01-.68-1.06,0-.15,2.11-.58,4.62-.19,6.81-.32-.02-.62-.05-.92-.1,0-.2-.02-.4-.03-.6-.04-.65-.14-1.3-.23-1.95-.08-.57-.81-.57-.88,0-.09.65-.19,1.3-.23,1.95,0,.11-.01.21-.02.32-1.08-.32-2.01-.88-2.46-2.13-.33-.93-.19-2.37-.27-3.37-.02-.3-.04-.61-.06-.92-.04-1.17,0-2.39-.2-3.54,2.38.17,4.78.12,7.17-.06.83-.03,1.66-.09,2.49-.16.09,2.36.11,4.73.01,7.09-.02.45-.04.84-.1,1.19-.07.01-.13.04-.19.08-.06-.35-.13-.7-.19-1.06-.07-.39-.66-.28-.67.09-.03.93-.23,1.85-.43,2.76-.11.05-.2.1-.32.15-.14.05-.3.08-.45.11,0-2.19-.67-4.52-.79-6.66Zm-.7-5.34c-.27,0-.54.02-.81.02.29-.08.58-.16.86-.26-.03.08-.04.16-.06.24Zm9.31-2.16c-.06.02-.12.03-.18.05.04-.03.08-.06.12-.1.1-.08.2-.17.3-.25-.08.1-.16.2-.24.3Zm-3.54,14c.48.21.97.41,1.46.6.73.28,1.47.58,2.22.8-.04.03-.08.06-.12.09-.58-.2-1.19-.34-1.77-.52-.67-.2-1.33-.39-2-.56.08-.13.16-.27.22-.42Zm27.07-54.44c-.51.17-1.01.39-1.51.64-.84.42-1.67.98-2.62,1.02-.4-6.89-1.92-13.74-4.71-19.9.39.21.78.45,1.13.77,1.01.92,1.8,2.09,2.53,3.24,1.43,2.23,2.56,4.62,3.43,7.12.57,1.63,1.01,3.3,1.36,4.99-.03-.11-.1-.21-.26-.22-1.13-.09-2.29.31-3.24.89-.36.22-.03.77.33.56.92-.56,1.86-.75,2.92-.86.18-.02.27-.15.28-.28.13.61.24,1.23.34,1.84,0,.06.02.13.03.19Zm-16.13-25.15c2.06,2.5,3.81,5.23,5.29,8.11,1.61,3.92,2.7,8.13,3.42,12.09.64,3.55.94,7.14.92,10.74-.29-2.82-.96-5.7-1.35-8.34-.05-.35-.64-.27-.62.08.21,4.01-.11,8.75,1.11,12.61.02.05.04.09.07.13-.08.03-.15.09-.16.2-.28,7.82-2.66,15.26-6.56,22.01-1.55,2.67-3.35,5.36-5.89,7.19,7.56-8.75,12.16-20.23,10.26-31.85-.05-.31-.55-.23-.54.07.32,6.51-.55,12.93-3.37,18.84-.95,1.99-2.11,3.79-3.37,5.52,3.59-6.16,6.43-13.62,4.61-20.77-.06-.25-.48-.21-.46.06.48,6.97-2.2,13.24-5.8,19.06-1.59,2.58-3.27,5.12-5.53,7.17-1.22,1.11-2.6,2.08-4.11,2.77-.64.29-1.31.47-1.97.67,1.01-.55,1.97-1.19,2.87-1.91,3.43-2.39,6.38-5.62,8.4-8.98,4.24-7.06,5.14-15.71,4.53-23.77-.64-8.56-2.34-17.72-6.26-25.42-2.14-4.21-6.13-9.02-10.89-11.29,1.53.17,3.08.2,4.63.28.28.38.9.42,1.28.09.64.06,1.27.13,1.9.24,1.23.22,2.4.56,3.5,1.02,1.46.77,2.8,1.84,4.07,3.38Zm-15.17-11.67c.1-2.01-.48-5.95,1.63-6.97.54-.26.97-.33,1.32-.28.07.38.47.6.82.5.9,1.26.44,4.43.38,5.67-.09,1.99-.16,3.99-.23,5.98-1.11,0-2.21.06-3.28.22-.4-.01-.8-.03-1.2-.04.01-.07.02-.14.03-.21.61-1.5.44-3.27.52-4.87Zm-14.45,102.08c-.06-1.34-.15-2.69-.23-4.03.13.12.26.24.39.35.79.84,1.94,1.44,2.95,1.88,1.51.65,3.06,1.09,4.65,1.37-.19.61-.21,1.22-.24,1.86-.03.62-.11,1.26.08,1.85-.55-.09-1.1-.19-1.64-.32,0-.33-.03-.67-.03-.99,0-.79-.22-1.43-.34-2.19-.05-.3-.56-.3-.6,0-.12.75-.33,1.4-.34,2.19,0,.19-.01.39-.02.59-.53-.18-1.07-.39-1.59-.62.03-.62-.16-1.29-.26-1.91-.07-.44-.85-.34-.79.11.06.44.08.92.16,1.37-.4-.2-.79-.42-1.18-.66-.33-.26-.64-.55-.96-.84ZM1.45,81.26c.01-.08,0-.14-.02-.21,1.21-9.17,3.6-18.25,9.82-25.38,3.07-3.52,7.59-5.3,12.11-5.14,2.87.67,5.51,1.37,8,3.14,2.94,2.08,5.26,4.85,6.97,8.01,3.45,6.38,4.78,14.1,5.82,21.21.62,4.19.91,8.5.61,12.75-.36,2.91-.94,5.79-1.78,8.59-.81,2.71-1.89,5.43-3.28,7.96-2.05,3.4-4.75,6.41-8.16,8.29-3.75,2.07-8.43,3.14-12.59,1.87-.84-.26-1.68-.57-2.52-.91-.53-.25-1.06-.52-1.58-.82C2.06,113.08-.55,94.6,1.45,81.26Zm16.17,50.39c1.33-.85,3.02-1.35,4.63-1.44.02.91.02,1.85.11,2.76,0,.63,0,1.26.01,1.9,0,.39.34.56.64.52.07.08.14.16.22.23,1,1.31,2.79,2.01,4.41,2.28.74.12,1.69.18,2.65.1.61.39,1.28.7,1.96.97-1.12.14-2.25.2-3.37.21-3.8.02-11.1.15-12.91-4.18-.12-1.27.52-2.61,1.66-3.34Zm35.46,50.96c-3.94.02-8.04.23-12.04-.12-.02-.05-.05-.11-.11-.15-2.92-1.95-6.57-2.48-9.43-4.59-2.94-2.16-4.97-5.73-5.33-9.34-.02-.23-.38-.24-.37,0,.1,3.59,1.29,6.83,3.93,9.33,1.26,1.2,2.73,2.04,4.32,2.74,1.17.51,2.38,1.07,3.61,1.55-.89-.17-1.78-.37-2.65-.63-5.73-1.74-9.78-5.81-10.82-11.78-1.04-6.01-.4-12.03-.62-18.07.6.12,1.21.21,1.82.28-.09,1.75.09,3.45.38,5.19.03.19.31.16.36,0,.48-1.68.84-3.34.95-5.07.34.01.68.01,1.02.01-.36,2.93.14,6.35.62,9.22.03.15.28.15.3,0,.48-2.89.99-6.34.61-9.28,1.01-.06,2.43-.16,3.92-.37,0,.04-.01.08-.02.12-1.2,5.04-1.23,11.4.86,16.22,2.1,4.83,9.34,4.82,13.83,5.17,9.2.71,18.4-.1,27.61-.37.17,0,.34,0,.51-.01,1.55-.04,3.1-.07,4.64-.07.14.04.29.04.43,0,2.13,0,4.25.07,6.38.2.42.22.84.45,1.21.73-6.9-.17-13.99.25-20.83.92-3.68.36-7.6-.1-11.3-.15-3.77-.05-7.6-.17-11.36.15-.4.03-.39.56,0,.61,3.6.43,7.28.41,10.9.41,3.87,0,7.91-.51,11.76-.22,7.16.55,14.7.62,21.85-.14.06,0,.1-.03.15-.04.15.41.25.82.32,1.22-5.05-.12-10.14.05-15.18.16-5.34.12-10.67-.11-16.01.1-.43.02-.43.65,0,.67,5.34.23,10.67.02,16.01.15,5.06.13,10.16.31,15.22.2-.03.32-.09.63-.2.92-1.67.07-3.34.29-5,.42-.66.05-.68,1.06,0,1.04,1.39-.05,2.8-.03,4.2-.1-.12.14-.27.28-.41.42-1.41-.2-2.89.04-4.31.12-1.95.1-3.9.18-5.85.23-3.59.1-7.31-.11-10.85.49-.18.03-.17.32,0,.36,1.13.25,2.28.39,3.45.48-.04.2-.07.41-.1.62-.49.02-.98.05-1.46.08-1.22-.01-2.44-.02-3.66-.02,0,0,0-.01-.01-.02-.1-.1-.27-.1-.36,0,0,0,0,.01-.01.02-4.29-.02-8.58,0-12.86.01Zm18.99-.1c-.01-.18-.02-.36-.03-.54,2.31.15,4.65.07,6.91.04,1.15-.02,2.29-.05,3.44-.09-.28.04-.55.08-.8.15-3.18.24-6.35.3-9.52.44Zm10.61.84c.69,0,1.39.05,2.12.19,1.07.2,2.07.32,3.13.02,1.01-.28,2.12-.9,3.04-1.7.11-.08.21-.18.31-.28.28-.27.53-.56.75-.85,1.05,1.36,1.93,2.74,2.74,4.3.66,1.28,1.39,2.59,2.39,3.64-.31.63-.69,1.24-1.14,1.79-.47-1.09-1.27-2.14-1.84-3.09-.81-1.35-1.63-2.71-2.66-3.9-.12-.14-.37,0-.31.18.5,1.5,1.26,2.89,2.01,4.28.59,1.09,1.14,2.46,1.97,3.45-.64.61-1.35,1.11-2.1,1.48-.45-.93-1.02-1.81-1.51-2.72-.79-1.48-1.61-2.93-2.5-4.36-.21-.34-.75-.03-.54.32.83,1.33,1.61,2.69,2.4,4.05.55.96.95,2.01,1.44,3-1.89.65-3.97.35-5.73-1.55-.08-.08-.16-.13-.24-.17-1.84-2.32-3.03-5.67-3.72-8.05,0-.02-.02-.02-.03-.04Zm-15.72-12.53c.11-.5.21-1.01.31-1.52-.01.5-.03,1.01-.04,1.51-.09,0-.18,0-.27.01Zm102.65-99.53c.1-1.28.02-2.58-.04-3.87.76-.04,1.53-.08,2.29-.13-.23,1.29-.3,2.62-.23,3.93-.24,0-.48.02-.72.03-.43.02-.86.03-1.29.04Z"/>
</svg>