<?xml version="1.0" encoding="UTF-8"?>
<svg id="Layer_1" data-name="Layer 1" xmlns="http://www.w3.org/2000/svg" viewBox="0 0 196.31 211.05">
  <defs>
    <style>
      .cls-1 {
        fill: #fff;
        stroke-width: 0px;
      }
    </style>
  </defs>
  <path class="cls-1" d="m71.79,71.56c-3.32-3.03-4.66-8.55-5.55-12.51-.98-4.38-1.34-8.88-.3-13.27.06-.27.51-.19.53.06.31,4.42.56,8.83,1.78,13.15.56,1.98,1.26,3.94,2.12,5.84.9,1.98,2.33,3.92,2.88,6,.19.7-.83,1.3-1.46.73Z"/>
  <path class="cls-1" d="m84.8,85.78c-4.32-2.8-7.63-7.39-10.42-11.32-.49-.69.72-1.28,1.25-.63,1.7,2.09,3.53,4.09,5.43,6.04,1.6,1.65,3.49,3.13,4.93,4.87.5.6-.5,1.48-1.19,1.03Z"/>
  <path class="cls-1" d="m140.64,102.55c-19.74,3.79-38-4.98-53.2-14.87-.67-.44-.07-1.42.68-1.01,7.77,4.25,15.7,8.68,24.31,11.56,4.18,1.4,8.53,2.46,12.97,3.03,5.18.67,9.88.62,15.08.3.65-.04.79.86.15.99Z"/>
  <path class="cls-1" d="m121.25,103.82c.31.07.17.45-.13.41-20.18-2.7-37.06-12.62-48.91-26.82-.7-.84.91-1.64,1.61-.81,11.22,13.44,29,23.01,47.43,27.22Z"/>
  <path class="cls-1" d="m68.13,69.46c.82,1.27,1.4,2.6,2.45,3.77.15.17-.17.36-.33.22-1.17-1.02-2.37-2.33-2.67-3.79-.06-.28.38-.48.55-.2Z"/>
  <path class="cls-1" d="m67.02,67.91c.01.16-.26.22-.35.08-1.29-2.05-2.01-4.24-2.67-6.5-.62-2.14-1.7-4.67-1.37-6.88.06-.41.72-.68,1-.23,1.22,1.98,1.35,4.57,1.91,6.74.59,2.26,1.26,4.47,1.47,6.78Z"/>
  <path class="cls-1" d="m65.57,68.77c.87,1.76,2.09,3.43,2.74,5.26.16.45-.58.86-.95.48-2.93-2.96-4.56-7.6-5.25-11.38-.05-.26.4-.5.55-.2,1.01,1.94,1.95,3.89,2.92,5.84Z"/>
  <path class="cls-1" d="m71.4,79.01c5.26,4.93,10.61,9.65,16.8,13.73,2.89,1.91,5.88,3.71,8.88,5.49,3.53,2.09,6.97,4.55,11.13,5.6.28.07.24.48-.07.45-7.9-.78-14.84-6.03-20.96-10.05-6.28-4.12-12.63-8.77-16.19-14.96-.12-.21.19-.46.4-.27Z"/>
  <path class="cls-1" d="m101.98,85.49c-.24-.58-.31-1.15-.72-1.68-.15-.19.17-.36.35-.23.62.44,1.22,1.09,1.18,1.81-.02.4-.65.47-.8.09Z"/>
  <path class="cls-1" d="m79,54.82c-1.49-3.95-1.89-8.41-2.48-12.53-.04-.26.46-.31.53-.06,1.12,4.04,2.53,8.34,2.73,12.5.02.4-.64.45-.78.09Z"/>
  <path class="cls-1" d="m104.19,48.34c1.05,3.69,2.3,7.41,2.96,11.17.08.45-.65.65-.81.19-1.27-3.65-1.97-7.47-2.85-11.2-.09-.39.58-.56.7-.17Z"/>
  <path class="cls-1" d="m109.89,66.93c.26,1.15.56,2.29.72,3.46.04.31-.49.33-.59.07-.42-1.08-.7-2.2-1.02-3.31-.15-.51.78-.72.9-.21Z"/>
  <path class="cls-1" d="m19.64,57.57c-1.66-4.13-2.62-8.55-3.65-12.83-.03-.14.2-.19.24-.06,1.43,4.18,3,8.48,3.8,12.79.04.23-.31.32-.4.1Z"/>
  <path class="cls-1" d="m41.22,118.72c-1.46-1.52-1.59-3.63-2.09-5.52-.63-2.41-1.24-4.82-1.86-7.23-1.27-4.98-1.98-10.07-3.38-15.02-.68-2.4-1.76-4.69-2.44-7.09-.68-2.4-1.39-4.79-2.06-7.18-1.4-4.94-2.64-9.92-4.01-14.88-.06-.23.32-.32.4-.1,1.67,4.72,3.4,9.43,4.92,14.18.76,2.38,1.45,4.77,2.17,7.16.76,2.56,1.09,5.16,1.81,7.72,1.35,4.79,3.31,9.44,4.65,14.24.67,2.4,1.32,4.8,1.94,7.21.51,2,1.58,4.25.95,6.28-.11.35-.7.53-.99.23Z"/>
  <path class="cls-1" d="m45.92,112.67c-1.19-2.01-1.45-4.46-2.03-6.65-.66-2.51-1.42-4.98-2.15-7.47-1.49-5.1-2.32-10.44-4.22-15.44-1.85-4.87-3.28-9.88-4.97-14.79-1.74-5.05-3.88-10.05-5.27-15.18-.07-.25.38-.45.51-.19,2.31,4.58,3.87,9.47,5.56,14.24,1.79,5.03,3.74,10.1,5.06,15.24,1.28,5.01,3.37,9.85,4.76,14.84.73,2.64,1.34,5.31,2.04,7.97.61,2.33,1.66,4.86,1.52,7.25-.02.35-.6.54-.8.19Z"/>
  <path class="cls-1" d="m46.1,87.06c-2.52-4.62-3.94-9.82-6.02-14.61-2.31-5.32-4.7-10.64-7.45-15.8-.11-.21.24-.39.36-.18,2.76,4.75,5.46,9.53,7.75,14.47,2.33,5.01,5.2,10.49,6.14,15.84.07.38-.56.7-.79.29Z"/>
  <path class="cls-1" d="m49.25,96.24c.06.93.37,1.76.66,2.65.11.34-.43.52-.64.23-.62-.84-.86-1.9-.97-2.88-.06-.52.92-.53.95,0Z"/>
  <path class="cls-1" d="m57.02,84.31c-4.28-6.58-7.18-14.25-9.38-21.52-.11-.35.49-.49.63-.15,2.98,7.2,6.52,14.23,9.41,21.43.14.34-.46.54-.66.24Z"/>
  <path class="cls-1" d="m80.31,126.88c.1.08.19.16.29.25.23.2-.13.51-.36.31l-.29-.25c-.23-.2.13-.51.36-.31Z"/>
  <path class="cls-1" d="m112.52,121.78c.1.16.19.33.29.49.11.18-.21.35-.32.16-.1-.16-.19-.33-.29-.49-.11-.18.21-.35.32-.16Z"/>
  <path class="cls-1" d="m139.24,110.6c.67.82,1.36,1.62,1.92,2.5.46.73,1.06,1.53,1.11,2.36.02.42-.61.61-.93.33-.69-.59-1-1.53-1.39-2.29-.45-.87-.82-1.76-1.27-2.63-.17-.33.32-.58.56-.28Z"/>
  <path class="cls-1" d="m146.22,109.19c1.06,1.35,2.37,2.85,2.53,4.53.04.38-.6.49-.8.19-.93-1.4-1.25-3.09-2.09-4.54-.12-.21.21-.38.36-.18Z"/>
  <path class="cls-1" d="m157.39,101.53c1.18,1.53,2.56,2.99,3.49,4.65.15.26-.26.58-.49.33-1.35-1.46-2.31-3.16-3.42-4.76-.16-.24.25-.44.42-.21Z"/>
  <path class="cls-1" d="m60.1,25.69c2.57.99,4.99,2.98,6.87,4.77.19.18-.05.44-.3.33-2.48-1.11-5.33-2.63-7.1-4.52-.31-.33.07-.76.52-.58Z"/>
  <path class="cls-1" d="m64.29,34.77c-2.74-2.69-6.24-4.6-9.28-7.01-.36-.29.1-.71.49-.55,3.85,1.54,6.57,4.52,9.08,7.36.13.14-.15.33-.29.19Z"/>
  <path class="cls-1" d="m53.45,45.88c-1.4-1.51-2.47-3.26-3.76-4.85-1.43-1.76-3.32-3.29-4.57-5.15-.32-.47.39-.9.84-.56,1.79,1.34,3.04,3.29,4.37,4.97,1.32,1.68,2.79,3.43,3.65,5.32.11.25-.33.47-.52.26Z"/>
  <path class="cls-1" d="m19.77,34.19c1.49,1.94,2.04,4.49,2.85,6.7.96,2.62,2,5.24,2.65,7.93.11.44-.57.58-.76.18-2.26-4.68-3.63-9.72-5.5-14.52-.16-.41.51-.61.77-.28Z"/>
  <path class="cls-1" d="m22.58,54.16c-1.06-3.08-2.64-6.15-3.3-9.32-.07-.32.4-.51.62-.22,2.07,2.73,2.81,6.21,3.31,9.4.05.35-.5.51-.63.15Z"/>
  <path class="cls-1" d="m18.63,42.53c-.22-1.49-.8-2.91-1.28-4.35-.09-.26.32-.39.49-.18,1.09,1.35,1.5,2.91,1.72,4.53.07.52-.86.5-.93,0Z"/>
  <path class="cls-1" d="m50.89,11.94c-.56-.97-.47-2.06-.49-3.13-.02-1.37.11-2.69.27-4.05.03-.23.4-.24.42,0,.08,1.26.24,2.52.36,3.78.11,1.1.47,2.25.14,3.32-.08.26-.55.34-.7.08Z"/>
  <path class="cls-1" d="m40.89,14.63c-.63-2.26-.28-4.79-.52-7.11-.03-.29.48-.33.57-.07.78,2.2,1.6,4.9.78,7.17-.12.34-.73.37-.83,0Z"/>
  <path class="cls-1" d="m37.51,14.36c-.85-2.83-.82-5.72-1.07-8.62-.03-.34.6-.41.69-.08.7,2.87,1.45,5.67,1.1,8.62-.04.33-.6.45-.71.08Z"/>
  <path class="cls-1" d="m29.26,9.02c-.2-2.18-.1-4.35-.4-6.53-.05-.35.63-.43.71-.08.51,2.17.93,4.51.54,6.71-.08.44-.81.29-.85-.1Z"/>
  <path class="cls-1" d="m21.6,12.16c-.75-2.51-.41-5.35-.53-7.92-.01-.32.55-.38.64-.07.71,2.51,1.58,5.4.99,7.99-.11.48-.96.45-1.1,0Z"/>
  <path class="cls-1" d="m22.46,18.36c-.17-.58-.28-1.14-.37-1.73-.08-.48.78-.69.85-.2.1.63.17,1.23.19,1.86,0,.33-.57.4-.66.08Z"/>
  <path class="cls-1" d="m18.66,70.71c-.14,0-.14-.18,0-.18s.14.18,0,.18Z"/>
  <path class="cls-1" d="m25.1,113.06c.02.46-.74.43-.8,0-.58-4.19-.84-8.41-1.44-12.6-.59-4.16-1.46-8.26-2.21-12.39-1.46-8.05-3.58-16.02-4.85-24.09-.02-.13.19-.19.24-.06,3.04,7.97,4.61,16.45,6.04,24.74,1.38,8,2.62,16.32,3.02,24.4Z"/>
  <path class="cls-1" d="m12.42,76.06c-.86-5-1.16-10.1-1.54-15.14,0-.12.23-.15.25-.03.79,5,1.68,10.04,1.98,15.09.02.34-.63.42-.69.08Z"/>
  <path class="cls-1" d="m14.92,93.35c-.26-2.01-.29-3.95-.91-5.92-.14-.43.64-.62.78-.18.62,1.95,1.11,4.15.63,6.17-.06.26-.46.17-.49-.06Z"/>
  <path class="cls-1" d="m10.63,98.77c-.63-3.67-.71-7.39-1.44-11.06-.05-.25.38-.36.45-.11.89,3.58,1.86,7.4,1.62,11.09-.02.29-.57.4-.63.07Z"/>
  <path class="cls-1" d="m11.81,114.14c-.69-2.94-.58-6.09-.78-9.08-.01-.16.27-.16.29,0,.41,2.96,1.17,6.03,1.09,9.01,0,.28-.52.37-.59.07Z"/>
  <path class="cls-1" d="m6.92,109.12c-.86-3.33-.94-6.88-1.22-10.28-.31-3.72-.43-7.44-.55-11.16,0-.21.36-.21.38,0,.29,3.57.69,7.13,1.03,10.7.34,3.53,1.03,7.14.96,10.67,0,.29-.52.36-.59.07Z"/>
  <path class="cls-1" d="m27.79,99.13c.9,2.79,2.01,5.6,2.47,8.48.07.41-.57.58-.73.17-1.08-2.76-1.53-5.7-2.17-8.55-.05-.24.35-.34.42-.1Z"/>
  <path class="cls-1" d="m151.1,134.81c-23.01,7.87-47.79,13.38-72.58,14.33-.37.01-.47-.52-.09-.57,24.52-3.63,48.76-7.72,72.57-14.07.23-.06.32.24.1.31Z"/>
  <path class="cls-1" d="m76.51,149.52c-4.23,1.08-10.27,2.29-14.57,1.12-.56-.15-.56-.84,0-.99,2.17-.58,4.58-.39,6.83-.48,2.55-.11,5.1-.21,7.65-.23.38,0,.45.48.09.57Z"/>
  <path class="cls-1" d="m20.32,151.14c6.07-.65,12.4-.37,18.51-.39,6.17-.01,12.33-.16,18.49-.41.48-.02.47.61,0,.64-6.33.41-12.68.76-19.02.99-5.94.22-12.18.51-18.07-.26-.41-.05-.25-.54.09-.57Z"/>
  <path class="cls-1" d="m150.48,131.67c-9.44,3.39-19,6.21-28.89,8.45-4.92,1.11-9.87,2.11-14.85,2.99-4.67.82-9.43,1.82-14.21,1.78-.32,0-.37-.39-.07-.47,4.8-1.34,9.95-1.81,14.89-2.7,4.81-.86,9.6-1.83,14.35-2.91,9.64-2.19,19.24-4.73,28.65-7.55.3-.09.41.31.13.41Z"/>
  <path class="cls-1" d="m88.18,145.14c.74-.06,1.45-.25,2.11-.53.43-.18.79.34.38.56-1.17.61-2.99,1.23-4.32.7-.32-.13-.23-.58.1-.64.57-.11,1.15-.04,1.73-.08Z"/>
  <path class="cls-1" d="m65.58,147.6c5.49-1.31,11.44-1.77,17.11-2.09.6-.03.74.81.14.91-5.58.91-11.48,1.76-17.18,1.68-.33,0-.4-.42-.08-.49Z"/>
  <path class="cls-1" d="m42.55,149.11c-3.21.02-6.42-.01-9.63-.08-3.19-.07-6.62.07-9.72-.62-.33-.07-.38-.57,0-.62,3-.37,6.16-.03,9.18.05,3.39.08,6.77.11,10.16.09,3.21-.02,6.42-.08,9.62-.16,3.12-.08,6.6-.62,9.66-.02.19.04.16.26,0,.31-2.79.89-6.18.71-9.13.83-3.38.14-6.77.21-10.16.22Z"/>
  <path class="cls-1" d="m154.49,126.29c.26-.09.43.27.19.39-4.54,2.13-9.28,3.87-14.16,5.35-4.66,1.42-9.96,3.19-14.92,3.49-.49.03-.5-.56-.11-.69,4.7-1.6,9.91-2.34,14.72-3.76,4.83-1.43,9.56-3.08,14.28-4.78Z"/>
  <path class="cls-1" d="m114.11,138.63c-2.32.58-4.8,1.35-7.23,1.35-.48,0-.73-.63-.26-.82,2.2-.9,4.8-1.14,7.19-1.49,2.74-.4,5.4-1.03,8.11-1.54.64-.12.92.72.27.85-2.7.56-5.41.98-8.08,1.64Z"/>
  <path class="cls-1" d="m102.82,140.8c-12.91,1.93-26.05,2.97-39.11,3.82-6.61.43-13.24.83-19.86,1.14-6.23.29-13.31,1.03-19.45-.09-.35-.06-.36-.56,0-.62,6.02-1.1,12.78-.57,18.91-.65,6.64-.08,13.24-.27,19.86-.67,13.24-.79,26.37-2.24,39.54-3.58.43-.04.53.59.1.65Z"/>
  <path class="cls-1" d="m8.08,144.98c4.34-.21,8.78.15,13.13.19.51,0,.51.69,0,.68-4.33-.05-8.83.11-13.13-.37-.36-.04-.38-.48,0-.5Z"/>
  <path class="cls-1" d="m94.53,138.13c14.07-1.78,28.04-4.39,41.53-8.33.23-.07.32.24.1.31-13.42,4.33-27.27,7.36-41.55,8.5-.31.02-.39-.43-.07-.47Z"/>
  <path class="cls-1" d="m80.42,140.46c-.6-.16-.57-.86,0-1.03,1.03-.3,2.13-.22,3.2-.27,1.32-.06,2.63-.17,3.94-.33.82-.1,1.21.97.35,1.1-2.2.36-5.31,1.09-7.5.52Z"/>
  <path class="cls-1" d="m59.11,141.64c-.33,0-.33-.44,0-.44,5.56-.11,11.18-.84,16.73-1.28.5-.04.6.66.12.75-5.65,1.05-11.11,1.05-16.85.97Z"/>
  <path class="cls-1" d="m8.09,140.4c3.82-.25,7.9.46,11.73.66,3.74.19,7.48.31,11.22.37,7.65.11,15.34-.03,22.99-.2.61-.01.58.75,0,.8-7.84.75-15.63.97-23.52.85-3.92-.06-7.84-.19-11.76-.4-3.53-.19-7.43-.1-10.84-.93-.76-.18-.56-1.1.18-1.14Z"/>
  <path class="cls-1" d="m74.6,165.07c1.29-.29,2.51-.89,3.3-1.79,2.12,0,4.42-.73,6.33-1.32.4-.12.24-.66-.18-.56-1.79.43-3.69.54-5.51.84,0-.03.03-.06.04-.08,0-.03.03-.05.03-.08.32-1,.16-1.99-.68-2.57-1.24-1.6-3.75-2.83-5.59-3.05-1.57-.19-3.3.09-4.74.74-2.28.07-4.54.56-6.81.75-1.84.15-3.84-.13-5.53.55-.26.11-.26.48,0,.59,1.9.79,4.39.27,6.42.03,1.38-.16,2.78-.38,4.12-.74-.54.51-.93,1.11-1.14,1.79-2.87.31-5.8.4-8.65.85-.35.06-.36.58,0,.62,2.87.33,5.76-.12,8.51-.84-.04.31-.06.64-.01.98.04.34.13.63.24.92-3.12.3-6.23.54-9.34.9-.3.04-.2.42.07.43,3.27.16,6.39-.15,9.58-.73.38.59.93,1.04,1.58,1.38-3.78.19-7.56.67-11.31.76-2.67.06-5.35-.04-8.03.04-2.89.08-5.7.48-8.57.65-.34.02-.35.45,0,.46,2.89.1,5.67.4,8.57.31,2.87-.08,5.7-.46,8.56-.58,4.65-.2,9.5-.11,14.12-.85,1.61.09,3.3-.1,4.63-.4Zm-6.79-2.05c-.5-.27-.86-.68-.99-1.28.22.47.56.9.99,1.28Zm8.74-2.59c.02.53-.03,1.04-.38,1.55-.05.07-.11.13-.17.2-1.72,1.04-3.75,1.48-5.83.36-1.12-.6-1.93-1.49-1.56-2.66.17-.53.59-.95.92-1.41,1.19-.31,2.54-.32,3.58-.08,1.48.34,2.7,1.06,3.44,2.05Z"/>
  <path class="cls-1" d="m27.39,159.19c1.41-.12,3.37,1.38,3.97,2.4.64,1.08.69,2.68-.58,3.43-.52.31-1.03-.27-.8-.69.61-1.09.45-2.02-.62-2.87-.74-.59-1.93-.82-2.45-1.56-.23-.33.08-.68.47-.71Z"/>
  <path class="cls-1" d="m126.34,157c-5.11,1.57-10.41,2.65-15.74,3.49-2.58.4-5.18.71-7.77,1.1-2.45.37-4.93.99-7.44.88-.72-.03-.93-.96-.18-1.13,2.43-.53,4.98-.43,7.47-.66,2.73-.26,5.45-.72,8.14-1.17,5.15-.88,10.25-1.95,15.39-2.9.29-.05.41.3.12.39Z"/>
  <path class="cls-1" d="m111.49,155.47c2.67-.28,5.05-1.2,7.64-1.66.41-.07.65.39.29.59-2.23,1.24-5.33,1.48-7.93,1.6-.4.02-.38-.48,0-.52Z"/>
  <path class="cls-1" d="m92.18,156.35c5.9-.27,11.67-1.4,17.51-2.12,3.42-.42,8.87-.41,12.28-2.16-.03.2-.04.41-.04.61-.34.16-.69.32-1.03.49-.64.3-.08,1.1.56.83l.65-.27c.13.35.33.64.59.9-3.26,1.4-6.72,2.35-10.32,2.86-.29.04-.21.43.07.43,4.08.02,7.91-.85,11.51-2.52,1.91.75,4.71.56,6.42.21.3-.06.6-.16.9-.27,1.62-.24,3.1-.99,3.51-2.11.18,0,.37-.13.33-.34-.07-.4-.18-.77-.32-1.13.02-.59-.21-1.2-.79-1.78-.18-.18-.42-.23-.63-.19-1.39-1.26-3.41-2-5.54-2.16-2.11-.16-4.08.97-5.13,2.55-2.04.31-4,1.29-5.99,1.81-2.42.64-4.73,1.23-7.24,1.58-5.79.82-11.66,1.14-17.37,2.36-.25.05-.2.41.06.4Zm40.48-5.48c-.27,1.76-1.42,2.67-3.4,2.94-1.47-.36-3.44-1.83-2.84-3.27.19-.28.37-.53.51-.72.06-.08.09-.17.11-.26.92-.16,1.97-.04,3.06.26.89.24,1.79.58,2.56,1.05Z"/>
  <path class="cls-1" d="m105.07,152.2c-.31.03-.38-.42-.07-.47,2.81-.45,5.6-.94,8.45-1.09.33-.02.4.43.08.49-2.78.57-5.62.8-8.46,1.07Z"/>
  <path class="cls-1" d="m114.64,150.72c-.27-.04-.27-.42,0-.47.78-.13,1.55-.22,2.31-.41.76-.2,1.47-.49,2.23-.7.33-.09.62.32.35.52-1.26.94-3.27,1.33-4.89,1.05Z"/>
  <path class="cls-1" d="m87.68,163.24c.21-.02.26.28.05.32-3.59.58-7.34,1.54-11,1.54-.45,0-.53-.56-.11-.67,3.52-.89,7.43-.88,11.06-1.19Z"/>
  <path class="cls-1" d="m32.28,164.72c-.39-.04-.57-.58-.1-.65,7.13-1.05,14.8-.29,22-.39.32,0,.31.41,0,.42-7.17.22-14.75,1.34-21.9.62Z"/>
  <path class="cls-1" d="m52.26,161.19c.41-.04.42.54,0,.56-2.54.14-5.21.51-7.74.27-.63-.06-.66-.86,0-.86,2.63-.01,5.1.29,7.74.03Z"/>
  <path class="cls-1" d="m47.54,159.15c.72-.27,1.48-.32,2.25-.28.93.04,1.86-.1,2.79-.18.4-.04.39.5,0,.54-.97.11-1.9.22-2.85.42-.7.15-1.38.25-2.09.14-.33-.05-.41-.52-.1-.64Z"/>
  <path class="cls-1" d="m154.75,149.14c-4.2,1.18-8.82,3.86-13.35,3.88-.52,0-.62-.55-.25-.79,1.76-1.09,4.12-1.53,6.19-2.04,2.42-.6,4.82-.91,7.24-1.59.4-.11.57.43.17.54Z"/>
  <path class="cls-1" d="m170.9,140.95c.67.15,1.39.24,2.12.25-1.76.8-3.49,1.67-5.29,2.41-3.09,1.29-6.36,2.23-9.46,3.48-.5.2-.13.83.36.73,3.2-.63,6.33-1.89,9.27-3.13,2.51-1.06,5.1-2.16,7.33-3.65,2.32-.36,4.49-1.38,5.57-2.96.44-.49.71-1.04.73-1.64.31,0,.61-.29.55-.59-.75-3.76-7.33-5.3-10.89-3.79-1.42.6-2.55,1.66-3.13,2.91-.68.41-1.36.82-2.05,1.18-1.95,1.01-3.97,1.9-6.04,2.7-.24.09-.07.44.18.37,2.07-.59,4.11-1.26,6.08-2.06.45-.19.93-.37,1.42-.57-.02.21-.02.43-.02.65-1.61.9-3.08,1.97-4.7,2.87-2.21,1.23-4.76,2.12-7.18,2.97-.34.12-.2.6.15.48,2.65-.88,5.16-2,7.77-2.96,1.49-.55,2.92-1.1,4.28-1.81.09.21.2.4.33.58-.07.2-.04.41.18.56.24.17.51.31.79.45-1.8.69-3.53,1.5-5.32,2.22-2.56,1.03-5.52,1.75-8.18,2.65-.38.13-.24.63.17.54,2.65-.58,4.98-1.34,7.48-2.2,2.47-.85,5.03-1.44,7.37-2.56.05-.02.08-.06.11-.09Zm9.7-5.2c-.93,1.94-4.49,3.45-6.67,2.39-1.88-.91-1.48-2.47-2.21-3.87.03-.03.06-.05.09-.08,0-.01.01-.02.02-.03.41-.25.85-.46,1.36-.57,2.79-.63,5.49.5,7.4,2.17Z"/>
  <path class="cls-1" d="m146.74,144.12c2.69-1.04,5.47-1.79,8.09-3.01.37-.17.69.3.33.49-2.5,1.27-5.28,2.58-8.16,3.05-.35.06-.63-.39-.26-.53Z"/>
  <path class="cls-1" d="m133.71,147.39c-.71.02-.75-.81-.16-1.01,1.53-.52,3.22-.58,4.83-.82,1.62-.25,3.23-.54,4.84-.81.67-.11.96.77.28.89-1.73.31-3.47.6-5.19.94-1.53.31-3.02.78-4.61.81Z"/>
  <path class="cls-1" d="m174.76,130.36c-.51.12-.82-.51-.36-.73,1.26-.62,2.45-1.12,3.47-2.06.98-.9,1.62-1.99,2.2-3.1.15-.29.61-.07.55.2-.52,2.42-3.05,5.04-5.86,5.69Z"/>
  <path class="cls-1" d="m182.31,126.67c.18-.31.74-.09.64.23-.67,2.04-2.41,4.38-4.94,4.96-.79.18-1.13-.7-.53-1.08.94-.6,1.9-1.03,2.76-1.73.86-.7,1.54-1.47,2.07-2.38Z"/>
  <path class="cls-1" d="m180.7,132.17c.63-.42,1.39-.64,2.01-1.11.61-.46,1.16-.99,1.6-1.58.19-.26.61-.09.55.2-.31,1.57-1.85,3.41-3.82,3.59-.76.07-.81-.8-.35-1.1Z"/>
  <path class="cls-1" d="m184.56,132.05c.06-.29.62-.22.59.07-.1,1.12-1.01,2.38-2.4,2.56-.37.05-.68-.4-.28-.57,1.04-.45,1.85-1.02,2.08-2.06Z"/>
  <path class="cls-1" d="m171.12,164.35c.02.67.06,1.35.09,2.03-.26.08-.51.21-.73.38-.12.1-.22.21-.3.33-.12.07-.25.15-.37.22.05-.99.12-1.99.15-2.96.02-.65,1.15-.65,1.16,0Z"/>
  <path class="cls-1" d="m160.78,167.32c-.03,1.28-.14,2.56-.36,3.83-.05.28-.1.58-.15.88-.51.21-1.03.42-1.54.62.13-.42.27-.84.36-1.26.28-1.34.4-2.7.44-4.06.02-.7,1.27-.7,1.26,0Z"/>
  <path class="cls-1" d="m138.02,178.46c-1.03.21-2.07.41-3.1.61-.34-2.08-.4-4.26-.41-6.4,1.07-.23,2.14-.47,3.21-.73.19,2.17.37,4.38.3,6.52Z"/>
  <path class="cls-1" d="m131.13,173.95c.25,1.89.55,3.78.79,5.67-.63.11-1.26.22-1.88.33-.05-2-.03-4-.07-6-.01-.66,1.08-.63,1.16,0Z"/>
  <path class="cls-1" d="m126.07,174.76c.35,1.33.61,2.62.79,3.97.07.54.2,1.12.29,1.7-.48.08-.96.16-1.44.23-.09.01-.18.03-.26.04-.02-.46-.02-.92-.05-1.38-.11-1.51-.14-2.97-.05-4.48.02-.35.63-.46.73-.09Z"/>
  <path class="cls-1" d="m120.86,177.13c.15,1.25.05,2.39.36,3.63.04.18.08.37.12.56-.59.09-1.18.17-1.77.25.03-.27.06-.54.1-.81.2-1.32-.15-2.35-.3-3.63-.1-.82,1.39-.82,1.49,0Z"/>
  <path class="cls-1" d="m115.01,178.28c-.02,1.18-.15,2.52.21,3.67.02.07.05.13.07.2-.42.05-.84.11-1.26.16,0-.15.01-.3.02-.45.01-1.18-.25-2.37-.27-3.57-.01-.69,1.25-.69,1.23,0Z"/>
  <path class="cls-1" d="m108.59,181.71c.22.41.37.78.49,1.17-.6.07-1.2.14-1.81.2.07-.46.21-.89.45-1.38.15-.29.71-.28.86,0Z"/>
  <path class="cls-1" d="m102.37,179.75c.24,1.06.43,2.13.47,3.21,0,.19.02.4.03.6-.49.05-.98.1-1.47.15,0-.1.01-.21.01-.31.03-1.13-.03-2.25-.21-3.37-.1-.65,1.01-.95,1.17-.28Z"/>
  <path class="cls-1" d="m93.95,166.74c.58,2.08,1.23,4.65.76,6.8-.36.03-.73.07-1.09.1-.59-2.14-.42-4.61-.61-6.8-.04-.46.81-.56.94-.11Z"/>
  <path class="cls-1" d="m88.75,183.53c-.01.15-.02.3-.03.46-.03.4-.69.4-.72,0-.01-.15-.02-.3-.04-.46-.03-.44.82-.44.79,0Z"/>
  <path class="cls-1" d="m81.41,171.89c.14.94.28,1.92.35,2.9-.36.03-.72.07-1.08.1,0-1-.02-2-.14-3-.05-.48.79-.46.86,0Z"/>
  <path class="cls-1" d="m81.23,180.45c.5,1.21,1.28,3.23.43,4.42-.15.21-.52.27-.73.08-1.16-1.08-.82-3.17-.6-4.5.07-.43.76-.33.9,0Z"/>
  <path class="cls-1" d="m74.98,173.26c.07.7.17,1.42.25,2.14-.45.04-.9.08-1.35.12-.06-.76-.11-1.52-.19-2.26-.07-.71,1.21-.71,1.28,0Z"/>
  <path class="cls-1" d="m75.91,182.85c-.02.56-.02,1.19-.24,1.72-.19.45-.87.45-1.05,0-.22-.53-.22-1.16-.24-1.72-.03-.85,1.57-.85,1.54,0Z"/>
  <path class="cls-1" d="m68.28,174.4c-.02.53-.01,1.06,0,1.58-.37.03-.74.06-1.11.09,0-.56.02-1.12.04-1.67.02-.59,1.09-.6,1.07,0Z"/>
  <path class="cls-1" d="m68.56,184.9c.09.74.24,1.57.3,2.39-.4.06-.8.11-1.2.17.05-.88.22-1.77.31-2.56.04-.32.54-.32.58,0Z"/>
  <path class="cls-1" d="m63.43,184.22c-.03.9-.13,1.72-.38,2.59-.08.28-.57.28-.65,0-.26-.87-.36-1.69-.38-2.59-.02-.79,1.44-.79,1.42,0Z"/>
  <path class="cls-1" d="m54.93,173.26c0,1.16.09,2.38.05,3.58-.48.02-.95.04-1.43.06-.05-1.21.05-2.46.05-3.64,0-.74,1.33-.74,1.33,0Z"/>
  <path class="cls-1" d="m53.7,182.62c-.02-.62,1.03-.6,1.09,0,.19,1.88.56,4.39-.34,6.17-.18.36-.93.28-1-.11-.16-.94.08-1.91.16-2.86.09-1.07.11-2.13.08-3.2Z"/>
  <path class="cls-1" d="m47.97,174.51c.19.86.36,1.72.51,2.58-.44.01-.87.03-1.31.04,0-.84,0-1.68-.04-2.52-.02-.41.75-.52.85-.1Z"/>
  <path class="cls-1" d="m48.88,180.58c.11,2.03,0,4.06-.47,6.08-.16.69-1.38.51-1.39-.16-.03-1.96.03-3.91.09-5.87.59-.02,1.18-.03,1.77-.05Z"/>
  <path class="cls-1" d="m43.75,175.09c.05.7.07,1.41.06,2.11-.4,0-.81,0-1.21.01,0-.71-.01-1.42-.06-2.13-.05-.67,1.16-.67,1.21,0Z"/>
  <path class="cls-1" d="m43.06,181.83c.17.85.56,1.86.33,2.72-.09.33-.67.4-.85.1-.46-.79-.35-1.84-.42-2.71-.03-.46.84-.57.94-.11Z"/>
  <path class="cls-1" d="m36.07,175.53c-.04-.58,1.05-.72,1.19-.14.13.57.28,1.2.37,1.84-.52,0-1.04,0-1.57,0,.02-.57.05-1.14.01-1.69Z"/>
  <path class="cls-1" d="m32.59,175.08c.01.67.1,1.39.04,2.08-.38,0-.75-.01-1.13-.02-.06-.68.03-1.39.04-2.05.01-.58,1.04-.58,1.05,0Z"/>
  <path class="cls-1" d="m162.29,189.54c.36-3.68-.51-7.61.36-11.25.06-.26.5-.23.58,0,1.24,3.57.19,7.65-.15,11.25-.04.44-.83.44-.79,0Z"/>
  <path class="cls-1" d="m162.89,192.73c-.17,3.58-.18,7.16-.24,10.73,0,.4-.69.4-.72,0-.29-3.59-.23-7.14-.01-10.73.03-.54,1-.54.98,0Z"/>
  <path class="cls-1" d="m157.4,189.31c.05,4.83,1.27,9.97.38,14.75-.1.52-1.11.52-1.21,0-.92-4.78.27-9.93.29-14.75,0-.3.53-.3.54,0Z"/>
  <path class="cls-1" d="m143.36,195.71c0-.34.58-.41.69-.08.61,1.82.85,3.48.86,5.38,0,1.61.13,3.33-.74,4.78-.22.37-.95.29-1.04-.12-.36-1.52.11-3.12.17-4.67.06-1.77.02-3.53.06-5.3Z"/>
  <path class="cls-1" d="m137.22,201.1c.06-.34.68-.25.69.08.02,1.23.07,2.46.12,3.69.05,1.1.27,2.22-.1,3.28-.15.43-.79.38-.96,0-.5-1.11-.3-2.37-.21-3.54.09-1.18.26-2.34.47-3.51Z"/>
  <path class="cls-1" d="m131.5,192.74c.48,3.19.28,6.53-.27,9.7-.09.52-1.11.4-1.07-.13.23-3.19.29-6.38.51-9.58.03-.48.77-.45.84,0Z"/>
  <path class="cls-1" d="m118.87,191.6c.01-.83,1.51-.83,1.49,0-.04,1.44-.51,3.02-.43,4.42.08,1.33.51,2.61-.01,3.91-.17.42-.85.44-1.01,0-.39-1.13-.13-2.26.06-3.4.28-1.6-.13-3.3-.1-4.93Z"/>
  <path class="cls-1" d="m113.67,193.68c.27,1.22.63,2.82.07,4-.23.48-1.15.62-1.3,0-.29-1.18-.09-2.42-.36-3.62-.2-.9,1.39-1.28,1.59-.38Z"/>
  <path class="cls-1" d="m107.89,186.8c.06,2.26.33,4.6.1,6.85-.05.49-.83.49-.88,0-.22-2.25.04-4.59.1-6.85.01-.38.66-.38.67,0Z"/>
  <path class="cls-1" d="m102.25,189.09c-.02,1.19.26,2.78-.32,3.88-.15.3-.75.3-.9,0-.57-1.1-.3-2.69-.32-3.88-.01-.85,1.55-.86,1.54,0Z"/>
  <path class="cls-1" d="m95.06,194.22c-.23-.94-.21-1.89-.19-2.84.02-.95-.05-1.95.33-2.85.12-.29.64-.42.83-.09.96,1.64.68,4.23-.16,5.88-.15.3-.73.21-.81-.09Z"/>
  <path class="cls-1" d="m94.5,196.47c.11-.55,1.16-.55,1.28,0,.24,1.16.26,2.3.27,3.47.01,1.07.14,2.11-.46,3.07-.18.29-.72.29-.9,0-.6-.96-.47-2.01-.46-3.07.02-1.18.03-2.31.27-3.47Z"/>
  <path class="cls-1" d="m89.79,196.85c.04-.36.61-.36.65,0,.08.75.21,1.46.24,2.21.03.67.16,1.37-.13,2-.17.37-.71.37-.87,0-.29-.63-.17-1.33-.13-2,.04-.75.16-1.47.24-2.21Z"/>
  <path class="cls-1" d="m79.26,190.46c0,.92.22,2.13-.35,2.95-.19.27-.66.27-.84,0-.56-.82-.34-2.03-.35-2.95,0-.85,1.54-.85,1.54,0Z"/>
  <path class="cls-1" d="m.34,133.77c11.93,1.75,24.56,1.82,36.64,1.85,8.91.03,17.83-.38,26.66-1.37,9.92,0,20.06-1.43,29.88-2.54,17.18-1.94,34.32-4.65,50.76-9.47,4.36-1.28,9.2-2.82,13.79-4.8.02.03.04.07.05.1.44-.22.88-.44,1.32-.67,0-.01-.01-.02-.02-.04,8.08-3.71,15.09-8.92,16.85-16.75.38.57.73,1.16,1.07,1.76-.02.15-.03.3-.05.44-.03.07-.07.14-.1.21-.16,0-.31.09-.38.25-3.43,8.46-12.23,14.25-21.43,17.73-9.2,3.48-19.27,5.52-29.01,7.55-9.75,2.03-19.6,3.71-29.5,5.07-10.29,1.42-20.65,2.5-31.03,3.27-10.01.75-20.04.87-30.05,1.52-.27.02-.41.19-.42.36-2.12,0-4.24,0-6.35-.01-.16,0-.16.21,0,.22,2.22.08,4.44.13,6.66.17.04.01.07.03.12.03,12.15.96,24.63.32,36.77-.54,1.31-.09,2.62-.21,3.93-.32.33,0,.66,0,.99-.01,0-.02,0-.05,0-.07,7.19-.61,14.34-1.43,21.46-2.45.44.17,1.03.1,1.35-.2,2.27-.33,4.53-.68,6.79-1.06.03,0,.06.03.09.03.16-.04.32-.08.48-.13,9.22-1.54,18.37-3.38,27.42-5.54,11.92-2.85,25.87-6.34,34.77-14.03,3.07-2.47,5.7-5.34,7.28-8.54.02,2.74.25,5.52.03,8.24-.1,1.27-.23,2.48-.43,3.64-.39,1.51-.92,2.97-1.66,4.35-5.02,5.62-11.18,9.65-18.71,12.73-8.68,3.55-17.99,6.12-27.2,8.42-.97.24-1.95.46-2.92.69-5.01.97-10.04,1.82-15.02,2.66-9.59,1.62-19.19,3.25-28.85,4.53-9.45,1.25-18.94,1.84-28.41,2.82-7.77.27-15.54.28-23.34.39-.16,0-.15.19,0,.21,7.81.71,15.66.78,23.5.45,11.15.68,22.64-.87,33.62-2.37,10.03-1.37,20.02-3,29.97-4.73,8.89-1.54,17.72-3.3,26.28-5.94,8.21-2.53,16.2-5.79,23.26-10.23,3.31-2.09,6.78-4.41,8.59-7.68.14-.25.25-.51.37-.77,1.44-1.98,1.68-4.78,1.93-6.95.43-3.86.95-8.48.09-12.5,5.23,3.16,10.73,6.3,14.02,11.18,2.87,4.26,3.3,8.86,1.22,13.18-2.69,3.01-4.92,6.23-8.09,8.96-.76.66-1.56,1.28-2.37,1.89-6.46,4.42-14.32,7.64-21.55,10.27-.35.13-.71.24-1.06.37-4.84,1.49-9.78,2.77-14.62,4.04-9.45,2.48-19.02,4.68-28.66,6.56-19.59,3.83-39.39,5.89-59.33,7.74-.23.02-.38.13-.47.27-7.44.25-14.9.28-22.36.34-.19,0-.19.26,0,.26,8.44.23,16.9.35,25.34.09,8.53-.09,17.02-.69,25.48-1.61.31,2.34.57,4.69.8,7.04.56-.05,1.12-.11,1.68-.16-.33-2.35-.74-4.69-1.17-7.02,1.87-.21,3.74-.43,5.61-.67,20.63-2.64,40.85-6.67,60.59-12.51,9.03-2.67,18.51-5.41,26.25-10.38,2.77-1.78,5.32-3.8,7.63-6.02,2.8-2.27,5.22-4.83,6.98-7.71.03-.05.05-.1.08-.15-.12,2.48.04,4.99.17,7.44.02.36.04.72.06,1.08-.61.96-1.25,1.88-1.94,2.76-2.56,2.8-5.24,5.5-8.44,7.8-2.74,1.97-5.7,3.72-8.77,5.29-.1-1.29-.24-2.58-.33-3.86-.02-.25-.42-.25-.44,0-.11,1.46-.27,2.94-.37,4.41-.67.33-1.34.66-2.02.98-.2.09-.41.18-.62.27.02-2.01-.17-4.03-.43-5.89-.03-.2-.41-.3-.46-.05-.43,2.11-.78,4.43-.82,6.7-.98.43-1.97.84-2.97,1.24.08-1.83,0-3.65-.36-5.5-.08-.39-.84-.3-.8.09.23,1.98.13,3.94-.07,5.89-1.48.58-2.98,1.13-4.49,1.66.24-1.89.13-3.82-.13-5.71-.08-.56-1.09-.57-1.02,0,.25,2.05.17,4.06.05,6.1-1.69.58-3.4,1.13-5.12,1.66-.05-2.2-.11-4.39-.2-6.58-.42.15-.85.3-1.27.44-.1,2.22-.17,4.44-.22,6.66-.35.1-.71.21-1.06.31-.89.24-1.78.47-2.67.69.01-2.1-.07-4.22-.13-6.31-.36.12-.72.23-1.08.35-.12,2.1-.27,4.23-.29,6.34-1.93.48-3.86.94-5.76,1.39-.26-1.91-.51-3.84-.58-5.76-.37.1-.74.2-1.11.3-.24,1.96-.33,3.92-.31,5.91-.96.22-1.91.43-2.87.64-.1-1.78-.2-3.56-.35-5.33,0-.1-.02-.21-.02-.31-.78.19-1.55.37-2.33.55,0,.23-.01.45-.02.67-.09,1.68-.09,3.37-.08,5.06-1,.22-2,.43-3,.64-.05-.81-.15-1.63-.23-2.45-.1-1.03-.18-2.09-.35-3.14-.64.12-1.28.24-1.92.35.01.93.08,1.86.14,2.78.07.98.11,1.94.21,2.89-.9.18-1.79.37-2.69.55-.09-1.86-.47-3.78-.67-5.51,0-.08-.03-.15-.06-.21-.48.07-.96.14-1.45.2,0,0,0,0,0,.01-.03,1.86-.25,3.97-.1,5.97-.93.17-1.85.33-2.77.49-.27.05-.54.09-.82.13-.02-1.95-.37-3.92-.67-5.81-.02-.13-.1-.22-.2-.27-.22.02-.45.04-.68.06-.12.08-.2.19-.2.34.02,1.98-.19,4-.19,6-1.47.24-2.95.49-4.42.72-.06-1.18-.25-2.36-.36-3.52-.1-1-1.91-1.01-1.81,0,.12,1.23.16,2.53.35,3.79-1.65.25-3.29.49-4.94.72-.32-1.62-.68-3.22-1.06-4.84-.09-.37-.77-.28-.75.09.05,1.67.12,3.31.23,4.97-1.32.18-2.64.36-3.95.54-.17-1.31-.54-2.61-1.11-3.64-.15-.27-.71-.22-.77.09-.22,1.18-.07,2.34.04,3.52,0,.09.01.18.02.27-1.77.23-3.55.47-5.33.7-4.8.63-9.58,1.22-14.41,1.68-3.97.37-8.39.43-12.2,1.45-9.42.68-18.86,1.08-28.31,1.31.48.18.96.36,1.43.55,9.93-.05,19.87-.5,29.78-1.26,1.92-.07,3.86-.33,5.75-.42,2.54-.12,5.07-.37,7.61-.59,4.99-.43,9.99-.81,14.96-1.41,10.25-1.23,20.48-2.79,30.57-4.85.44-.08.89-.16,1.33-.24,0-.01,0-.02,0-.03,1-.21,2-.4,3-.62,0,.02,0,.03,0,.05.98-.21,1.95-.44,2.92-.67,0-.02,0-.04,0-.06,5.92-1.37,11.79-2.91,17.56-4.71,5.8-1.81,11.59-3.91,17.02-6.51.07-.03.15-.06.23-.09,8.95-3.98,17.06-9.58,22.32-17.04.06,1.19.09,2.37.1,3.56-12.37,15.04-33.71,20.39-53.43,24.95-3.44.79-6.89,1.54-10.35,2.27-7.92,1.44-15.88,2.7-23.83,4-6.35,1.04-12.72,1.91-19.1,2.81-.34.03-.69.07-1.03.1,0,.02,0,.03,0,.05-3.74.52-7.48,1.07-11.21,1.65-.39.04-.79.09-1.18.13-1.97.2-3.95.39-5.92.57-.02-.23-.05-.46-.07-.68-.4.03-.81.06-1.21.09.03.23.07.46.1.69-5.57.5-11.13.92-16.71,1.26,1.11.15,2.22.3,3.33.47,4.51-.25,9.01-.56,13.5-.92.08.42.18.84.3,1.25.13.46,1,.37.96-.11-.04-.41-.08-.82-.13-1.23,6.13-.51,12.25-1.11,18.36-1.83.11,1.1.22,2.21.34,3.31.1.9,1.69.93,1.65,0-.05-1.18-.14-2.35-.25-3.53,1.73-.21,3.46-.43,5.19-.65.05,2.05.03,4.15.23,6.22.66-.07,1.31-.13,1.97-.2-.38-2.05-.83-4.1-1.04-6.18,3.06-.41,6.11-.85,9.16-1.32.72-.09,1.45-.18,2.17-.27.13,1.38.34,2.77.93,4,.2.42,1.07.58,1.19,0,.27-1.38.09-2.82-.15-4.24,10.65-1.33,21.45-2.72,31.98-4.85.04.8.08,1.59.09,2.39.02,1.39-.13,2.79-.06,4.18.88-.19,1.76-.39,2.64-.59.37-2.06.15-4.36-.14-6.51,1.72-.37,3.42-.76,5.12-1.17,0,2.16-.13,4.3-.18,6.47.44-.12.88-.24,1.32-.36,0-2.14-.06-4.26,0-6.39,1.3-.32,2.59-.66,3.88-1.02-.02,2.09-.04,4.17-.03,6.26.64-.21,1.28-.42,1.92-.63,0-2.05,0-4.1-.02-6.15.68-.2,1.37-.39,2.04-.6,2.65-.81,5.27-1.7,7.84-2.68-.21,1.87-.36,3.74-.42,5.62.35-.17.7-.34,1.05-.51,0-.42,0-.84.03-1.26.08-1.46.33-2.9.58-4.34,4.16-1.64,8.2-3.53,12.03-5.69,5.99-3.39,12.13-7.42,16.33-12.5.05-.06.06-.13.04-.18.03-.03.05-.06.08-.1-.18,1.94-.57,3.9-.52,5.81-.24.64-.46,1.29-.68,1.95-.12.37-.27.73-.44,1.07-3.97,5.77-11.36,9.53-18,12.68-8.56,4.06-17.64,7.05-26.95,9.52-19.56,5.19-39.81,8.14-59.95,11.03-.03,0-.05.02-.08.03-4.08.54-8.16,1.08-12.24,1.61-2.49.32-4.97.61-7.45.87,5.08-.17,10.07-.57,15.09-1.08.02.95,0,1.89,0,2.84,0,.91-.14,1.87.13,2.76.14.46.84.4,1.01,0,.71-1.68.24-3.94-.06-5.71,1.21-.12,2.43-.25,3.65-.38.54-.06,1.08-.11,1.62-.16-.17,2.06-.31,4.34-.03,6.37.06.44.79.59.94.11.62-2,.39-4.53-.26-6.54.91-.08,1.82-.15,2.73-.2,2.13-.29,4.25-.59,6.37-.88,4.49-.41,8.98-.86,13.46-1.38.13.65.19,1.3.17,1.96-.02.63-.18,1.27-.09,1.91.07.48.89.83,1.19.28.71-1.27.41-2.95.05-4.31,1.66-.2,3.32-.41,4.98-.63-.04.35-.07.7-.12,1.05-.1.8-.25,1.55-.01,2.34.1.32.65.49.91.21.97-1.04,1-2.48.65-3.8,1.33-.19,2.66-.38,3.99-.58-.3,2.05-.05,4.2.14,6.22.29,3.1-.82,6.14-.51,9.24.05.53,1,.72,1.14.13.75-3.08-.04-6.22.46-9.31.34-2.11.69-4.39.34-6.54,1.48-.24,2.96-.49,4.44-.75,0,.39-.01.79-.03,1.18-.12,2.04-.74,4.29-.03,6.27.11.31.63.4.83.09,1.19-1.86,1-4.28,1.08-6.37.02-.5.03-1.01.04-1.51,1.36-.26,2.72-.53,4.08-.81,0,1.82.09,3.65.07,5.29-.06,4.06.43,8.07.47,12.11,0,.64,1.12.63,1.14,0,.15-4.04.74-8.05.79-12.11.02-1.83.2-3.86.21-5.88,1.47-.33,2.93-.67,4.39-1.04,0,1.32,0,2.63-.04,3.95-.07,2.88-.41,5.79-.37,8.66,0,.49.89.62,1.01.12.97-4.13,1.19-8.73.92-13.13,1.72-.45,3.44-.93,5.15-1.44-.06,1.16-.1,2.32-.17,3.46-.19,3.1-.22,6.19-.33,9.3-.23,6.36-.68,12.7-1.02,19.06-.04.69,1.19.68,1.23,0,.36-6.36.59-12.71,1.05-19.06.24-3.26.55-6.5.7-9.76.05-1.15.14-2.32.19-3.48,0,0,0,0,0,0,1.59-.5,3.17-1.02,4.75-1.56,0,.34.02.68.02,1.01-.01,2.34-.37,4.72-.16,7.06.04.5.89.65,1.05.12.65-2.18.61-4.5.61-6.74,0-.64,0-1.31-.02-1.97,1.39-.49,2.77-.99,4.15-1.51.04.63.07,1.25.04,1.87-.01.25.43.3.5.06.23-.81.44-1.6.62-2.39,2.56-1,5.09-2.06,7.57-3.2,0,.09,0,.18,0,.28-.01.28.5.34.57.07.05-.21.11-.44.17-.68,1.05-.49,2.09-.98,3.12-1.5.09.89.21,1.76.42,2.64.06.26.48.22.56,0,.41-1.13.57-2.27.6-3.44.27-.14.54-.29.81-.43,0,1.52.49,3.08.53,4.61.05,1.9.13,3.75.41,5.62-.03,2.83-.01,5.65-.05,8.45-.04,3.25-.1,6.5-.11,9.75-.02,3.36-.31,6.87.12,10.21.04.28.58.42.64.08.51-3.07.37-6.26.5-9.36.14-3.4.21-6.81.31-10.21.2-6.77.7-13.66.11-20.42,0-.01,0-.02,0-.03.05-.03.09-.05.14-.08,6.03-3.12,11.78-7.1,15.04-12.41.28-1.35.4-2.74.58-4.12-.03.07-.07.14-.1.2.16-.69.24-1.4.3-2.11-.04-1.29-.18-2.56-.15-3.83,0-.28.02-.56.04-.83,0-.09.02-.19.03-.28.02-.19.05-.38.08-.57.04-.21.07-.42.12-.62-.03-1.18-.09-2.36-.15-3.54-.21-3.95-.25-7.84-.14-11.76,3.47-10.31-7.4-18.87-17.11-24.03-.07-.04-.14-.06-.21-.07.06-.25.14-.5.19-.76.04-.23-.17-.43-.39-.49-.65-3.96-4.85-7.6-7.5-10.58-3.42-3.83-7.07-8.38-11.65-11.25-.2-4-1.49-7.97-3.34-11.72-1.73-4.73-4.33-9.22-7.57-13.31-5.02-6.34-11.4-11.81-18.33-16.6-2.31-1.6-4.72-3.13-7.22-4.55-5.09-3.47-11.39-6.01-17.14-7.35-8.6-2-19.56-2.85-27.02,2.06-3.12-2.05-7.14-3.52-10.59-4.89-3.75-1.49-7.71-2.96-11.72-3.9.1-1.42-.5-3.31-.6-4.39-.45-4.92-.52-9.87-1.38-14.75-.03-.16-.34-.16-.38,0-.78,3.99-.68,7.97-.46,12,.08,1.58.48,3.34.56,4.99-.34.11-.68.22-1.01.33-.18-1.2-.51-2.35-.91-3.58-.24-.73-1.41-.41-1.28.3.23,1.28.21,2.65.13,3.99-.31.11-.62.21-.93.32-.33-2.11-.91-4.24-1.45-6.01-.07-.24-.46-.17-.48.06-.18,1.97-.34,4.34-.2,6.62-.42.12-.85.22-1.29.32-.15-.75-.32-1.49-.48-2.23-.06-.26-.53-.19-.53.06,0,.78.02,1.57.05,2.36,0,0-.02,0-.03,0-.89.16-1.78.3-2.67.43-.19-.99-.39-1.97-.58-2.91-.07-.35-.74-.26-.71.08.08.99.09,1.99.09,3-.58.08-1.15.16-1.73.23,0-.02,0-.04-.01-.05-.21-1.02-.36-2.06-.54-3.09-.13-.73-1.58-.55-1.49.17.13,1.03.29,2.07.39,3.1,0,.02,0,.04,0,.05-.67.07-1.33.15-2,.21-.4-2.4-.94-4.8-1.2-7.21-.37-3.41-.65-6.93-1.63-10.26-.07-.25-.49-.18-.5.06-.12,3.71.58,7.46,1.11,11.13.31,2.13.38,4.28.54,6.42-.54.04-1.07.09-1.61.13-.1,0-.2,0-.3.02-.24-2.95-1.26-5.99-1.73-8.78-.11-.64-1.24-.37-1.12.27.43,2.36.52,4.38.26,6.73-.07.63-.12,1.28-.16,1.92-.61.02-1.22.03-1.83.03-.52-2.47-1.3-4.92-1.45-7.4-.22-3.76-.47-7.31-1.27-11.02-.07-.31-.62-.23-.62.07.04,3.78.52,7.32,1.22,11.03.45,2.41.24,4.88.25,7.35-.7,0-1.39,0-2.09-.01-.31-.63-.67-1.22-.93-1.89-.12-.31-.76-.28-.71.08.07.56,0,1.17-.1,1.77-.93-.02-1.86-.05-2.8-.08-.32-1.81-.63-3.62-.85-5.47-.29-2.46-.76-4.9-1.21-7.34-.07-.38-.76-.27-.75.09.02,2.73.11,5.45.46,8.16.2,1.5.32,2.99.44,4.49-.57-.02-1.15-.05-1.72-.08-.12-.58-.27-1.16-.37-1.67-.12-.62-1.31-.47-1.26.15.04.45.06.95.09,1.46-1.97-.09-3.94-.19-5.93-.27-.36-.01-.42.46-.08.53,8.54,1.94,17.91,1.85,26.64,1.13,4.21-.35,8.47-.83,12.58-1.7,2.03-.43,4.47-1,6.25-2.15-.13,1.36-.16,1.01-1.54,1.8-.52.3-1,.59-1.45.92-1.71.43-3.41.89-5.13,1.25-3.62.76-7.27,1.35-10.98,1.72-3.46.35-6.93.49-10.41.48-3.56-.01-7.38-.66-10.89-.32-.58.06-.67.67-.13.85,3.26,1.15,7.54,1.09,11.02,1.15,3.8.06,7.63-.14,11.4-.55,6.69-.73,14.62-1.82,20.43-5.03.41.14.83.27,1.24.41-6.53,4.32-14.82,5.58-22.91,6.43-8.69.91-17.36.69-26.07,1.06-.27.01-.26.34,0,.36,3.93.28,7.95.45,11.98.48.55,1.11.91,2.32,1.39,3.41.72,1.62,1.43,3.24,2.22,4.84,1.92,3.87,3.72,7.77,5.59,11.65.12.25.52.16.47-.11-.85-4.58-3.57-8.84-5.6-13.08-1.05-2.19-1.75-4.38-2.52-6.65,0-.02-.02-.04-.02-.06.79,0,1.58-.01,2.37-.03,1.62,2.21,2.98,4.65,4.24,6.9,1.99,3.57,4.03,7.11,6.04,10.67.24.43.97.05.74-.38-2.09-3.87-4.23-7.72-6.24-11.62-.98-1.91-1.84-3.8-2.89-5.62.88-.03,1.75-.07,2.62-.12,2.76,3.73,5.85,7.33,8.22,11.23,2.99,4.94,5.48,10.14,8.52,15.08.21.34.88.1.72-.26-2.08-4.91-4.76-10.08-8.08-14.46-1.82-2.4-3.03-5.27-4.63-7.81-.82-1.3-1.66-2.61-2.53-3.9.62-.04,1.23-.09,1.85-.15,2.8,3.26,5.74,6.44,8.45,9.75,3.45,4.21,6.53,8.81,9.31,13.37.12.2.45.02.34-.17-2.76-4.82-5.79-9.41-8.99-14.02-2.13-3.07-4.5-6.22-7.13-9.12.94-.1,1.87-.19,2.8-.31.2-.03.4-.06.6-.08,1.94,1.7,3.66,3.56,5.06,5.71.43.67,1.6.07,1.19-.6-1.19-1.9-2.6-3.73-4.21-5.4.84-.13,1.68-.27,2.52-.42,2.01,1.41,4.07,2.78,5.84,4.41,2.97,2.74,5.15,5.88,7.82,8.81.2.22.51-.06.4-.27-1.69-3.36-4.69-6.45-7.43-9.22-1.34-1.36-2.76-2.83-4.29-4.2.75-.16,1.5-.34,2.25-.52,1.87,1.31,3.54,2.86,5.15,4.36,2.49,2.31,5.21,4.59,8.06,6.56.25.17.55-.09.35-.3-2.53-2.68-5.47-5.21-8.46-7.51-1.35-1.04-2.57-2.29-3.89-3.43,1.01-.27,2-.57,2.98-.89.26.13.52.26.76.4.44.25.85-.36.41-.61-.07-.04-.14-.08-.21-.12.81-.29,1.63-.62,2.41-1.02,1.01.53,2,1.09,2.97,1.68.6.36,1.12-.47.56-.83-.74-.49-1.54-1.02-2.36-1.53.3-.2.59-.4.86-.63,2.22.94,4.61,1.72,6.78,2.57,2.96,1.17,5.62,2.67,8.18,4.39.29.19.79-.06.55-.37-1.66-2.09-4.42-3.16-7-4.22-2.5-1.02-4.92-2.39-7.42-3.51.08-.1.17-.2.24-.31,3.21,1.02,6.42,2.01,9.57,3.22,3.16,1.22,6.19,2.89,9.35,4.12-1.48,1.12-2.78,2.33-3.9,3.63-1.48,1-2.96,2.03-4.4,3.08-.25-.08-.52-.05-.71.15-.24.26-.43.55-.6.84-6.17,4.76-11.19,10.33-11.29,18.1-.05,3.53.88,6.98,2.11,10.34-.17.07-.32.18-.43.36-5.31,9.2-.07,18.88,7.04,26.64,2.64,4.98,5.26,9.99,7.46,15.12,2.27,5.3,3.81,10.82,6.16,16.09.13.3.71.28.69-.08-.31-4.07-1.52-8.06-3.03-11.94-.63-4.21-1.91-8.29-3.86-12.15.33.27.65.54.97.81,1.1.9,2.25,1.77,3.43,2.6,1,2.05,1.83,4.19,2.73,6.19,1.61,3.61,2.95,7.83,5.34,11.11.61.83,2,.27,1.79-.65-.54-2.32-1.91-4.58-2.92-6.78-.08-.17-.16-.33-.23-.49-.39-1.62-1-3.23-1.48-4.72-.16-.51-.3-1.09-.49-1.63,1.46.83,2.97,1.6,4.52,2.3,0,.11.04.22.14.34,3.12,3.61,6.03,7.38,8.39,11.39.44,1.45.89,2.9,1.52,4.27.3.65,1.49.61,1.49-.17-.01-2.95-1.32-6.12-2.5-8.87-.66-1.54-1.39-3.02-2.24-4.45,1.83.53,3.77.96,5.74,1.25.56,1.8,2.22,3.41,3.24,5.06.45.74.89,1.49,1.31,2.24.72,1.63,1.34,3.3,1.73,5.05.05.21.44.16.43-.05,0-.26-.02-.52-.03-.78.04.1.09.2.14.29.09.21.45.13.39-.09-.2-.75-.42-1.48-.66-2.21-.3-3.19-1.07-6.33-2.92-9.16,1.97.1,3.94.03,5.86-.25.17,1.25.72,2.48,1.15,3.67.49,1.34.78,2.84,1.84,3.94.35.36.96.04.99-.36.11-1.53-.87-3.12-1.43-4.55-.39-.98-.75-2-1.32-2.92.32-.06.64-.13.96-.21,1.24-.19,2.48-.45,3.72-.82.56,1.26,1.23,2.48,1.83,3.74.67,1.4,1.1,2.89,1.84,4.26.34.62,1.27.13,1.17-.43-.45-2.62-2.08-5.65-4.07-7.82.23-.08.47-.15.7-.23,3.65.45,7.35.51,11.04.1,7.62-.86,15.14-3.95,20.02-9.08,2.15-1.68,4.17-3.56,5.75-5.59,3.63-3.12,5.87-7.43,6.52-11.87.1-.68.15-1.36.18-2.05,1.59,1.49,3.34,2.89,4.88,4.41,1.71,1.68,3.35,3.43,4.95,5.19,2.35,2.58,4.68,5.11,6.65,7.85-.19.6-.41,1.18-.65,1.75-2.18-4.25-6.26-8.21-9.97-11.27-.18-.15-.46.08-.28.24,2.29,2.02,4.37,4.2,6.17,6.57,1.36,1.8,2.38,3.76,3.56,5.63-.22.45-.46.88-.71,1.31-1.23-1.7-2.81-3.26-4.44-4.41-.29-.2-.73.05-.53.35.92,1.4,1.94,2.73,2.9,4.11.37.53.69,1.08,1.01,1.63-.89,1.27-1.91,2.46-3.04,3.56-.48-.75-1.02-1.48-1.49-2.17-1.17-1.71-2.39-3.3-3.79-4.88-.16-.18-.5-.03-.36.18,1.1,1.7,2.21,3.42,3.22,5.16.49.83.9,1.77,1.39,2.65-1.09.97-2.26,1.88-3.51,2.72-.73-.99-1.44-1.98-2.14-2.99-.38-.54-1.34-.06-.98.5.69,1.06,1.38,2.13,2.04,3.2-1.58.99-3.27,1.9-5.03,2.73-.81-1.7-1.77-3.37-2.71-4.98-1.49-2.55-3.11-5.53-5.71-7.37-.19-.14-.53-.01-.45.23.95,2.66,3.05,5.02,4.56,7.47,1.07,1.73,1.97,3.52,2.89,5.3-.64.28-1.29.55-1.95.82-1.34.53-2.7,1.04-4.07,1.52-.34-.68-.7-1.36-1.12-2.02-.38-.59-1.42-.06-1.04.53.39.61.73,1.24,1.05,1.87-1.83.63-3.67,1.23-5.53,1.79-.28-.69-.54-1.38-.81-2.06-.18-.45-1.01-.26-.83.2.27.7.54,1.4.81,2.11-2.07.61-4.15,1.17-6.25,1.71-.55-1.11-1.15-2.2-1.66-3.3-.7-1.5-.93-3.11-1.69-4.63-.59-1.18-1.32-2.23-2.13-3.3-.21-.28-.7-.1-.62.22.43,1.64.93,3.18,1.7,4.73.49.98,1.31,1.87,1.76,2.85.55,1.21.91,2.49,1.3,3.77-2.27.56-4.55,1.09-6.84,1.59-.64-2.04-1.39-4.06-2.07-6.07-.82-2.39-1.6-4.32-3.91-5.92-.33-.23-.93.07-.64.43,2.77,3.36,3.51,7.86,4.73,11.96-.69.15-1.38.3-2.07.44-1.2.25-2.41.48-3.62.71-.61-1.43-1.28-2.84-1.91-4.29-.21-.49-1.13-.28-.92.22.61,1.42,1.01,2.88,1.34,4.35-1.87.35-3.75.68-5.63.99-.4-1.13-.67-2.28-1.25-3.39-.16-.3-.78-.16-.74.17.16,1.18.6,2.27.93,3.39-2.23.36-4.47.7-6.72,1.02-.13-.36-.26-.73-.38-1.1-.15-.43-.94-.35-.91.11.02.39.03.78.04,1.17-2.14.3-4.27.58-6.42.85-.48-1.11-1.07-2.16-1.4-3.33-.11-.4-.83-.23-.72.17.32,1.15.32,2.25.39,3.38-1.36.16-2.72.32-4.07.48-1.04.12-2.08.22-3.13.32-.8-3.35-2.01-6.71-3.94-9.61-.25-.38-.88-.11-.79.29.78,3.21,1.76,6.34,2.57,9.52-2.1.19-4.21.37-6.32.54-.31-.64-.62-1.28-.94-1.92-.12-.24-.49-.05-.45.16.12.61.21,1.23.29,1.85-1.4.12-2.81.24-4.21.36-.57-2.14-1.31-4.27-1.89-6.25-1.25-4.25-2.62-8.49-4.27-12.64-3.31-8.34-7.24-16.51-11.32-24.59-.14-.27-.68-.07-.55.2,3.93,8.27,7.05,16.72,9.78,25.34,1.39,4.37,2.82,8.74,4.09,13.14.47,1.63.85,3.35,1.28,5.07-1.97.2-3.94.42-5.9.69-1.24-6.17-3.13-12.34-4.92-18.35-2.21-7.45-4.68-14.84-7.38-22.17-2.76-7.5-6.08-14.78-9.28-22.13-3.03-6.95-6.23-13.86-10.05-20.52-.11-.18-.46-.05-.38.14,3.02,7.22,6.32,14.35,9.35,21.56,2.98,7.07,5.41,14.33,7.99,21.52,2.58,7.2,4.98,14.46,7.2,21.75,1.86,6.11,3.35,12.34,5.2,18.46-1.99.11-3.98.21-5.97.32-1.56-10.26-4.62-20.54-8.52-30.22-.09-.22-.45-.13-.4.1,1.2,5.76,2.43,11.51,3.66,17.27.92,4.32,1.59,8.68,2.38,13.01-1.8.09-3.61.17-5.41.25-.1-.5-.19-.99-.27-1.47-.3-1.89-.63-3.79-1.03-5.66-.89-4.17-1.87-8.32-3.11-12.42-.09-.31-.7-.25-.66.08.5,4.21,1.11,8.39,1.66,12.59.25,1.9.54,3.79.82,5.69.06.42.11.86.16,1.3-.85.04-1.69.08-2.54.11-.66-4.36-1.69-8.64-3.78-12.69-.14-.26-.65-.13-.63.15.31,4.24,1.07,8.42,1.65,12.63-1.64.05-3.27.11-4.91.15-3.63-24.23-10.16-48.13-17.25-71.75-.09-.31-.64-.18-.56.13,6.11,23.79,12.72,47.47,16.35,71.66-.08,0-.17,0-.25,0-1.2.03-2.4.04-3.59.05-.21-3.1-.78-6.25-1.2-9.23-.59-4.27-1.51-8.47-2.42-12.7-.02-.11-.24-.08-.22.03.53,4.51.86,9.05,1.28,13.58.26,2.72.31,5.56.57,8.34-1.23,0-2.46.01-3.7,0-.09-2.87-.65-5.81-1.01-8.6-.43-3.34-1.15-6.63-1.81-9.94-.04-.19-.4-.14-.38.04.31,3.6.49,7.2.86,10.8.26,2.52.32,5.13.68,7.68-2.13-.02-4.26-.07-6.39-.15-.2-2.4-.71-4.84-.99-7.17-.41-3.37-.76-6.75-1.08-10.13-.66-6.92-1.08-13.85-1.69-20.77-.02-.17-.31-.18-.31,0-.31,7.1.04,14.15.64,21.23.3,3.53.69,7.06,1.14,10.58.25,1.99.42,4.13.83,6.19-1.57-.07-3.13-.16-4.69-.26,0-2.08-.27-4.23-.35-6.2-.15-3.4-.39-6.77-.73-10.16-.01-.15-.27-.16-.28,0-.14,3.39-.2,6.76-.16,10.16.03,1.94-.12,4.05-.02,6.1-1.32-.09-2.64-.18-3.96-.27-.33-4.32-.45-8.64-.27-12.96,0-.22-.4-.27-.44-.05-.81,4.3-1.07,8.6-.71,12.92-2.03-.14-4.06-.26-6.09-.34-.53-.02-.66.73-.13.81ZM110.64,32.11c-.34-.97-.67-1.95-1.08-2.9,2.2.67,4.25,1.49,6.19,2.45.02,0,.04.02.06.02.3,1.07.64,2.12.99,3.19.32.97.39,2.15,1.24,2.88.21.18.55.09.64-.15.41-1.04-.28-2.28-.69-3.27-.32-.78-.69-1.5-1.13-2.2,1.15.48,2.28.99,3.41,1.52.14,1.4.44,2.75.82,4.13.32,1.17.53,2.42,1,3.56-.85-.52-1.72-1.03-2.6-1.52-.03-.12-.1-.24-.16-.37-.11-.21-.21-.43-.32-.64-.09-.18-.4-.22-.58-.13-.21.11-.24.31-.15.49-.99-.53-2-1.04-3.02-1.52-.22-1.6-.94-3.23-1.78-4.62-.17-.28-.71-.08-.6.22.48,1.27.8,2.55,1.15,3.83-.73-.33-1.47-.65-2.22-.95-.11-1.37-.71-2.71-1.17-4.01Zm-26.57,6.4c.81-.97,1.82-1.81,2.98-2.51.56-.09,1.11-.16,1.66-.21.71,5.12,2.08,10.21,3.35,15.23,1.46,5.79,2.97,11.66,5.09,17.29.2.53,1.11.31.96-.23-1.48-5.65-3.31-11.24-4.81-16.89-1.36-5.14-2.39-10.35-3.81-15.48,5.61-.36,10.6,1.13,15.49,3.38.87,5.08,2.15,10.14,3.43,15.14,1.69,6.63,3.29,13.25,5.91,19.66.23.58,1.12.33,1.03-.25-1.05-6.58-2.99-12.99-4.74-19.46-1.3-4.78-2.54-9.61-4.07-14.36,1,.49,2,1.01,3.01,1.55,3.56,1.9,6.97,4.01,10.25,6.26,4.09,3.03,7.84,6.31,11.36,9.83,3.99,3.99,7.42,8.31,10.14,13.04,1.33,2.3,2.37,4.73,2.96,7.25.39,1.64.26,3.42.57,5.08-.54.74-1.2,1.42-2.01,2.02-.25-1.81-.8-3.65-1.17-5.36-.62-2.88-1.5-5.7-2.34-8.54-.16-.55-1.07-.31-.96.23.54,2.76.93,5.54,1.45,8.3.39,2.08.52,4.38,1.08,6.49-.5.22-1.03.41-1.58.57-.04-2.77-.84-5.66-1.58-8.32-.1-.37-.8-.29-.78.09.14,2.76.29,5.83,1.18,8.53-3.29.7-7.05.54-10.06.22-.5-.05-1-.13-1.49-.2-.18-.04-.36-.08-.53-.13-.87-3.3-2.14-6.55-3.44-9.73-1.37-3.35-2.23-6.83-3.24-10.27-2.06-7.02-4.03-14.1-6.62-20.99-.12-.31-.63-.18-.56.13,1.66,7.11,3.97,14.1,6.17,21.1,1.08,3.43,2.29,6.82,3.02,10.32.61,2.9,1.24,5.84,2.13,8.7-1.72-.56-3.42-1.2-5.08-1.89-.09-1.66-.67-3.36-1.3-4.89-.12-.29-.65-.17-.54.13.52,1.46.75,2.92.98,4.41-2.61-1.13-5.13-2.42-7.56-3.85-2.3-1.62-4.48-3.41-6.57-5.28-3.32-2.98-6.66-6.05-9.71-9.3.13-3.12-1.29-6.43-2.09-9.44-.92-3.43-2.01-6.82-3.03-10.23-.18-.61-1.21-.35-1.08.26.75,3.47,1.41,6.96,2.25,10.41.48,1.94.78,4.09,1.38,6.11-1.76-2.09-3.38-4.26-4.74-6.55-2.29-3.84-4.14-8.33-3.81-12.71.13-1.67.59-3.23,1.46-4.68Zm50.72,14.8c-.38.66-.62,1.37-.88,2.08-.17.45-.35.9-.49,1.36-.37-.37-.76-.73-1.14-1.09.56-1.1,1.07-2.27,1.47-3.43.36.35.7.71,1.05,1.07Zm-24.87-16.29s.06.03.09.04c0,0,0,0-.01.01-.29.42-.42.9-.58,1.36-.11.3-.22.59-.32.89-.35-.15-.71-.31-1.07-.45.07-.21.12-.43.19-.63.18-.55.36-1.13.41-1.71.43.16.87.32,1.29.49Zm-5.52-1.81c.07.54.15,1.08.23,1.63-.03.1-.07.19-.1.29-.19-.1-.38-.18-.57-.27.23-.54.45-1.23.16-1.71.09.02.19.05.28.07Zm42.54,39.22c.02.36.03.71.03,1.07-.26-.5-.53-.99-.8-1.48-.32-.82-.68-1.63-1.07-2.43.22-.4.38-.86.49-1.3.5,1.36.94,2.74,1.35,4.14Zm-1.95-5.72s-.04.03-.05.05c0,.01-.01.03-.02.04-.16.06-.29.19-.33.33-.09.3-.2.59-.31.89-.19-.35-.4-.7-.6-1.05.25-.4.4-.88.53-1.24.06-.15.11-.31.15-.47.21.48.42.96.62,1.45Zm-3.38-6.75c.22.36.42.72.63,1.09-.24.41-.45.83-.65,1.25-.15.32-.3.64-.43.96-.19-.25-.39-.49-.58-.74.24-.51.35-1.12.5-1.57.13-.4.27-.8.4-1.2.05.07.1.14.14.21Zm-4.05-5.58c.35.42.7.85,1.04,1.29-.27.67-.51,1.34-.83,2-.15.31-.38.63-.58.95-.36-.39-.73-.78-1.1-1.16.41-.49.66-1.15.9-1.67.22-.46.41-.93.56-1.4Zm-8.44-3.58c-.71-.62-1.43-1.23-2.17-1.82.82-.89,1.28-2.2,1.46-3.42.86.67,1.69,1.37,2.51,2.07-.48.69-.89,1.41-1.27,2.14-.18.34-.37.68-.52,1.02Zm-6.35-9.23c.8.51,1.59,1.04,2.37,1.58-.21.56-.46,1.11-.74,1.65-.27.51-.7,1-.86,1.54-.98-.72-1.96-1.44-2.96-2.12-1.4-.96-2.89-1.99-4.42-2.99.03,0,.06,0,.09-.01.59-.27,1.02-.87,1.34-1.35.21-.32.41-.66.57-1.02,1.29.7,2.56,1.43,3.79,2.19-.22.34-.43.7-.61,1.06-.28.55-.6,1.12-.64,1.73-.02.39.59.48.81.19.38-.5.55-1.12.83-1.67.13-.26.28-.52.43-.78Zm3.1,2.09c.55.39,1.08.79,1.61,1.19-.12.6-.27,1.19-.49,1.77-.23.59-.6,1.13-.89,1.69-.63-.5-1.26-1.01-1.9-1.49.02-.01.05-.02.07-.04.54-.4.81-1.08,1.08-1.64.23-.48.39-.98.52-1.48Zm13.74,13.36c.32.44.64.88.94,1.33-.25.48-.46.98-.66,1.48-.17.41-.34.83-.5,1.25-.35-.42-.71-.83-1.07-1.24.45-.49.7-1.2.93-1.73.15-.35.27-.71.37-1.08Zm3.42,5.42c.15.28.28.57.43.85-.27.72-.4,1.48-.71,2.19-.16-.24-.32-.49-.49-.73.19-.43.3-.92.43-1.29.12-.34.23-.68.34-1.02Zm-49.54-29.69s0,0,0-.01c.02,0,.04,0,.06.01,0,0,0,0,0,0-.02,0-.04,0-.06,0Zm2.18-.86c-.04.06-.09.11-.13.17-.01,0-.02,0-.04,0-.14-.03-.3-.06-.46-.09,0-.02.02-.04.02-.05.2,0,.4-.01.61-.01Zm1.15.05c.32.03.64.05.95.08-.08.16-.18.32-.3.47-.28-.07-.57-.13-.85-.2.06-.1.12-.19.18-.3.01-.02.01-.04.02-.06Zm2.33.24c.31.04.61.07.92.12-.08.09-.17.2-.23.28-.12.16-.22.33-.32.5-.2-.06-.39-.12-.59-.18.12-.23.2-.47.22-.72Zm2.06.58c.01-.08-.02-.2-.02-.27.71.13,1.42.28,2.12.44-.45.24-.7.75-.9,1.21-.49-.21-.99-.41-1.5-.59.06-.14.14-.28.19-.42.04-.12.09-.24.11-.36Zm3.78.6c.09.03.18.05.27.08-.06.08-.1.18-.15.26-.04-.11-.08-.23-.12-.34Zm1.38.41c.34.11.69.22,1.03.33-.37.54-.58,1.16-.8,1.75-.05.12-.1.25-.15.37-.15-.09-.28-.19-.43-.28.26-.71.45-1.47.35-2.18Zm4.65,1.69c.61.25,1.22.5,1.82.77-.04.03-.07.07-.09.12-.29.59-.61,1.17-.94,1.74-.08.13-.17.26-.26.39-.36-.19-.73-.37-1.1-.55.37-.76.63-1.66.58-2.47Zm2.56,1.19s0-.06,0-.09c1.26.57,2.5,1.17,3.71,1.81-.16.33-.32.65-.53.96-.32.47-.83.89-1.09,1.38-.03.06-.03.12-.03.18-.98-.63-1.99-1.23-3.01-1.81.11-.19.2-.38.29-.54.33-.61.53-1.22.66-1.88Zm19.36,12.81c-.62,1.03-1.16,2.16-1.63,3.27-.42-.39-.86-.77-1.29-1.16.3-.44.5-.93.72-1.41.31-.65.58-1.31.81-1.98.47.42.93.85,1.38,1.28Zm2.85,2.89c.27.29.53.59.79.89-.35.66-.68,1.34-1.03,2-.17.32-.41.66-.61,1.01-.11-.12-.23-.23-.34-.35.4-.68.58-1.45.8-2.18.14-.46.28-.91.4-1.37Zm-7.49,46.06c6.03.6,12.23.34,17.63-1.48.24-.08.46-.18.69-.26-6.69,6.46-16.52,9.76-26.63,9.25-10.94-.55-21.03-5.05-29.65-10.64-4.21-2.73-8.12-5.8-11.92-8.95-3.77-3.13-7.63-6.33-10.46-10.15-2.93-3.95-4.72-8.5-6.42-12.93-1.75-4.58-3.14-9.52-1.86-14.33,0-.02.01-.04.02-.06.09,3.22.2,6.67,1.11,9.76.08.26.56.28.63,0,.69-2.95.47-6.05.54-9.05.04-1.47.05-2.96.42-4.4.11-.44.28-.86.46-1.27-.29,2.08-.32,4.19.45,6.2.07.18.39.2.45,0,.6-2.2.73-4.48,1.31-6.69.21-.79.55-1.59.88-2.4-.03.75.02,1.51.21,2.31.07.31.55.25.65,0,.67-1.58.91-3.17,1.37-4.8.24-.84.61-1.69.89-2.54.37-.31.74-.63,1.12-.93-.04.07-.07.14-.11.21-1.09,2.08-1.83,4.28-2.19,6.43-.11.67-.19,1.33-.24,2-.87,7.93,1.72,16.38,6.32,23.07,9.34,13.56,25.59,24.91,43.06,29.58,1.14.31,2.32.59,3.53.85,1.82.44,3.67.79,5.57,1.02.53.06,1.06.11,1.59.15.07,0,.14.01.21.02.12,0,.24.03.37.03Zm-67.37-21.2c1.05-.72,1.9-1.65,2.58-2.63.32.57.65,1.13.99,1.68-.73.41-1.39.95-2.06,1.42-.3.21-.59.44-.89.66-.22-.37-.42-.75-.62-1.13Zm3.11,4.98c.29-.2.56-.42.82-.6.73-.52,1.66-1.16,2.09-1.93.26.31.51.63.79.93.31.35.64.69.97,1.03-.06,0-.13.02-.18.04-.94.39-1.71,1.18-2.5,1.77-.24.18-.49.35-.74.53-.42-.59-.84-1.18-1.25-1.77Zm5.93,7.69c.55-.31,1.07-.68,1.53-1,.96-.67,1.74-1.47,2.52-2.29.97.83,1.96,1.64,2.95,2.44,1.51,1.31,3.08,2.57,4.7,3.77-.83.51-1.64,1.06-2.45,1.6-.72.48-1.77,1.54-2.73,1.63-.43-.33-.84-.66-1.25-1,1.27-.56,2.38-1.68,2.99-2.6.32-.49-.52-.91-.87-.44-.49.68-1.11,1.24-1.87,1.7-.36.22-.77.39-1.16.55-.83-.73-1.63-1.49-2.4-2.27.54-.29,1.05-.7,1.52-1.01.86-.57,1.66-1.18,2.44-1.83.38-.32-.11-.85-.56-.62-.93.47-1.83.98-2.7,1.54-.48.31-1.11.63-1.59,1.02-.37-.39-.72-.79-1.08-1.19Zm7.76,7.09c.16-.06.32-.13.45-.21,1.56-.94,3.12-2.06,4.52-3.19.97.7,1.97,1.38,2.98,2.04.05.04.1.07.15.11-1.22.62-2.43,1.27-3.6,1.95-.65.37-1.34.68-1.98,1.02-.02.01-.04.02-.06.03-.83-.57-1.65-1.16-2.45-1.75Zm4,2.78c.48-.24.95-.58,1.35-.82,1.32-.78,2.6-1.6,3.86-2.45.73.49,1.47.97,2.21,1.44-1.14.49-2.13,1.25-3.14,1.92-.51.34-1.24,1.04-1.94,1.38-.79-.48-1.57-.97-2.34-1.47Zm3.83,2.35c.06-.04.12-.08.18-.12,1.47-1.04,3.13-2.07,4.29-3.37.03-.03.03-.06.05-.09.76.47,1.53.91,2.3,1.36-.73.36-1.42.78-2.12,1.18-.67.39-1.34.77-2,1.16-.33.2-.66.4-.99.6-.11.02-.2.05-.27.08-.48-.26-.97-.52-1.44-.79Zm3.26,1.73c1.64-.96,3.51-1.94,4.96-3.15.58.32,1.18.63,1.77.94-1.32.47-2.64,1.46-3.79,2.12-.47.27-.95.54-1.42.81-.51-.23-1.02-.48-1.52-.72Zm-19.93-15.22c-.32-.38-.64-.75-.94-1.14,0,0,0,0,.01,0,1.19-1,2.43-2.06,3.47-3.19.56.51,1.12,1.02,1.7,1.52-.81.74-1.75,1.37-2.7,1.97-.47.3-1.02.56-1.53.84Zm-2.57-3.25s.02-.02.03-.02c1.09-.82,2.48-1.83,3.06-3,.31.31.63.63.95.94-1.07.75-2.04,1.65-3.01,2.49-.15.13-.28.26-.43.38-.2-.26-.4-.52-.6-.78Zm-3.31-4.7c-.17-.26-.34-.53-.51-.79.12-.08.24-.17.34-.24.84-.62,1.79-1.35,2.45-2.18.29.42.6.84.91,1.25-.92.29-1.72,1.02-2.48,1.54-.2.13-.45.28-.72.43Zm-2.86-5.09c-.04-.1-.09-.2-.13-.29,1.07-.62,1.97-1.54,2.57-2.48.14.27.28.54.42.81-.13.01-.26.05-.38.15-.78.65-1.63,1.24-2.48,1.82Zm-.78-2.05c-.04-.14-.1-.28-.14-.42-.03-.09-.04-.18-.06-.27.49-.18.94-.54,1.33-.8.45-.3.86-.64,1.24-1,.07.14.13.29.2.43-.07.03-.14.07-.21.14-.57.54-1.18,1.06-1.81,1.55-.17.14-.37.25-.55.37Zm.49-6.8c.06.15.13.3.19.45-.14-.07-.31-.11-.48-.11.1-.11.2-.22.29-.34Zm.53,1.27c.03.08.07.16.1.24-.07.01-.13.03-.19.06-.13.07-.26.15-.39.22.16-.21.31-.43.41-.67,0,0,0,0,0-.01.02.05.05.11.07.16Zm.69,1.6c-.35.23-.71.45-1.05.68.33-.3.65-.61.95-.94.04.08.07.17.11.25Zm37.99,33.69c-1.06.4-2.08.92-3.08,1.4-.81.39-1.68.75-2.49,1.18-.4-.15-.8-.31-1.2-.47.31-.19.61-.37.92-.56.67-.41,1.34-.81,2-1.23.35-.22.86-.67,1.32-.94.14.03.29.02.41-.05.11-.06.18-.13.24-.19.62.3,1.25.58,1.88.86Zm2.56,4.76c-1.03-.16-2.05-.37-3.06-.62.38-.18.74-.4,1.11-.6.55-.31,1.12-.6,1.66-.91.37-.21.14-.77-.31-.64-1.18.34-2.66.95-3.37,1.87-.01.02,0,.03-.01.05-.79-.21-1.57-.44-2.35-.7.48-.25.95-.51,1.42-.75,1.2-.61,2.46-1.2,3.54-1.97,4.26,1.77,8.78,3.12,13.42,3.86,0,.02.02.03.02.05-.07-.05-.15-.09-.25-.08-4.03.53-7.94.73-11.81.43Zm-1.44,1.67s.05,0,.08,0c-.01.01-.02.03-.03.04-.02-.02-.04-.03-.05-.05Zm30.65-71.53c.13.34.25.68.34,1.03.15.56.24,1.13.56,1.64.15.24.64.21.7-.08.1-.49.01-1.01-.16-1.52.62.47,1.23.94,1.84,1.42.82.8,1.59,1.63,2.29,2.5,5.27,4.93,9.86,10.18,13.77,16.14,1.86,2.84,3.59,5.87,4.85,9.02.07.22.15.44.22.66,1.15,3.95,1.6,8.01,1.32,12.08-.62,2.07-1.1,4.11-1.97,6.04-.66,1.15-1.45,2.24-2.37,3.24-.08,0-.17.03-.2.11-.05.1-.1.19-.16.28-.64.65-1.33,1.25-2.09,1.8-3.74,2.7-8.52,3.33-13.25,3.45-2.74.07-5.46-.05-8.16-.32.12-.66-.46-1.45-.96-1.88-.27-.23-.68.12-.42.36.25.23.45.5.57.81.08.21.1.43.14.64-1.17-.13-2.32-.28-3.48-.47-.13-.35-.3-.7-.43-1.05-.3-.81-.67-1.61-.92-2.43-.09-.3-.59-.17-.53.13.19.91.3,1.78.61,2.68.05.16.11.32.16.48-1.14-.21-2.27-.45-3.39-.72-.27-1.89-1.32-3.84-1.96-5.6-.12-.34-.69-.2-.61.14.38,1.61.58,3.48,1.19,5.11-.88-.23-1.75-.48-2.61-.74-.4-2.8-1.68-5.6-2.61-8.27-.1-.27-.54-.16-.48.12.51,2.52.8,5.25,1.7,7.73-1.02-.34-2.04-.7-3.05-1.09-.09-.03-.18-.08-.27-.11-.45-3.94-2.76-7.96-4.72-11.44-.12-.22-.56-.06-.46.17,1.46,3.45,2.25,7.23,3.73,10.68-1.36-.56-2.71-1.16-4.05-1.8.02-.56-.26-1.21-.44-1.68-.32-.88-.79-1.72-1.36-2.51-.51-.7-1.8-.05-1.29.65.54.73.97,1.5,1.26,2.34.04.11.06.22.09.34-.88-.45-1.75-.91-2.62-1.39-1.99-5.93-5.02-11.77-7.62-17.51-.11-.25-.55-.16-.47.11,1.61,5.31,3.28,10.91,5.75,16.05-1.46-.87-2.89-1.78-4.28-2.74-.92-3.44-1.9-6.97-3.66-10.12-.08-.15-.38-.08-.36.08.33,2.9,1.18,5.79,2.04,8.65-1.05-.77-2.07-1.57-3.08-2.38.08-1.78-1.07-3.81-1.82-5.3-.2-.4-.96-.11-.8.29.42,1.05.67,2.16.91,3.25.03.13.05.27.07.4-2.05-1.76-3.97-3.62-5.76-5.55-.03-.3-.16-.61-.34-.86-.14-.2-.38-.22-.57-.14-2.45-2.78-4.61-5.7-6.36-8.75-3.6-6.24-5.45-13.36-3.98-20.29.76-3.54,2.44-7.47,5.07-10.67.12.65.26,1.29.4,1.95.24,1.19.38,2.41.84,3.55.17.41.8.31.85-.1.23-1.99-.38-4.35-1.36-6.23,1.92-2.11,4.29-3.83,7.11-4.8.44-.15.89-.29,1.34-.41,1.87-.38,3.75-.67,5.65-.85,5.82-.29,12.07.91,17.23,2.25.21.06.42.12.63.18.2,1.17.56,2.31.9,3.46.31,1.07.57,2.2,1.04,3.25-1.44-.55-2.9-1.07-4.38-1.51-5-1.49-12.28-3.04-17.77-1.36-2.96.42-5.59,2.71-6.92,4.9-2.2,3.64-2.02,7.9-.92,11.79,2.15,7.58,7.6,14.08,13.42,19.88,5.79,5.77,11.94,11.86,19.56,15.88,7.36,3.88,17.54,5.96,26.01,3.79.77-.2,1.46-.45,2.11-.73.15-.04.3-.08.45-.12.25.03.51-.05.68-.24,2.06-.72,3.89-1.83,4.97-3.58.79-1.29,1.19-2.7,1.33-4.17.04-.04.07-.09.07-.16,0-.29,0-.58-.02-.87.04-2.55-.6-5.19-1.31-7.5-1.32-4.33-3.43-8.45-5.98-12.35,0,0,0-.01-.01-.02-.54-.82-1.08-1.64-1.66-2.44-.06-.08-.13-.13-.21-.16-.96-1.49-2.24-2.82-3.64-4.05.2-.06.35-.25.31-.49-.16-.97-.77-1.88-1.21-2.77-.5-1-1-2-1.51-3-.25-.49-1.23-.13-1,.36.47,1.01.94,2.03,1.4,3.04.27.58.5,1.2.81,1.77-.02-.02-.03-.03-.05-.05-.07-.02-.15-.06-.22-.09-.34-.27-.67-.54-1.01-.81-.04-.06-.09-.11-.13-.18-.14-.22-.28-.45-.42-.66-1.25-1.16-2.56-2.26-3.92-3.34,0-.02,0-.04,0-.06-.26-.89-.75-1.65-1.05-2.52-.27-.79-.2-1.55-.4-2.33-.37-1.45-1.22-2.78-1.89-4.14-.16-.33-.67-.07-.62.22.29,1.49.39,3.19,1.11,4.59.32.63.81,1.16,1.04,1.83.15.42.24.85.33,1.27-.35-.26-.68-.54-1.04-.79-1.08-.77-2.19-1.51-3.32-2.24.03-.05.04-.11.04-.17,0-1.56-.72-3.11-1.18-4.61-.36-1.17-.75-2.3-1.26-3.41.52.25,1.03.51,1.54.77,1,.59,1.99,1.19,2.96,1.82,1.77,1.14,3.52,2.33,5.23,3.57Z"/>
  <path class="cls-1" d="m13.46,83.71c-.77-1.44-.81-3.55-.85-5.12,0-.26.44-.31.52-.06.29.87.5,1.74.67,2.63.15.79.41,1.61.29,2.4-.04.25-.47.45-.63.15Z"/>
  <path class="cls-1" d="m10.82,55.3c-.25-1.18-.13-2.4-.2-3.59-.08-1.34-.2-2.69-.29-4.03-.02-.25.41-.29.49-.06.81,2.29,1.53,5.3.91,7.68-.1.38-.82.4-.91,0Z"/>
  <path class="cls-1" d="m8.39,78.58c-.15-2.84-.96-5.55-.96-8.42,0-.16.28-.2.32-.04.71,2.81.59,5.6,1.14,8.4.06.32-.49.38-.51.06Z"/>
  <path class="cls-1" d="m8.81,82.15s-.06-.1-.09-.15c-.64-1.09,1.8-1.09,1.16,0h0s0,.02,0,.03c-.03.39-.06.78-.1,1.17-.01.17-.02.34-.04.5-.03.25-.11.32-.21.56-.08.18-.41.22-.46,0-.06-.22-.13-.33-.12-.56,0-.17.03-.34.04-.5.02-.28.05-.55.07-.83-.09-.04-.18-.11-.25-.22Z"/>
  <path class="cls-1" d="m4.58,84.05c-.46-.92-.42-1.93-.49-2.93-.09-1.27-.12-2.51-.12-3.78,0-.2.37-.26.42-.05.24,1.11.47,2.2.63,3.32.16,1.1.49,2.27.21,3.36-.06.24-.52.32-.64.07Z"/>
  <path class="cls-1" d="m15.15,43.49c-.88-1.26-1.06-3.03-1.39-4.45-.06-.28.37-.38.48-.12.58,1.37,1.49,2.95,1.5,4.43,0,.28-.43.37-.6.14Z"/>
  <path class="cls-1" d="m15.66,32.63c.81.94,1.45,2.09,1.01,3.29-.08.21-.42.21-.5,0-.36-1.01-.43-2.1-.94-3.07-.14-.26.24-.44.43-.22Z"/>
</svg>