<?xml version="1.0" encoding="UTF-8"?>
<svg id="Layer_1" data-name="Layer 1" xmlns="http://www.w3.org/2000/svg" viewBox="0 0 217.52 221.53">
  <defs>
    <style>
      .cls-1 {
        fill: #fff;
        stroke-width: 0px;
      }
    </style>
  </defs>
  <path class="cls-1" d="m23.78,209.08c0,.26,0,.51.01.77,0,.1.15.1.15,0,0-.26,0-.51.01-.77,0-.11-.18-.11-.18,0Z"/>
  <g>
    <path class="cls-1" d="m79.04,212.51c-.56,2.08-1.1,4.4-.9,6.58.02.26.45.37.49.07.33-2.17.34-4.39.69-6.57.03-.18-.23-.27-.28-.08Z"/>
    <path class="cls-1" d="m91.35,195.88c-2.59,5.57-3.61,12.35-4.44,18.39-.06.47.58.68.73.2,1.84-5.83,3.96-12.31,4.24-18.45.01-.27-.41-.4-.53-.14Z"/>
    <path class="cls-1" d="m123.87,132.6c.2-.49-.6-.81-.84-.36-.08.15-.16.3-.23.44,0-.33,0-.67-.07-1-.06-.3-.47-.3-.61-.08-.77,1.2-.99,2.69-1.5,4.02-.49,1.28-1.52,2.62-1.54,4.01,0,.1.03.19.08.27-2.28,4.85-4.32,9.83-6.17,14.83-2.81,7.57-5.94,15.48-6.86,23.53-.03.29.43.41.55.15,3.23-7.31,5.12-15.21,7.89-22.71,2.88-7.8,6.12-15.44,9.3-23.11Z"/>
    <path class="cls-1" d="m105.33,181.33c-1.85,5.84-3.6,11.72-4.99,17.69-.67,2.9-1.09,5.86-1.66,8.79-.54,2.75-1.3,5.59-1.35,8.39,0,.36.51.42.62.08.89-2.8,1.15-5.86,1.72-8.75.57-2.93,1.38-5.78,2.03-8.68,1.29-5.83,2.62-11.6,4.18-17.36.1-.35-.44-.5-.54-.15Z"/>
    <path class="cls-1" d="m141.4,178.18c-1.91,4.8-4,10.35-4.55,15.51-.03.33.48.46.62.17,2.25-4.67,3.39-10.49,4.29-15.57.04-.24-.27-.32-.36-.1Z"/>
    <path class="cls-1" d="m136.97,196.83c-.84,3.34-1.99,6.74-2.1,10.21,0,.27.37.29.45.06,1.2-3.24,1.41-6.81,1.89-10.2.02-.15-.2-.22-.24-.06Z"/>
    <path class="cls-1" d="m169.21,110.73c.08-.23-.27-.32-.36-.1-3.69,9.07-7,18.26-9.71,27.67-2.58,8.96-5.47,18.34-6.33,27.66-.04.47.68.54.81.11,2.76-9.16,4.32-18.7,6.93-27.92,2.6-9.22,5.45-18.39,8.66-27.42Z"/>
    <path class="cls-1" d="m151.37,172.95c-.47,2.3-1.42,4.51-1.85,6.8-.06.31.37.54.54.23,1.08-2.02,1.43-4.65,1.8-6.89.05-.32-.43-.46-.5-.14Z"/>
    <path class="cls-1" d="m170.05,107.1c.76-2.35,1.48-4.71,2.35-7.02.86-2.3,2.12-4.46,2.86-6.79.13-.41-.41-.55-.63-.27-2.9,3.77-4.35,9.38-4.85,14.04-.02.16.23.18.28.04Z"/>
    <path class="cls-1" d="m167.85,94.84c1.42-3.83,3.45-7.55,4.55-11.47.09-.31-.33-.45-.49-.21-2.3,3.37-3.44,7.66-4.54,11.55-.09.31.37.43.48.13Z"/>
    <path class="cls-1" d="m172.95,81.75c1.81-2.79,3.58-5.96,4.72-9.1.12-.32-.36-.48-.53-.22-1.84,2.78-3.3,6.09-4.46,9.21-.06.16.18.25.27.11Z"/>
    <path class="cls-1" d="m168.38,78.9c-1.14,2.26-1.93,4.71-2.9,7.05-1.08,2.62-2.45,5.17-3.2,7.91-.06.23.24.33.36.15,1.66-2.31,2.69-5.05,3.8-7.66.98-2.32,2.07-4.7,2.66-7.15.1-.42-.52-.72-.73-.31Z"/>
    <path class="cls-1" d="m161.34,73.45c.62-.83,1.14-1.75,1.7-2.62.56-.88,1.18-1.71,1.61-2.66.09-.2-.12-.51-.34-.34-1.68,1.21-2.92,3.47-3.28,5.5-.04.2.2.29.32.13Z"/>
    <path class="cls-1" d="m177.4,101.72c-3.75,11.01-7.53,22.24-10.55,33.47-.1.39.45.53.59.16,4.18-10.81,7.5-22.29,10.43-33.5.08-.31-.37-.43-.47-.13Z"/>
    <path class="cls-1" d="m165.82,140.77c-.23.54-.47,1.07-.66,1.62-.05.16.19.26.27.11.27-.53.48-1.09.71-1.64.08-.2-.24-.28-.32-.09Z"/>
    <path class="cls-1" d="m164.28,145.7c-1.06,5.39-2,10.73-3.2,16.1-1.11,4.97-2.79,10.06-3.28,15.12-.06.64.85.67,1.05.14,1.78-4.87,2.38-10.45,3.29-15.54.93-5.21,1.98-10.44,2.77-15.65.06-.41-.55-.59-.63-.17Z"/>
    <path class="cls-1" d="m153.75,216.11c-.13,0-.13.21,0,.21s.13-.21,0-.21Z"/>
    <path class="cls-1" d="m179.36,121.47c1.2-3.96,2.64-7.87,4.12-11.74.07-.18-.23-.31-.32-.13-3.56,7.21-6.81,15.79-7.38,23.87-.02.3.42.34.5.07,1.2-3.97,1.87-8.09,3.07-12.07Z"/>
    <path class="cls-1" d="m190.9,110.59c2.18-10.42,4.93-20.7,7.36-31.07.04-.17-.2-.23-.26-.07-3.55,10.21-6.06,20.79-8.32,31.35-1.11,5.2-2.11,10.43-3.01,15.67-.86,4.97-2.21,10.34-2.01,15.4.01.25.36.3.44.06,1.6-4.97,1.9-10.53,2.79-15.68.91-5.24,1.92-10.47,3.01-15.67Z"/>
    <path class="cls-1" d="m184.13,144.17c-2.29,6.34-3.75,13.09-5.14,19.68-1.31,6.2-2.67,12.78-2.78,19.14,0,.21.32.26.37.05,1.31-6.45,1.94-13.05,3.19-19.53,1.26-6.51,3.14-12.81,4.7-19.24.05-.22-.26-.3-.33-.09Z"/>
    <path class="cls-1" d="m196.44,108.07c-.75,4.4-1.75,8.75-2.68,13.12-.05.22.28.31.33.09,1.11-4.34,1.85-8.74,2.57-13.15.02-.15-.2-.21-.22-.06Z"/>
    <path class="cls-1" d="m192.66,125.58c-.68,4.06-1.66,8.25-1.8,12.38-.01.32.48.38.55.08,1.02-3.99,1.25-8.3,1.74-12.39.03-.28-.45-.34-.49-.07Z"/>
    <path class="cls-1" d="m189.29,146.51c-1.48,5.37-3.07,11.49-2.53,17.1.03.34.55.47.64.09,1.31-5.54,1.45-11.43,2.4-17.05.06-.33-.42-.47-.51-.14Z"/>
    <path class="cls-1" d="m207.32,83.52c2.23-7.15,3.3-14.89,4.66-22.25.06-.33-.43-.47-.51-.14-1.78,7.3-3.95,14.83-4.84,22.3-.05.41.58.46.69.09Z"/>
    <path class="cls-1" d="m205.55,90.2c-3.69,23.41-7.32,46.86-9.82,70.39-.02.22.35.27.39.05,4.04-23.31,6.99-46.86,9.85-70.39.03-.24-.39-.3-.43-.06Z"/>
    <path class="cls-1" d="m169.06,32.22c.7-3.47.46-7.52.25-11.04-.02-.26-.45-.36-.49-.07-.47,3.49-1.03,7.5-.6,10.99.05.43.73.63.83.11Z"/>
    <path class="cls-1" d="m62.52,208.18c-.8,2.77-2.25,5.67-2.34,8.58-.01.38.54.53.72.19,1.38-2.57,1.57-5.8,2.25-8.6.1-.41-.51-.58-.63-.17Z"/>
    <path class="cls-1" d="m55.26,203.87c-1.32,3.71-2.98,7.35-3.25,11.34-.04.57.84.67.98.13,1.01-3.77,1.27-7.68,2.56-11.39.07-.19-.23-.27-.3-.08Z"/>
    <path class="cls-1" d="m46.82,203.7c-.51.6-.85,1.39-.62,2.17.06.21.42.24.46,0,.09-.62.21-1.22.63-1.71.27-.32-.19-.78-.46-.46Z"/>
    <path class="cls-1" d="m45.25,208.17c-.59,1.23-.9,2.52-.93,3.89,0,.26.38.25.4,0,.1-1.26.45-2.47,1.04-3.59.18-.34-.35-.64-.51-.3Z"/>
    <path class="cls-1" d="m36.63,212.81c-.73.54-1.21,1.63-.69,2.48.12.2.48.13.47-.13-.04-.74-.05-1.44.45-2.05.13-.15-.04-.44-.23-.3Z"/>
    <path class="cls-1" d="m28.07,207.86c-.82,1.45-1.53,3.2-1.22,4.89.04.24.44.24.48,0,.3-1.62.38-3.15,1.13-4.66.13-.26-.24-.48-.39-.23Z"/>
    <path class="cls-1" d="m14.6,199.8c-.27.96-.52,1.92-.88,2.85-.32.82-.63,1.64-.67,2.53-.01.24.33.32.44.12.44-.78.6-1.63.77-2.5.18-.98.48-1.93.75-2.88.07-.26-.33-.38-.41-.11Z"/>
    <path class="cls-1" d="m126.49,169.22c-.57,1.67-.82,3.43-1.24,5.14-.42,1.71-1.06,3.39-1.35,5.13-.05.29.36.53.52.22,1.5-2.94,2.45-7.14,2.37-10.45,0-.17-.24-.2-.29-.04Z"/>
    <path class="cls-1" d="m122.94,183.86c-1.41,4.52-2.48,9.07-3.6,13.66-1.01,4.13-2.68,8.68-2.45,12.97.03.49.64.53.81.11,1.67-4.11,1.73-9.02,2.6-13.36.89-4.44,2.02-8.86,3.04-13.27.06-.26-.32-.36-.4-.11Z"/>
    <path class="cls-1" d="m116.68,214.48c-.28,1.3-.75,2.79-.66,4.12.02.31.42.35.53.07.48-1.23.47-2.82.59-4.13.02-.27-.41-.32-.47-.06Z"/>
    <path class="cls-1" d="m110.92,200.76c-.82,2.09-1.53,4.34-1.33,6.61.02.24.42.35.47.06.33-2.23.45-4.43,1.11-6.6.05-.16-.19-.22-.25-.07Z"/>
    <path class="cls-1" d="m108.66,211.69c-.48,3.12-1.42,6.25-1.57,9.41-.02.5.76.61.87.12.7-3.08.63-6.35,1-9.48.02-.17-.28-.21-.3-.04Z"/>
    <path class="cls-1" d="m134.03,174.8c-.48.91-.98,1.77-1.31,2.74-.27.81-.68,1.86-.42,2.7.07.22.32.22.45.06.5-.68.55-1.73.76-2.55.24-.95.44-1.93.79-2.85.06-.15-.18-.25-.26-.11Z"/>
    <path class="cls-1" d="m131.55,183.19c-.33,1.03-.82,2.13-.86,3.22-.01.3.38.36.53.14.61-.9.85-2.1,1.19-3.12.18-.54-.68-.78-.85-.24Z"/>
    <path class="cls-1" d="m128.76,197.02c-.49,2.08-1.18,4.16-1.31,6.31-.02.35.48.38.58.08.67-2.02.8-4.19,1.12-6.28.04-.25-.32-.36-.38-.11Z"/>
    <path class="cls-1" d="m148.66,187.21c-1.08,2.38-1.64,4.86-1.96,7.45-.19,1.57-.04,3.13-.25,4.69-.25,1.84-.83,3.68-1.28,5.48-.11.42.51.58.64.18.97-2.82,1.16-5.9,1.7-8.8.55-2.96.74-5.91,1.54-8.83.06-.22-.29-.39-.39-.16Z"/>
    <path class="cls-1" d="m158.04,183.27c-.99,3.88-1.97,8.2-1.72,12.23.02.31.51.42.58.08.85-3.99.98-8.21,1.48-12.26.02-.2-.29-.23-.34-.05Z"/>
    <path class="cls-1" d="m174.15,141.38c-1.47,4.5-3.08,9.36-3.24,14.13-.01.41.6.48.71.1,1.31-4.59,1.8-9.48,2.87-14.14.05-.22-.26-.3-.33-.09Z"/>
    <path class="cls-1" d="m170.2,161.02c-.45.92-.74,1.92-.6,2.94.03.24.36.25.39,0,.1-.93.24-1.83.65-2.69.14-.29-.29-.54-.43-.25Z"/>
    <path class="cls-1" d="m168.86,167c-.27,1.27-.62,2.55-.75,3.84-.02.22.3.24.37.05.41-1.21.61-2.51.88-3.76.07-.32-.43-.46-.5-.14Z"/>
    <path class="cls-1" d="m167.92,176.35c-.13,0-.13.21,0,.21s.13-.21,0-.21Z"/>
    <path class="cls-1" d="m213.44,80.54c-1.63,5-2.52,10.69-2.28,15.96.01.23.39.31.43.06.75-5.31,1.39-10.62,2.17-15.92.03-.21-.25-.3-.32-.09Z"/>
    <path class="cls-1" d="m209.8,104.54c-.54,1.83-.94,3.87-.63,5.78.06.35.59.25.61-.08.07-1.9.04-3.7.52-5.56.08-.32-.4-.45-.5-.14Z"/>
    <path class="cls-1" d="m208.57,113.91c-.57,2-1.52,4.93-.93,7,.06.22.36.2.43,0,.35-.95.28-2.02.41-3.03.16-1.28.43-2.54.75-3.79.11-.43-.55-.61-.67-.18Z"/>
    <path class="cls-1" d="m207.13,124.18c-.6,3.69-1.2,7.38-1.63,11.09-.46,3.93-1.14,8.19-.64,12.13.04.31.53.46.61.08.73-3.45.63-7.12.92-10.63.34-4.19.73-8.35,1.34-12.51.06-.39-.53-.56-.59-.16Z"/>
    <path class="cls-1" d="m217.22,95.47c-.91,2.9-1.44,6.18-.85,9.19.05.24.38.16.4-.05.32-3.02.32-6.03.74-9.05.03-.19-.24-.28-.3-.08Z"/>
    <path class="cls-1" d="m215.32,108.35c-.37,3.64-.77,7.3-.99,10.96-.02.3.43.29.46,0,.43-3.64.68-7.3.96-10.96.02-.28-.41-.28-.44,0Z"/>
    <path class="cls-1" d="m88.16,87.35c7.77,2.06,15.32,4.29,22.83,7.17,6.89,2.64,13.73,5.43,20.63,8.04-.03-.62-.04-1.25-.04-1.88-6.47-2.7-13.07-5.2-19.72-7.37-7.68-2.5-15.64-4.92-23.6-6.31-.22-.04-.32.29-.1.35Z"/>
    <path class="cls-1" d="m104.37,93.28c-.22-.06-.3.26-.09.33,5.35,2.02,10.77,3.83,15.9,6.33,3.85,1.87,7.82,3.76,11.81,5.4-.16-.7-.26-1.41-.31-2.12-3.69-1.83-7.69-3.43-11.5-4.62-5.32-1.66-10.43-3.79-15.81-5.33Z"/>
    <path class="cls-1" d="m83.93,107.26c-2.23,3.15-4.51,6.27-6.94,9.27-1.11,1.37-2.26,2.74-3.44,4.1-4.05,4.11-8.46,7.74-12.78,11.63-.2.18.06.49.28.36.05-.03.09-.06.14-.09.05.08.14.13.25.06.85-.58,1.67-1.17,2.49-1.77,5.28-3.54,10.05-8.17,14.35-12.7,4.83-5.09,10.09-11.19,12.44-17.89.08-.23-.09-.44-.3-.49.02-.06.05-.11.06-.17.12-.39-.36-.59-.63-.37-2.46,2-4.1,5.47-5.93,8.05Z"/>
    <path class="cls-1" d="m71.71,114.28c1.14-1,2.21-2.06,3.14-3.26.79-1.02,1.9-2.34,2.09-3.64.06-.41-.4-.77-.74-.43-.89.89-1.38,2.25-2.1,3.29-.87,1.26-1.85,2.41-2.96,3.46-.39.37.19.93.58.58Z"/>
    <path class="cls-1" d="m71.77,109.64c.43-.51.81-1.04,1.13-1.63.29-.53.63-1.15.62-1.77,0-.44-.53-.52-.77-.21-.33.43-.46,1-.72,1.47-.27.51-.6.98-.97,1.42-.41.49.29,1.2.71.71Z"/>
    <path class="cls-1" d="m69.2,107.9c.58-.55,1.27-1.34,1.4-2.15.06-.36-.39-.58-.6-.25-.21.32-.33.68-.53,1.01-.21.34-.45.65-.73.93-.3.3.16.75.46.46Z"/>
    <path class="cls-1" d="m59.77,108.59c1.7-1.14,3.45-2.6,4.34-4.48.11-.24-.19-.52-.39-.3-1.4,1.48-2.62,2.98-4.32,4.13-.4.27-.02.93.38.65Z"/>
    <path class="cls-1" d="m65.83,101.67c.35-.66.71-1.31,1.02-1.99.1-.22-.18-.39-.32-.19-.43.61-.81,1.25-1.2,1.88-.19.32.32.62.5.29Z"/>
    <path class="cls-1" d="m67.66,98.61c.79-.85,1.47-1.72,2.02-2.75.48-.89,1.13-1.9,1.14-2.93,0-.27-.36-.44-.55-.23-.66.76-.92,1.82-1.36,2.71-.5,1.01-.98,2.02-1.48,3.02-.07.14.11.29.22.17Z"/>
    <path class="cls-1" d="m63.8,98.38c.1-.28-.28-.45-.47-.27-1.5,1.36-2.55,3.17-3.85,4.7-1.31,1.54-2.64,3.13-4.06,4.58-.18.19.09.44.28.28,3.02-2.43,6.73-5.52,8.1-9.29Z"/>
    <path class="cls-1" d="m65.62,96.31c.5-1.04,1.03-2.06,1.53-3.1.42-.85.97-1.72,1.03-2.68.03-.43-.55-.63-.83-.34-.65.65-.94,1.63-1.3,2.47-.44,1.04-.86,2.1-1.31,3.14-.25.59.59,1.11.88.51Z"/>
    <path class="cls-1" d="m51.37,104.49c-.2.09-.06.41.15.35,6.75-1.99,10.9-8.11,14.27-13.88.42-.72-.67-1.35-1.11-.65-3.56,5.67-6.99,11.28-13.31,14.18Z"/>
    <path class="cls-1" d="m54.38,98.79c-1.83,1.14-3.62,2.31-5.52,3.35-.33.18-.11.75.26.62,2.09-.7,4.11-1.9,5.57-3.57.18-.21-.05-.57-.31-.4Z"/>
    <path class="cls-1" d="m56.52,97.15c-.27.32.2.79.46.46.99-1.21,1.94-2.46,3-3.6.94-1.02,2.08-2.05,2.7-3.29.14-.28-.18-.72-.48-.48-.99.77-1.73,1.91-2.48,2.92-1.02,1.37-2.1,2.68-3.19,4Z"/>
    <path class="cls-1" d="m48.65,99.63c6.13-.33,10.05-5.56,12.67-10.67.31-.61-.53-1.09-.91-.53-3.06,4.57-5.89,9.73-11.79,10.97-.13.03-.1.23.03.23Z"/>
    <path class="cls-1" d="m31.42,154.34c9.24-4.54,19.29-10.36,26.36-17.97.26-.28-.08-.79-.43-.55-7.36,4.92-14.12,10.43-21.92,14.71-7.09,3.89-20.32,11.84-26.87,2.97-.15-.2-.48,0-.33.19,5.78,8.08,15.93,4.21,23.19.64Z"/>
    <path class="cls-1" d="m18.53,152.59c3.68.64,6.81-.36,10.16-1.93,4.22-1.99,8.31-4.28,12.26-6.76,7.42-4.67,14.92-10.07,20.78-16.64.25-.28-.12-.64-.41-.41-6.45,5.33-12.65,10.78-19.7,15.33-3.25,2.1-6.59,4.03-10,5.85-3.94,2.1-8.43,4.85-13.06,4.34-.12-.01-.15.19-.03.21Z"/>
    <path class="cls-1" d="m38.27,140.09c5.84-3.14,11.55-6.48,16.67-10.73.38-.32-.13-1-.54-.7-5.29,3.93-10.55,7.91-16.25,11.23-.13.07-.01.27.12.2Z"/>
    <path class="cls-1" d="m44.86,131.7c2.68-1.55,5.25-3.25,7.72-5.12,2.19-1.65,4.64-3.29,6.35-5.43.21-.27-.05-.71-.39-.5-2.21,1.35-4.08,3.3-6.11,4.91-2.53,2.02-5.13,3.96-7.72,5.9-.14.11-.02.34.14.24Z"/>
    <path class="cls-1" d="m45.46,126.79c3.93-1.83,8.01-4.57,10.49-8.22.25-.37-.29-.75-.6-.47-3.26,3.02-6.25,5.98-10.09,8.33-.23.14-.03.47.21.35Z"/>
    <path class="cls-1" d="m48.53,119.93c2.11-.96,4.44-2.11,5.79-4.1.27-.4-.29-.73-.62-.47-1.8,1.42-3.29,3.18-5.31,4.34-.15.09-.02.3.14.23Z"/>
    <path class="cls-1" d="m50.54,115.87c.68-.45,1.34-.91,1.96-1.43.6-.5,1.36-.99,1.78-1.66.19-.31-.17-.57-.45-.45-.68.3-1.25.95-1.8,1.45-.62.56-1.18,1.16-1.74,1.78-.14.16.04.44.24.31Z"/>
    <path class="cls-1" d="m50.3,112.66c.74-.32,1.4-.75,2-1.3.46-.43,1.23-1.11,1.22-1.79,0-.27-.28-.39-.5-.29-.29.14-.43.39-.62.64-.22.29-.46.56-.72.81-.52.51-1.11.94-1.74,1.29-.42.24-.05.81.37.63Z"/>
    <path class="cls-1" d="m50.3,109.05c.48-.35.96-.69,1.43-1.04.41-.31.86-.6,1.11-1.07.1-.2-.07-.42-.28-.37-.51.11-.91.47-1.32.79-.46.37-.92.74-1.37,1.11-.31.25.1.8.44.56Z"/>
    <path class="cls-1" d="m51.7,107c.1-.12.21-.23.28-.36.12-.23-.12-.47-.35-.35-.14.07-.25.18-.36.28-.3.26.18.74.44.44Z"/>
    <path class="cls-1" d="m108.14,42.76c6.98,2.26,6.75,13.46,5.57,19.16-1.27,6.14-4.28,11.88-6.56,17.68-.08.21.24.32.35.15,4.32-6.57,7.85-13.85,8.13-21.89.18-5.25-1.19-14.05-7.41-15.4-.19-.04-.27.24-.08.3Z"/>
    <path class="cls-1" d="m106.14,45.29c5.44,3.75,4.83,10.89,3.67,16.59-1.08,5.3-2.71,10.78-4.91,15.72-.1.23.23.43.34.2,3.11-6.18,5.38-12.39,6.23-19.31.64-5.18-.24-10.8-5.12-13.58-.25-.15-.46.23-.23.39Z"/>
    <path class="cls-1" d="m104.08,48.1c-.11-.13-.34.04-.24.19,5.51,8.12.64,17.84-.94,26.41-.07.36.44.51.56.15,2.67-7.9,6.86-19.55.62-26.75Z"/>
    <path class="cls-1" d="m101.27,68.95c1.48-3.73,2.92-11.22-.38-14.38-.16-.15-.37.07-.24.24,2.83,3.41.51,10.16-.12,13.94-.08.48.55.66.73.2Z"/>
    <path class="cls-1" d="m99.75,64.56c.59-1.95.09-4.34-.45-6.25-.1-.37-.64-.21-.57.16.4,2.03.17,3.98.35,6,.03.37.55.48.67.09Z"/>
    <path class="cls-1" d="m97.15,62.6c.19-.72.09-1.64-.06-2.36-.05-.23-.42-.23-.47,0-.15.72-.25,1.64-.06,2.36.08.29.52.29.59,0Z"/>
    <path class="cls-1" d="m98.31,67.41c-.3,1.68-.71,3.33-1.22,4.96-.51,1.63-1.35,3.15-1.76,4.79-.07.28.29.4.45.19,1.99-2.66,2.59-6.66,2.98-9.89.03-.25-.4-.31-.44-.06Z"/>
    <path class="cls-1" d="m100.08,70.24c-.54,1.34-.84,2.77-1.29,4.15-.45,1.37-1.2,2.66-1.52,4.06-.08.35.39.71.65.38,1.7-2.09,2.66-5.9,2.42-8.56-.01-.16-.21-.18-.26-.04Z"/>
    <path class="cls-1" d="m102.38,75.09c-.51.92-1.06,1.84-1.44,2.82-.13.32.37.5.54.23.54-.88.93-1.85,1.35-2.79.13-.3-.28-.56-.44-.26Z"/>
    <path class="cls-1" d="m96.11,64.65c-.49,2.08-.8,4.2-1.36,6.26-.56,2.06-1.46,4.04-1.91,6.12-.06.27.28.41.43.18,2.28-3.37,3.33-8.48,3.29-12.51,0-.26-.39-.32-.45-.06Z"/>
    <path class="cls-1" d="m88.8,60.49c-.24.07-.2.45.06.44,7.5-.1,1.62,12.13.72,15.05-.1.32.34.58.57.33,2.22-2.46,6.14-17.96-1.35-15.82Z"/>
    <path class="cls-1" d="m84.89,62.14c-.19-.02-.26.27-.1.36.79.42,1.51.45,2.4.5,1.04.06,1.62.45,2.07,1.38.09.19.39.18.49,0,.47-.87-.28-1.66-1.04-2.02-1.24-.59-2.53-.08-3.82-.21Z"/>
    <path class="cls-1" d="m90.51,67.23c0-.35-.51-.34-.54,0-.1,1.4-.14,2.96-.55,4.3-.37,1.22-1,2.35-1.28,3.61-.09.41.45.65.68.29.67-1.08.9-2.29,1.09-3.53.24-1.59.58-3.04.6-4.65Z"/>
    <path class="cls-1" d="m87.27,67.2c-.13-2.16-2.56-3.64-4.53-3.65-.24,0-.31.39-.06.43.94.14,1.84.55,2.56,1.17.71.62,1.04,1.4,1.49,2.2.14.24.56.15.54-.15Z"/>
    <path class="cls-1" d="m87.27,70.22c-.26.88-.54,1.74-.74,2.64-.18.78-.47,1.63-.37,2.42.04.28.4.44.57.16.44-.74.5-1.71.64-2.54.15-.87.23-1.74.33-2.61.03-.25-.36-.29-.43-.06Z"/>
    <path class="cls-1" d="m80.23,66.52c-.13.03-.13.24,0,.27,3.93.87,1.45,5.73,1.9,8.27.05.26.46.31.58.08,1.01-2.15,1.78-9.54-2.47-8.62Z"/>
    <path class="cls-1" d="m80.6,71.77c.35-.81-.12-1.79-.65-2.41-.62-.73-1.53-1.04-2.47-.98-.21.01-.2.3,0,.32.76.07,1.42.53,1.91,1.1.5.58.53,1.21.74,1.91.06.19.38.28.47.06Z"/>
    <path class="cls-1" d="m81.15,73.59c0-.44-.68-.44-.68,0v1.34c0,.4-.07.84.08,1.22.1.25.42.26.52,0,.15-.37.08-.82.08-1.22v-1.34Z"/>
    <path class="cls-1" d="m77.41,72.97c.23.49.35,1.01.37,1.54.02.47-.1.94.05,1.39.05.16.27.3.43.18,1.02-.77.59-2.54.11-3.52-.61-1.25-1.7-2.15-3.1-2.23-.2-.01-.28.29-.1.38.94.51,1.78,1.28,2.24,2.26Z"/>
    <path class="cls-1" d="m73.83,74.83c.24.45.39.94.66,1.38.13.22.5.14.49-.13-.03-1.15-.92-2.22-1.75-2.94-.21-.19-.49.09-.31.31.35.42.65.89.91,1.38Z"/>
    <path class="cls-1" d="m77.33,56.62c9.11-6.46,18.02-13.08,29.49-14.06.28-.02.28-.4,0-.44-5.38-.63-10.72,1.75-15.29,4.36-5.02,2.86-9.91,6.23-14.39,9.89-.14.11.05.36.19.25Z"/>
    <path class="cls-1" d="m92.91,48.19c-3.53.99-6.55,3.42-9.47,5.54-.19.14-.02.45.19.32,3.05-1.96,6.53-3.34,9.43-5.5.17-.13.08-.43-.15-.36Z"/>
    <path class="cls-1" d="m104.28,44.85c-.87-1.08-2.24-.8-3.42-.42-2.24.7-4.66,1.68-6.57,3.04-.11.08-.05.27.09.22,1.6-.49,3.1-1.21,4.66-1.8,1.47-.56,3.4-1.58,4.84-.53.32.24.61-.25.4-.51Z"/>
    <path class="cls-1" d="m88.56,53.68c2.7-1.54,5.84-2.75,8.23-4.76.2-.17-.01-.55-.26-.45-2.91,1.14-5.48,3.31-8.13,4.94-.17.1-.02.36.16.27Z"/>
    <path class="cls-1" d="m98.7,47.72c-.18.12-.01.42.18.3,1.37-.87,2.55-.51,4.01-.21.32.06.46-.32.21-.5-1.27-.96-3.2-.39-4.39.42Z"/>
    <path class="cls-1" d="m89.33,55.23c-.14.11-.01.35.14.24,3.08-2.11,6.95-4.14,10.66-2.69.26.1.41-.26.25-.43-2.74-3.06-8.76,1.12-11.05,2.88Z"/>
    <path class="cls-1" d="m83.75,103.5c-.07-.22-.25-.33-.5-.3-.64.09-1.08.96-1.44,1.45-.19.25-.36.52-.52.79-.07.11-.11.23-.16.34-1,1.14-1.9,2.4-2.76,3.7-1.17,1.47-2.33,2.95-3.51,4.38-2.51,3.05-5.02,6.11-7.37,9.3-.07.02-.14.04-.21.03-.26-.04-.36.3-.11.4,0,0,0,0,.01,0-.11.22.21.45.39.26.07-.07.14-.15.21-.23.74-.15,1.35-1,1.89-1.5,1.77-1.68,3.4-3.52,4.97-5.39,2.24-2.65,4.92-5.63,6.67-8.81,1-1.2,1.97-2.42,2.86-3.69.24-.34-.09-.72-.43-.73Z"/>
    <path class="cls-1" d="m77.49,105.2c-.05.11.1.27.19.15,1.15-1.48,2.18-2.96,3.14-4.58,1.06-1.8,2.35-3.5,3.25-5.39.21-.44-.36-.75-.64-.38-1.19,1.56-2.02,3.38-3.09,5.03-1.08,1.68-2.01,3.36-2.85,5.17Z"/>
    <path class="cls-1" d="m74.52,104.78c1.47-1.58,2.63-3.46,3.71-5.32,1.22-2.09,2.57-4.12,3.66-6.29.33-.65-.63-1.23-.99-.58-1.09,2.02-2.01,4.1-3.21,6.06-1.19,1.94-2.51,3.83-3.49,5.89-.09.19.15.42.31.24Z"/>
    <path class="cls-1" d="m72.59,102.77c.95-1.82,2.3-3.39,3.26-5.18.17-.31-.24-.66-.5-.39-1.42,1.44-2.32,3.51-3.2,5.31-.14.29.29.55.44.26Z"/>
    <path class="cls-1" d="m76.66,96.14c.04-.45.16-.9.35-1.31.15-.33.44-.63.42-1,0-.18-.18-.32-.36-.27-.45.13-.66.66-.83,1.07-.2.49-.3.99-.34,1.51-.04.49.71.48.76,0Z"/>
    <path class="cls-1" d="m85.2,101.2c1.19-1.01,2.15-2.38,2.99-3.69.75-1.18,1.77-2.55,1.89-3.97.04-.52-.62-.69-.95-.4-1.05.93-1.63,2.65-2.3,3.88-.7,1.29-1.47,2.58-1.99,3.96-.08.22.22.34.36.21Z"/>
    <path class="cls-1" d="m6.05,162.8c.41-.36.58-.94.78-1.44.24-.61.43-1.25.64-1.88.07-.21-.26-.35-.36-.15-.32.58-.65,1.16-.93,1.76-.23.48-.53,1.02-.51,1.56,0,.2.24.29.38.16Z"/>
    <path class="cls-1" d="m41.33,187.24c-.16-.35-.69-.05-.52.3.42.85,1.03,1.64,1.88,2.1.19.1.39-.15.23-.3-.64-.63-1.22-1.28-1.59-2.1Z"/>
    <path class="cls-1" d="m45.83,187.55c-.8-.74-1.65-1.44-2.48-2.16-.28-.25-.68.14-.42.42.75.79,1.48,1.61,2.26,2.37.71.7,1.4,1.51,2.24,2.05.32.2.76-.21.54-.54-.58-.82-1.41-1.47-2.14-2.15Z"/>
    <path class="cls-1" d="m68.33,171.58c-.16.09-.27.36-.14.53.33.43.62.9,1.12,1.14.15.07.3-.05.27-.21-.09-.52-.42-.9-.72-1.31-.12-.17-.33-.25-.53-.14Z"/>
    <path class="cls-1" d="m76.15,156.3c-.13,0-.13.21,0,.21s.13-.21,0-.21Z"/>
    <path class="cls-1" d="m103.97,140.52c-.16-.11-.32.16-.16.27.29.19.59.39.88.58.15.1.28-.13.14-.23-.29-.2-.57-.41-.86-.61Z"/>
    <path class="cls-1" d="m144.76,72.4c.32.08.64.15.97.17.17.01.24-.25.09-.32-.3-.14-.61-.23-.93-.31-.3-.08-.42.38-.13.46Z"/>
    <path class="cls-1" d="m128.29,125.06c-.13-.15-.34.07-.22.22l.86,1.03c.12.15.33-.06.21-.21-.28-.35-.57-.69-.85-1.04Z"/>
    <path class="cls-1" d="m136.87,129.47c-.11-.1-.31.03-.22.17.71,1.12,1.39,2.22,2.24,3.24.73.88,1.44,2.08,2.55,2.49.23.08.41-.16.36-.36-.23-1.08-1.28-1.95-1.98-2.75-.91-1.03-1.92-1.89-2.95-2.79Z"/>
    <path class="cls-1" d="m151.91,104.28c-.34-.03-.68-.14-.98-.29-.3-.14-.55.19-.34.44.42.52,1.86,1.15,2.29.3.06-.12.03-.24-.08-.32-.26-.17-.58-.12-.88-.14Z"/>
    <path class="cls-1" d="m151.26,102.04c.28.49.69.74,1.21.93.43.15,1.08.37,1.44-.02.09-.1.09-.24,0-.34-.28-.32-.77-.26-1.15-.37-.44-.12-.86-.32-1.31-.43-.14-.03-.25.11-.18.24Z"/>
    <path class="cls-1" d="m152.26,97.05s-.11-.01-.14-.04c-.13-.14-.33.04-.25.19.03.06,0,.17.04.25.03.07.08.13.13.19.11.15.25.26.42.34.33.14.69.16.99-.03.21-.13.17-.44-.07-.52-.22-.07-.45-.1-.67-.19-.09-.04-.19-.07-.28-.11-.06-.03-.11-.07-.17-.09Z"/>
    <path class="cls-1" d="m154.71,92.21c-.47-.21-1.03-.13-1.5-.34-.22-.1-.49.11-.35.35.2.34.44.59.84.69.35.09.82.08,1.07-.23.11-.13.13-.38-.06-.46Z"/>
    <path class="cls-1" d="m153.77,89.64c.21.41.52.62.97.7.46.08.84,0,1.1-.41.1-.16-.04-.33-.2-.35-.54-.05-1.07.02-1.56-.25-.2-.11-.41.11-.31.31Z"/>
    <path class="cls-1" d="m154.08,77.98c.2.42.52.67.96.83.38.13.92.22,1.21-.14.13-.16.11-.36-.06-.48-.26-.18-.57-.14-.86-.23-.28-.09-.57-.25-.81-.41-.29-.19-.57.17-.44.44Z"/>
    <path class="cls-1" d="m130.96,51.57c-.03,2.51-.16,4.77-.7,7.23-.44,1.99-1.15,3.97-1.17,6.01,0,.23.31.3.42.11,1.22-2.05,1.69-4.62,2.04-6.96.41-2.77.9-5.6.34-8.37-.77-3.77-1.84-9.33-5.97-10.85-.15-.06-.29.17-.16.28,3.82,3.22,5.27,7.69,5.21,12.56Z"/>
    <path class="cls-1" d="m126.78,41.94c-.24-.38-.81-.04-.6.35.88,1.65,1.63,3.45,2.12,5.27.46,1.69.09,3.35.44,5.03.07.33.56.3.64,0,.47-1.64-.13-3.58-.41-5.22-.34-1.98-1.13-3.73-2.19-5.43Z"/>
    <path class="cls-1" d="m129.06,53.06c-.11.72-.54,1.64-.11,2.32.11.17.36.17.47,0,.43-.69,0-1.6-.11-2.32-.02-.12-.23-.12-.25,0Z"/>
    <path class="cls-1" d="m129.17,56.22c-.01-.17-.25-.21-.3-.04-.41,1.21-.61,2.47-.87,3.72-.23,1.1-.57,2.21-.51,3.33.01.22.31.32.43.12,1.08-1.89,1.39-4.98,1.25-7.13Z"/>
    <path class="cls-1" d="m126.93,53.13c.07,2.17-.56,4.32-.33,6.45.06.56.87.58.89,0,.07-2.53.64-4.89.4-7.44-.21-2.24-.81-4.27-1.67-6.34-.17-.4-.82-.25-.67.18.8,2.3,1.3,4.72,1.38,7.15Z"/>
    <path class="cls-1" d="m62.36,156.54c7.33-5.44,15.29-11.99,20.37-19.67.14-.21-.17-.43-.34-.26-3.43,3.21-6.41,6.9-9.76,10.21-3.35,3.31-6.89,6.42-10.49,9.44-.15.13.05.4.22.28Z"/>
    <path class="cls-1" d="m86.56,131.97c-1.05,1.03-1.94,2.25-2.85,3.4-.11.14.07.34.2.2.99-1.09,2.06-2.18,2.92-3.39.11-.16-.13-.33-.26-.2Z"/>
    <path class="cls-1" d="m96.79,119.36c-2.85,3.79-6.57,6.99-9.24,10.95-.18.27.2.51.42.33,3.75-3.05,6.23-7.28,9.15-11.02.19-.24-.15-.5-.33-.26Z"/>
    <path class="cls-1" d="m99.26,116.02c-.58.37-.95,1.07-1.35,1.62-.31.43.41.85.71.41.38-.54.9-1.08,1.04-1.73.05-.23-.19-.45-.41-.31Z"/>
    <path class="cls-1" d="m65.85,150.76c6.15-5.19,11.38-10.75,16.57-16.89.16-.19-.1-.46-.27-.27-5.28,5.79-10.97,11.4-16.52,16.93-.15.15.07.36.23.23Z"/>
    <path class="cls-1" d="m83.92,131.93c3.5-3.19,6.69-6.55,9.66-10.24,2.71-3.36,5.71-6.89,7.87-10.62.17-.3-.24-.63-.48-.37-3.07,3.26-5.6,7.17-8.43,10.66-2.85,3.51-5.79,7.01-8.94,10.24-.21.21.11.53.33.33Z"/>
    <path class="cls-1" d="m100.89,114.03c2.66-2.69,5.72-5.7,7.48-9.09.19-.37-.28-.77-.59-.46-1.43,1.45-2.55,3.27-3.81,4.88-1.15,1.47-2.23,2.98-3.35,4.47-.12.16.14.35.27.21Z"/>
    <path class="cls-1" d="m32.8,173.91c.37-.26.06-.81-.36-.61-3.91,1.86-7.71,3.01-12.07,3.06-4.19.04-8.08-1.06-12.12-1.99-.12-.03-.21.15-.09.21,7.4,3.39,17.67,4.26,24.64-.67Z"/>
    <path class="cls-1" d="m40.97,170.02c-.8.1-1.52.49-2.25.8-.9.38-1.78.81-2.67,1.23-.31.14-.09.67.23.55.92-.33,1.84-.66,2.75-1.02.74-.3,1.52-.53,2.16-1.02.21-.16.04-.57-.22-.54Z"/>
    <path class="cls-1" d="m48.18,166.23c-1.99,1.05-3.69,2.55-5.74,3.53-.2.1-.03.4.18.3,1.97-.98,4.27-1.88,5.89-3.41.23-.22-.06-.56-.33-.42Z"/>
    <path class="cls-1" d="m16.48,174.75c4.48,1.44,11.15-.14,15.4-1.89.38-.16.25-.71-.17-.63-5.17,1-9.84,2.35-15.19,2.29-.14,0-.16.2-.03.24Z"/>
    <path class="cls-1" d="m35.47,171.11c2.59-.87,5.32-1.71,7.74-3.01.28-.15.09-.59-.21-.5-2.65.74-5.19,2.03-7.66,3.2-.18.08-.05.38.13.32Z"/>
    <path class="cls-1" d="m21.47,172.24c3.45.53,7.17-.23,10.42-1.42,3.63-1.33,7.28-2.72,10.69-4.56.38-.21.05-.72-.33-.57-3.49,1.48-6.9,3.36-10.6,4.25-3.39.82-6.75,1.32-10.18,1.9-.19.03-.2.37,0,.4Z"/>
    <path class="cls-1" d="m44.61,165.43c5.05-2.42,10.05-5.64,14.65-8.84.35-.24.04-.8-.34-.58-4.87,2.88-9.91,5.76-14.58,8.95-.29.2-.04.62.27.47Z"/>
    <path class="cls-1" d="m127.85,15.64c-.21.94,1.25,1.33,1.44.4.45-2.34.85-6.26-1.99-7.33-.26-.1-.38.25-.24.42,1.63,2.08,1.34,4.05.8,6.51Z"/>
    <path class="cls-1" d="m126.13,13.77c.27.34.81.11.92-.24.15-.47-.04-.97-.15-1.43-.12-.48-.29-.9-.53-1.33-.14-.24-.61-.23-.66.09-.08.51-.09.97-.02,1.48.08.52.09,1.02.43,1.44Z"/>
    <path class="cls-1" d="m120.04,92.13c.53-.6,1.15-1.11,1.59-1.78.22-.34-.26-.68-.54-.42-.57.53-.97,1.2-1.46,1.8-.23.28.16.69.41.41Z"/>
    <path class="cls-1" d="m122.57,92.41c.36-.3.88-.71,1.04-1.17.07-.21-.16-.43-.36-.36-.46.16-.87.68-1.17,1.04-.29.34.15.78.49.49Z"/>
    <path class="cls-1" d="m192.23,30.14c1.18-3.22,1.01-7.45.87-10.82-.01-.25-.42-.34-.47-.06-.51,3.39-1.47,7.36-1.22,10.78.03.48.66.56.82.11Z"/>
    <path class="cls-1" d="m163.06,21.05c.16-1.11.06-2.23.1-3.35.05-1.46.22-2.9.46-4.34.05-.31-.4-.45-.48-.13-.64,2.36-1.28,5.41-.64,7.82.07.26.53.3.57,0Z"/>
    <path class="cls-1" d="m159.46,28.28c.48-1.11.43-2.34.51-3.54.1-1.53.11-3.07.1-4.6,0-.22-.35-.28-.39-.05-.25,1.34-.48,2.69-.64,4.04-.15,1.32-.49,2.78-.18,4.08.06.25.48.34.6.08Z"/>
    <path class="cls-1" d="m180.67,34.73c.21-1.11.04-2.28.11-3.41.06-1.08.38-2.22.18-3.29-.05-.24-.42-.35-.58-.15-.66.84-.8,1.94-.94,2.98-.16,1.23-.36,2.69.06,3.87.18.52,1.05.64,1.18,0Z"/>
    <path class="cls-1" d="m176.57,34.96c.3-.64.3-1.46-.03-2.08-.1-.19-.4-.19-.5,0-.33.62-.33,1.44-.03,2.08.1.21.47.21.57,0Z"/>
    <path class="cls-1" d="m209.72,45.58c-1.78-.19-3.57-.02-5.36.02-1.57.03-3.13,0-4.67.29-.3.06-.28.52,0,.58,3.04.73,7.1.66,10.15-.01.53-.12.35-.83-.12-.88Z"/>
    <path class="cls-1" d="m205.98,49.9c-.17.02-.18.27,0,.27,2.11-.06,4.33.25,6.41-.25.34-.08.23-.53-.08-.57-2.11-.23-4.25.35-6.34.54Z"/>
    <path class="cls-1" d="m159.91,38.72c-.35-.24-.69-.54-1.08-.7-.25-.1-.49.24-.35.45.49.74,1.59,1.15,2.4,1.43.27.1.45-.33.2-.47-.4-.21-.79-.45-1.16-.71Z"/>
    <path class="cls-1" d="m159.1,33.58c-.28-.09-.54.31-.3.52,1.35,1.14,3.13,1.7,4.83,2.08.19.04.33-.23.14-.33-1.5-.81-3.03-1.76-4.67-2.26Z"/>
    <path class="cls-1" d="m213.57,56.58c-3.74-.55-7.71-.16-11.48-.1-4.12.06-8.25.02-12.37-.28-2.92-.21-5.82-.56-8.7-1.04,1.09-.6,2.19-1.2,3.28-1.8,1.02.2,2.05.39,3.07.54,5.18.8,11.38,1.63,16.63.23.34-.01.69-.02,1.03-.03.9-.03,1.81-.08,2.71-.13h0s0,0,0,0h0c.28-.02.56-.03.84-.05h0c.06,0,.13,0,.19-.01.09,0,.19-.02.28-.03.26-.02.52-.03.78-.05,0-.01,0-.02,0-.03.93-.1,1.85-.22,2.77-.38.62-.11.4-.97-.14-1.02-7.77-.79-15.66-.55-23.45-1.24-.24-.02-.47-.05-.71-.08.47-.27.93-.55,1.39-.83.25-.11.51-.23.76-.34,1.74.04,3.47.07,5.23.27,2.19.25,4.43.38,6.61.06.34-.05.34-.63,0-.68-2.14-.33-4.34-.28-6.5-.23-1.24.03-2.45-.05-3.65-.17,1.15-.51,2.3-1.01,3.44-1.53,1.53.09,3.05.17,4.58.24,3.9.17,7.87,1.37,11.78.69.35-.06.32-.6,0-.68-3.79-.99-7.88-.23-11.74-.51-1.17-.09-2.34-.17-3.52-.26.52-.24,1.05-.48,1.57-.73,1.06-.51,2.17-1.04,3.27-1.61,2.75.07,5.98.29,8.53-.65.28-.1.35-.57,0-.64-1.99-.39-4.18-.15-6.28.01.45-.28.88-.57,1.3-.88,2.66-.02,5.43-.08,7.87-.82.29-.09.34-.58,0-.64-.51-.09-1.03-.13-1.55-.17,0-.07,0-.14-.05-.19-.26.05-.51.09-.77.14-.37,0-.74,0-1.11,0,3.07-.82,5.71-3.74,5.58-7.19-.13-3.66-3.04-5.37-6.06-5.27,0-.1-.06-.19-.18-.18-2.68.32-5.07,1.31-6.33,3.87-.63,1.27-.83,2.75-.57,4.14-.13.07-.25.14-.38.21.11-1.94.2-3.88.25-5.81,0-.2-.32-.25-.35-.05-.33,2.13-.61,4.26-.88,6.4-1.17.64-2.34,1.27-3.5,1.91.42-3.4.11-7.25-.17-10.58-.02-.27-.45-.37-.5-.07-.57,3.46-.99,7.67-.3,11.19-1.08.6-2.16,1.2-3.23,1.8,0,0-.02,0-.03,0-.14,0-.27-.02-.4-.03.15-2.28.3-4.55.44-6.83.04-.59-.85-.57-.91,0-.25,2.25-.49,4.49-.73,6.74-.96-.08-1.91-.18-2.84-.3.31-3.6.93-7.24.77-10.83-.01-.31-.46-.38-.54-.07-.97,3.47-1.17,7.13-1.69,10.71-.55-.08-1.09-.18-1.63-.27-.29-.06-.59-.11-.88-.18.54-2.91.32-6.3.14-9.21-.02-.33-.56-.45-.62-.08-.41,2.81-.91,6.05-.67,8.92-.91-.28-1.82-.55-2.73-.8-.03-.39-.07-.78-.1-1.16-.05-.57-.92-.58-.9,0,.01.29.01.59.02.89-.99-.28-1.98-.56-2.97-.84-.03-.34-.05-.68-.08-1.02-.03-.27-.44-.37-.5-.07-.06.29-.12.58-.17.87-.61-.18-1.21-.37-1.81-.57.43-6.36.51-12.61.04-18.97-.02-.22-.32-.21-.33,0-.53,6.13-.92,12.26-1.34,18.4-.47-.17-.93-.35-1.4-.54-1.74-.72-3.43-1.52-5.13-2.31.1-1.57.17-3.15.19-4.73.07-5.99.76-11.98,1-17.97.01-.34-.48-.32-.51,0-.62,5.8-.84,11.64-1.58,17.42-.2,1.54-.35,3.08-.49,4.62-.48-.22-.95-.44-1.43-.66-.15-.08-.29-.17-.44-.25.08-2.26.14-4.52.2-6.78,0-.26-.37-.25-.4,0-.22,2.09-.41,4.19-.61,6.29-2.28-1.37-4.47-2.9-6.51-4.6.2-3.02.24-6.06.26-9.1.36-5.28.67-10.63.19-15.78,0-.06-.05-.1-.1-.13-.07-.64-.15-1.27-.27-1.89-.04-.23-.39-.21-.45,0-1.01,4.14-.7,8.83-.85,13.07-.1,2.66-.23,5.33-.32,8-.04.38-.08.76-.11,1.14-.96,1.29-1.56,3.04-1.4,4.63-.38,2.9-.6,6.31-.13,9.21-.22.37-.32.76-.33,1.17-.11.17-.22.33-.34.48.01.03.03.06.03.1,0,0,0,0,0,.01-.38.28-.71.69-1.07.98-.38.3-.75.62-1.14.92-.02-.05-.05-.1-.07-.15-.82.51-1.69.96-2.51,1.43-1.27-2.3-2.54-4.6-3.82-6.89-1.65-2.96-3.32-5.92-4.97-8.88-1.81-3.22-4.13-6.46-4.69-10.17.94-2.85-.17-6.19-2.93-8.37-1.64-1.3-3.77-1.34-5.69-.61-2.37.68-5.15,3.07-5.08,5.65-.19.73-.27,1.51-.19,2.3.35,3.51,2.98,5.63,5.98,5.93.06.01.12.02.18.03,3.32,1.48,5.01,5.88,6.78,8.82.23.38.46.77.69,1.15,2.14,3.7,4.39,7.34,6.46,10.98.69,1.21,1.38,2.42,2.07,3.62-.97.43-1.87.92-2.69,1.57-2.64-2.44-5.35-4.87-8.38-6.83-.56-.36-1.17-.72-1.81-1.06-.87-.69-1.85-1.28-2.94-1.71-2.92-1.15-6.01-1.52-9.06-1.26-.62.04-1.22.11-1.81.23-1.52.26-3.02.66-4.46,1.21-1.06.15-2.11.4-3.13.72-.39.03-.78.06-1.18.13-.28.05-.41.24-.43.46-.68.29-1.34.61-1.98.96-3.7.89-7.37,2.71-10.38,4.13-7.83,3.71-14.68,8.88-21.44,14.24-7.93,6.28-15.48,12.98-22.59,20.18-1.35.29-2.69.62-4.01,1.02-.06.02-.08.06-.1.11-5.13,1.45-10.09,3.48-14.79,6.09-7.8,4.34-15.68,10.42-20.72,17.9-.01.02,0,.04-.01.06-.18.27-.35.55-.53.81-.08.12-.07.26.04.36.07.06.14.12.22.19.09.15.2.3.29.45,0,.21.14.41.34.52.39.55.79,1.09,1.21,1.61.53.67,1.11,1.3,1.97,1.52.53.14.86-.22.92-.62.05,0,.1-.02.14-.06.1-.08.21-.16.31-.24.66-.38,1.31-.79,1.94-1.23.38.43.9.78,1.43,1.01-1.46.91-2.68,2.07-3.42,3.46-.85,1-1.6,2.07-2.23,3.13-.3.5-.54,1.05-.73,1.63-.16.42-.27.88-.31,1.37-.34,2.5.56,5.01,3.63,5.26-.54.91-1.09,1.82-1.62,2.72-3.25,5.47-6.36,11.1-8.21,17.23-.2.66-.39,1.35-.57,2.05-.64,1.54-1.2,3.18-1.6,4.88-.08.01-.16.06-.18.16-.88,2.92-1.71,6.07-2.16,9.23-1.07,5.31-.38,10.91,2.68,15.12.25.35.51.69.8,1.02.02.02.04.04.06.06.18.21.36.41.56.61,2.58,3.71,5.74,7.19,8.92,10.46-.01.02-.03.03-.04.04-2.17,3.76-3.71,7.68-4.37,11.99-.03.23.26.31.35.1,1.49-3.76,3.16-7.45,5.22-10.94.7.71,1.41,1.42,2.1,2.11.32.32.66.66,1.02,1.01-.81,1.13-1.54,2.08-2.08,3.43-.5,1.26-1.01,2.67-1.02,4.03,0,.57.74.6.93.13.97-2.36,1.37-4.99,2.39-7.35,1.52,1.45,3.34,3.03,5.3,4.18-2.26,2.82-4.1,7.72-3.89,11.18.04.61.79.66,1.01.14.77-1.85,1.03-3.94,1.59-5.87.51-1.75,1.26-3.44,1.73-5.2,2.14,1.17,4.44,1.79,6.68,1.12.4.04.81.07,1.22.09-2.13,2.58-3.68,6.34-3.47,9.71.03.54.87.73,1,.14.33-1.6.47-3.2.94-4.78.52-1.74,1.27-3.37,2.05-5.01,0-.01,0-.03,0-.04,2.88.11,5.82-.15,8.72-.66-1.74,3.93-3.07,8.07-3.62,12.32-.03.25.32.25.4.05,1.71-4.2,3.23-8.48,4.91-12.7,2.55-.53,5.04-1.24,7.4-2.03-.46.88-.87,1.78-1.23,2.76-.62,1.7-1.58,3.74-1.36,5.57.04.34.44.48.65.18.96-1.45,1.15-3.43,1.7-5.08.41-1.25.81-2.51,1.22-3.76.4-.14.8-.28,1.19-.42,2.95-1.08,5.8-2.36,8.57-3.8-2.43,4.11-4.42,8.9-4.99,13.44-.02.18.26.25.34.09,1.12-2.38,1.88-4.91,2.83-7.36.89-2.28,1.91-4.5,2.9-6.74,3.5-1.88,6.86-4.03,10.08-6.38-.13.27-.26.53-.39.78-1.18,2.29-2.25,4.65-3.22,7.04-2.14,5.25-3.67,10.79-4.79,16.33-.04.18.21.25.27.08,3.1-8.97,7.22-17.46,10.78-26.22.28-.22.57-.43.85-.66,2.8-2.23,5.5-4.58,8.14-7.03-.87,1.61-1.59,3.31-2.27,4.96-1.69,4.08-3.17,8.26-4.57,12.44-1.44,4.28-2.84,8.6-3.91,12.99-.96,3.94-2.58,8.28-2.83,12.31-.03.48.61.48.77.1.79-1.91,1.04-4.06,1.55-6.06.51-2.03,1.16-4.01,1.79-6,1.26-3.98,2.38-8,3.66-11.98,2.32-7.22,5.01-14.1,8.13-20.96,2.07-1.99,4.09-4.04,6.07-6.14,1.25-1.21,2.48-2.43,3.71-3.65.16-.16.31-.32.46-.47-3.89,7.34-7.01,15.16-9.75,22.96-1.68,4.8-3.19,9.66-4.52,14.56-1.29,4.76-3.2,10.08-3.1,15.05,0,.33.52.53.67.18,1.87-4.3,2.4-9.32,3.61-13.85,1.31-4.91,2.8-9.78,4.46-14.58,3.18-9.2,7.17-18.01,11.12-26.89,2.84-2.98,5.6-6.05,8.29-9.17-.02.03-.04.07-.05.11-2.01,4.01-3.71,8.18-5.28,12.38-3.26,8.71-5.99,17.8-7.69,26.95-.1.53.61.72.8.22,3.17-8.44,5.46-17.21,8.48-25.71,1.56-4.39,3.31-8.69,5.24-12.92,1.08-2.37,2.39-4.67,3.57-7.02,1.29-1.56,2.57-3.13,3.8-4.74,1.3-1.69,3.23-3.93,3.88-6.17.13-.17.26-.34.39-.51,3.01,1.89,6.5,3.41,10.04,4.68-2.74,3.69-4.23,8.86-5.87,13.13-1.85,4.81-3.52,9.7-5.05,14.62-1.43,4.57-3.12,9.35-3.67,14.11-.59,5.11-2.87,9.93-3.01,15.11,0,.28.38.3.47.06,1.87-5.12,2.08-10.67,3.95-15.81,1.54-4.23,2.47-8.74,3.8-13.05,1.42-4.6,2.98-9.15,4.64-13.67,1.69-4.6,4.4-9.49,5.29-14.31,2.02.71,4.05,1.33,6,1.9-2.45,3.42-3.61,8.39-4.93,12.24-1.57,4.58-3.8,9.71-3.94,14.6-.01.43.61.6.81.22,2.25-4.18,3.1-9.37,4.55-13.89.74-2.3,1.5-4.59,2.28-6.87.68-1.99,1.61-4,1.92-6.1,2.2.62,4.78,1.29,7.09,1.02-2.73,4.37-4.01,10.2-5.44,15.1-.78,2.67-1.49,5.35-2.14,8.05-.61,2.53-1.48,5.19-1.33,7.81.02.29.45.47.6.16,1.08-2.21,1.37-4.72,1.93-7.1.64-2.7,1.34-5.39,2.08-8.06.74-2.68,1.56-5.33,2.4-7.97.83-2.6,2-5.25,2.42-7.95,0-.04,0-.07-.02-.11.12-.02.23-.05.35-.07,1.02-.17,1.96-.57,2.73-1.16.1.03.2.01.3-.08,2.1-1.93,3.98-5.17,4.31-8.26.23-.97.23-1.95-.16-2.85-.02-.05-.05-.1-.08-.14-.21-.66-.56-1.33-1-1.96,2.25-3.08,4.48-6.19,6.68-9.31,1.4.65,2.76.89,3.94.69-3.07,2.9-4.65,7.09-6.03,11-1.76,5.01-3.29,10.12-4.88,15.19-1.64,5.23-3.23,10.48-4.78,15.73-1.53,5.19-3.73,10.64-4.36,16.02-.07.59.88.83,1.12.3,2.13-4.6,3.1-9.97,4.53-14.83,1.5-5.08,3.02-10.16,4.56-15.23,2.94-9.7,5.39-19.56,10.61-28.31.02-.04.02-.07.02-.11.48-.19.93-.46,1.31-.84.91-.51,1.64-1.3,1.99-2.42.02-.06.03-.12.05-.18.33-.49.64-.99.92-1.52.85-1.25,1.37-2.86,1.54-4.51.17-1.2.14-2.41-.16-3.6-.09-.35-.21-.68-.35-1-.03-.08-.05-.17-.08-.24-.69-1.63-1.92-2.64-3.37-3.29-1.06-.56-2.23-.97-3.4-1.28-.01-.15-.02-.31-.03-.46-.16-1.64-1.02-2.8-2.54-3.26.1-.82.2-1.65.3-2.47.5-4.21.93-8.43,1.26-12.66.22-2.77.6-5.7.65-8.56.03-.18.06-.36.1-.52.03-.11.05-.22.08-.33,2.45.34,3.68-1.45,4.35-3.63.33-.15.66-.3.99-.45-.51,1.25-.97,2.49-1.39,3.69-.02.04,0,.08.03.1-.07.18-.15.35-.22.53-.08.2.24.32.34.14,1-1.79,1.97-3.58,3.01-5.33,1.12-.57,2.23-1.18,3.33-1.8-.89,1.79-1.74,3.6-2.6,5.39-3.08,6.4-5.87,12.93-8.67,19.45-.04.09.01.16.08.2-.01.03-.03.06-.04.09-.08.19.25.33.34.14,2.86-5.93,5.83-11.74,8.96-17.53,1.91-3.54,4.1-6.95,6.35-10.31.67-.39,1.34-.78,2.01-1.16.19-.11.39-.21.58-.32.06.01.12.03.18.04-1.26,2.69-2.48,5.4-3.72,8.1-1.44,3.13-2.99,6.27-3.96,9.58-.21.42-.43.84-.63,1.26-.1.21.03.39.19.45-.04.18-.09.36-.13.54-.03.16.18.21.24.06.13-.35.27-.69.41-1.03,2.23-3.74,4.13-7.66,6.3-11.44,1.33-2.32,2.69-4.66,3.97-7.04.61.1,1.22.19,1.83.28-2.01,4.52-3.89,9.15-5.33,13.79-.05.17.19.27.28.12.05-.08.1-.17.15-.26.15.09.35.08.46-.14,2.27-4.4,4.56-8.8,6.83-13.2.83.09,1.66.18,2.49.25-2.86,6.88-5.68,13.84-7.83,20.95-1.49,3.75-2.96,7.52-4.4,11.29-.17.45.53.62.71.19,4.56-10.86,9.61-21.51,14.56-32.2.39.02.77.04,1.16.06-.9,2.43-1.67,4.93-2.48,7.3-1.35,3.91-2.43,7.87-3.49,11.85-2.13,5.73-4.1,11.54-5.89,17.37-.12.39.45.52.59.16,2.77-7.05,5.53-14.09,8.25-21.16,1.96-5.1,4.37-10.21,6.28-15.41.8.02,1.59.04,2.39.05-.34,1.28-.68,2.57-1.05,3.83-2.18,5.81-4.07,11.75-5.89,17.68-1.16,3.77-2.22,7.57-3.24,11.37-.97,3.61-2.29,7.36-2.64,11.09-.05.48.63.49.78.11,1.44-3.61,2.07-7.66,3.08-11.42,1.02-3.81,2.11-7.6,3.21-11.38.85-2.94,1.76-5.87,2.69-8.79,1.07-2.37,1.99-4.8,2.9-7.24.66-1.74,1.39-3.49,2.07-5.26.45,0,.89,0,1.34,0,.3,0,.6,0,.9,0-.49,1.94-.88,3.91-1.32,5.81-.92,4.02-1.71,8.06-2.4,12.13-.08.45.57.65.69.19.63-2.36,1.23-4.73,1.82-7.11,1.56-3.46,2.58-7.28,3.41-11.05.7-.01,1.41-.03,2.12-.06-.6,2.12-1.1,4.27-1.63,6.36-1.13,4.52-2.16,9.08-3.1,13.64-.94,4.58-1.54,9.22-2.31,13.83-.71,4.21-1.8,8.61-1.92,12.88-.01.39.58.47.68.09,1.16-4.45,1.46-9.25,2.29-13.79.81-4.41,1.92-8.74,2.84-13.13.22-1.07.46-2.13.69-3.2,2.08-5.4,3.75-11.17,5.06-16.84,1.59-.14,3.16-.38,4.66-.78.37-.1.42-.73,0-.79ZM29.01,194.06c-2.17-.54-4.12-1-6.16-2.32-1.13-.73-2.18-1.56-3.2-2.44-.08-.07-.16-.15-.23-.22,3.58.67,7.43.19,10.95-.36,5.11-.81,10.13-2.34,14.91-4.3,2.08-.85,4.11-1.8,6.1-2.82,1.51,1.93,3.21,4.4,5.21,6.01-.38.18-.76.37-1.14.54-.99.45-2,.88-3,1.29-.59-.72-1.33-1.35-1.93-2.04-.84-.96-1.59-1.99-2.41-2.95-.35-.41-.96.11-.73.56.59,1.11,1.37,2.12,2.17,3.09.5.6,1.03,1.28,1.62,1.85-3.5,1.38-7.06,2.53-10.68,3.32-3.83.6-7.62.68-11.46.79ZM2.08,155.18c.07,4.49,1.63,8.71,5.69,11.44,3.9,2.62,8.6,3.31,13.36,2.93.42.37,1.13.31,1.45-.15.73-.09,1.46-.2,2.19-.34.3.16.72.12.95-.12,7.07-.82,14.06-3.59,20.28-6.74,8.41-4.27,15.97-10.01,22.86-16.42,14.91-13.86,27.37-30.56,39.8-46.61.09-.12.15-.25.2-.38.93.33,1.87.66,2.8,1-1.56,2.85-3.22,5.65-4.94,8.4-10.7,15.16-22.22,29.55-35.88,42.29-7.6,7.09-15.76,13.62-24.63,19.05-.52.32-1.05.64-1.58.96-8,4.37-17.28,8.26-26.27,8.15-5.58-.07-11.6-2.26-14.69-7.18-3.18-5.07-2.37-10.72-1.57-16.29Zm16.77-39.7c-.08-.07-.16-.14-.24-.21-.24-.24-.47-.48-.69-.73-.18-.2-.49.06-.36.28.18.32.38.61.63.88.1.1.21.22.32.33-.2.32-.4.65-.6.98-.59-.59-1.44-.95-1.93-1.62-.52-.7-1.16-1.32-1.83-1.9.42-.31.91-.56,1.45-.77.03.06.07.11.12.17.14.17.29.33.44.49.27.29.55.65.91.82.16.07.3-.07.23-.23-.17-.37-.53-.64-.82-.91-.14-.13-.29-.27-.44-.4-.03-.03-.06-.05-.1-.08.06-.02.12-.05.18-.07.31-.1.62-.18.94-.27.33.36.68.71,1.03,1.04.41.39.88.95,1.42,1.16-.22.35-.44.7-.67,1.06Zm10.68-15.15c-.61-.29-1.24-.54-1.86-.82-.46-.21-.91-.45-1.37-.66.23-.15.45-.3.67-.45.34.35.78.63,1.18.91.47.33.94.66,1.41.98-.01.01-.02.02-.03.04Zm-4.8,4.42s-.07-.04-.11-.06c-.36-.2-.75-.32-1.14-.47-.1-.04-.17.1-.1.17.18.17.36.33.54.49-.53.1-1.07.23-1.62.39-.31-.22-.64-.4-1-.53-.12-.04-.19.14-.09.2.22.14.43.3.64.45-.83.26-1.66.58-2.46.97-.08-.14-.21-.27-.4-.35-.38-.15-.75-.28-1.11-.48-.1-.06-.2-.12-.3-.18,1.02-.77,2.02-1.59,3.01-2.4.34.34.76.62,1.16.87.43.26.91.62,1.43.6.11,0,.22-.14.14-.24-.31-.42-.84-.59-1.29-.83-.38-.21-.77-.44-1.16-.62.33-.27.65-.53.98-.79.63.65,1.46,1.15,2.24,1.61.58.34,1.24.77,1.9,1.03-.41.03-.83.07-1.26.14Zm-4.96,9.27c-.28-.49-.82-.86-1.22-1.21-.29-.26-.59-.51-.9-.76.34-.09.68-.18,1.03-.26.29.3.57.61.88.89.2.18.42.45.67.64-.15.23-.3.47-.45.7Zm.81-1.26c-.19-.19-.42-.36-.6-.52-.23-.21-.47-.41-.71-.61.37-.09.74-.18,1.11-.27.16.13.33.25.49.39.08.07.15.14.22.22-.17.26-.34.52-.5.78Zm.82-1.26c-.07-.06-.14-.12-.2-.17-.05-.04-.11-.08-.17-.12.23-.06.45-.12.68-.17-.1.16-.21.31-.31.47Zm1.61-2.4c-2.65.16-5.82.93-8.13,2.61.51-.61,1.04-1.2,1.58-1.74,1.15-1.15,2.56-1.96,4.07-2.62,1.5-.45,3.06-.76,4.45-1.06-.67.93-1.32,1.87-1.97,2.82Zm3.58-5.01c-.36-.06-.82-.39-1.12-.54-.39-.2-.78-.41-1.17-.63-.69-.4-1.36-.87-2.07-1.23.22-.18.45-.35.67-.52.04-.03.08-.06.12-.08.25.28.79.51.99.63.88.54,1.98,1.35,3.01,1.53.23.04.45-.24.25-.43-.55-.52-1.35-.8-2.02-1.14-.36-.18-.71-.37-1.07-.54-.08-.04-.51-.19-.78-.31.33-.23.66-.46.99-.69.2.1.42.18.66.27.55.22,1.02.56,1.5.9.4.28,1.01.73,1.58.79-.52.66-1.03,1.33-1.53,2Zm2.04-2.66c-.06-.03-.12-.06-.2-.06-.06,0-.12.03-.16.07-.11-.03-.83-.42-.96-.49-.32-.19-.62-.4-.93-.6-.51-.31-1.04-.38-1.57-.52.35-.24.7-.47,1.05-.7.93.72,2.12,1.31,3.25,1.71-.16.19-.31.38-.47.58Zm1.95-2.37s-.01-.02-.02-.03c-.72-.52-1.4-1.07-2.15-1.56,1.4-.89,2.8-1.76,4.23-2.6.21-.11.41-.23.62-.33.88-.43,1.77-.84,2.66-1.24-1.87,1.82-3.65,3.75-5.34,5.75Zm23.78-7.36c-1.21-1.14-2.66-2.41-4.19-3.02.52-.1,1.04-.19,1.56-.28,0,0,0,0,0,0,.56.8,1.23,1.5,1.97,2.14.28.24.57.52.87.77-.07.13-.14.25-.22.38Zm.81-2.32s-.03-.03-.05-.04c.02,0,.04,0,.05,0,0,.01,0,.02,0,.04Zm-8.94.22s0,.02.01.03c.57.69,1.29,1.24,1.96,1.82.69.6,1.25,1.31,1.92,1.92.45.42,1.26-.13.89-.68-.87-1.32-2.51-2.77-4.12-3.27.61-.16,1.22-.3,1.83-.44.01.04.02.07.05.11.59.9,1.49,1.53,2.29,2.23.74.65,1.46,1.31,2.18,1.98-.24.3-.48.58-.74.85-.24-.19-.48-.39-.74-.57-.24-.16-.65.05-.61.35.05.4.23.75.48,1.04-.14.11-.28.21-.43.32-.38-.3-.77-.59-1.16-.88-.24-.18-.5-.35-.77-.49-.32-.16-.66-.2-.98-.35-.4-.18-.76.26-.47.6.41.48.67.97,1.18,1.38.26.21.53.4.79.6-.18.09-.34.2-.52.28-4.03,1.77-6.16-2.7-8.8-5.02,1.89-.7,3.81-1.32,5.75-1.84Zm12.94-3.25c-.06-.08-.15-.13-.28-.11-.32.05-.64.09-.96.14-4.59.15-9.13.88-13.55,2.47-2.92.79-5.77,1.83-8.52,3.27-.61.27-1.23.54-1.83.82-3.91,1.78-7.49,4.16-10.94,6.71-3.04,2.25-6.41,4.5-9.16,7.14-.03-.02-.06-.04-.1-.06,1.77-1.69,3.64-3.48,5.69-4.79.11-.07.01-.24-.1-.18-1.26.68-2.58,1.22-3.78,2-1.04.68-2,1.42-2.95,2.22-.09-.06-.19-.12-.28-.18,1.72-1.12,3.07-2.79,4.57-4.19.98-.91,2.14-1.38,3.22-2.13.89-.62,1.69-1.31,2.51-2.02.16-.14-.04-.35-.21-.27-2.28,1.11-3.76,2.68-5.81,4.05-1.74,1.16-3.72,2.2-5.05,3.86-.13-.16-.27-.31-.41-.46,2.67-2.37,5.39-4.64,8.31-6.73,2.87-2.06,5.97-3.79,8.78-5.93.17-.13.08-.47-.16-.38-6.44,2.71-12.46,7.61-17.76,12.19-.1-.09-.19-.2-.29-.29-.03-.02-.06-.03-.09-.05,5.84-6.29,14.23-10.75,21.88-14.41,4.58-2.19,9.31-3.91,14.18-5.08,6.14-.86,12.25-1.52,18.53-1.36,8,.2,15.99,1.5,23.79,3.24,7.7,1.72,15.25,4.03,22.69,6.63,7.56,2.64,14.92,5.91,22.51,8.42-.17,1.87,0,3.81.16,5.7-12.84-5.79-26.1-11.35-39.7-15.04-6.86-1.86-13.82-3.37-20.87-4.35-3.01-.42-5.94-.63-8.85-.67-1.73-.13-3.46-.19-5.19-.18Zm70.21,3.57c.69.25,1.38.51,2.07.76-.21.26-.38.58-.54.83-.31.48-.62.96-.92,1.45-.03.05-.05.09-.05.14-.08-.07-.18-.1-.29-.06-.69.26-1.08.99-1.48,1.58-.35.52-.64,1.07-.92,1.62-.6-.23-1.19-.47-1.79-.7,1.59-1.37,3.06-3.28,3.93-5.05.09-.19.07-.39-.01-.56Zm29.06,3.74c.1.09.17.16.21.22-.13.15-.24.3-.34.46.03-.23.06-.47.09-.7.01.01.03.02.04.03Zm6.21,10.66c-.71-1.2-1.81-2.13-3.39-2.57.03-.76,0-1.56-.08-2.39.06-.77.08-1.53.07-2.28,2.28.74,4.51,1.45,5.27,4.1.59,2.07.17,4.04-.51,5.96-.27-1.03-.74-2.01-1.36-2.83Zm-16.79,29.12c-.63-.91-1.53-1.66-2.22-2.53-.9-1.14-1.78-2.35-2.57-3.56-.18-.28-.57-.04-.44.26.61,1.42,1.28,2.68,2.19,3.93.72.97,1.45,2.14,2.48,2.8-.35.4-.84.74-1.49,1.01-1.72-2.36-3.59-4.63-5.38-6.93-.35-.45-1.14.15-.8.61,1.67,2.21,3.31,4.47,5.04,6.64-2.36.37-5.19-.73-7.34-1.32-.27-.07-.53-.16-.8-.24,0-.04-.02-.08-.05-.12-.7-1.27-2.14-2.24-3.14-3.29-1.12-1.17-2.36-2.3-3.37-3.56-.12-.15-.38.05-.27.21.9,1.33,1.67,2.7,2.72,3.92.58.67,1.22,1.5,1.93,2.2-1.31-.4-2.62-.82-3.92-1.27-.59-1.15-1.55-2.21-2.41-3.12-1.29-1.37-2.32-2.97-3.57-4.4-.32-.37-.83.16-.54.54,1.15,1.44,2.48,2.81,3.41,4.4.36.61.73,1.27,1.14,1.9-.43-.16-.86-.33-1.28-.51-.77-1.29-2.14-2.31-3.21-3.28-1.66-1.51-3.01-3.29-4.7-4.79-.11-.1-.31.03-.21.16,1.31,1.82,2.89,3.35,4.26,5.13.38.49.76,1.06,1.16,1.61-1.16-.51-2.32-1-3.51-1.41-.07-.04-.14-.09-.21-.14-2.23-2.62-4.5-5.15-6.62-7.88-.15-.2-.31-.4-.46-.6-.06-.46-.39-.86-.8-1.05-1.62-2.16-3.26-4.43-5.11-6.4.03-.08.08-.16.11-.24.03-.08.03-.16.04-.23,3.88,1.57,7.99,2.72,11.94,4.05,2.29.77,4.57,1.63,6.86,2.44,1.11,1.63,2.44,3.14,3.68,4.65.74.91,1.54,1.7,2.35,2.54,1.01,1.05,1.76,2.3,2.79,3.33.19.19.55-.06.38-.3-1.33-1.89-2.86-3.74-4.32-5.55-1.1-1.37-2.2-2.81-3.37-4.15,1.27.44,2.54.85,3.82,1.24.35.15.69.31,1.04.46.62.99,1.26,1.96,1.99,2.88.92,1.19,1.87,2.66,3.18,3.43.26.15.5-.14.39-.39-.6-1.31-1.83-2.38-2.75-3.48-.57-.67-1.15-1.33-1.72-1.99,1.48.62,2.96,1.23,4.43,1.84.68,1.48,1.92,2.96,3.21,3.82.24.16.53-.15.39-.39-.47-.76-1.04-1.39-1.61-2.08-.2-.25-.39-.5-.58-.76.12.05.24.1.36.15,1.15.49,2.59,1.23,3.94,2.17.02.05.05.09.09.13-.23-.09-.53.2-.37.45.7,1.08,1.36,2.17,2.13,3.2.56.76,1.09,1.77,1.88,2.32.04.53,0,1.05-.18,1.52ZM13.61,167.09c-.07.23-.15.46-.22.69-.02.07-.02.12-.02.18-.88-.21-1.75-.48-2.57-.82.42-.7.59-1.58.86-2.35.3-.86.43-1.72.63-2.59.02,0,.04.02.06.02.83.26,1.67.42,2.5.54-.25.41-.45.85-.64,1.27-.27.61-.7,1.38-.61,2.06.06.49.6.79,1,.41.5-.48.67-1.3.84-1.96.14-.53.3-1.12.34-1.69.44.03.88.06,1.32.06.23.02.46.02.69.03-.41.93-.64,1.96-.9,2.93-.2.75-.71,1.74-.61,2.56-.64-.06-1.27-.15-1.9-.27.02-.04.05-.06.06-.11.08-.23.16-.46.24-.69.23-.66-.84-.96-1.05-.29Zm116.43-73.69c.16.14.43.16.6-.06.34-.46.69-.92,1.03-1.39.21-.3.5-.6.64-.95.31.12.62.23.94.35-.72.75-1.31,1.71-1.85,2.55-.65,1.02-1.36,2.15-1.57,3.36-.6-.25-1.21-.5-1.82-.74.33-.36.65-.73.95-1.13.43-.58,1.05-1.26,1.09-2.01Zm-15.01-52.05s.07-.07.09-.11c.19.18.37.37.55.57-.17-.13-.35-.25-.54-.36-.04-.03-.07-.06-.11-.09Zm6.36,17.76c.51-.14,1.04-.24,1.56-.3.31-.04.62-.02.93-.02-.09.76-.21,1.52-.35,2.27-.34-.07-.69,0-1.07.05-.57.08-1.08.23-1.61.37.21-.79.39-1.58.55-2.38Zm-5.71,21.99c-.68-.12-1.37-.23-2.06-.33.24-.53.48-1.05.71-1.59.31.05.63.09.93.12.46.05.95.11,1.43.1-.29.58-.59,1.16-.89,1.74-.04-.02-.07-.04-.12-.05Zm4.54-9.28c-.57-.26-1.21-.23-1.86-.23-.33,0-.67.01-1.01.04.32-.84.63-1.68.94-2.52.43-.09.86-.18,1.29-.24.61-.09,1.23-.08,1.83-.13-.37,1.03-.77,2.06-1.2,3.08Zm-1.25,2.86c-.64-.17-1.37-.02-2.03,0-.25,0-.51.01-.76.02.26-.66.51-1.33.76-1.99.47.01.95.02,1.42.04.5.02.98.11,1.45.07-.27.63-.55,1.25-.83,1.87Zm-1.62,3.39c-.61-.17-1.29-.12-1.93-.15-.18,0-.37-.02-.56-.04.29-.7.58-1.39.86-2.1.4.07.81.11,1.21.14.44.03.94.1,1.42.08-.33.69-.66,1.38-1,2.07Zm4.42-10.31c-.99-.19-2.09-.03-3.1.32.16-.43.32-.86.48-1.29.12-.32.23-.65.35-.98.81.4,2.1.1,2.99-.31-.22.75-.46,1.51-.71,2.25Zm-10.09,13.65s.01,0,.02.01c-.08.25-.17.51-.25.76-.05-.01-.1-.02-.15-.04.13-.24.25-.49.38-.73Zm1.37.62c.67.23,1.37.37,2.06.43-.1.2-.21.4-.31.6-.66-.18-1.31-.37-1.97-.54.08-.16.14-.33.22-.49Zm7.63-19.97c.62.05,1.21.13,1.85.1.26-.01.55,0,.81-.05-.14.68-.3,1.35-.48,2.02-.11-.04-.23-.06-.37-.01-.62.19-1.2.44-1.82.61-.28.08-.59.14-.87.24.32-.96.62-1.93.89-2.9Zm21.21,57.47c-.16-.96-.5-1.91-.74-2.83-.31-1.22-.52-2.53-1.04-3.68-.07-.15-.32-.11-.35.05-.22,1.26-.02,2.62.14,3.89.08.64.15,1.33.28,2-.48-.19-.96-.42-1.43-.68-.08-.42-.2-.85-.26-1.27-.11-.69-.18-1.39-.26-2.08-.03-.3-.41-.35-.52-.07-.28.73-.43,1.65-.36,2.52-.47-.35-.85-.73-1.15-1.14-.05-1.67-.25-3.37-.36-5.04-.07-.96-.09-1.93-.25-2.87.5.66,1.06,1.25,1.57,1.7.75.65,2.39,1.8,3.81,2.09.64.71,1.1,1.56,1.3,2.7.29,1.62.29,3.29.47,4.93-.29-.07-.57-.14-.84-.21Zm-23.28,9.15c-.53.22-1.04.52-1.53.9-.28-.21-.55-.42-.81-.62-.82-.64-1.69-1.19-2.62-1.66-.22-.11-.37.18-.19.32.87.67,1.73,1.35,2.56,2.06.15.13.29.27.44.41-.78.72-1.5,1.58-2.16,2.42-1.59-1.31-3.25-2.57-4.74-3.97,1.47-1.85,2.89-3.73,4.28-5.64,1.44,1.94,2.92,4.15,4.81,5.73-.02.02-.03.04-.05.06Zm-36.66,39.53c-.38-.31-.83-.56-1.22-.8-.86-.51-1.45-1.33-2.22-1.97-.43-.36-1.05.27-.62.62.33.27.68.62,1.05.82.47.26.84.39,1.21.79.36.38.72.83,1.14,1.18-.74.71-1.47,1.42-2.21,2.12-.63.6-1.26,1.19-1.88,1.79-.09-.08-.19-.15-.27-.23-.66-.59-1.32-1.18-1.99-1.77-.33-.29-.8.18-.48.48.64.61,1.28,1.22,1.93,1.83.08.07.16.15.24.24-1.13,1.07-2.28,2.13-3.43,3.18-1.08-1.02-2.3-1.95-3.25-3.06-.24-.28-.7.08-.5.39.79,1.22,1.54,2.64,2.52,3.8-.15.13-.29.27-.44.4-.74.66-1.57,1.3-2.39,1.96-.1-.11-.21-.22-.31-.32-.32-.31-.67-.59-1-.89-.18-.16-.48.05-.34.26.24.37.45.76.69,1.13.07.11.16.25.26.38-.52.43-1.03.86-1.52,1.31-1.62,1.04-3.26,2.05-4.94,2.99-1.85-2.01-3.55-4.08-5.31-6.18,1.03-.61,2.04-1.24,3.05-1.89.54.94,1.19,1.81,1.86,2.66.81,1.02,1.64,2.26,2.79,2.93.31.18.72-.19.51-.51-.69-1.06-1.78-1.86-2.62-2.8-.74-.82-1.41-1.7-2.11-2.56,1.27-.83,2.52-1.68,3.75-2.56,0,.05,0,.1.03.15.76,1.64,1.44,3.34,2.9,4.48.15.12.47.02.38-.22-.67-1.67-1.88-3.01-2.77-4.56-.04-.07-.09-.11-.15-.13,2.06-1.49,4.08-3.04,6.05-4.64.34-.27.66-.56,1-.84.27.08.58-.16.52-.44,1.38-1.15,2.74-2.33,4.07-3.52.03.02.05.04.08.05.31.18.69-.18.5-.5,0-.02-.02-.03-.03-.04,1.16-1.05,2.31-2.12,3.45-3.2,1.74,1.54,3.55,3.02,5.45,4.33-1.14,1.12-2.28,2.24-3.42,3.35Zm41.66-82.53c.04-.1.09-.19.14-.29-.01.06-.03.11-.04.17,0,.05,0,.1,0,.14-.03,0-.06-.02-.09-.03Zm22.68-32.52c.16.29.31.57.47.86.81,1.51,1.64,3.03,2.54,4.48.52.9,1.03,1.82,1.57,2.71.01.02.03.03.04.05-.05.49-.11,1.01-.12,1.52-.95-2.96-2.36-5.75-4.25-8.33-.13-.18-.29-.27-.47-.33-.1-.17-.22-.32-.33-.49.17-.14.33-.27.5-.41.02-.01.03-.03.05-.05Zm9.48,59.76c.09-.57.17-1.13.25-1.7,0,0,.02-.01.02-.02.11-.11.1-.25.03-.36.09-.61.19-1.22.27-1.84.11-.02.23-.06.33-.17,0,0,0,0,.01-.01.05,0,.1-.01.15-.03-.31,1.12-.54,2.31-.52,3.45-.19.23-.37.45-.55.67Zm3-6.03s.04.03.06.04c-.04.05-.08.1-.12.15-.03-.04-.07-.07-.11-.1.04-.04.08-.08.11-.11.02,0,.03.02.05.02Zm-29.58-27.05c1.19.85,2.41,1.67,3.66,2.45.13-.29.26-.57.39-.85-1.21-.83-2.44-1.61-3.69-2.36.14-.3.28-.59.41-.87.44-.93.85-1.88,1.24-2.83.95.73,1.91,1.44,2.89,2.13.22.15.44.32.66.48-.95,2.58-1.99,5.12-3.12,7.64,0-.03.01-.06.02-.08-1.05-1.21-2.51-2.13-3.93-2.89.55-.91,1.02-1.88,1.46-2.81Zm9.49,11.62c-1.29-.57-2.59-1.11-3.9-1.65.16-.31.31-.62.46-.93.36.26.72.51,1.1.76.88.57,1.75,1.32,2.68,1.88-.03.02-.06.05-.09.07-.06-.03-.13-.05-.19-.08-.02-.01-.04-.03-.06-.05Zm15.69-40.27c.7-1.2,1.74-2.12,2.98-2.56.1-.02.2-.03.3-.04.39,0,.78.02,1.17.09.7.11,1.31.33,1.98.6.22.09.59.23.97.43.27.24.49.51.68.8,0,.01-.01.02-.01.04-.42,2.34-6.03,2.36-8.07.66Zm2.5-3.27h0s.03,0,.05,0c-.01,0-.03,0-.04,0Zm-10.12,12.6c-.45-.31-.89-.64-1.34-.95-.47-.33-.92.37-.58.76.5.58,1.1,1.04,1.73,1.48.27.19.54.36.82.5.22.71.4,1.45.56,2.2-.33-.19-.68-.37-1.01-.55-.93-.51-1.88-.98-2.83-1.45-.54-.26-.99.48-.47.81.89.57,1.79,1.13,2.71,1.66.6.35,1.21.76,1.88.95.02.11.04.21.05.32.1.71.17,1.41.22,2.11-.62-.35-1.27-.67-1.87-1.06-.96-.63-1.91-1.24-2.91-1.8-.13-.07-.27.1-.16.21.79.81,1.58,1.48,2.5,2.14.84.6,1.62,1.31,2.51,1.85.04,1.4-.02,2.78-.18,4.15-.38-.32-.73-.65-1.07-1.01-.53-.56-1.35.27-.84.84.49.56,1.07,1.19,1.71,1.67-.19,1.21-.45,2.4-.75,3.58-.07-.03-.13-.07-.19-.1-1.05-.59-2.19-.81-3.24-1.35-.24-.12-.42.2-.21.35.98.67,1.72,1.57,2.74,2.21.17.1.34.22.51.34-.34,1.16-.72,2.31-1.14,3.46-.04-.14-.14-.27-.32-.35-1.67-.73-3.28-1.45-4.8-2.47-.49-.33-.92.44-.45.78,1.45,1.05,2.96,2.09,4.58,2.83.28.13.54.05.73-.1-.46,1.22-.95,2.43-1.46,3.65-.34-.48-.96-.75-1.45-1.05-.83-.49-1.68-.92-2.52-1.38-.45-.25-.83.41-.4.69.8.53,1.59,1.07,2.41,1.58.53.32,1.07.78,1.69.81-.01.03-.03.06-.04.09-1.35.42-2.63,1.05-3.8,1.84-.85-.78-1.94-1.36-2.9-1.97-.49-.31-.97-.58-1.46-.83.48-1.02.94-2.06,1.38-3.12.18.1.36.21.53.32.28.17.51-.25.25-.43-.19-.14-.39-.28-.58-.42,1.11-2.79,2.06-5.68,2.89-8.57.12.06.23.13.35.19.82.45,1.48,1.1,2.34,1.46.22.09.47-.16.27-.35-.49-.46-1.01-.7-1.57-1.07-.42-.28-.81-.61-1.19-.94.45-1.64.87-3.27,1.25-4.89.59.33,1.18.64,1.8.86.27.1.43-.27.26-.45-.52-.58-1.13-1.11-1.77-1.6,1.07-4.51,2.58-9.89,1.5-14.58,1.35,1.92,2.48,3.96,3.34,6.16Zm-2.22,58.35c.08-.88-.05-1.78-.17-2.67-.02-.27-.05-.54-.09-.81,0-.05-.01-.11-.02-.16-.07-.88-.12-1.77-.23-2.66.05-.34.13-.69.26-1.02.05-.14.13-.25.2-.37.05-.03.11-.06.16-.1.85-.64,1.56-1.69,2.22-2.72-.02.35-.03.67,0,.92-.07,1.3,0,2.62.03,3.92.07,2.74-.93,4.11-2.31,6.19-.01-.17-.02-.34-.04-.5Zm8.14-70.16c-.06.31-.08.63-.04.99,0,.07.05.11.1.13-.16.3-.3.61-.43.93-.26-.42-.52-.85-.77-1.28.39-.24.77-.5,1.14-.78Zm-13.13,19.41c.61-2.42,1.14-4.93,1.4-7.44.44-3.2.54-6.71-.36-9.68.29.29.6.57.89.85.01.01.02.03.03.04,1.46,6.68-.08,13.38-2.12,19.84-1.86,5.88-4.34,11.54-6.83,17.18-.18-.07-.37-.14-.55-.21,3.15-6.6,5.75-13.47,7.53-20.57Zm10.22,26.08c-2.04-.43-4.82-.18-6.67,1.14-.18.12-.35.26-.52.4,0,0-.02.01-.03.02-.79.67-1.42,1.54-1.76,2.58-1.23,3.76,1.55,6.94,4.92,8.14.03.19.13.33.27.43,0,0,0,.01-.01.02-1.52,1.53-2.75,2.78-5.24,2.05-2.31-.67-3.91-1.67-5.1-3.41-.58-1.24-.87-2.64-.86-4.08.35-2.56,1.58-5.07,3.28-6.74,3.2-3.16,7.78-3.98,12.1-3.55-.12,1-.25,2-.38,3.01Zm10.44-30.19c.27-3.08.71-6.38.31-9.42-.03-.19-.29-.26-.35-.05-.97,3.11-1.04,6.67-1.33,9.91-.33.09-.66.16-.99.18.05-.41.02-.86.04-1.26.03-.7.09-1.4.28-2.07.11-.39-.47-.54-.59-.16-.34.99-.92,2.34-.74,3.47-1.09-.1-2.48-.45-3.53-1.04-.23-.29-.4-.64-.51-1.02.18-1.35.26-2.72.4-4.06.21-2.01.52-4.03.63-6.05.69.44,1.68.67,2.48.82.63.17,1.22.27,1.6.31.42.05.93.08,1.47.08,1.24.04,2.53-.11,3.41-.75.13-.08.25-.17.36-.26-.56,2.06-.67,4.32-.97,6.39-.18,1.21-.26,2.5-.61,3.68-.12.41-.28.75-.46,1.06-.3.06-.59.15-.89.25Zm5.75-13.23s.02-.09.03-.13c.02-.09.06-.18.1-.26.03-.07.07-.13.11-.19.03-.04.06-.08.09-.12.06-.07.12-.13.2-.19.03-.03.07-.05.1-.07.08-.05.17-.09.26-.12.05-.01.09-.03.14-.04.05,0,.09-.03.14-.03.14,0,.3,0,.46.04.13.04.27.07.4.1h0c.62.16,1.24.31,1.87.46h0c.2.05.4.1.59.15,0,0,0,0,0,0,.17.04.34.08.51.12.06.02.13.03.19.04.65.15,1.31.29,1.96.44,0,0,0,0,0,.01.42.09.85.18,1.27.27-.14.08-.29.15-.43.23-.88.46-1.8.91-2.74,1.36-1.67-.53-3.4-1.28-5.14-1.29,0-.02-.02-.03-.02-.05-.03-.09-.06-.18-.07-.27,0-.04-.02-.09-.02-.13,0-.1,0-.21.02-.31,0-.01,0-.02,0-.03Zm1.92,2.67c-.22.4-.44.81-.65,1.21-.08.15-.16.29-.24.44-.2.13-.4.27-.6.4-.02-.47-.06-.94-.12-1.4,0-.57.02-1.16.02-1.75.48.41,1,.78,1.59,1.1Zm-1.31,4.69c.06.02.11.05.17.06,0,0,0,0-.01,0-.08.07-.12.14-.17.21,0-.09,0-.19,0-.28Zm-13.35-12c-.87.68-1.7,1.37-2.38,2.21-.24-.41-.49-.82-.73-1.24.76-.42,1.49-.93,2.22-1.39.13-.08.25-.15.38-.23.21.19.42.37.64.55-.04.03-.09.07-.13.1Zm-1.78-1.92s.03.04.05.05c-.74.52-1.44,1.09-2.02,1.72-.2-.34-.39-.68-.59-1.03.78-.29,1.52-.69,2.25-1.11.1.12.21.25.31.37Zm-11.94,7.57c.62,3.39.44,6.79-.14,10.17-.49-.27-.98-.53-1.51-.75-.27-.11-.52.32-.29.5.53.42,1.08.82,1.63,1.19-.24,1.24-.53,2.47-.85,3.7-.36-.22-.74-.44-1.09-.65-.5-.3-.89.43-.45.77.4.31.83.63,1.25.95-.14.51-.28,1.02-.42,1.53-.29,1.03-.63,2.05-.95,3.08-.53-.35-1.07-.69-1.61-.99-.35-.2-.76.29-.44.57.55.51,1.14.97,1.75,1.42-.38,1.18-.78,2.34-1.2,3.5-1.19-.8-2.4-1.57-3.63-2.3.86-2.2,1.59-4.45,2.14-6.73.81-3.37,1.36-7.04,1.44-10.51.03-1.16.08-2.42.09-3.71.02-.83,0-1.66-.05-2.49-.09-1.66-.3-3.28-.81-4.69-.01-.04-.03-.06-.05-.1-.27-.87-.61-1.71-1.02-2.52,1.65,1.48,3.2,3.08,4.76,4.69.56,1.1,1.06,2.21,1.44,3.37Zm-12.23,31.57c1.35.96,2.68,2.02,4.11,2.81-.29.65-.58,1.29-.89,1.93-1.9-.72-3.81-1.4-5.74-2.05.98-.68,1.8-1.63,2.51-2.7Zm7.42,8.54c-1.09,2.01-2.15,4.02-3.05,6.11-.35-.15-.71-.29-1.06-.44.79-.8,1.34-1.83,1.97-2.75.67-.98,1.52-1.9,2.11-2.93,0,0,.02,0,.02,0Zm-.21,3.86c-.05.12-.11.23-.16.35-.3.76-.8,1.87-.69,2.77-.38-.17-.77-.34-1.15-.51.73-.82,1.4-1.69,2.01-2.61Zm-33.42,26.35c1.26,1.55,2.87,2.97,4.53,4.22-1.07,1.27-2.15,2.55-3.23,3.81-.17-.13-.35-.25-.51-.38-1.4-1.08-2.79-2.19-4.21-3.24.9-1.17,1.8-2.34,2.69-3.52.23-.31.48-.62.72-.93,0,.01,0,.02.01.03Zm5.92,12.79c.72.83,1.64,1.42,2.44,2.16.23.21.46.43.69.65-1.15,1.42-2.3,2.84-3.48,4.24,0,0-.02,0-.03,0l-.44-.23c-.53-.27-.96.46-.47.8.09.06.19.13.28.2-1,1.17-2,2.33-3.02,3.49-1.88-1.19-3.98-2.14-5.84-3.28,1.16-1.26,2.31-2.52,3.46-3.79.49.28.99.51,1.5.61.24.05.52-.22.35-.45-.29-.39-.65-.74-1.03-1.06,1.29-1.45,2.56-2.92,3.82-4.4.19.09.39.17.58.24.33.11.67-.31.46-.6-.11-.16-.24-.3-.36-.45,1.11-1.32,2.2-2.64,3.27-3.98,1.6,1.32,3.06,2.79,4.54,4.24-.21.27-.42.53-.62.78-.85,1.04-1.68,2.08-2.52,3.12-.29-.15-.57-.3-.84-.48-.91-.59-1.57-1.43-2.36-2.16-.26-.24-.61.12-.38.38Zm-9.07,16.89c-.54-.48-1.29-.82-1.84-1.23-.9-.68-1.88-1.3-2.67-2.1-.13-.13-.37.04-.26.2.66,1,1.24,1.98,2.19,2.75.5.41,1.12.96,1.78,1.26-1.03,1.11-2.07,2.23-3.11,3.33-.37-.3-.74-.6-1.08-.89-.8-.68-1.61-1.29-2.31-2.08-.13-.14-.36.04-.26.2.78,1.24,1.6,2.7,2.71,3.77-.01.01-.02.02-.03.03-1.08,1.15-2.18,2.28-3.28,3.41-.58-.38-1.2-.72-1.72-1.06-1.38-.89-2.36-2.05-3.42-3.28-.03-.03-.06-.05-.09-.07,1.34-1.33,2.66-2.68,3.97-4.03.42.35.86.69,1.31,1.01.14.1.29-.11.18-.23-.37-.4-.75-.77-1.15-1.13,1.52-1.57,3.04-3.15,4.54-4.73,1.06-1.11,2.11-2.24,3.16-3.36.03.04.06.08.11.11,1.73,1.15,3.42,2.6,5.21,3.78-1.3,1.46-2.61,2.91-3.94,4.34Zm-11.69,12.22c-1.81-1.44-3.64-2.87-5.44-4.32,1.09-1.05,2.18-2.1,3.25-3.17.02.04.03.07.06.11,1.07,1.2,2.32,2.24,3.46,3.38.4.4.88.85,1.4,1.25-.91.92-1.81,1.84-2.73,2.76Zm-32.86,10.59c-1.11-1.41-2.23-2.81-3.42-4.14.95-.54,1.88-1.09,2.79-1.63.03-.02.06-.04.09-.05.95,1.49,2,2.94,3.22,4.21-.89.55-1.78,1.09-2.69,1.61Zm43.7-47.32c1.36,1.28,2.8,2.46,4.25,3.63.08.06.16.13.23.2-1.26,1.47-2.52,2.94-3.8,4.39-1.43-1.22-2.76-2.55-4.18-3.78,1.17-1.47,2.34-2.95,3.49-4.44Zm-28.84,36.39c-1-1.06-1.92-2.19-2.9-3.26,1.24-.94,2.47-1.9,3.67-2.89,1.05,1.25,2.19,2.43,3.35,3.57-.88.74-1.77,1.48-2.67,2.21-.34.28-.69.54-1.04.82-.14-.15-.29-.29-.43-.44Zm16.79-21.73c.66,1.02,1.71,1.93,2.54,2.64.36.31.75.62,1.14.92-.97,1.03-1.95,2.04-2.94,3.05,0,0,0-.02,0-.02-1.11-1.22-2.42-2.28-3.71-3.33,1.01-1.07,2-2.16,2.98-3.26Zm.35,7.01c-1.37,1.39-2.75,2.77-4.15,4.13-.62-.59-1.28-1.15-1.91-1.73-.57-.53-1.13-1.06-1.69-1.6,1.31-1.29,2.6-2.6,3.86-3.94,1.14,1.24,2.42,2.38,3.9,3.14Zm-12.09,11.35c-1.19-1.13-2.41-2.25-3.71-3.26,1.07-.89,2.13-1.8,3.18-2.73.56.49,1.2.97,1.93,1.08.24.04.53-.21.36-.46-.38-.54-.94-.94-1.46-1.36,1.15-1.04,2.27-2.11,3.38-3.18,1,1.27,2.23,2.48,3.58,3.33-2.36,2.26-4.78,4.46-7.27,6.59Zm19.89-28.06c1.1,1.53,2.45,2.85,3.87,4.08-2.4,2.74-4.84,5.44-7.33,8.1-.46-.32-.91-.64-1.33-.99-.85-.71-1.65-1.69-2.54-2.41.95-1.08,1.9-2.18,2.83-3.29.98.83,1.98,1.69,3.06,2.35.35.21.72-.27.44-.56-.88-.89-1.93-1.66-2.96-2.42.97-1.16,1.94-2.32,2.89-3.5.36-.45.71-.9,1.07-1.35Zm-36.05,40.09c-1.14-1.35-2.3-2.69-3.35-4.11,1.07-.65,2.14-1.31,3.19-1.98.34.5.79.96,1.08,1.31.76.92,1.52,1.81,2.32,2.67-1.07.72-2.15,1.43-3.24,2.12Zm4.4-2.92c-.21-.26-.42-.51-.65-.77-.27-.3-2.02-2-2.88-3.06.97-.63,1.93-1.28,2.88-1.93.98,1.34,2.08,2.69,3.29,3.9-.87.63-1.75,1.25-2.63,1.87Zm.15-6.33c.95-.67,1.9-1.35,2.83-2.05.81,1.37,1.84,2.75,2.99,4-.76.59-1.52,1.17-2.29,1.74-1.07-1.33-2.3-2.58-3.52-3.69Zm51.65-62.64s.02,0,.03,0c-.03.03-.05.06-.08.09.02-.03.04-.07.06-.1Zm1.09,3.24c.6.96,1.73,1.78,2.48,2.51.5.49,1,1.01,1.52,1.51-.76-.27-1.53-.54-2.29-.83-1.03-.39-2.05-.84-3.08-1.22.49-.64.97-1.3,1.38-1.97Zm7.29,2c.44.38.88.77,1.31,1.16-.45.65-.9,1.29-1.36,1.94-.18-.06-.35-.11-.53-.17,0-.01-.01-.03-.02-.04-.21-.25-.44-.49-.67-.72.37-.65.73-1.3,1.08-1.95.06-.07.13-.15.19-.22Zm2.92,2.66c.65.61,1.3,1.22,1.99,1.79-.95-.22-1.9-.46-2.84-.71.3-.36.58-.73.85-1.08Zm7.49-.1s-.04.06-.06.1c-.15-.12-.31-.24-.46-.36.18.08.36.16.54.24,0,.01-.02.01-.02.02Zm-2.83-.46c.65.59,1.34,1.24,2.06,1.81-.27.47-.53.95-.81,1.42-1.74-1.17-3.38-2.53-4.99-3.92.32-.45.62-.91.92-1.37.36.16.73.31,1.1.47.56.55,1.15,1.08,1.72,1.59Zm-6.16-3.01c.13.06.23.26.34.35.15.13.32.24.5.34,0,0,0,0,0,0-.04.05-.08.11-.11.16-.41-.35-.82-.68-1.23-1.02.11-.13.22-.25.33-.38.05.02.1.04.15.06-.15.13-.2.38.02.48Zm-1.62-1.06c-.06-.05-.13-.1-.19-.15.07.03.15.06.22.09-.01.02-.02.04-.03.06Zm-.67,1.24s-.02.03-.03.05c-.35.44-.71.88-1.06,1.33-.13.16-.27.33-.4.49-.61-.55-1.24-1.07-1.83-1.6-.79-.7-1.68-1.79-2.69-2.26.29-.55.52-1.11.69-1.68.62.24,1.24.46,1.85.7,1.13,1.02,2.31,1.99,3.48,2.97Zm-71.79,66.02c.81,1.57,1.78,3.06,2.84,4.49-.84.47-1.68.93-2.53,1.38-1.13-1.38-2.24-2.78-3.33-4.19,1.02-.55,2.03-1.11,3.03-1.67Zm-28.94,15.73c2.03.28,4.12.21,6.16-.01,4.28-.46,8.53-1.53,12.59-2.95,8.66-3.02,16.6-7.82,23.95-13.25,15.39-11.37,29.25-25.21,41.5-39.88,2.09-2.5,4.12-5.05,6.08-7.64.52-.62,1.03-1.24,1.55-1.86.2.14.36.32.48.54-.43.58-.85,1.15-1.28,1.72-12.27,14.71-24.44,29.5-39,42.05-7.64,6.1-15.88,11.45-24.88,15.73-9.28,4.41-19.52,7.99-29.85,5.88-.24-.24-.47-.47-.71-.71,1.13.19,2.28.31,3.43.36Zm88.88-64.54c-.41-.35-.83-.69-1.24-1.03-.99-.84-1.96-1.8-3.14-2.34-.16-.07-.38.09-.26.26.71,1.09,1.78,1.88,2.75,2.73.43.37.86.77,1.3,1.15-.16.21-.33.43-.49.64-.5.6-1.01,1.2-1.51,1.8-1.52-1.44-3.19-2.78-4.99-3.71,0,0-.02,0-.03,0,1.94-2.42,4.17-4.98,5.63-7.7,1.26,1.91,2.72,3.75,4.16,5.54-.75.86-1.48,1.75-2.19,2.66Zm37.45-2.52c.62-.82,1.2-1.64,1.62-2.55.37-.58.64-1.17.74-1.74.1-.55.04-1.12-.04-1.7.33.1.66.21.98.32-.17.1-.2.35,0,.5.81.6,1.69,1.08,2.51,1.67.13.1.27.21.4.33-.17.18-.33.36-.5.55-.9-.61-1.95-1.04-2.93-1.24-.38-.08-.65.45-.28.66.67.37,1.35.74,1.99,1.16.15.1.28.21.42.31-.19.22-.38.44-.56.66-.09-.06-.18-.11-.26-.16-.7-.45-1.57-.95-2.43-.91-.21,0-.34.27-.18.43.56.55,1.33.87,1.98,1.31.08.05.15.11.23.17-.12.16-.24.31-.35.47-.67-.5-1.52-.85-2.36-.8-.3.02-.49.47-.17.62.66.32,1.32.6,1.9,1.06,0,0,.02.02.03.03-.05.09-.1.17-.15.26-.81-.62-1.7-1.1-2.58-1.39Zm12.69-23.73c-.07.13-.07.29.04.39,0,.09.02.17.02.26-.07.91-.02,1.83.01,2.73.02.6.02,1.22.06,1.83-.06.68-.1,1.37-.08,2.04-.54,1.41-1.71,2.5-2.55,3.78.5-3.59.98-7.17,1.44-10.77.23-.21.45-.44.66-.67.09-.11.22-.23.35-.37.02.25.03.51.05.77Zm-11.19,8.97s-.04-.05-.06-.07c-.12-.1-.26-.17-.4-.22.3-1.51.57-3.04.78-4.59-.63-.1-1.26-.11-1.86,0-.29,1.41-.5,2.84-.62,4.24-.2-.04-.39-.1-.56-.19-.08-.04-.15-.1-.23-.15.1-.39.11-.84.14-1.2.06-.65.14-1.44-.2-2.03-.02-.03-.04-.05-.07-.07-.17.11-.33.24-.49.38-.19.51-.19,1.13-.26,1.65-.02.15-.05.31-.09.47-.11-.13-.21-.28-.3-.42.06-.41.1-.81.13-1.22-.23.16-.47.21-.7.2-.07,0-.15-.01-.22-.03-.06-.01-.11-.03-.16-.05-.07-.03-.13-.05-.19-.09-.06-.03-.11-.08-.16-.12-.05-.04-.1-.08-.14-.12-.02-.02-.05-.05-.07-.07-.07-.08-.14-.17-.19-.26,0,0,0-.01,0-.02-.07-.32-.1-.64-.11-.97.01-.04.02-.08.03-.13.01-.03.03-.06.04-.09.06-.12.13-.23.23-.34.11-.12.23-.21.34-.32.12-.12.25-.23.39-.34.11-.09.22-.18.33-.25.03-.02.06-.04.09-.06.14-.09.28-.17.42-.25.12-.07.24-.14.37-.19.42-.2.85-.35,1.29-.46.16-.04.31-.07.47-.1.5-.09,1.02-.13,1.53-.12.1,0,.2,0,.3,0,.53.03,1.06.11,1.58.22-.06.45-.11.9-.18,1.35-.27,1.94-.81,4-1.2,6.04Zm4.16-64.65c-.14,1.71,2.43,3.35,3.64,4.16.63.43,1.43.91,2.3,1.33-.69-.01-1.42.06-2.12.23-.02-.01-.02-.03-.04-.04-1.26-.76-2.39-1.67-3.42-2.72-.69-.71-1.26-1.57-2.01-2.21.55-.26,1.1-.51,1.65-.75Zm-1.96,2.29c-.68.39-1.35.79-1.95,1.28-.23-.41-.47-.83-.7-1.24.76-.34,1.5-.84,2.19-1.2.09.41.24.8.46,1.16Zm-20.73-21.45c.19-.04.35-.18.44-.36.61-.04,1.23-.09,1.84-.13.69.54,1.24,1.19,1.64,1.94.47.71.87,1.51,1.3,2.25.34.59.67,1.17,1.01,1.76.12.23.24.46.36.68,1.75,3.37,3.56,6.71,5.37,10.05,1.72,3.18,3.46,6.35,5.21,9.52,1.53,2.76,2.97,5.78,4.86,8.33,0,.13-.01.26-.02.39-.15.97-.25,1.95-.32,2.91-3.78-8.27-8.93-16.13-13.61-23.87-2.48-4.11-4.81-8.43-7.57-12.36-.19-.27-.39-.54-.6-.81.03-.1.07-.21.1-.31Zm16.47,31.37c-.21.15-.42.32-.62.5-.54-.72-1.12-1.41-1.74-2.08.36-.13.83-.31,1.16-.59.4.73.8,1.45,1.2,2.18Zm-24.25,32.63c-.14-.04-.28-.08-.41-.13.73-.93,1.41-1.94,2.02-3.02-.54,1.05-1.07,2.1-1.61,3.14Zm-18.62,17.06c-.06-.1-.14-.19-.26-.27-.69-.46-1.4-.88-2.12-1.29.21-.24.42-.49.63-.73.03.02.06.04.08.06.66.49,1.49,1.09,2.31,1.33-.21.3-.43.6-.64.89Zm-1.65,2.29c-.05-.19-.15-.36-.34-.48-.71-.46-1.48-.82-2.21-1.26.26-.3.52-.6.78-.91.75.54,1.52,1.05,2.32,1.52.07.04.14.05.21.07-.25.35-.51.7-.76,1.05Zm-9.41,12.36c0-.05,0-.11,0-.16-.15-.89-1.29-1.33-1.96-1.81-.35-.25-.71-.5-1.06-.75.51-.58,1.03-1.15,1.54-1.73.3.26.61.51.92.77.66.55,1.33,1.43,2.17,1.68-.53.67-1.06,1.33-1.6,2Zm-11.25,12.65c-.49-.5-.96-1.01-1.41-1.54-.42-.5-.77-1.12-1.21-1.62.54-.6,1.07-1.2,1.6-1.8.21.26.42.52.61.76.62.78,1.32,2.02,2.36,2.24.09.02.18.02.27.02-.66.74-1.32,1.47-1.99,2.2-.08-.08-.16-.16-.25-.25Zm2.47-3.69c-.27-.22-.48-.51-.71-.77-.5-.55-1.04-1.2-1.63-1.78.37-.41.73-.82,1.1-1.23.28.28.58.54.88.79.82.67,1.77,1.54,2.85,1.63-.62.72-1.24,1.45-1.87,2.16-.03-.18-.13-.34-.27-.53.27.4-.21-.16-.35-.27Zm3.17-2.46c-.58-.85-1.67-1.28-2.49-1.88-.29-.21-.56-.43-.84-.65.69-.77,1.37-1.56,2.07-2.33.3.28.6.56.92.84.64.57,1.35,1.5,2.27,1.48.3,0,.66-.28.62-.62-.12-1.01-1.09-1.53-1.83-2.15-.31-.26-.61-.5-.92-.75.57-.64,1.14-1.29,1.71-1.94.36.33.74.65,1.14.95.7.53,1.53,1.39,2.46,1.18-1.64,2.05-3.32,4.07-5.02,6.07-.02-.07-.04-.14-.09-.2Zm6.26-11.56c-.32-.24-.65-.48-.99-.69.46-.53.94-1.05,1.4-1.58.37.38.75.73,1.18,1.07.48.38,1.09.92,1.72,1.2-.47.61-.94,1.23-1.42,1.84-.37-.77-1.24-1.34-1.9-1.84Zm2.58-2.67c-.38-.26-.75-.54-1.12-.82.61-.7,1.2-1.4,1.8-2.1.25.16.5.33.76.49.69.45,1.32,1.07,2.03,1.47-.53.71-1.05,1.41-1.58,2.12-.55-.48-1.39-.81-1.89-1.16Zm1.76-4.17c.28-.32.55-.64.83-.96.06.04.12.08.17.12.78.53,1.59,1.06,2.47,1.39.07.03.13.03.2.03-.32.44-.64.87-.96,1.3-.68-.8-1.66-1.44-2.7-1.88Zm5.5-6.4c.17-.2.34-.39.51-.59.02.01.05.03.07.04.72.4,1.45.78,2.19,1.14-.18.25-.36.5-.54.76-.61-.57-1.49-.94-2.23-1.34Zm3.68-.48c-.3-.16-.6-.3-.9-.45.33.11.66.22.99.33-.03.04-.06.08-.09.11Zm-6.46.36s0,0,0,0c0,0,0,.01-.01.02,0,0,0-.01.01-.02Zm-22.75,29.21c.31.54.71,1.05,1.05,1.49.44.58,1.04,1.49,1.76,1.98-.42.46-.86.9-1.29,1.35-.57-.89-1.37-1.66-2.05-2.47-.23-.28-.48-.62-.75-.93.43-.47.86-.95,1.28-1.43Zm-1.89,3.6c.65.88,1.32,1.8,2.19,2.48-.55.57-1.1,1.15-1.66,1.72-.37-.89-1.47-1.65-2.1-2.35-.21-.23-.45-.56-.7-.9.55-.59,1.1-1.19,1.65-1.79.21.31.44.59.62.84Zm-2.95,2.91c.56.77,1.45,2.07,2.44,2.35-.68.68-1.4,1.33-2.09,2-.42-.94-1.14-1.81-1.75-2.64-.21-.29-.42-.57-.64-.84.51-.52,1.02-1.05,1.53-1.58.19.27.37.51.51.71Zm-22.79,22.9c-.16-1.03-.55-2.05-.79-3.04-.18-.73-.33-1.48-.56-2.21.56-.31,1.11-.63,1.66-.95.05.17.1.33.15.49.34,1.21.65,2.56,1.54,3.48.33.35.85.06.89-.37.1-1.28-.51-2.58-.91-3.77-.07-.21-.14-.44-.21-.66.3-.18.59-.36.89-.54.13.42.27.83.42,1.24.41,1.09.77,2.34,1.52,3.24-1.51,1.06-3.05,2.09-4.6,3.09Zm-3.05,1.92c-.13-.25-.23-.5-.29-.78-.03-.16-.04-.28-.11-.43-.04-.09-.14-.24-.14-.33,0-.46-.7-.57-.82-.11-.03.11-.14.28-.2.41-.11.25-.09.47-.05.74.06.43.2.85.41,1.23-.78.46-1.56.92-2.36,1.37,0-.82-.24-1.67-.36-2.46-.18-1.13-.38-2.32-.77-3.42.64-.33,1.28-.66,1.92-1,.18.58.39,1.13.93,1.47.18.11.46,0,.51-.21.14-.66-.12-1.22-.33-1.84,0,0,0,0,0,0,.62-.32,1.23-.66,1.84-.99.08.54.19,1.07.3,1.6.27,1.24.48,2.65,1.08,3.79-.06.04-.12.08-.18.11-.46.28-.92.56-1.38.85Zm-6.74,3.81c-.09-.25-.18-.5-.26-.75-.13-.37-.47-.75-.49-1.15,0-.16-.23-.2-.28-.04-.15.52-.5.87-.49,1.45,0,.4.11.77.24,1.13-.69.34-1.39.67-2.1.99-.16-1.25-.32-2.5-.44-3.75-.08-.8-.11-1.62-.22-2.43.67-.33,1.34-.65,2-.98,0,.13,0,.27.01.4.03,1.03.16,1.77.66,2.66.12.22.4.13.48-.06.41-.98.42-1.73.34-2.8-.02-.3-.05-.61-.08-.92.44-.22.88-.45,1.32-.67.11.97.3,1.93.43,2.88.15,1.08.08,2.21.49,3.18-.53.29-1.07.57-1.61.85Zm-6.69,2.76c-.05-1.88-.51-3.8-1-5.65.67-.28,1.33-.57,1.98-.88-.14,2,.19,4.2.51,6.04-.49.17-.99.32-1.49.48Zm-7.39-.16s-.03-.05-.05-.07c.07-.05.13-.11.19-.19.41-.64.13-1.41.04-2.12-.04-.3-.07-.6-.1-.89.6-.16,1.2-.33,1.79-.52-.05.51-.01,1.03.07,1.49.14.74.35,1.38.36,2.15.01.64-.03,1.21.02,1.8-.62.17-1.24.33-1.87.49-.09-.72-.29-1.45-.45-2.14Zm3.32-2.3c.09-.6.1-1.31-.02-1.97.64-.23,1.28-.47,1.92-.73.05,1.91.1,3.86.48,5.69-.7.21-1.4.41-2.11.61-.17-1.21-.46-2.32-.27-3.6Zm26.32-9.95c-.23-1.07-.81-2.09-1.21-3.1-.18-.45-.36-.91-.55-1.37.52-.33,1.04-.66,1.56-.99.03.12.06.24.09.35.22.82.47,1.92,1.15,2.48.4.33,1,.12,1.02-.42.04-.87-.52-1.79-.79-2.61-.07-.21-.14-.42-.2-.63.68-.46,1.35-.93,2.02-1.4.22.71.51,1.52,1.06,1.98.29.24.87.12.83-.35-.07-.8-.54-1.53-.83-2.28-.01-.03-.02-.07-.04-.1.49-.36.97-.73,1.44-1.11.04.11.07.21.11.32.38,1.05.77,2.35,1.8,2.91.35.19.76-.05.77-.44.04-1.09-.7-2.11-1.09-3.1-.09-.24-.18-.5-.26-.75.18-.15.37-.29.55-.44.33-.28.64-.57.97-.85.2.52.41,1.04.63,1.56.33.79.63,1.63,1.03,2.41-3.24,2.78-6.6,5.43-10.06,7.92Zm10.37-10.89c-.31-.64-.61-1.27-.95-1.89.54-.48,1.08-.98,1.61-1.47.03.08.07.15.1.23.49,1.16,1.1,2.3,1.8,3.34.03.05.08.09.12.13-.59.53-1.18,1.06-1.77,1.58-.28-.65-.61-1.29-.91-1.92Zm4.1-.94c-.05-.05-.1-.1-.17-.13-.51-.92-1.05-1.82-1.59-2.72-.14-.24-.28-.5-.42-.75.47-.46.94-.92,1.41-1.38.13.22.27.45.41.67.57.92,1.12,1.94,1.88,2.71.03.03.06.04.09.06-.54.51-1.06,1.04-1.61,1.54Zm-45.56,21.18c-.01.22-.01.45,0,.68.02.7,0,1.64.59,2.1.04.03.08.04.12.06-.36.8-.63,1.75-.5,2.64-.47.12-.94.23-1.4.34.03-1.87.19-3.75.15-5.62.35-.06.7-.13,1.06-.21Zm-5.5,3.94c.25-1.09.48-2.23.42-3.35.81,0,1.62-.06,2.43-.15-.51,1.82-.6,3.81-.53,5.66-.95.06-1.91.07-2.88.04.34-.64.4-1.51.56-2.2Zm-9.47,12.13c6.03,3.22,13.16,2.65,19.73.63.06.18.24.33.46.28,5.52-1.2,10.99-3.62,16.16-6.36.94,1.5,1.92,2.96,2.93,4.41-1.11.57-2.22,1.12-3.35,1.65-8.62,4.06-17.22,6.14-26.53,6.37-1.12-.36-2.46-.97-3.54-.9-1.52-1.5-3.01-3.03-4.47-4.57-.46-.5-.93-1.01-1.39-1.51Zm46.15,1.1c.94,1.11,1.92,2.16,3.06,3.1,1.03.85,1.91,1.77,2.82,2.69-.95.52-1.9,1.02-2.87,1.5-1.69-2.04-3.66-3.89-5.37-5.9-.02-.02-.04-.04-.06-.07.81-.43,1.62-.86,2.42-1.32Zm91.81-50.65c-.05-.06-.1-.13-.15-.19-.7-.91-1.46-1.74-2.21-2.59.82.65,1.69,1.66,2.36,2.78Zm-1.37-3.96c-2.29-1.59-5.01-2.52-7.59-3.52-.82-.32-1.64-.63-2.46-.95-.01-.11-.07-.22-.21-.29-4.49-2.18-9.38-3.6-14.11-5.18-4.12-1.39-8.31-2.98-12.57-4.02.74-.83,1.47-1.67,2.17-2.57.11-.15.24-.3.36-.45,1.53.6,3.15,1.09,4.76,1.55,5.34,1.88,10.66,3.76,15.93,5.84.01.03.04.06.05.1.22.08.44.16.61.23.53.21,1.17.53,1.8.67.16.06.32.13.47.19,1.11,2.05,3.57,3.62,6.01,4.3.01.02.02.04.03.06.2.36.63.36.9.16.71.13,1.4.18,2.03.14.03,0,.04-.01.07-.02.19.02.38-.05.54-.19.09.1.2.18.34.24,2.1.85,4.86,2.36,5.73,4.64.57,1.5-.1,3.11-.83,4.67-.53-2.22-2.14-4.27-4.03-5.58Zm12.62-51.44c-.41-.05-.83-.05-1.24-.14-.51-.11-.96-.36-1.4-.63-.2-.13-.42.12-.32.32.5.94,1.87,1.56,2.88,1.15-.06.55-.13,1.08-.19,1.58,0,0-.01,0-.02,0-.53-.02-.98-.05-1.49-.18-.46-.11-.89-.31-1.35-.43-.32-.08-.54.31-.32.55.73.8,2.05.99,3.09.76-.09.68-.18,1.26-.24,1.7-.18.01-.37,0-.54-.09-.39-.2-.89.34-.5.65.26.21.59.35.93.39-.05.51-.1,1.02-.14,1.53-.43-.04-.88.02-1.31-.06-.46-.09-.94-.36-1.41-.32-.11,0-.2.1-.17.22.23.94,1.85,1.31,2.81,1.02-.05.57-.11,1.15-.16,1.72-.39,0-.78.05-1.17.02-.49-.04-1.01-.21-1.45-.44-.28-.14-.55.2-.33.43.68.74,1.94,1.18,2.89.74-.07.78-.14,1.55-.22,2.33-.02-.01-.04-.03-.07-.04-.42-.1-.84.12-1.28.05-.46-.07-.88-.24-1.26-.52-.21-.15-.46.14-.34.34.3.53.82.92,1.42,1.04.46.09,1.07.1,1.46-.19-.13,1.42-.27,2.85-.4,4.27-.04.39-.06.78-.1,1.17-.21.04-.42.17-.61,0-.35-.31-.85.18-.52.52.25.24.7.39,1.06.3-.06.74-.11,1.48-.16,2.23,0,0-.02,0-.03,0-.52.05-.85-.11-1.35-.26-.56-.17-1.15-.27-1.73-.42-.3-.08-.49.35-.21.5.57.32,1.2.67,1.86.7.45.02.85,0,1.3.11.04.01.07.02.11.02-.03.51-.07,1.03-.11,1.54-.45-.26-1.06-.07-1.53-.03-.37.03-.37.55,0,.58.46.04,1.05.21,1.5-.02-.03.52-.07,1.04-.11,1.56-.21.07-.42.15-.64.2-.42.1-.84-.02-1.26-.1-.62-.12-1.17-.41-1.78-.58-.13-.04-.24.11-.17.23.41.68,1.23,1.01,1.99,1.1.49.06,1.23.01,1.8-.18-.06.79-.12,1.58-.19,2.37-.19-.02-.37-.07-.55-.15-.45-.2-.84.45-.39.67.24.11.55.22.85.27-.04.37-.07.74-.11,1.11-.01,0-.02,0-.04,0-.07,0-.13.01-.19.04-.1.03-.18.09-.27.13-.14.06-.3.07-.44.11-.12,0-.23,0-.35-.05-.42-.14-.66.48-.3.7s.78.33,1.18.22c.1-.02.2-.06.29-.1-.1.82-.21,1.63-.34,2.44-1.13.3-3.65-.87-4.37-1.11-.17-.06-.29.17-.17.29,1.05,1.07,2.74,1.66,4.23,1.72.05,0,.1,0,.15,0-.09.51-.18,1.01-.29,1.52-.24.01-.48.02-.71,0-.89-.08-1.74-.36-2.61-.57-.23-.06-.44.25-.24.42.75.66,1.64.98,2.62,1.12.22.03.46.06.71.08-.18.77-.37,1.54-.59,2.29-1.51-.86-3.06-1.41-4.8-1.69-.03-1.28-.16-2.59-.4-3.8,1.12-2.56,1.27-5.79,1.63-8.45.12-.86.21-1.73.31-2.59.13-.25.17-.56.1-.83.24-2.04.48-4.09.7-6.13,0-.06.02-.13.02-.19.03-.26.06-.51.08-.77.04-.12.06-.25.04-.37.04-.41.09-.82.13-1.23.44-3.98.92-7.95,1.4-11.92.38-3.13,1.04-6.45,1.16-9.67.08.04.17.07.24.1.73.31,1.52.52,2.32.65.55.32,1.15.59,1.74.72.03.19.06.38.08.59-.14-.04-.28-.08-.42-.12-.48-.13-.98-.22-1.48-.28-.38-.04-.53.56-.19.72.45.21.93.39,1.4.53.25.08.5.15.75.18,0,.35,0,.71,0,1.08-.3.04-.59.18-.9.2-.39.04-.8-.02-1.15-.21-.24-.14-.51.19-.3.39.54.53,1.55.96,2.31.67-.04.65-.09,1.32-.16,1.97Zm-14.1-24.28c-.42.17-.8.54-1.09.85-.04.04-.06.08-.08.12-.44-.46-.88-.9-1.34-1.34.24-.1.47-.22.7-.34.36-.19.77-.35,1.05-.63.25.44.51.89.76,1.33Zm-22.27-11.96c2.97.65,5.64,2.04,8.1,3.77,2.79,3.56,3.43,8.61,3,13.11-.67,7.08-3.08,13.8-6.04,20.27-.62,1.32-1.25,2.63-1.89,3.94,1.46-3.39,2.49-7.03,3.24-10.29.14-.59-.76-.85-.92-.25-.84,3.19-1.91,6.31-3.3,9.3-1.19,2.58-2.83,4.89-4.12,7.4-1.05-.32-2.1-.63-3.15-.93.25-.24.46-.57.69-.9,1.45-2.1,2.58-4.51,3.65-6.82,2.07-4.45,3.67-9.11,4.39-13.98.88-5.87.48-12.79-2.07-18.51-.41-.63-.85-1.23-1.31-1.8-1.18-1.9-2.82-3.44-5.13-4.21-.41-.13-.82-.24-1.24-.33,2-.14,3.98-.24,6.1.23Zm-3.71,1.7c.79.43,1.48,1,2.08,1.67.69,1.2,1.33,2.41,1.87,3.67-.23.13-.47.23-.72.31-.39.12-.35.82.1.76.34-.04.64-.14.94-.28.28.7.53,1.43.74,2.17-.45.27-.88.61-1.21.97-.23.26-.01.73.36.61.37-.12.76-.3,1.13-.52,0,.03.02.05.02.08.17.74.3,1.48.41,2.23-.2.1-.39.23-.57.32-.42.22-.81.53-1.23.74-.23.11-.06.42.16.39.54-.09,1.01-.12,1.52-.36.08-.04.17-.08.26-.12.04.35.08.7.11,1.05.02.4.03.79.04,1.17-.72.4-1.36.96-2.05,1.4-.13.08-.02.26.12.2.62-.3,1.31-.52,1.94-.83,0,1.09-.06,2.16-.16,3.23-.85-.11-1.79.25-2.5.72.4-2.25.58-4.53.36-6.84-.64-6.74-5.13-12.98-11.64-14.02,2.73-.34,5.5-.05,7.93,1.27ZM9.57,160.92c-.57.65-.83,1.56-.75,2.42.03.36.49.42.62.08.26-.7.54-1.4.77-2.12.52.29,1.06.52,1.61.72-.54.72-1.04,1.37-1.39,2.24-.29.73-.66,1.55-.75,2.36-.37-.19-.73-.39-1.08-.61.1-.09.16-.21.14-.37-.02-.17-.02-.33-.04-.5.04-.15.1-.28.21-.4.29-.3-.09-.84-.46-.59-.26.17-.42.38-.58.64-.13.2-.19.39-.21.59-.67-.5-1.29-1.06-1.85-1.7.03-.09.06-.19.1-.28.12-.33-.35-.5-.54-.27-.44-.57-.84-1.19-1.18-1.87.67-1,.83-2.34,1.32-3.41.09-.2-.16-.34-.29-.17-.55.77-1.23,1.63-1.48,2.59-.04-.1-.09-.2-.13-.3-1.25-3.37-1.09-6.71-.38-10.01-.17,4.33,2.63,8.63,6.34,10.95Zm149.6-48.55c.56-.8,1.13-1.6,1.69-2.4.72-1.03,2.03-2.42,1.53-3.8-.37-1-1.16-1.28-2.11-1.1.3-.44.55-.88.71-1.33.05.03.09.06.16.08,2.01.58,3.32,3.32,3.27,5.55-.04.35-.09.74-.17,1.15-.69,2.37-3.03,2.01-5.08,1.84Zm50.49-82.85c2.95.13,5.12,2.81,3.68,5.67-.16.31-.35.62-.57.92-.43.23-.8.55-1.27.86-.51.33-1.08.61-1.67.82-1.07.12-2.13.32-3.19.19-.03-.33-.23-.66-.52-.83.35-.77-.46-1.82-1.39-1.29-.19.11-.38.22-.58.33-.04-.09-.09-.17-.13-.26-.25-.61-.33-1.24-.3-1.87.26-.94.78-1.83,1.38-2.49,1.15-1.27,2.81-2.12,4.55-2.04Zm-38.47,8.23c1.02.58,2.14,1,3.27,1.35,5.2,1.98,10.77,2.98,16.31,3.39-.43.24-.87.48-1.3.72-5.29-.48-10.58-1.29-15.76-2.41-.23-.05-.32.29-.1.35,4.82,1.26,9.66,2.18,14.59,2.77-.36.2-.73.4-1.09.6-3.04-.28-6.09-.59-9.11-.98-.33-.04-.41.53-.08.59,2.56.45,5.11.87,7.68,1.21-.43.24-.87.47-1.3.71-3.75-.47-7.45-.82-11.14-1.71-.26-.06-.36.31-.11.4,3.15,1.12,6.59,1.96,9.99,2-.65.35-1.3.68-1.95,1.03-2.85-.37-5.71-.71-8.56-.88-.15,0-.17.21-.03.25,2.14.72,4.39,1.24,6.68,1.64-.5.26-.99.52-1.49.79-1.93-.39-3.85-.8-5.78-1.17-1.87-.63-3.73-1.29-5.63-1.89-.1-.03-.19,0-.26.05-1.77-.78-3.53-1.56-5.28-2.38-.96-.58-1.94-1.14-2.82-1.88-1.01-.86-1.87-1.86-2.75-2.84-.11-.27-.19-.56-.27-.85,1.51,1.53,3.54,2.63,5.35,3.58.18.1.34-.17.16-.28-1.19-.73-2.29-1.71-3.32-2.65-.87-.79-1.61-1.73-2.45-2.53-.02-.38-.04-.76-.05-1.14.6.53,1.24,1.01,1.89,1.47.34.24.75-.3.44-.57-.66-.58-1.25-1.22-1.86-1.86-.16-.17-.32-.37-.48-.56,0-.18.01-.36.02-.55,1.97,2.01,4.64,3.79,7.06,4.45.13.04.25-.14.14-.24-1.31-1.15-2.82-2.05-4.16-3.18-1.05-.88-1.98-1.88-2.96-2.82.01-.25.03-.5.05-.75.24.23.51.43.7.59.7.58,1.45,1.1,2.21,1.59.46.3.84-.4.42-.72-.7-.53-1.3-1.13-1.89-1.77-.35-.38-.79-1.1-1.33-1.27.01-.17.02-.34.04-.52,2.92,2.61,7.88,5.33,10.56,6.25,1.68.86,3.41,1.64,5.17,2.36.19.08.38.15.57.23Zm-51.17-24.32c-.02-.61.06-1.2.21-1.77.02-.03.04-.06.05-.09.04-.14.1-.28.15-.41,1.09-1.9,2.81-3.48,5.11-3.68,2.7-.23,5.02,1.44,5.52,4.11.73,3.94-3.18,8.1-7,7.4-2.25-.74-3.94-2.83-4.03-5.55Zm22.75,33.47c-.39.1-.74.36-1.09.58-.25.15-.51.3-.74.48-.06.04-.1.1-.15.15-.45-.42-.89-.84-1.33-1.24.87-.41,1.73-.82,2.62-1.19.23.41.47.82.7,1.23Zm-30.87-10.17s-.03.01-.04.02c-.02,0-.04,0-.05,0,.03,0,.06-.01.09-.02Zm-40.01,21.76c7.9-6.22,16.08-12.06,25.44-15.86,4.49-1.82,10.02-4.31,14.74-2.01,4.47,2.17,6.6,7.35,6.73,12.06.14,5.29-1.74,10.42-3.63,15.27-1.81,4.67-3.88,9.22-6.23,13.64-5.04-1.27-10.13-2.35-15.31-3.16-7.99-1.25-16.06-1.97-24.14-2.14-6.45-.14-13.07-.02-19.44,1.25,7.01-6.66,14.25-13.08,21.85-19.06Zm-40.47,26.74c7.36-3.95,15.46-6.44,23.75-7.48,6.58.38,13.22.04,19.81.46,7.4.47,14.74,1.41,22.03,2.75,10.8,1.98,21.24,4.98,31.51,8.66-.04.03-.09.06-.12.11-.75.95-1.37,1.99-2.06,2.98-.59.83-1.22,1.64-1.78,2.5-.58-.22-1.16-.44-1.74-.65.1.05.23.04.34-.06.42-.38.84-.79,1.19-1.24.31-.4.7-.85.71-1.37,0-.23-.25-.37-.44-.26-.41.24-.62.72-.89,1.1-.32.45-.64.9-1.01,1.32-.17.19-.07.42.1.5-1.67-.61-3.35-1.21-5.02-1.8-16.01-6.16-32.69-10.83-49.48-11.36-1.57-.07-3.13-.12-4.7-.13-7.82-.05-16.05.55-23.42,3.32-.07.03-.09.09-.09.14-1.05.35-2.08.73-3.11,1.14-.75.25-1.5.51-2.25.78-.08.03-.07.1-.03.15-1.51.65-3.01,1.34-4.48,2.07-4.08,2.04-8,4.38-11.79,6.92-1.34.89-2.78,1.81-4.15,2.82,5.1-5.22,10.51-9.81,17.15-13.37Zm-16.42,35.91c-3.24-.25-3.35-3.45-2.41-5.87.33-.58.75-1.09,1.27-1.52.26.3.51.61.79.9.45.47.93.74,1.39,1.16.59.53.93,1.27,1.53,1.75-.19.31-.38.61-.57.92-.28-.29-.67-.52-.95-.77-.5-.44-.95-.93-1.46-1.34-.05-.04-.11,0-.08.07.27.62.72,1.15,1.19,1.63.28.28.63.69,1.02.89-.48.78-.95,1.57-1.42,2.35-.06-.08-.16-.15-.3-.16Zm21.9-28.24c.95-.41,1.9-.8,2.87-1.17.73,1.47,1.86,3.11,3.24,4.39.57.81,1.19,1.62,1.95,2.12,1.52.98,3.78.38,5.38-.15,4.58-1.51,7.88-5.59,8.51-10.32.08,0,.15,0,.23,0,.15,0,.26-.06.35-.13,4.97,0,9.85.38,14.93,1.25.09.02.18.04.27.05,4.89,1.01,9.72,2.31,14.38,3.6,1.58.44,3.14.9,4.71,1.36-.92.31-1.32,1.44-1.73,2.26-.52,1.04-.78,2.04-1.08,3.15-.05.2.2.34.34.2.82-.81,1.56-1.53,2.22-2.49.54-.79,1.37-1.72,1.11-2.72-.02-.07-.05-.13-.09-.18,1.61.48,3.22.99,4.83,1.5-1.65,2.14-3.29,4.29-4.94,6.43-5.07,6.48-10.25,12.85-15.73,19-1.49,1.67-2.99,3.34-4.5,5.01-8.08,8.25-16.94,15.8-26.63,22.08-5.17,3.35-10.59,6.36-16.21,8.89-5.94,2.68-13.05,5.62-19.56,3.24-1.26-.46-2.32-1.04-3.22-1.7-2.22-1.89-3.4-4.43-3.97-7.24-.83-7.98,5.08-18.63,8.45-24.42,7.04-12.08,14.95-23.28,23.9-34ZM2.11,153.64s-.04,0-.06,0c.03-.11.05-.21.08-.32,0,.11-.01.21-.02.32Z"/>
    <path class="cls-1" d="m211.19,36.13c1-.86,2.06-2.48,1.67-3.86-.05-.18-.29-.2-.39-.05-.73,1.12-1.08,2.22-2.19,3.09-.52.41-1.09.69-1.72.87-.5.14-.92.14-1.22.6-.09.14-.05.32.06.44.9,1.01,3.05-.45,3.79-1.09Z"/>
    <path class="cls-1" d="m209.64,34.91c.5-.01,1.03-.52,1.35-.88.34-.38.67-.9.74-1.41.04-.24-.21-.39-.4-.23-.36.3-.67.66-1.01.98-.17.15-.33.31-.51.45-.2.15-.4.25-.52.48-.14.26.03.62.35.61Z"/>
    <path class="cls-1" d="m177.31,29.96c.62-3.03.54-6.31.67-9.39.14-3.49.24-6.95-.11-10.43-.02-.16-.24-.17-.26,0-.29,3.29-.29,6.58-.39,9.88-.1,3.26-.6,6.62-.44,9.87.01.29.47.38.53.07Z"/>
    <path class="cls-1" d="m174.8,14.15c.09-.78-.02-1.61-.04-2.4-.01-.8-.01-1.59-.08-2.39-.02-.24-.34-.29-.42-.06-.51,1.46-.76,3.45-.33,4.96.14.5.8.35.86-.12Z"/>
    <path class="cls-1" d="m196.59,19.9c0,.26-.05.55,0,.81.04.17.3.17.33,0,.06-.26.02-.54,0-.81,0-.22-.34-.22-.35,0Z"/>
    <path class="cls-1" d="m196.73,26.46c.4-.36.37-1,.35-1.5-.02-.62-.23-1.18-.36-1.78-.04-.18-.32-.14-.32.04,0,.6-.16,1.2-.23,1.8-.06.48-.21.95.04,1.38.11.19.36.2.51.07Z"/>
    <path class="cls-1" d="m202.42,28.23c.48-1.94.34-4.04.37-6.03.04-2.28.13-4.57.09-6.85,0-.27-.43-.35-.49-.07-.85,3.88-1.84,9.04-1,12.95.11.52.92.5,1.04,0Z"/>
    <path class="cls-1" d="m206.63,25.41c.36-1.67.34-3.62.22-5.32-.02-.24-.39-.33-.45-.06-.36,1.66-.66,3.58-.54,5.28.03.42.67.56.77.1Z"/>
    <path class="cls-1" d="m189.53,25.59c.11-3.71.44-7.75-.06-11.43-.03-.2-.34-.18-.38,0-.78,3.64-.75,7.72-.92,11.43-.04.87,1.33.88,1.36,0Z"/>
    <path class="cls-1" d="m184.54,29.46c.85-2.29.65-5.06.72-7.49.08-2.81.14-5.69-.2-8.48-.02-.13-.23-.19-.25-.03-.39,2.63-.47,5.33-.64,7.98-.16,2.58-.75,5.48-.21,8.02.07.32.5.26.59,0Z"/>
    <path class="cls-1" d="m181.2,25.42c.67-1.89.39-4.11.41-6.11.03-2.32.26-4.73-.04-7.03-.02-.13-.2-.18-.24-.03-.56,2.11-.6,4.38-.75,6.56-.15,2.14-.61,4.54.04,6.61.09.29.48.28.58,0Z"/>
    <path class="cls-1" d="m184.82,10.59c.47-.86.34-1.95.39-2.91.05-1.09.14-2.18-.13-3.25-.04-.15-.22-.12-.27,0-.38.96-.45,1.99-.53,3.02-.08.98-.38,2.14-.02,3.06.09.24.44.33.58.08Z"/>
    <path class="cls-1" d="m181.85,7.82c.15-1.25.1-2.65.03-3.91,0-.14-.18-.15-.23-.03-.48,1.2-.66,2.76-.31,4.01.08.3.47.2.5-.07Z"/>
    <path class="cls-1" d="m189.8,12.03c.23-1.43-.09-2.96-.15-4.4,0-.17-.26-.22-.3-.04-.33,1.41-.71,3-.32,4.44.1.35.7.4.77,0Z"/>
    <path class="cls-1" d="m193.42,16.29c.22-1.26.11-2.79-.1-4.05-.03-.2-.36-.2-.4,0-.21,1.26-.32,2.79-.1,4.05.05.29.54.29.59,0Z"/>
    <path class="cls-1" d="m197.05,16.69c.54-3.1.42-6.69.09-9.8-.02-.14-.25-.21-.28-.04-.56,3.07-.96,6.62-.66,9.73.04.44.76.63.84.11Z"/>
    <path class="cls-1" d="m202.69,11.8c.23-.78.09-1.75-.07-2.54-.04-.18-.32-.18-.36,0-.16.79-.3,1.76-.07,2.54.07.24.42.24.5,0Z"/>
  </g>
</svg>