<?xml version="1.0" encoding="UTF-8"?><svg id="logo" xmlns="http://www.w3.org/2000/svg" viewBox="0 0 876.16 830.35"><defs><style>.cls-1{fill:#cca356;}.cls-2{fill:#231f20;}</style></defs><path class="cls-2" d="m289.53,751.18l-22.41-72.16h-11.74v72.29h-66.37v-223.37h122.39c26.22,0,44.13,13.97,44.13,40.2v66.77c0,20.81-10.83,36.22-28.73,42.04l31.6,74.24h-68.87Zm-34.15-130.35h32.52c.83,0,1.25-.42,1.25-1.25v-32.21c0-.83-.42-1.25-1.25-1.25h-32.52v34.71Z"/><path class="cls-2" d="m506.44,751.18h-86.12c-26.64,0-44.13-17.9-44.13-44.12v-179.12h66.37v160.84c0,.83.42,1.25,1.25,1.25h39.13c.83,0,1.25-.42,1.25-1.25v-160.84h66.37v179.12c0,26.22-17.9,44.12-44.13,44.12"/><polygon class="cls-2" points="736.83 751.18 736.83 648.14 735.59 655.64 705.25 751.18 673.96 751.18 644.03 655.64 642.8 648.14 642.8 751.18 579.1 751.18 579.1 527.93 658.24 527.93 689.81 628.82 721.39 527.93 800.52 527.93 800.52 751.18 736.83 751.18"/><path class="cls-1" d="m224.06,452.34h-35.09v-75.61h35.09c7.52,0,12.65,5.13,12.65,12.64v50.33c0,7.51-5.13,12.64-12.65,12.64m-5.25-17.05v-41.51c0-.24-.12-.36-.36-.36h-11.58v42.23h11.58c.24,0,.36-.12.36-.36"/><polygon class="cls-1" points="246.15 452.34 246.15 376.73 287.93 376.73 287.93 393.42 264.06 393.42 264.06 405.95 281.96 405.95 281.96 421.45 264.06 421.45 264.06 435.65 287.93 435.65 287.93 452.34 246.15 452.34"/><path class="cls-1" d="m323.62,431.59l-24.71-24.33c-2.86-2.86-4.77-7.16-4.77-12.52v-5.61c0-7.51,5.01-12.64,12.65-12.64h22.44c7.52,0,12.65,5.13,12.65,12.64v10.5h-17.9v-5.85c0-.24-.12-.36-.36-.36h-11.22c-.24,0-.36.12-.36.36v1.2c0,.36.12.59.36.83l24.71,24.33c2.87,2.86,4.78,7.15,4.78,12.52v7.28c0,7.51-5.13,12.64-12.65,12.64h-22.44c-7.64,0-12.65-5.13-12.65-12.64v-10.5h17.91v5.85c0,.24.12.36.36.36h11.22c.24,0,.36-.12.36-.36v-2.87c0-.36-.12-.6-.36-.83"/><path class="cls-1" d="m386.3,425.27h-17.19v27.08h-17.91v-75.61h35.09c7.52,0,12.65,5.13,12.65,12.64v23.26c0,7.51-5.02,12.64-12.65,12.64m-5.61-31.84h-11.58v15.15h11.58c.24,0,.36-.12.36-.36v-14.44c0-.24-.12-.36-.36-.36"/><polygon class="cls-1" points="406.84 452.34 406.84 376.73 448.62 376.73 448.62 393.42 424.75 393.42 424.75 405.95 442.65 405.95 442.65 421.45 424.75 421.45 424.75 435.65 448.62 435.65 448.62 452.34 406.84 452.34"/><path class="cls-1" d="m485.15,452.34l-7.88-27.08h-4.53v27.08h-17.91v-75.61h35.09c7.52,0,12.65,5.13,12.65,12.64v23.26c0,5.96-3.1,10.37-8.24,12.04l9.43,27.67h-18.62Zm-12.41-43.77h11.58c.24,0,.36-.12.36-.36v-14.44c0-.24-.12-.36-.36-.36h-11.58v15.15Z"/><path class="cls-1" d="m541.26,442.8h-16l-1.79,9.54h-18.62l17.9-75.61h21.01l17.91,75.61h-18.62l-1.79-9.54Zm-2.75-11.58l-4.89-26.59-.36-2.98-.36,2.98-4.89,26.59h10.5Z"/><polygon class="cls-1" points="598.81 452.34 585.8 414.65 585.44 412.87 585.44 452.34 567.53 452.34 567.53 376.73 586.39 376.73 597.02 408.81 597.38 410.72 597.38 376.73 615.28 376.73 615.28 452.34 598.81 452.34"/><path class="cls-1" d="m659.69,452.34h-35.09v-75.61h35.09c7.52,0,12.65,5.13,12.65,12.64v50.33c0,7.51-5.13,12.64-12.65,12.64m-5.25-17.05v-41.51c0-.24-.12-.36-.36-.36h-11.58v42.23h11.58c.24,0,.36-.12.36-.36"/><path class="cls-1" d="m716.88,452.58h-22.44c-7.64,0-12.65-5.13-12.65-12.64v-63.21h17.9v58.56c0,.24.12.36.36.36h11.22c.24,0,.36-.12.36-.36v-58.56h17.9v63.21c0,7.51-5.13,12.64-12.65,12.64"/><polygon class="cls-1" points="783.25 452.34 783.25 415.13 782.89 417.28 772.98 452.34 766.18 452.34 756.4 417.28 756.04 415.13 756.04 452.34 738.73 452.34 738.73 376.73 759.38 376.73 769.64 414.18 779.91 376.73 800.56 376.73 800.56 452.34 783.25 452.34"/><polygon class="cls-1" points="344.94 362.38 286.29 233.41 284.46 224.26 284.46 362.38 189 362.38 189 75.63 293.27 75.63 339.72 200.05 341.55 209.81 341.55 75.63 440.93 75.63 440.93 362.38 344.94 362.38"/><rect class="cls-1" x="476.73" y="75.66" width="99.39" height="286.72"/><polygon class="cls-1" points="611.31 362.38 611.31 75.66 710.69 75.66 710.69 269.09 800.56 269.09 800.56 362.38 611.31 362.38"/><path class="cls-1" d="m812.26,98.18c0,13.7-10.11,23.81-23.81,23.81s-23.81-10.11-23.81-23.81,10.11-23.95,23.81-23.95,23.81,10.24,23.81,23.95m-5.46,0c0-10.64-7.85-18.49-18.36-18.49s-18.23,7.85-18.23,18.49,7.72,18.36,18.23,18.36,18.36-7.85,18.36-18.36m-12.5,4.65l5.32,8.51h-7.45l-4.52-8.38h-3.19v8.38h-6.25v-26.47h14.77c3.72,0,6.25,2.53,6.25,6.25v5.45c0,3.33-2,5.85-4.92,6.25m-9.84-5.32h7.98c.4,0,.53-.27.53-.53v-5.85c0-.27-.13-.53-.53-.53h-7.98v6.92Z"/><path class="cls-2" d="m218.16,203.04c-6.48-1.36-12.77-1.41-18.86-.49,15.56-13.41,18.98-39.05,6.97-56.35-10.68-15.86-26.12-17.97-43.61-19.54-9.1-1.33-19.08-.66-24.54-8.59-4.02-8.11-.11-17.12,2.25-23.93,3.55-10.22,7.25-21.45,7.95-29.68,1.28-15-7.41-26.23-12.38-26.5-4.98-.27-12.29,13.3-11.92,25.62.46,15.12-3.5,23.31-6.35,34.04-1.86,6.36-3.06,12.69-2.3,19.35.61,4.5,1.31,9.42,4.07,13.3,11.41,18.85,34,18.07,53.03,21.32,11.97,1.14,18.86,12.09,15.8,23.45-4.16,15.95-22.38,12.25-33.58,6.14-17.52-8.66-35.58-18.64-55.15-21.98-42.44-8.63-78.25,25.41-73.09,68.11,4.95,40.39,41.97,57.81,77.8,53.59-32.39,18.88-46.16,65.17-18.76,95.41,8.13,9.21,19.6,16.34,32.07,20.57,4.34,6.89,9.54,13.25,15.16,18.99,11.4,10.99,17.74,21.79,7.62,36.43-9.91,15.08-24.54,28.52-26.06,47.8-.47,5.43-.3,14.13,8.42,31.56,1.94,3.88,3.95,6.9,5.41,8.72,2.4,3,5.11,2.1,3.31-2.1-.94-2.2-1.3-4.59-3-9.92-6.61-20.74-9.18-31.21,8.72-49.89,12.87-13.43,28.7-27.73,23.79-48.5-2.32-11.7-10.53-20.01-17.97-28.7,22.64.08,43.44-10.69,49.07-36.84,6.35-30.19-24.28-57.39-53.57-51.02-21.69,4.3-34.32,26.75-33.07,47.66-.38-.39-.74-.78-1.09-1.18-17.52-19.58-3.53-51.9,20.1-58.97,6.94-2.17,14.29-2.98,21.56-2.94,12.8.09,25.36,3.24,38.42,4.04,15.55.85,31.53-1.5,45.56-8.81,41.37-20.99,33.18-80.3-11.75-90.17m-89.47,140.61c8.38-14.94,28.72-12.36,37.88.26,7.08,9.46,3.75,23.85-6.32,29.79-9.34,5.51-21.86,4.82-33.21.81-3.39-10.27-3.81-21.16,1.64-30.86m-72.39-110.69c-8.96-20.75,4.45-47.78,28.51-48.07,19.69-.63,38.09,10.04,55.57,18.11,10.07,5.18,21.63,9.14,33.13,8.92-12.92,7.14-24.88,16.87-36.01,24.98-12.74,9.24-25.23,15.61-40.69,16.33-16.5,1.17-34.07-4.44-40.51-20.28m172.5,20.63c-2.02,12.34-15.18,18.04-26.46,20.03-19.83,3.92-39.96-3.74-60.11-2.49-2.33.09-4.66.26-6.99.51,25.16-12.63,53.18-45.41,77.23-41.03,10.4,1.86,18.06,12.55,16.33,22.97"/><path class="cls-2" d="m206.81,487.58c0-2.9,2.35-5.22,5.19-5.22s5.25,2.32,5.25,5.22-2.35,5.22-5.25,5.22-5.19-2.32-5.19-5.22"/><path class="cls-2" d="m263.43,495.51l-10.98-10.82c-1.27-1.27-2.13-3.18-2.13-5.57v-4.24c0-3.34,2.23-5.62,5.63-5.62h9.97c3.34,0,5.63,2.28,5.63,5.62v6.42h-7.96v-4.35c0-.11-.06-.16-.16-.16h-4.99c-.11,0-.16.05-.16.16v2.28c0,.16.05.26.16.37l10.98,10.82c1.27,1.28,2.12,3.18,2.12,5.57v4.99c0,3.34-2.28,5.62-5.63,5.62h-9.97c-3.39,0-5.63-2.28-5.63-5.62v-6.42h7.96v4.35c0,.11.05.16.16.16h4.99c.1,0,.16-.05.16-.16v-3.02c0-.16-.06-.27-.16-.37"/><path class="cls-2" d="m304,506.6h-9.97c-3.39,0-5.63-2.28-5.63-5.62v-31.62h7.96v29.55c0,.11.05.16.16.16h4.99c.1,0,.16-.05.16-.16v-29.55h7.96v31.62c0,3.34-2.28,5.62-5.62,5.62"/><polygon class="cls-2" points="340.38 506.49 334.6 487.98 334.44 487.19 334.44 506.49 326.48 506.49 326.48 469.36 334.86 469.36 339.58 485.38 339.74 486.23 339.74 469.36 347.7 469.36 347.7 506.49 340.38 506.49"/><path class="cls-2" d="m377.66,495.51l-10.98-10.82c-1.27-1.27-2.13-3.18-2.13-5.57v-4.24c0-3.34,2.23-5.62,5.63-5.62h9.97c3.34,0,5.63,2.28,5.63,5.62v6.42h-7.96v-4.35c0-.11-.06-.16-.16-.16h-4.99c-.11,0-.16.05-.16.16v2.28c0,.16.05.26.16.37l10.98,10.82c1.27,1.28,2.12,3.18,2.12,5.57v4.99c0,3.34-2.28,5.62-5.63,5.62h-9.97c-3.39,0-5.63-2.28-5.63-5.62v-6.42h7.96v4.35c0,.11.05.16.16.16h4.99c.1,0,.16-.05.16-.16v-3.02c0-.16-.06-.27-.16-.37"/><polygon class="cls-2" points="415.9 506.49 415.9 491.27 410.59 491.27 410.59 506.49 402.64 506.49 402.64 469.36 410.59 469.36 410.59 483.84 415.9 483.84 415.9 469.36 423.86 469.36 423.86 506.49 415.9 506.49"/><rect class="cls-2" x="440.71" y="469.36" width="7.96" height="37.14"/><polygon class="cls-2" points="479.38 506.49 473.6 487.98 473.44 487.19 473.44 506.49 465.48 506.49 465.48 469.36 473.86 469.36 478.58 485.38 478.74 486.23 478.74 469.36 486.7 469.36 486.7 506.49 479.38 506.49"/><polygon class="cls-2" points="503.56 506.49 503.56 469.36 522.13 469.36 522.13 476.79 511.52 476.79 511.52 484.11 519.47 484.11 519.47 491 511.52 491 511.52 499.07 522.13 499.07 522.13 506.49 503.56 506.49"/><path class="cls-2" d="m576.54,506.6h-9.97c-3.34,0-5.63-2.28-5.63-5.62v-26.1c0-3.34,2.28-5.62,5.63-5.62h9.97c3.34,0,5.62,2.28,5.62,5.62v6.42h-7.96v-4.35c0-.11-.06-.16-.16-.16h-4.99c-.11,0-.16.05-.16.16v21.96c0,.11.05.16.16.16h4.99c.1,0,.16-.05.16-.16v-4.35h7.96v6.42c0,3.34-2.28,5.62-5.62,5.62"/><path class="cls-2" d="m614.61,506.6h-9.97c-3.34,0-5.63-2.28-5.63-5.62v-26.1c0-3.34,2.28-5.62,5.63-5.62h9.97c3.34,0,5.63,2.28,5.63,5.62v26.1c0,3.35-2.28,5.62-5.63,5.62m-2.49-29.81h-4.99c-.11,0-.16.05-.16.16v21.97c0,.11.05.16.16.16h4.99c.11,0,.16-.05.16-.16v-21.97c0-.11-.05-.16-.16-.16"/><path class="cls-2" d="m651.74,502.25h-7.11l-.8,4.25h-8.28l7.96-37.14h9.34l7.96,37.14h-8.28l-.8-4.25Zm-1.22-6.89l-2.17-11.83-.16-1.33-.16,1.33-2.17,11.83h4.67Z"/><path class="cls-2" d="m689.23,495.51l-10.98-10.82c-1.27-1.27-2.13-3.18-2.13-5.57v-4.24c0-3.34,2.23-5.62,5.63-5.62h9.97c3.34,0,5.63,2.28,5.63,5.62v6.42h-7.96v-4.35c0-.11-.06-.16-.16-.16h-4.99c-.11,0-.16.05-.16.16v2.28c0,.16.05.26.16.37l10.98,10.82c1.27,1.28,2.12,3.18,2.12,5.57v4.99c0,3.34-2.28,5.62-5.63,5.62h-9.97c-3.39,0-5.63-2.28-5.63-5.62v-6.42h7.96v4.35c0,.11.05.16.16.16h4.99c.1,0,.16-.05.16-.16v-3.02c0-.16-.06-.27-.16-.37"/><polygon class="cls-2" points="727.47 476.79 727.47 506.49 719.51 506.49 719.51 476.79 712.88 476.79 712.88 469.36 734.1 469.36 734.1 476.79 727.47 476.79"/><path class="cls-2" d="m771.67,487.58c0-2.9,2.35-5.22,5.19-5.22s5.25,2.32,5.25,5.22-2.35,5.22-5.25,5.22-5.19-2.32-5.19-5.22"/></svg>