<?xml version="1.0" encoding="UTF-8"?><svg id="logo" xmlns="http://www.w3.org/2000/svg" viewBox="0 0 195.59 104.88"><defs><style>.cls-1{fill:#761a2e;}.cls-1,.cls-2{stroke-width:0px;}.cls-2{fill:#e67325;}</style></defs><g id="Group_9"><path id="Path_55" class="cls-2" d="m13.64,27.04l-1.66,1.66c-.17.14-.41.14-.58,0l-1.23-1.23c-.66.25-1.35.37-2.06.36-2.35,0-4.74-1.23-4.74-4.84V6.33c0-3.65,2.38-4.84,4.73-4.84s4.74,1.19,4.74,4.84v16.66c.01.79-.12,1.57-.4,2.31l1.19,1.19c.14.15.14.39,0,.54m-3.9-20.6c0-.83-.26-1.73-1.63-1.73s-1.63.9-1.63,1.73v16.44c0,.83.26,1.7,1.63,1.7s1.63-.87,1.63-1.7V6.44Z"/><path id="Path_56" class="cls-2" d="m31.9,23c0,3.65-2.35,4.84-4.74,4.84s-4.74-1.19-4.74-4.84V2.39c0-.21.18-.37.39-.36,0,0,0,0,.01,0h2.31c.2-.02.38.14.4.34,0,0,0,.01,0,.02v20.5c0,.87.26,1.73,1.63,1.73s1.63-.87,1.63-1.73V2.39c0-.21.18-.37.39-.36,0,0,0,0,.01,0h2.31c.2-.02.38.14.4.34,0,0,0,.01,0,.02v20.6Z"/><path id="Path_57" class="cls-2" d="m45.32,24.22h5.31c.25,0,.46.19.47.44,0,0,0,.02,0,.03v2.1c0,.29-.22.53-.51.54h-8.42c-.29-.01-.52-.25-.51-.54V2.54c0-.27.21-.5.48-.51,0,0,.02,0,.02,0h8.46c.27,0,.5.21.51.48,0,0,0,.02,0,.02v2.13c0,.27-.21.5-.48.51,0,0-.02,0-.02,0h-5.35c-.27,0-.5.21-.51.48,0,0,0,.02,0,.02v6.58c0,.27.21.5.48.51,0,0,.02,0,.02,0h4.27c.27,0,.5.21.5.49,0,0,0,.01,0,.02v2.1c0,.27-.21.5-.48.51,0,0-.02,0-.02,0h-4.27c-.26-.02-.49.18-.51.44,0,.02,0,.04,0,.06v7.34c.01.29.25.52.54.51"/><path id="Path_58" class="cls-2" d="m63.83,24.22h5.31c.25,0,.46.19.47.44,0,0,0,.02,0,.03v2.1c0,.29-.22.53-.51.54h-8.42c-.29,0-.52-.25-.51-.54V2.54c0-.27.21-.5.48-.51,0,0,.02,0,.02,0h8.46c.27,0,.5.21.51.48,0,0,0,.02,0,.02v2.13c0,.27-.21.5-.48.51,0,0-.02,0-.02,0h-5.35c-.27,0-.5.21-.51.48,0,0,0,.02,0,.02v6.58c0,.27.21.5.48.51,0,0,.02,0,.02,0h4.27c.27,0,.5.21.51.48,0,0,0,.02,0,.02v2.1c0,.27-.21.5-.48.51,0,0-.01,0-.02,0h-4.27c-.26-.02-.49.18-.51.44,0,.02,0,.04,0,.07v7.34c.01.29.25.52.54.51"/><path id="Path_59" class="cls-2" d="m86.28,2.39c-.01-.2.14-.38.34-.4,0,0,.01,0,.02,0h2.35c.22,0,.4.18.4.4v24.54c-.02.21-.19.36-.4.36h-2.24c-.21-.02-.4-.16-.47-.36-.47-1.77-3.07-10.27-4.48-15.54v15.54c.01.2-.14.38-.34.4,0,0-.01,0-.02,0h-2.35c-.22,0-.4-.18-.4-.4V2.36c0-.21.18-.37.38-.36,0,0,.01,0,.02,0h2.42c.14,0,.32.04.36.18l4.41,16.19V2.39Z"/><path id="Path_60" class="cls-2" d="m103.7,4.89c-1.08,0-1.92.9-1.92,2.31,0,4.66,7.3,7.63,7.3,13.99,0,2.46-1.55,6.4-5.5,6.4-2.93,0-5.13-1.92-5.17-5.78v-.87c0-.22.18-.4.4-.4h2.31c.22,0,.4.18.4.4v.76c0,1.77.98,2.78,2.17,2.78s2.17-1.05,2.17-3.43c0-5.06-7.45-7.48-7.45-13.84-.12-2.87,2.1-5.29,4.97-5.42.05,0,.11,0,.16,0,2.81-.03,5.11,2.23,5.14,5.05,0,0,0,0,0,.01.01.2-.14.38-.34.4,0,0-.01,0-.02,0h-2.35c-.22,0-.4-.18-.4-.4.04-1.04-.78-1.91-1.82-1.95-.02,0-.05,0-.07,0"/><path id="Path_61" class="cls-2" d="m127.13,24.19c.27,0,.5.21.51.48,0,0,0,.02,0,.02v2.1c0,.29-.11.54-.51.54h-8.46c-.29-.03-.51-.26-.54-.54V2.28s-.04-.26.33-.26h2.57c.14-.02.27.08.29.22,0,.01,0,.02,0,.03v21.4c0,.27.21.5.49.51,0,0,.01,0,.02,0h5.31Z"/><path id="Path_62" class="cls-2" d="m138.45,2.36c.07-.22.18-.4.4-.4h3.58c.22,0,.33.18.36.4.04.11,3.15,24,3.22,24.58.04.33-.14.4-.36.4h-2.39c-.22,0-.33-.18-.36-.4s-.14-.87-.4-2.71c-.01-.15-.14-.26-.29-.26h-3.18c-.14,0-.22.11-.26.26l-.4,2.71c-.01.21-.18.38-.4.4h-2.35c-.22,0-.43-.07-.4-.4l3.22-24.58Zm1.08,18.76h2.2c.14,0,.26-.11.26-.25,0-.01,0-.02,0-.03l-1.37-15.33-1.37,15.33c0,.16.12.29.28.29,0,0,0,0,0,0"/><path id="Path_63" class="cls-2" d="m162.45,2.39c-.01-.2.14-.38.34-.4,0,0,.01,0,.02,0h2.35c.22,0,.4.18.4.4v24.54c-.02.21-.19.36-.4.36h-2.24c-.21-.02-.4-.16-.47-.36-.47-1.77-3.07-10.27-4.48-15.54v15.54c.01.2-.14.38-.34.4,0,0-.01,0-.02,0h-2.35c-.22,0-.4-.18-.4-.4V2.36c0-.21.18-.37.38-.36,0,0,.01,0,.02,0h2.42c.14,0,.33.04.36.18l4.41,16.19V2.39Z"/><path id="Path_64" class="cls-2" d="m175.69,2.54c0-.27.21-.5.48-.51,0,0,.02,0,.02,0h5.42c1.96.05,3.53,1.65,3.54,3.61v18.22c-.09,1.96-1.72,3.5-3.69,3.47h-5.28c-.26.02-.48-.17-.51-.42,0-.02,0-.03,0-.05V2.54Zm3.62,21.69h1.41c.82.02,1.49-.63,1.52-1.45V6.66c-.01-.84-.68-1.52-1.52-1.55h-1.52c-.2-.01-.38.14-.4.34,0,0,0,.01,0,.02v18.25c0,.27.21.5.48.51,0,0,.02,0,.03,0"/><path id="Path_65" class="cls-1" d="m26.24,101.16c.18.8-.45.98-.98.98h-5.89c-.53,0-.89-.45-1.07-.98l-5.98-29.52c-.12-.39-.49-.65-.89-.63h-1.7c-.5-.04-.94.34-.98.85,0,.01,0,.03,0,.04v29.25c.04.51-.35.94-.85.98-.01,0-.03,0-.04,0H2.07c-.54,0-.98-.44-.98-.98v-60.56c0-.54.44-.98.98-.98h13.64c4.87.13,8.75,4.13,8.74,9.01v13.65c-.03,2.93-1.54,5.65-4.01,7.22-.42.35-.56.92-.36,1.43l6.15,30.23Zm-9.54-49.85c.05-2.05-1.52-3.78-3.57-3.92h-3.39c-.5-.04-.94.34-.98.85,0,.01,0,.03,0,.04v14.18c.05.49.49.85.98.8h3.39c1.97,0,3.56-1.6,3.57-3.57v-8.38Z"/><path id="Path_66" class="cls-1" d="m55.31,91.44c0,9.01-5.8,11.95-11.68,11.95s-11.68-2.94-11.68-11.95v-50.83c.02-.51.44-.91.95-.89,0,0,.02,0,.03,0h5.71c.5-.04.94.34.98.85,0,.01,0,.03,0,.04v50.57c0,2.14.63,4.28,4.01,4.28s4.01-2.14,4.01-4.28v-50.57c.02-.51.44-.91.95-.89,0,0,.02,0,.03,0h5.71c.5-.04.94.34.98.85,0,.01,0,.03,0,.04v50.83Z"/><path id="Path_67" class="cls-1" d="m98.92,40.52v60.64c0,.51-.38.94-.89.98h-5.8c-.54,0-.98-.44-.98-.98v-37.01l-8.29,32.46c-.09.54-.36.98-.89.98h-3.57c-.53-.04-.94-.46-.98-.98l-8.3-32.46v37.01c.04.5-.34.94-.85.98-.01,0-.03,0-.04,0h-5.8c-.54,0-.98-.44-.98-.98v-60.64c.01-.51.43-.91.94-.89.01,0,.03,0,.04,0h6.87c.36,0,.8.09.89.45.36,1.25,9.99,42.45,9.99,42.45,0,0,9.63-41.2,9.99-42.45.09-.36.45-.45.8-.45h6.96c.49,0,.89.4.89.89"/><path id="Path_68" class="cls-1" d="m113.91,41.05c-.02-.67.52-1.23,1.19-1.25.02,0,.04,0,.06,0h13.36c4.84.12,8.7,4.07,8.73,8.91v44.88c0,4.72-4.27,8.55-9.08,8.55h-13c-.63.05-1.19-.41-1.24-1.04,0-.04,0-.08,0-.11v-59.93Zm8.91,53.44h3.47c2.01.04,3.68-1.55,3.74-3.56v-39.72c-.04-2.07-1.68-3.75-3.74-3.83h-3.74c-.5-.04-.94.34-.98.85,0,.01,0,.03,0,.04v44.97c-.02.67.52,1.23,1.19,1.25.02,0,.04,0,.06,0"/><path id="Path_69" class="cls-1" d="m148.29,40.61c.18-.53.45-.98.98-.98h8.82c.53,0,.8.44.89.98.09.27,7.75,59.13,7.93,60.56.09.8-.36.98-.89.98h-5.88c-.54,0-.8-.45-.89-.98s-.36-2.14-.98-6.68c-.03-.36-.35-.64-.71-.62h-7.84c-.36,0-.53.27-.62.62l-.98,6.68c-.03.53-.45.94-.98.98h-5.79c-.53,0-1.07-.18-.98-.98l7.93-60.56Zm2.67,46.22h5.43c.35,0,.63-.28.63-.63,0-.03,0-.05,0-.08l-3.39-37.76-3.38,37.76c0,.39.31.71.69.71,0,0,.01,0,.02,0"/><path id="Path_70" class="cls-1" d="m168.24,40.79c-.05-.49.3-.93.79-.98.06,0,.13,0,.19,0h5.17c.8.01,1.45.63,1.51,1.42l5.52,32.15,5.34-32.15c.18-.89.71-1.42,1.43-1.42h5.34c.71,0,1.16.44.89,1.42l-9.26,44.62v15.05c.02.67-.51,1.23-1.19,1.25-.02,0-.04,0-.06,0h-5.08c-.67.02-1.23-.52-1.25-1.19,0-.02,0-.04,0-.06v-15.05l-9.35-45.06Z"/></g></svg>